<svg id="Calque_1" data-name="Calque 1" xmlns="http://www.w3.org/2000/svg" viewBox="0 0 1808 2376"><defs><style>.cls-1{fill:none;stroke:#000;stroke-miterlimit:10;}</style></defs><title>Plan de travail 8</title><path class="cls-1" d="M604.14,630.16c100.34,23.71,203.47,66,261.81,151.24,49.63,72.56,59,164.35,84.89,248.44a634.91,634.91,0,0,0,150.61,254.49c24.88,25.63,52,49.21,74.29,77.14,77.07,96.54,30.1,222.21,35.85,345.78.4,8.52-1.36,19.85-9.79,21-10.34,1.42-13.49-13.5-13.1-24,2.86-75.88,21.44-140-18.21-204.67a2194.79,2194.79,0,0,0-197.33-272.46c-19.68-23.2-39.91-46.07-56.64-71.48-60.49-91.88-70.6-209-125-304.64-40-70.41-102-125.43-165.34-175.75-14.24-11.31-30.26-28.87-22-45.11Z"/><path class="cls-1" d="M662,368.18c18.28-15.48,42.38-21.75,65.64-27.32,63.41-15.17,132.38-28,191.87-1.25,12.36,5.55,23.94,12.68,36,18.8a246.7,246.7,0,0,0,133.24,25.53c19.87-1.82,39.62-6.07,59.56-5.38,17.77.61,35.23,5.15,51.92,11.31,61.58,22.74,114.34,68.66,145.48,126.62A276.61,276.61,0,0,1,1371.15,708a14.15,14.15,0,0,1-1.45,4.14c-3.64,6-13.78,3-16.83-3.33s-1.64-13.73-1.16-20.73c1.43-21-6.25-41.36-14.41-60.7-23.13-54.77-54.75-110.93-108.35-136.32-78.23-37.07-172.77,4.28-256.55-17.35-38.74-10-73.21-33.08-112.06-42.68-66-16.3-134.51,8.06-198.15,32.07-9,3.39-18.56,7.24-23.82,15.3-8.33-5.22-19.2-1.61-28,2.69s-18.57,9.33-28,6.5-13.54-18.57-4.33-22c17.13-6.35,30.21-20.56,40.38-35.78,14-21,24.26-45.36,43.53-61.68m318.74,60.17a9.69,9.69,0,0,0-3,3.86c-.52,1.56,0,3.59,1.53,4.19s3.49-1.31,2.57-2.67c-.68-1,.44-2.26,1.44-3Z"/><path class="cls-1" d="M1536.43,1038.66c1.77,70-22.08,143.15,3.81,208.15,7.46,18.71,19,36.37,20.72,56.44,2.78,31.71-19.13,59.73-40.43,83.33-15.28,16.94-32.11,37.52-27.3,59.86-7.68,4.43-18-1.41-21.53-9.55s-2.33-17.48-1-26.28q6.38-43.24,12.74-86.51c4.93-33.48-18.08-63.8-29.22-95.75-15.26-43.78-8.07-91.72-3.68-137.9s4.83-96.24-21.15-134.6c-8.62-12.74-19.79-23.54-31.51-33.48a361.49,361.49,0,0,0-175-80.75c-27-4.38-51.56-18.22-74-34C1074.26,755.16,1017,678.19,988.12,591.46c-2-5.91,3.93-12.11,10.11-12.72s12.06,2.61,17.26,6c52.8,34.74,83.36,100.37,142.12,123.55,22.92,9,48.52,10.75,70.35,22.18,14.84,7.77,27.22,19.68,42.14,27.3,16.58,8.47,35.37,11.19,53.45,15.63C1441.64,802.44,1533.36,916.7,1536.43,1038.66Z"/><path class="cls-1" d="M1046,1650.65c-1.79,14-8.52,26.84-13.67,40-19,48.57-16.7,102.55-14.11,154.67.47,9.43-3.09,18.54-6.59,27.31-8.51,21.32-17.24,43-31.75,60.76-4.11,5-9,9.91-15.29,11.46s-14.09-1.58-15.57-7.9c16.43-43.71,26-92.07,13.69-137.11-2.48-9.06-5.81-17.85-8.57-26.82a222,222,0,0,1,8.17-151.58c10.43-24.25,4.6-53.11-8.94-75.76s-33.89-40.28-54.17-57.13c-42.32-35.18-86.68-69.29-137.81-89.52-10.17-4-12.95-18.3-8-28.11s15-15.81,25-20.26,23-7.42,31,.12c11.59,10.94,27.77,15.08,42.27,21.66,17.88,8.11,33.62,20.23,48.78,32.73,35.06,28.89,68.18,60.65,94.44,97.78s45.49,80,50.77,125.17C1046.48,1635.6,1047,1643.18,1046,1650.65Z"/><path class="cls-1" d="M1269.53,1259.9l-22.26-26.3c-5.89-7-11.82-14-18.81-19.81-16.93-14.16-39.1-20.76-56.19-34.73-11.18-9.15-20-21.35-32.81-28.11-3.51-1.86-7.26-3.29-10.53-5.55-11.24-7.78-15.15-24.33-27.78-29.56-4.48-1.86-5-8.44-2.51-12.62s6.88-6.77,10.56-9.94,7-7.81,5.92-12.56c51.78,5.23,104,21.85,142.9,56.49,21.82,19.4,38.75,43.74,53.2,69.15,18.25,32.08,33.07,67,36,103.84,1.23,15.66.36,31.89,6,46.53,4.17,10.75,2.6,22.73,1.89,34.23a215.71,215.71,0,0,0,5.65,64c2.2,9.07,4,20.89-4,25.72-9.24-.38-16.32-8.76-19.41-17.5s-3.4-18.23-6-27.14c-3,1.66-5.55-2.9-6-6.33,3-.15,3.59-4.7,1.78-7.09s-4.81-3.56-6.88-5.72c-3.27-3.44-3.63-8.63-4.09-13.36a117.71,117.71,0,0,0-11.08-39.54c-4.26-8.83-9.78-18.51-6.71-27.82q-8.77-28.05-17.57-56.09a44.19,44.19,0,0,0-11.25-20.24Z"/><path class="cls-1" d="M1726.36,1158.79c-16.9-8.73-16.94-32.22-18.95-51.19-5.45-51.32-41-93.37-65.4-138.82a340.21,340.21,0,0,1-35.11-216.52c4.74-27.53,12.93-55.35,8.49-82.93-8.35-52-57-85.54-97.38-119.11A569.61,569.61,0,0,1,1381.72,384c-27.82-51.38-53.71-112.7-109-131.19-42.9-14.35-89.13,2.7-134.16,6.94-75,7.05-148.22-21.92-218-50.36-60.64-24.7-129.09,11.1-177.64,55.14S652.2,363.3,591.52,387.89c-52.75,21.38-116.65,18.54-159.74,55.82-2.69-19,12.13-35.71,26.91-47.9,77.77-64.13,188.36-92.56,239.61-179.51,22.85-38.77,38.49-92.07,82.61-100.34,32.34-6.06,64.16,17.3,96.89,13.91,18.57-1.93,35.05-12.24,52.44-19.05s38.79-9.6,53.39,2.07c42.44,33.92,88.41,69.29,142.51,73.45,35.66,2.75,70.72-8.56,106.16-13.34s75.59-1.35,100.32,24.56c.44.46.87.93,1.3,1.39l62,35.42c26.55,15.16,56.89,37.17,54,67.68-1,10-2.69,24.56,7.23,25.9l7,58.23c6,0-2.68-10.07-5.73-4.87s2,11.31,6.53,15.22l155.9,133.85c36.34,31.2,76,70.06,72.15,117.9-2.28,28.12,22.59,51.67,25.63,79.72,4.1,37.93-31.89,69.26-35.68,107.22-2.22,22.21,6.84,43.76,14.47,64.73a556.32,556.32,0,0,1,29,258.84M1043.77,157.13c1.54-.33.87-2.74-.33-3.76a12.61,12.61,0,0,0-10.94-2.68,24.44,24.44,0,0,0,10.16,6.3,2.23,2.23,0,0,0,1.11.14m158.59,30c-5.82,6.37-18.56-.84-24.24,5.65,3.78.43,7.49,1.43,11.29,1.54,5.88.16,11.58-1.84,17.13-3.81l14.6-5.18,8.4-3a20.8,20.8,0,0,0-20.84,3.46c-1.7,1.45-4.84-.32-6.34,1.33m480,727.64q2,7,4,14.08a17.41,17.41,0,0,0-3.34-17.35c-1.15.43-1,2.08-.69,3.27m-302-681.46a6.37,6.37,0,0,0,2.84,1.1c.61,0,1.35-.22,1.48-.82a20.22,20.22,0,0,0-13.92-7.44,59.91,59.91,0,0,0,9.6,7.16m-140-57.13a11.08,11.08,0,0,0-5.45.42,9.51,9.51,0,0,0,3.61,3.07c1.48.56,3.48.14,4.12-1.32s-1.12-3.46-2.47-2.62m19.62,3.15-2.69-1.9c-1-.68-2.25-1.38-3.24-.73-1.2.79-.52,2.89.82,3.42s2.84,0,4.19-.48m430.05,753.88a5.38,5.38,0,0,0,2.56,5.92c1.84-2.18.25-6.19-2.58-6.51m8.39,28a4.45,4.45,0,0,0,3.28,4.12,34.86,34.86,0,0,0-2.3-8.56,5.07,5.07,0,0,0-.8,4.38m-256.54-678a10.45,10.45,0,0,0-2.49-6.93,4.66,4.66,0,0,0,1.9,6.68m244.56,507.88c1.41-.6,1.21-3.08-.25-3.56a2.31,2.31,0,0,0-2.75,2.63,2.69,2.69,0,0,0,3.64,1.7M1398.11,242.17c.17,2.44,4,3.54,5.42,1.56a48.13,48.13,0,0,0-5-2.2m24.63,46a1.86,1.86,0,1,0-2.53-2.54l2.55,2.57m-239.64-56.75a1.51,1.51,0,1,0,2.9.73l-2.39-.79m526.18,823.29c-.73,0-.75,1.4,0,1.46s.71-1.44,0-1.47m-36.84-170.68c0-.74-1.4-.76-1.45,0s1.43.72,1.46,0m-217.7-520.18c-.73,0-.76,1.41,0,1.46s.71-1.44,0-1.46m-99-149.16c-.74,0-.76,1.41,0,1.47s.72-1.44,0-1.47m-5.12-3.68c.73,0,.76-1.4,0-1.46s-.71,1.44,0,1.47M1688,779.49c.73,0,.76-1.4,0-1.46s-.71,1.44,0,1.47Z"/><path class="cls-1" d="M425.75,2137.88c-3.4,5-7.7,10.55-13.72,10.66-10.77.19-13.14-15.43-10.09-25.8,14.87-50.71,65.82-83.82,83-133.79,5.08-14.78,13.56-28.15,22.78-40.74a352.41,352.41,0,0,1,52-56.77c12.38-10.84,25.57-20.86,36.44-33.22,10.15-11.55,18.07-24.9,25-38.61,16.9-33.27,28.73-70.72,23.58-107.7s-30.66-72.8-66.94-81.12c-45.91-10.54-90.41,23.41-137.45,25.68a333.5,333.5,0,0,0-59.42,8.28c-14.71,3.41-29.51,8-41.71,16.92-16.09,11.78-26.17,30-34.19,48.32a360.71,360.71,0,0,0-24.46,207.18c1.21,6.69,2.54,13.91-.4,20s-12.25,9.4-16.59,4.17c-1.46-1.75-2-4.05-2.59-6.27a508.32,508.32,0,0,1,2.16-246.2c6.44-24.74,15.2-49.76,32.39-68.64,14.07-15.45,32.77-25.69,51.11-35.65l60.5-32.86c10.72-5.82,21.52-11.68,33.14-15.4a98.65,98.65,0,0,1,65.57,2.06c23.91,9.37,50.7,3.35,75.84-1.86,8.08-1.68,16.23-3.27,24.48-3.43,32.89-.64,62.51,21.74,81.12,48.95a162.91,162.91,0,0,1,28.25,83.23c1.68,33.45-7.31,66.62-19.72,97.71a448.16,448.16,0,0,1-57.18,102.06c-30,40.12-66.42,74.85-100.46,111.56A1207.66,1207.66,0,0,0,425.75,2137.88Z"/><path class="cls-1" d="M554.52,1076.23a213.64,213.64,0,0,1,63.94-40.81c6.19-2.53,12.55-4.79,19.18-5.65,10.62-1.37,21.34.9,31.81,3.16l22.89,4.94a189.72,189.72,0,0,1,79.11,52.46c7.14,8,13.59,16.5,20,25,6.71,8.89,9.57,20,12.87,30.67a252.76,252.76,0,0,0,13.34,34.48,211.73,211.73,0,0,0,35.12,51.81c6,6.56,12.81,13.32,14.35,22.11s-5.57,19.5-14.25,17.54c-16.41-3.7-33-7.47-48-15.26-30.15-15.75-49.79-45.77-68.08-74.53l-14.36-22.57a136.59,136.59,0,0,0-77-57.5c-13.79-3.93-28.47-5.63-42.52-2.71-5.22,1.08-10.35,2.8-15.67,3-8.1.4-16.89-2.48-23.92,1.57a15.17,15.17,0,0,1-20.21-21.49A27.42,27.42,0,0,0,554.52,1076.23Z"/><path class="cls-1" d="M851,1741.84c-5.71,29.51-18.53,57.14-32.75,83.59-4.56,8.49-9.34,17.06-11.31,26.51-1.12,5.4-1.29,11-1.58,16.46a357.27,357.27,0,0,1-3.81,36.36c-1.22,7.76-2.71,15.55-5.79,22.77-5.24,12.28-14.69,22.17-24,31.76,2.43,4.88-.11,11.07-4.35,14.48s-9.73,4.72-15,5.94c-7,1.6-16.13,2.36-19.7-3.91-2.33-4.09-.94-9.19.28-13.73,10-37.25,5.28-77.71,18.39-114a672.52,672.52,0,0,0,20.16-66.35,123.13,123.13,0,0,0,3.36-17.42c1.72-17.22-3.17-34.75-.17-51.79,1.14-6.44,3.24-13.65-.39-19.08-7.05-10.53,4.4-26.09-2-37-.06-7.81,8.51-14.39,16-12.3,3.34.94,6.12,3.18,8.8,5.38l18.2,14.87c15.21,12.43,31.29,26.18,36.12,45.26C854.11,1720.12,853,1731.21,851,1741.84Z"/><path class="cls-1" d="M405.25,1359.21c-7.76,3.7-16,6.76-22.44,12.52-7.5,6.74-12.26,17-21.61,20.76,1.51,7.4-3.69,14.27-7.86,20.56-5.93,8.94-10.3,18.81-14.35,28.74a564.64,564.64,0,0,0-23.67,71.27,30.07,30.07,0,0,1-13.57,20.9c-3.46,2.17-8.85,3.17-10.94-.34-.92-1.55-.83-3.47-.7-5.26q4.47-64.77,8.95-129.52c1.41-20.29,3.35-42,16.18-57.76,10.89-13.37,27.8-20.06,44.2-25.27q19.67-6.25,39.82-10.72l13.35-8c7.88-4.75,15.83-9.57,22.42-16a113.61,113.61,0,0,0,11.67-14.1q28.33-38.48,53-79.53c3.89-6.48,15.29-5.74,18.31,1.18a19.64,19.64,0,0,1,1.2,7.51c1,51.51-24.13,102.86-65.38,133.53-7.86,5.83-16.22,10.94-24.57,16A267.8,267.8,0,0,1,405.25,1359.21Z"/><path class="cls-1" d="M415,1051.42c-7.79,9.4-15.59,18.8-22.94,28.55a391.81,391.81,0,0,0-23.21,34.42l-3.47,2.56-22.2,40.92c-3.11,5.73-6.3,12.43-4,18.52-9.56.81-10.65,18.92-20.23,18.43-6.18-.32-8.41-8.23-9-14.41q-.9-10-1.81-20.07a173.87,173.87,0,0,1-1-17.66c.29-25.58,11.69-49.58,23.58-72.21,27.09-51.59,59.32-102.65,107.11-135.82a214.45,214.45,0,0,1,54.23-27.16c16.14-5.38,35.6-8.24,48.74,2.6,3.49,2.88,6.41,6.94,6.44,11.48,0,7.32-6.93,12.41-13.06,16.36A461.33,461.33,0,0,0,477.61,981l-4.2,1a191.21,191.21,0,0,1-35,41.21Z"/><path class="cls-1" d="M335.59,2144.75c3.7,2.61,2.77,8.17,2.42,12.68s2.32,10.61,6.66,9.39c-1.07,13.16,3.2,26.08,5.33,39.11s1.63,27.77-7.2,37.56c-9,2.26-16-7.53-20.59-15.63a230.84,230.84,0,0,0-23.31-33.68,342.27,342.27,0,0,0-8.14,50.73,7.85,7.85,0,0,1-8.61-5.76,351.78,351.78,0,0,1-4.28-64.18c.24-9.82-9.89-16.12-18.41-20.95-36.64-20.75-67.73-53.44-80.61-93.62a138.9,138.9,0,0,1-6.53-37c-.51-13.09,2.85-29,15.21-33.22,8.39-2.86,17.79,1.25,24.14,7.46s10.5,14.27,15.48,21.62c15,22.1,37.44,37.7,58,54.71s40.41,37.3,46.77,63.26C332.58,2140,333.27,2143.11,335.59,2144.75Z"/><path class="cls-1" d="M503.92,2223.47c-7.61-3.46-17.5.25-24.32-4.59-5.09-3.62-6.36-10.73-5.76-17a41.71,41.71,0,0,1,14.89-28q3.76-9.9,8.38-19.45c1.53-3.16,3.84-6.74,7.34-6.68,3.93.07,6.69-4,7.56-7.85s.7-8,2.47-11.53c3.61-7.16,14.77-11.68,12.29-19.31,3,2,6.52-1.45,8.45-4.46l55-85.84c3.86-6,7.74-12.1,10.16-18.83a46.91,46.91,0,0,1,17.4-22.67c2-3.5,7.47-3.29,10.44-.6s4.06,6.84,5,10.74c2.22,9.14,4.44,18.38,4.49,27.78.06,14.73-5.2,28.88-10.4,42.66q-3.11,8.23-6.22,16.49A232,232,0,0,1,612,2096.2a83.32,83.32,0,0,1-10.68,16.7c-2.28,2.71-4.8,5.25-6.69,8.25a51.48,51.48,0,0,0-4.4,9.88,426.72,426.72,0,0,1-51.76,98.26,22,22,0,0,1-25,1.07C510.24,2228.19,507.52,2225.1,503.92,2223.47Z"/><path class="cls-1" d="M613.69,759.29c2.36,1.66,4.78,3.44,6.16,6,3.8,7-1.74,15.19-7,21.15-4.24,4.84-11.19,6.41-17.61,6.06s-12.62-2.31-19-3.34c-13.83-2.25-28,0-41.79,2.14-2.87.46-5.75.92-8.57,1.62-9.58,2.39-18.27,7.55-27.81,10.08a306.26,306.26,0,0,0-57.21,74c-2.87,5.21-10.92,5.68-15.45,1.84s-5.83-10.49-4.84-16.35,3.91-11.2,6.63-16.48c6.16-11.95,11.7-25.47,8.41-38.51-2.09-8.32-7.71-16.41-5.59-24.72.93-3.66,3.28-6.78,5.69-9.69A159.36,159.36,0,0,1,485.46,733c17.76-9.18,38.34-15,57.77-10.28a96.63,96.63,0,0,1,16.18,5.88A318.6,318.6,0,0,1,613.69,759.29Z"/><path class="cls-1" d="M176.68,1959.17c1.27,0,1.86,1.55,2.1,2.81l1.35,7.3c-1.53.74-3.44-.27-4.29-1.75a10.26,10.26,0,0,1-1-5C174.84,1961.14,175.24,1959.2,176.68,1959.17Z"/><path class="cls-1" d="M1314.5,601.73a4,4,0,0,1,4.51,6.4,13.88,13.88,0,0,1-4.68-5.8Z"/><path class="cls-1" d="M536,1476.56c-4.83-1-9.7-1.92-14.2-3.9-9.41-4.14-16.36-12.31-23-20.21-3.41-4.06-7-9.26-5.18-14.23,1.21-3.23,4.4-5.2,7.38-6.93l29.09-16.88,30-17.43c15.8-9.17,34.9-18.56,51.44-10.8,6.18,2.9,11.09,7.91,15.71,12.94a334.52,334.52,0,0,1,37.58,49.61c-4.36,11.46-17.88,18.54-29.75,15.57a66.21,66.21,0,0,0-52.29,9.16C569.48,1482.43,551.78,1479.67,536,1476.56Z"/><path class="cls-1" d="M177.57,1937.25c1.23.17,1.4,2.24.29,2.83a2.21,2.21,0,0,1-2.93-1.47,3.7,3.7,0,0,1,1.06-3.44l1.68,1.7Z"/><path class="cls-1" d="M180.16,1982.34a2.26,2.26,0,0,1-.84,2.58,4.37,4.37,0,0,1,0-5.24,2.19,2.19,0,0,1,.84,2.58Z"/><path class="cls-1" d="M179.44,1972.63l2.38.8c-.19,1.68-3.48.89-2.89-.69Z"/><path class="cls-1" d="M1226.32,1006.83c-1.53,5-8.1,5.86-13.32,5.79l-34.81-.47c-8.08-.11-16.27-.24-24-2.47-8.28-2.38-15.71-7.06-22.88-11.86-18.11-12.14-35.47-25.54-50.65-41.21a228.06,228.06,0,0,1-52.37-86.33,84.32,84.32,0,0,1-4.46-19.12c-.6-6.93,2-15.87,8.89-16.42,4.19-.34,7.91,2.86,10,6.49s3.22,7.81,5.3,11.47c2.65,4.64,6.76,8.22,10.8,11.71l48.71,42.11c8.64,7.47,17.33,15,27.09,20.88,26.86,16.26,60.09,19.45,86.74,36.06,3.76,2.34,7.61,5.26,8.87,9.53s-1.66,9.88-6.09,9.62c-4.8-.29-5.55,7.19-3,11.29S1227.74,1002.22,1226.32,1006.83Z"/><path class="cls-1" d="M1604.27,870.61c.74,0,.76,1.41,0,1.46s-.72-1.43,0-1.46Z"/><path class="cls-1" d="M499.41,620.06q-7.85,10.07-15.71,20.11c-10.81,13.84-21.77,28-28,44.37-2.29,6-4.22,12.78-9.44,16.56s-14.81,1.49-14.87-5l-.41-43c-.21-21-.5-42.5-8-62.07-3-7.9,1.92-16.48,7-23.21,19.89-26.18,45.21-47.62,70.3-68.83,2-1.71,4.16-3.47,6.75-4s5.72.73,6.38,3.29c6.15,23.92-23,44.29-22.07,69l26,2.33c2.59.23,5.34.52,7.4,2.12,6.48,5,.59,17.16,6.41,23-2.72,1.45-6.16-2.44-4.62-5.11-10.27,8.93-18.72,19.74-27.11,30.47m-31.33,20.61c1.69-.85.07-4.1-1.62-3.25s-.08,4.1,1.62,3.25m-8.5,8.65,2.56-2.57-2.59-2.59a4.26,4.26,0,0,0,0,5.22m6.88-25.9c.73,0,.76-1.41,0-1.46s-.71,1.44,0,1.46Z"/><path class="cls-1" d="M1410.5,775.36c0-.74,1.4-.76,1.46,0s-1.43.72-1.46,0Z"/><path class="cls-1" d="M527.29,1745.08c.26,9.59-5.51,19.37-2.2,28.38a150.28,150.28,0,0,1,8.9,42.06,77.19,77.19,0,0,1-.75,19A52.16,52.16,0,0,1,504,1871.87c-5.25,2.38-11.4,3.82-16.69,1.55s-8.66-8.07-9.62-13.87,0-11.72.95-17.53c2.55-15.85,4.74-32.31.41-47.77s-16.88-29.73-32.83-31c-3.29-.26-3.78-4.87-3.29-8.15q2.37-15.83,4.73-31.66a46.86,46.86,0,0,1,74.29,6.08C525,1734.2,527.14,1739.53,527.29,1745.08Z"/><path class="cls-1" d="M1689.74,441.75c-.73,0-.76-1.41,0-1.46s.71,1.44,0,1.46Z"/><path class="cls-1" d="M177.65,1950.71c.73,0,.76,1.4,0,1.46s-.71-1.44,0-1.47Z"/><path class="cls-1" d="M180.39,1969.55c.64-.6,1.79.6,1.17,1.22s-1.81-.53-1.22-1.17Z"/><path class="cls-1" d="M374.21,1995.59c-5.52.43-10-4.76-11.56-10.09s-1.07-11-2.07-16.52c-1.9-10.33-8.8-18.89-13.93-28-6.67-11.94-10.45-25.26-14.16-38.44-1.72-6.09-3.45-12.21-4.09-18.5-.88-8.55.26-17.17,1.4-25.69.5-3.76,1.07-7.69,3.31-10.75,4.12-5.62,12.7-6.2,18.94-3.12s10.62,8.88,14.63,14.58c10.34,14.68,19.79,30.2,25.62,47.2s7.89,35.65,3.36,53c-2.22,8.52-6,16.55-9.67,24.53C383.52,1989.08,380,1995.14,374.21,1995.59Z"/></svg>