<?xml version="1.0" encoding="utf-8"?>
<!-- Generator: Adobe Illustrator 22.1.0, SVG Export Plug-In . SVG Version: 6.00 Build 0)  -->
<svg version="1.1" id="Contours" xmlns="http://www.w3.org/2000/svg" xmlns:xlink="http://www.w3.org/1999/xlink" x="0px" y="0px"
	 viewBox="0 0 2635.8 2635.8" style="enable-background:new 0 0 2635.8 2635.8;" xml:space="preserve">
<path d="M1084.9,1142.7c93.1,21.9,188.8,61,242.9,139.8c46,67.1,54.8,152,78.8,229.7c27.2,88,75.5,169.3,139.7,235.3
	c23.1,23.7,48.2,45.5,68.9,71.3c71.5,89.3,79.9,211.9,85.2,326.2c0.4,7.9-1.3,18.4-9.1,19.4c-9.6,1.3-12.5-12.5-12.2-22.2
	c2.6-70.2-32.1-135.9-68.9-195.7c-54.5-88.5-115.7-172.8-183.1-251.9c-18.3-21.4-37-42.6-52.5-66.1c-56.1-85-65.5-193.3-116-281.7
	c-37.2-65.1-94.6-116-153.4-162.5C1092.2,1173.9,1077.3,1157.7,1084.9,1142.7L1084.9,1142.7z"/>
<path d="M1138.6,900.4c17-14.3,39.3-20.1,60.9-25.3c58.8-14,122.8-25.9,178-1.2c11.5,5.1,22.2,11.7,33.4,17.4
	c37.9,19.2,81.3,27.5,123.6,23.6c18.4-1.7,36.8-5.6,55.3-5c16.5,0.6,32.7,4.8,48.2,10.5c57.1,21,106.1,63.5,135,117.1
	c28.9,53.6,37.5,117.8,23.6,177.1c-0.3,1.3-0.6,2.7-1.3,3.8c-3.4,5.5-12.8,2.8-15.6-3.1c-2.8-5.8-1.5-12.7-1.1-19.2
	c1.3-19.4-5.8-38.2-13.4-56.1c-21.5-50.6-50.8-102.6-100.5-126c-72.6-34.3-160.3,4-238-16c-35.9-9.3-67.9-30.6-104-39.5
	c-61.3-15.1-124.8,7.5-183.8,29.6c-8.3,3.1-17.2,6.7-22.1,14.1c-7.7-4.8-17.8-1.5-26,2.5c-8.2,4-17.2,8.6-26,6
	c-8.7-2.6-12.6-17.2-4-20.3c15.9-5.9,28-19,37.5-33.1C1111.2,938,1120.7,915.5,1138.6,900.4 M1434.3,956.1c-1.1,1-2.3,2.1-2.8,3.6
	c-0.5,1.4,0,3.3,1.4,3.9c1.4,0.5,3.2-1.2,2.4-2.5c-0.6-0.9,0.4-2.1,1.3-2.7C1435.9,957.5,1435.1,956.8,1434.3,956.1z"/>
<path d="M1949.9,1520.4c1.6,64.7-20.5,132.4,3.5,192.5c6.9,17.3,17.6,33.6,19.2,52.2c2.6,29.3-17.8,55.2-37.5,77.1
	c-14.2,15.7-29.8,34.7-25.3,55.3c-7.1,4.1-16.7-1.3-20-8.8s-2.2-16.2-1-24.3c3.9-26.7,7.9-53.3,11.8-80c4.6-31-16.8-59-27.1-88.5
	c-14.2-40.5-7.5-84.8-3.4-127.5c4.1-42.7,4.5-89-19.6-124.5c-8-11.8-18.4-21.8-29.2-31c-46-38.9-102.8-65-162.4-74.7
	c-25.1-4-47.8-16.8-68.6-31.4c-69.2-48.5-122.3-119.7-149.2-199.9c-1.8-5.5,3.7-11.2,9.4-11.8c5.7-0.6,11.2,2.4,16,5.6
	c49,32.1,77.3,92.8,131.9,114.2c21.3,8.4,45,9.9,65.3,20.5c13.8,7.2,25.3,18.2,39.1,25.2c15.4,7.8,32.8,10.3,49.6,14.5
	C1862,1301.9,1947.1,1407.6,1949.9,1520.4z"/>
<path d="M1494.9,2086.2c-1.7,13-7.9,24.8-12.7,37c-17.6,44.9-15.5,94.8-13.1,143c0.4,8.7-2.9,17.1-6.1,25.2
	c-7.9,19.7-16,39.8-29.5,56.2c-3.8,4.6-8.3,9.2-14.2,10.6c-5.8,1.4-13.1-1.5-14.4-7.3c15.2-40.4,24.2-85.1,12.7-126.8
	c-2.3-8.4-5.4-16.5-8-24.8c-14.1-45.6-11.4-96.3,7.6-140.2c9.7-22.4,4.3-49.1-8.3-70.1c-12.6-20.9-31.4-37.2-50.3-52.8
	c-39.3-32.5-80.4-64.1-127.9-82.8c-9.4-3.7-12-16.9-7.5-26c4.6-9.1,13.9-14.6,23.2-18.7c9.3-4.1,21.3-6.9,28.7,0.1
	c10.8,10.1,25.8,13.9,39.2,20c16.6,7.5,31.2,18.7,45.3,30.3c32.5,26.7,63.3,56.1,87.6,90.4c24.4,34.3,42.2,73.9,47.1,115.7
	C1495.3,2072.3,1495.8,2079.3,1494.9,2086.2z"/>
<path d="M1702.3,1724.9c-6.9-8.1-13.8-16.2-20.6-24.3c-5.5-6.4-11-12.9-17.5-18.3c-15.7-13.1-36.3-19.2-52.1-32.1
	c-10.4-8.5-18.6-19.7-30.4-26c-3.3-1.7-6.7-3-9.8-5.1c-10.4-7.2-14.1-22.5-25.8-27.3c-4.2-1.7-4.6-7.8-2.3-11.7
	c2.3-3.9,6.4-6.3,9.8-9.2c3.4-2.9,6.5-7.2,5.5-11.6c48,4.8,96.4,20.2,132.6,52.2c20.2,17.9,36,40.4,49.4,63.9
	c16.9,29.7,30.7,62,33.4,96c1.1,14.5,0.3,29.5,5.6,43c3.9,9.9,2.4,21,1.7,31.6c-1.2,19.9,0.5,39.9,5.2,59.2c2,8.4,3.7,19.3-3.7,23.8
	c-8.6-0.4-15.1-8.1-18-16.2c-2.9-8.1-3.2-16.9-5.5-25.1c-2.8,1.5-5.1-2.7-5.6-5.8c2.8-0.1,3.3-4.4,1.7-6.6c-1.7-2.2-4.5-3.3-6.4-5.3
	c-3-3.2-3.4-8-3.8-12.4c-1.2-12.7-4.7-25.1-10.3-36.6c-3.9-8.2-9.1-17.1-6.2-25.7c-5.4-17.3-10.9-34.6-16.3-51.9
	c-1-3.2-2-6.4-3.6-9.4C1707.3,1730.8,1704.8,1727.9,1702.3,1724.9z"/>
<path d="M2126.1,1631.4c-15.7-8.1-15.7-29.8-17.6-47.3c-5.1-47.4-38.1-86.3-60.7-128.4c-32.6-60.6-44.3-132.3-32.6-200.2
	c4.4-25.5,12-51.2,7.9-76.7c-7.7-48-52.9-79.1-90.4-110.1c-51.4-42.6-94.6-95.1-126.4-153.7c-25.8-47.5-49.8-104.2-101.1-121.3
	c-39.8-13.3-82.7,2.5-124.5,6.4c-69.6,6.5-137.5-20.3-202.3-46.6c-56.3-22.8-119.8,10.3-164.8,51c-45,40.7-84.1,91.4-140.4,114.1
	c-48.9,19.8-108.2,17.1-148.2,51.6c-2.5-17.6,11.3-33,25-44.3c72.2-59.3,174.8-85.6,222.3-166c21.2-35.8,35.7-85.1,76.6-92.8
	c30-5.6,59.5,16,89.9,12.9c17.2-1.8,32.5-11.3,48.7-17.6c16.1-6.3,36-8.9,49.5,1.9c39.4,31.4,82,64.1,132.2,67.9
	c33.1,2.5,65.6-7.9,98.5-12.3c32.9-4.4,70.1-1.3,93.1,22.7c0.4,0.4,0.8,0.9,1.2,1.3c19.2,10.9,38.4,21.8,57.5,32.7
	c24.6,14,52.8,34.4,50.1,62.6c-0.9,9.2-2.5,22.7,6.7,23.9c2.2,17.9,4.3,35.9,6.5,53.8c5.6,0-2.5-9.3-5.3-4.5
	c-2.8,4.8,1.8,10.5,6.1,14.1c48.2,41.3,96.4,82.5,144.6,123.8c33.7,28.9,70.6,64.8,66.9,109c-2.1,26,21,47.8,23.8,73.7
	c3.8,35.1-29.6,64-33.1,99.1c-2.1,20.5,6.3,40.5,13.4,59.8C2127,1468.2,2136.3,1551,2126.1,1631.4 M1492.8,705.3
	c1.4-0.3,0.8-2.5-0.3-3.5c-2.7-2.4-6.6-3.3-10.2-2.5c2.6,2.7,5.9,4.7,9.4,5.8C1492.1,705.3,1492.5,705.4,1492.8,705.3 M1640,733
	c-5.4,5.9-17.2-0.8-22.5,5.2c3.5,0.4,6.9,1.3,10.5,1.4c5.5,0.1,10.8-1.7,15.9-3.5c4.5-1.6,9-3.2,13.5-4.8c2.6-0.9,5.2-1.8,7.8-2.8
	c-6.4-2.5-14.1-1.3-19.3,3.2C1644.3,733.1,1641.4,731.5,1640,733 M2085.3,1405.8c1.2,4.3,2.5,8.7,3.7,13c2-5.4,0.8-11.8-3.1-16
	C2084.9,1403.2,2085,1404.7,2085.3,1405.8 M1805.1,775.7c0.8,0.5,1.7,1,2.6,1c0.6,0,1.3-0.2,1.4-0.8c-3.1-3.9-7.9-6.5-12.9-6.9
	C1799,771.6,1801.9,773.8,1805.1,775.7 M1675.2,722.9c-1.7-0.3-3.4-0.2-5.1,0.4c1,1.1,2,2.3,3.3,2.8c1.4,0.5,3.2,0.1,3.8-1.2
	c0.6-1.4-1-3.2-2.3-2.4 M1693.3,725.4c-0.8-0.6-1.7-1.2-2.5-1.8c-0.9-0.6-2.1-1.3-3-0.7c-1.1,0.7-0.5,2.7,0.8,3.2
	c1.2,0.5,2.6,0,3.9-0.4 M2091.4,1422.7c-0.6,2.1,0.5,4.5,2.4,5.5c1.7-2,0.2-5.7-2.4-6 M2099.2,1448.1c0,1.7,1.3,3.4,3,3.8
	c-0.4-2.7-1.1-5.4-2.1-7.9c-0.9,1.1-1.1,2.7-0.7,4.1 M1861.3,821.2c0-2.3-0.8-4.6-2.3-6.4c-1.4,2-0.5,5.2,1.8,6.2 M2087.7,1290.6
	c1.3-0.6,1.1-2.8-0.2-3.3c-1.4-0.4-2.9,1-2.6,2.4c0.3,1.4,2.1,2.2,3.4,1.6 M1821.6,783.9c0.2,2.3,3.7,3.3,5,1.4
	c-1.5-0.8-3-1.4-4.6-2 M1844.8,825.9c0.9-0.5,1.1-2,0.4-2.7c-0.8-0.8-2.2-0.5-2.7,0.4C1843.3,824.3,1844.1,825.1,1844.8,825.9
	 M1622.5,773.4c-0.3,0.7,0.2,1.7,1,1.9c0.8,0.2,1.6-0.4,1.7-1.2c-0.7-0.2-1.5-0.5-2.2-0.7 M2111.2,1534.6c-0.7,0-0.7,1.3,0,1.4
	C2111.9,1535.9,2111.8,1534.6,2111.2,1534.6 M2077,1376.8c0-0.7-1.3-0.7-1.4,0C2075.7,1377.4,2077,1377.4,2077,1376.8 M1875,895.8
	c-0.7,0-0.7,1.3,0,1.4C1875.7,897.1,1875.6,895.8,1875,895.8 M1783.1,757.9c-0.7,0-0.7,1.3,0,1.4
	C1783.7,759.2,1783.7,757.9,1783.1,757.9 M1778.3,754.5c0.7,0,0.7-1.3,0-1.4C1777.6,753.1,1777.6,754.4,1778.3,754.5 M2090.5,1280.7
	c0.7,0,0.7-1.3,0-1.4C2089.9,1279.4,2089.9,1280.7,2090.5,1280.7L2090.5,1280.7z"/>
<path d="M919.4,2536.7c-3.2,4.6-7.1,9.7-12.7,9.9c-10,0.2-12.2-14.3-9.4-23.9c13.8-46.9,61.1-77.5,77-123.7
	c4.7-13.7,12.6-26,21.1-37.7c14.1-19.2,30.3-36.8,48.3-52.5c11.5-10,23.7-19.3,33.8-30.7c9.4-10.7,16.8-23,23.2-35.7
	c15.7-30.8,26.7-65.4,21.9-99.6c-4.8-34.2-28.4-67.3-62.1-75c-42.6-9.7-83.9,21.7-127.5,23.8c-18.6,0.9-37,3.5-55.1,7.6
	c-13.6,3.2-27.4,7.4-38.7,15.6c-14.9,10.9-24.3,27.8-31.7,44.7c-26.3,59.7-34.3,127.3-22.7,191.6c1.1,6.2,2.4,12.9-0.4,18.5
	c-2.7,5.7-11.4,8.7-15.4,3.9c-1.4-1.6-1.9-3.8-2.4-5.8c-18.1-74.5-17.4-153.5,2-227.6c6-22.9,14.1-46,30.1-63.5
	c13-14.3,30.4-23.8,47.4-33c18.7-10.1,37.4-20.3,56.1-30.4c9.9-5.4,20-10.8,30.7-14.2c19.7-6.3,41.6-5.6,60.8,1.9
	c22.2,8.7,47,3.1,70.4-1.7c7.5-1.6,15.1-3,22.7-3.2c30.5-0.6,58,20.1,75.3,45.3c15.5,22.6,24.8,49.5,26.2,77
	c1.6,30.9-6.8,61.6-18.3,90.3c-13.5,33.6-31.3,65.4-53.1,94.4c-27.8,37.1-61.6,69.2-93.2,103.2
	C985.8,2447,950.9,2490.7,919.4,2536.7z"/>
<path d="M1038.9,1555.1c17.3-16,37.5-28.8,59.3-37.7c5.7-2.3,11.6-4.4,17.8-5.2c9.9-1.3,19.8,0.8,29.5,2.9c7.1,1.5,14.2,3,21.2,4.6
	c28,9.6,53.6,26.5,73.4,48.5c6.6,7.4,12.6,15.3,18.6,23.2c6.2,8.2,8.9,18.5,11.9,28.4c3.4,10.9,7.4,21.6,12.4,31.9
	c8.4,17.5,19.4,33.7,32.6,47.9c5.6,6.1,11.9,12.3,13.3,20.4c1.4,8.1-5.2,18-13.2,16.2c-15.2-3.4-30.6-6.9-44.5-14.1
	c-28-14.6-46.2-42.3-63.2-68.9c-4.4-7-8.9-13.9-13.3-20.9c-16.3-25.6-42.3-44.9-71.5-53.2c-12.8-3.6-26.4-5.2-39.5-2.5
	c-4.8,1-9.6,2.6-14.5,2.8c-7.5,0.4-15.7-2.3-22.2,1.4c-5.4,3.1-12.9,2-17.2-2.5c-4.3-4.5-5-12.1-1.5-17.3
	C1032.3,1559.9,1035.9,1557.8,1038.9,1555.1z"/>
<path d="M1313.9,2170.5c-5.3,27.3-17.2,52.8-30.4,77.3c-4.2,7.9-8.7,15.8-10.5,24.5c-1,5-1.2,10.1-1.5,15.2
	c-0.6,11.3-1.8,22.5-3.5,33.6c-1.1,7.2-2.5,14.4-5.4,21.1c-4.9,11.4-13.6,20.5-22.2,29.4c2.3,4.5-0.1,10.2-4,13.4s-9,4.4-13.9,5.5
	c-6.5,1.5-15,2.2-18.3-3.6c-2.2-3.8-0.9-8.5,0.3-12.7c9.3-34.4,4.9-71.9,17.1-105.4c7.3-20.1,13.5-40.6,18.7-61.3
	c1.3-5.3,2.6-10.7,3.1-16.1c1.6-15.9-2.9-32.1-0.2-47.9c1.1-6,3-12.6-0.4-17.6c-6.5-9.7,4.1-24.1-1.8-34.3
	c-0.1-7.2,7.9-13.3,14.8-11.4c3.1,0.9,5.7,2.9,8.2,5c5.6,4.6,11.3,9.2,16.9,13.7c14.1,11.5,29,24.2,33.5,41.9
	C1316.9,2150.5,1315.9,2160.7,1313.9,2170.5z"/>
<path d="M900.4,1816.7c-7.2,3.4-14.9,6.3-20.8,11.6c-7,6.2-11.4,15.7-20,19.2c1.4,6.8-3.4,13.2-7.3,19c-5.5,8.3-9.5,17.4-13.3,26.6
	c-8.8,21.4-16.1,43.5-22,65.9c-1.1,7.9-5.9,15.1-12.6,19.3c-3.2,2-8.2,2.9-10.2-0.3c-0.9-1.4-0.8-3.2-0.6-4.9
	c2.8-39.9,5.5-79.8,8.3-119.8c1.3-18.8,3.1-38.8,15-53.4c10.1-12.4,25.8-18.5,41-23.4c12.2-3.9,24.5-7.2,36.9-9.9
	c4.1-2.5,8.3-5,12.4-7.4c7.3-4.4,14.7-8.8,20.8-14.8c4-3.9,7.5-8.5,10.8-13c17.5-23.7,33.9-48.3,49.1-73.5c3.6-6,14.2-5.3,17,1.1
	c0.9,2.2,1.1,4.6,1.1,6.9c0.9,47.6-22.4,95.1-60.7,123.5c-7.3,5.4-15,10.1-22.8,14.8C915.4,1808.7,908.1,1813.1,900.4,1816.7z"/>
<path d="M909.5,1532.2c-7.2,8.7-14.5,17.4-21.3,26.4c-7.7,10.2-14.9,20.8-21.5,31.8c-1.1,0.8-2.1,1.6-3.2,2.4
	c-6.9,12.6-13.7,25.2-20.6,37.8c-2.9,5.3-5.8,11.5-3.7,17.1c-8.9,0.8-9.9,17.5-18.8,17c-5.7-0.3-7.8-7.6-8.3-13.3
	c-0.6-6.2-1.1-12.4-1.7-18.6c-0.5-5.4-1-10.9-0.9-16.3c0.3-23.6,10.9-45.8,21.9-66.8c25.1-47.7,55-94.9,99.4-125.6
	c15.5-10.7,32.5-19.2,50.3-25.1c15-5,33-7.6,45.2,2.4c3.2,2.7,6,6.4,6,10.6c0,6.8-6.4,11.5-12.1,15.1
	c-18.5,11.9-36.1,25.2-52.6,39.8c-1.3,0.3-2.6,0.6-3.9,0.9c-8.9,14.2-19.9,27-32.5,38.1C924,1514.8,916.7,1523.5,909.5,1532.2z"/>
<path d="M835.8,2543.1c3.4,2.4,2.6,7.6,2.2,11.7c-0.3,4.2,2.2,9.8,6.2,8.7c-1,12.2,3,24.1,4.9,36.2c2,12,1.5,25.7-6.7,34.7
	c-8.4,2.1-14.8-7-19.1-14.5c-6.3-11-13.5-21.4-21.6-31.1c-3.7,15.4-6.2,31.1-7.5,46.9c-3.5,0.6-7.2-1.9-8-5.3
	c-3.1-19.6-4.5-39.5-4-59.3c0.2-9.1-9.2-14.9-17.1-19.4c-34-19.2-62.8-49.4-74.8-86.6c-3.6-11.1-5.6-22.6-6.1-34.2
	c-0.5-12.1,2.6-26.8,14.1-30.7c7.8-2.6,16.5,1.2,22.4,6.9c5.9,5.7,9.7,13.2,14.4,20c13.9,20.4,34.7,34.9,53.8,50.6
	c19.1,15.7,37.5,34.5,43.4,58.5C833,2538.7,833.6,2541.5,835.8,2543.1z"/>
<path d="M992,2615.8c-7.1-3.2-16.2,0.2-22.6-4.2c-4.7-3.3-5.9-9.9-5.3-15.7c1-10,6-19.5,13.8-25.9c2.3-6.1,4.9-12.1,7.8-18
	c1.4-2.9,3.6-6.2,6.8-6.2c3.6,0.1,6.2-3.7,7-7.3c0.8-3.6,0.6-7.4,2.3-10.7c3.3-6.6,13.7-10.8,11.4-17.9c2.8,1.8,6.1-1.3,7.8-4.1
	c17-26.5,34-52.9,51-79.4c3.6-5.6,7.2-11.2,9.4-17.4c3-8.4,8.8-15.9,16.2-21c1.8-3.2,6.9-3,9.7-0.6c2.8,2.5,3.8,6.3,4.6,9.9
	c2.1,8.4,4.1,17,4.2,25.7c0.1,13.6-4.8,26.7-9.6,39.4c-1.9,5.1-3.8,10.2-5.8,15.3c-2.6,6.8-5.2,13.6-8.4,20.1
	c-2.7,5.5-6,10.8-9.9,15.4c-2.1,2.5-4.4,4.9-6.2,7.6c-1.8,2.8-2.9,6-4.1,9.1c-11.9,32.2-28.1,62.8-48,90.9c-6.5,5.1-16.3,5.5-23.2,1
	C997.8,2620.2,995.3,2617.4,992,2615.8z"/>
<path d="M1093.8,1262.1c2.2,1.5,4.4,3.2,5.7,5.5c3.5,6.4-1.6,14-6.5,19.6c-3.9,4.5-10.4,5.9-16.3,5.6c-6-0.3-11.7-2.1-17.6-3.1
	c-12.8-2.1-25.9-0.1-38.8,2c-2.7,0.4-5.3,0.8-8,1.5c-8.9,2.2-17,7-25.8,9.3c-21.1,19.9-39,43.1-53.1,68.5
	c-2.7,4.8-10.1,5.2-14.3,1.7s-5.4-9.7-4.5-15.1s3.6-10.4,6.2-15.2c5.7-11,10.8-23.6,7.8-35.6c-1.9-7.7-7.2-15.2-5.2-22.9
	c0.9-3.4,3.1-6.3,5.3-9c12.7-15.3,28.4-28,46.1-37.1c16.5-8.5,35.6-13.9,53.6-9.5c5.2,1.3,10.1,3.3,15,5.4
	C1061.1,1241.5,1078,1251,1093.8,1262.1z"/>
<path d="M688.3,2371.5c1.2,0,1.7,1.4,1.9,2.6c0.4,2.3,0.8,4.5,1.3,6.8c-1.4,0.7-3.2-0.3-4-1.6s-0.9-3-0.9-4.6
	C686.6,2373.3,687,2371.5,688.3,2371.5z"/>
<path d="M1744,1116.4c1.5-0.6,3.4,0,4.4,1.3c1,1.3,0.9,3.3-0.2,4.6c-1.9-1.3-3.4-3.2-4.3-5.4L1744,1116.4z"/>
<path d="M1021.7,1925.2c-4.5-0.9-9-1.8-13.2-3.6c-8.7-3.8-15.2-11.4-21.3-18.7c-3.2-3.8-6.5-8.6-4.8-13.2c1.1-3,4.1-4.8,6.8-6.4
	c9-5.2,18-10.4,27-15.6c9.3-5.4,18.6-10.7,27.9-16.1c14.7-8.5,32.4-17.2,47.7-10c5.7,2.7,10.3,7.3,14.6,12
	c13,14.2,24.7,29.5,34.9,45.9c-4,10.6-16.6,17.1-27.6,14.4c-16.4-4.1-34.5-0.9-48.5,8.5C1052.8,1930.7,1036.4,1928.1,1021.7,1925.2z
	"/>
<path d="M689.2,2351.2c1.1,0.2,1.3,2.1,0.3,2.6c-1,0.5-2.4-0.2-2.7-1.4c-0.3-1.1,0.2-2.3,1-3.2c0.5,0.5,1,1,1.6,1.6L689.2,2351.2z"
	/>
<path d="M691.6,2392.9c0.3,0.8,0,1.9-0.8,2.4c-1.1-1.4-1.1-3.5,0-4.8C691.5,2390.9,691.9,2392,691.6,2392.9L691.6,2392.9z"/>
<path d="M274.7,1897.5c1.4-0.3,1.8,1.8,1.5,3.2c-1.3,0.3-1.7-1.8-1.4-3.1L274.7,1897.5z"/>
<path d="M690.9,2383.9c0.7,0.2,1.5,0.5,2.2,0.7c-0.2,1.6-3.2,0.8-2.7-0.6L690.9,2383.9z"/>
<path d="M1662.2,1490.9c-1.4,4.6-7.5,5.4-12.4,5.4c-10.8-0.1-21.5-0.3-32.3-0.4c-7.5-0.1-15.1-0.2-22.3-2.3
	c-7.7-2.2-14.6-6.5-21.2-11c-16.8-11.2-32.9-23.6-47-38.1c-21.9-22.5-38.6-50-48.6-79.8c-1.9-5.8-3.6-11.6-4.1-17.7
	c-0.6-6.4,1.8-14.7,8.2-15.2c3.9-0.3,7.3,2.6,9.3,6c2,3.4,3,7.2,4.9,10.6c2.5,4.3,6.3,7.6,10,10.8c15.1,13,30.1,26,45.2,38.9
	c8,6.9,16.1,13.8,25.1,19.3c24.9,15,55.7,18,80.5,33.3c3.5,2.2,7.1,4.9,8.2,8.8c1.2,3.9-1.5,9.1-5.6,8.9c-4.5-0.3-5.1,6.7-2.8,10.4
	C1659.7,1482.8,1663.5,1486.7,1662.2,1490.9z"/>
<path d="M2012.9,1365c0.7,0,0.7,1.3,0,1.4C2012.2,1366.3,2012.2,1365,2012.9,1365L2012.9,1365z"/>
<path d="M987.8,1133.3c-4.9,6.2-9.7,12.4-14.6,18.6c-10,12.8-20.2,25.8-26,41c-2.1,5.6-3.9,11.8-8.8,15.3
	c-4.8,3.5-13.7,1.4-13.8-4.6c-0.1-13.3-0.3-26.5-0.4-39.8c-0.2-19.4-0.5-39.3-7.4-57.4c-2.8-7.3,1.8-15.2,6.5-21.5
	c18.5-24.2,41.9-44,65.2-63.6c1.9-1.6,3.9-3.2,6.3-3.7c2.4-0.5,5.3,0.7,5.9,3c5.7,22.1-21.4,41-20.5,63.8c8,0.7,16.1,1.4,24.1,2.2
	c2.4,0.2,5,0.5,6.9,2c6,4.6,0.6,15.9,5.9,21.2c-2.5,1.3-5.7-2.3-4.3-4.7C1003.4,1113.4,995.6,1123.4,987.8,1133.3 M958.7,1152.4
	c1.6-0.8,0.1-3.8-1.5-3C955.6,1150.2,957.1,1153.2,958.7,1152.4 M950.8,1160.4c0.8-0.8,1.6-1.6,2.4-2.4c-0.8-0.8-1.6-1.6-2.4-2.4
	C949.7,1156.9,949.7,1159.1,950.8,1160.4 M957.1,1136.5c0.7,0,0.7-1.3,0-1.4C956.5,1135.2,956.5,1136.5,957.1,1136.5L957.1,1136.5z"
	/>
<path d="M1833.1,1276.9c0-0.7,1.3-0.7,1.4,0C1834.4,1277.6,1833.1,1277.6,1833.1,1276.9L1833.1,1276.9z"/>
<path d="M1013.6,2173.5c0.2,8.9-5.1,17.9-2,26.2c4.6,12.5,7.4,25.6,8.3,38.9c0.4,5.9,0.4,11.8-0.7,17.6c-2.8,15-13.3,28.3-27.1,34.5
	c-4.9,2.2-10.6,3.5-15.5,1.4c-5-2.1-8-7.5-8.9-12.8c-0.9-5.4,0-10.8,0.9-16.2c2.4-14.7,4.4-29.9,0.4-44.2
	c-4-14.3-15.7-27.5-30.5-28.7c-3.1-0.2-3.5-4.5-3.1-7.5c1.5-9.8,2.9-19.5,4.4-29.3c8.9-9.9,22.6-15.3,35.9-14.2s25.9,8.6,33.1,19.8
	C1011.5,2163.5,1013.5,2168.4,1013.6,2173.5z"/>
<path d="M2092.2,968.5c-0.7,0-0.7-1.3,0-1.4C2092.8,967.1,2092.8,968.4,2092.2,968.5L2092.2,968.5z"/>
<path d="M689.2,2363.7c0.7,0,0.7,1.3,0,1.4C688.6,2365,688.6,2363.7,689.2,2363.7L689.2,2363.7z"/>
<path d="M274.6,1897.4c-0.6,0.5-1.7-0.6-1.1-1.1C274.1,1895.7,275.2,1896.7,274.6,1897.4L274.6,1897.4z"/>
<path d="M276.5,1900.8c0.6-0.5,1.7,0.6,1.1,1.1C277,1902.5,275.9,1901.4,276.5,1900.8L276.5,1900.8z"/>
<path d="M691.8,2381.1c0.6-0.5,1.7,0.6,1.1,1.1S691.2,2381.7,691.8,2381.1L691.8,2381.1z"/>
<path d="M871.6,2405.2c-5.1,0.4-9.3-4.4-10.7-9.3s-1-10.2-1.9-15.3c-1.8-9.6-8.2-17.5-12.9-25.9c-6.2-11-9.7-23.4-13.1-35.5
	c-1.6-5.6-3.2-11.3-3.8-17.1c-0.8-7.9,0.2-15.9,1.3-23.7c0.5-3.5,1-7.1,3.1-9.9c3.8-5.2,11.8-5.7,17.6-2.9
	c5.8,2.8,9.9,8.2,13.6,13.5c9.6,13.6,18.4,27.9,23.8,43.6c5.4,15.7,7.3,33,3.1,49c-2.1,7.9-5.5,15.3-9,22.7
	C880.2,2399.1,877,2404.7,871.6,2405.2z"/>
</svg>
