<svg id="Calque_1" data-name="Calque 1" xmlns="http://www.w3.org/2000/svg" viewBox="0 0 1620 1613"><defs><style>.cls-1{fill:none;stroke:#000;stroke-miterlimit:10;}</style></defs><title>Plan de travail 9</title><path class="cls-1" d="M590.44,865.62a1168.17,1168.17,0,0,0,258.32,365.7c14.53,13.87,32.31,28.35,52.22,25.59,13-1.81,29.86-9.34,36.55,1.94-21.64,17-53,16.8-78.54,6.56s-46.61-29-67-47.41Q664.8,1103.32,540.48,985.54c-11.68-11.06-23.35-22.16-34.24-34C482.67,925.92,463,897,443.33,868.27Q347.09,727.18,250.86,586.1C244,576,236.76,564.66,238.4,552.55c1.07-7.9,5.79-14.75,10.37-21.26q31.78-45.24,63.58-90.46c4.12-5.86,8.55-12,15.08-14.92s15.75-1.18,18.44,5.46C408.55,585.44,522.38,713.84,590.44,865.62Z"/><path class="cls-1" d="M771.15,817.68l-23.1-100.33c-7.7-33.42-15.41-66.94-19.14-101-3-27.23-3.4-54.67-3.81-82.07q-2.65-173.89-5.3-347.8c-.27-17.95,21.37-26.75,38.89-30.66l46.1-10.29c10-2.24,20.91-4.4,30.24-.1,11.69,5.38,16.9,18.95,20.19,31.4,12,45.55,13.17,93.27,11.35,140.34C862.5,422.71,844,527.26,838.22,632.75A1312.1,1312.1,0,0,0,934,1199.66l-29.66-12C831.6,1077.69,800.73,946.13,771.15,817.68Z"/><path class="cls-1" d="M1335.8,269.49A660.29,660.29,0,0,0,1285.45,318c-22,23.83-41.73,49.72-60.25,76.36-116,166.83-186.07,365-202.61,567.48-7.65,93.73-4.38,189.92-33.68,279.28-7.35-160.06-14.66-321.18,7.23-479.9a1319.61,1319.61,0,0,1,218.2-563.87c8.46-12.33,25.1-18.39,39.5-14.37s25.52,17.79,26.39,32.72a179.19,179.19,0,0,1,55.57,53.82m-107.47-74.7a9.06,9.06,0,0,0,11.39.92,6,6,0,0,0-11.72-.86m66.06,46.26c1.09-3-2.56-5.46-5.55-6.61-1.44,3.18,2.17,7.27,5.5,6.24m-187.92,348c2.79.31,4.54-4.09,2.31-5.78a4.86,4.86,0,0,0-2.11,5.1Z"/><path class="cls-1" d="M907,1284.76c8.09-1.15,16.1-3.49,24.25-3s16.86,4.52,19.61,12.21l-10.11,1.72a121.92,121.92,0,0,1-99.76,28.95c-24.43-4.06-46.91-15.52-69-26.83L408.23,1111c-42.51-21.82-90.12-32-133-53S192,1000.62,186.49,953.16a359.08,359.08,0,0,1,21.6-169.51c1.24-3.21,3-6.8,6.31-7.61,2.59-.63,5.22.69,7.55,2,187.73,104,310.89,294.39,481.54,424.56,49.2,37.52,105.7,71,167.56,72.2l-14.72,1.14A84,84,0,0,0,907,1284.76Z"/><path class="cls-1" d="M970.56,1209a13.55,13.55,0,0,0-12.45,2.35C916.9,1086.7,881.67,958.15,880.89,826.9c-.89-149.34,42.68-294.77,74.33-440.71,5.39-24.89,10.47-50,11.35-75.44.73-20.84-1.36-41.68-1.37-62.53a313.75,313.75,0,0,1,23-117.83c2-4.84,4.19-9.81,8.16-13.21,4.36-3.75,10.26-5.09,15.94-6,45.81-7.27,94.59,7.3,128.9,38.49,5.71,14.81,2.27,31.41-1.76,46.75-40.68,155.12-133.18,293-172.13,448.57-45.9,183.35-14.23,375.75,3.23,564m60.5-747.51a7.38,7.38,0,0,0-1-9.24,10.92,10.92,0,0,0-2.59,8.61,4.8,4.8,0,0,0,3.76.7M893.35,719.14c1,2,4.61,1.38,5-.79-1.16-1.4-2.67-2.93-4.47-2.68s-2.19,3.65-.37,3.55m167.23-605.3a6.21,6.21,0,0,0,5.93.08c-1.92-1.88-6.45-2.63-6.05,0m32.09,195c-2.12-1.2-4.32,3-2.12,4l2.25-3.66Z"/><path class="cls-1" d="M1207.47,1209.67a229.86,229.86,0,0,1-89.77,60.66L1259.84,1108c15.42-17.6,31.93-35.94,54.14-43.28q-6.92,42-15.58,83.7c-2.67,12.86-15,21-26.21,27.83l-48,28.91C1219.11,1208.28,1213.16,1211.48,1207.47,1209.67Z"/><path class="cls-1" d="M846.9,1390.91c15.28-4.62,31.4-9.76,42-21.74l1.48,7.62a11.2,11.2,0,0,1,10,2.37L737,1475.58c-4.93,2.91-12.07,5.48-15.61,1a94.55,94.55,0,0,0-51.27-33c-11.22-2.77-24.15-4.15-31.19-13.31,4.81-9.34,17.92-9.21,28.39-8.4C728.23,1426.49,788.39,1408.61,846.9,1390.91Z"/><path class="cls-1" d="M734.07,1064.47c-32.26-48.8-64.26-98.29-86.19-152.53C636,882.57,627.2,852.06,616.59,822.2c-18.24-51.31-41.75-100.56-63.31-150.57A2133.61,2133.61,0,0,1,447.4,363c-2.42-9.33-4.72-19.57-.68-28.33,22.08-48,65.47-85.66,116.06-100.81l20.76,109.2C633,603.17,683.89,867.66,807.26,1101.88c17.5,33.23,37.64,67,69.48,87,22.71,14.22,52.76,23.22,61.73,48.47-45.59-6.53-86.83-31.89-120-63.88S759.46,1102.89,734.07,1064.47Z"/><path class="cls-1" d="M650,1349.11c14.63,6.94,31.31,7.73,47.48,8.4l48.16,2,.25,13.87c-24.33,12-52.18,14.23-79.24,16.21-16.69,1.23-33.48,2.46-50.12.75-4.35-.45-7.81,3.32-11.58,5.56s-10.39,1.49-10.37-2.89a125,125,0,0,0-3.78-31c.89-6.11-4.06-12.47-1.67-18.17,2.78-6.6,12.17-6.1,19.14-4.47Z"/><path class="cls-1" d="M679.3,1279.54a747.23,747.23,0,0,0,121.89,53.26c22.55,7.55,45.78,14.07,69.55,14.5s48.38-5.74,66.5-21.14c7.42-6.31,17.69-14.48,25.41-8.55-41.62,47.41-115.31,63.21-172.71,37-68.75-31.35-140-58-214.13-72.77s-151.31-17.27-225-.67c-20,4.51-36.12-15.8-46.58-33.46q-7.51-12.71-15-25.42c-2.82-4.76-5.38-11.55-1.18-15.16a11.74,11.74,0,0,1,4.43-2c91.11-26.9,188.61-.88,279.35,27.24,19.59,6.07,39.21,12.26,57.88,20.76C646.71,1260.9,662.85,1270.54,679.3,1279.54Z"/><path class="cls-1" d="M1456.57,494.73c.34,2.9.32,6.45-2.17,8-38.7,23.61-72.64,54.12-106.33,84.45-23.3,21-46.66,42-67.29,65.63-15.86,18.16-30,37.74-43.71,57.58-65.29,94.53-121.55,197.11-148.87,308.7-10.65,43.5-16.83,88-28.7,131.22s-30.06,85.77-61,118.13c48.25-82.11,45-183,57.59-277.43a783.8,783.8,0,0,1,20.67-102.24C1127.42,702.74,1245,541.63,1377.9,402c7.91-8.31,17.81-17.27,29.16-15.57,10.37,1.55,17.2,11.41,22.14,20.66a247.45,247.45,0,0,1,27.37,87.63m-15.06-25.58a5,5,0,0,0-4.51-4.69c-.29,2.31-.44,5,1.3,6.58s5.44-.48,4.13-2.41m6.24,23.71-4.08-.67a6.06,6.06,0,0,0,3.57,7.64c.21-2.22.43-4.44.64-6.66m-402.45,664.23c1.7.37,4.41-.54,3.51-2-1.06-2.11-5,.35-3.6,2.23Z"/><path class="cls-1" d="M1275,988.46a33.88,33.88,0,0,0,18.94,19.26c2.27.9.83,4.33-.89,6.06l-28,28.31L1200.88,1107c-3,3.07-8.48,6-11,2.55-2.36-3.28,1.44-7.33,4.39-10.08,14-13.13,14.28-35.55,25.25-51.34,5.62-8.1,14-14.35,17.93-23.4a90.14,90.14,0,0,1,28.29-36C1268.61,986.53,1273.7,985.09,1275,988.46Z"/><path class="cls-1" d="M1066.38,1207.88c20-38.17,27.2-81.51,39-123a552,552,0,0,1,56.9-131.34c39.45-66,92.14-122.83,144.42-179.16q25.63-27.61,51.28-55.24c29.41-31.69,59.18-63.68,95-87.82,2-1.35,4.21-2.72,6.62-2.64,2.71.1,5,2,7,3.83a553.92,553.92,0,0,1,42.22,42.55c3.47,3.89,7.11,8.46,6.66,13.66-.39,4.47-3.71,8.07-6.89,11.24-94,94-218.7,159.25-289.59,271.66C1172.7,1045.23,1153.57,1133,1110,1208.3a412.37,412.37,0,0,1-29.37,44c-8.18,10.7-17.09,21.19-28.57,28.24s-26,10.26-38.64,5.56q11.23-15.64,22.46-31.3c10.88-15.17,21.81-30.4,30.48-46.94m17.84,21.77c1.28-.9,0-3.41-1.46-2.92a20.51,20.51,0,0,0-5.34,7,6.37,6.37,0,0,0,6.49-4.17m-28.49,27.47c-3.33-.86-6.83,3.92-4.24,6.17l6-5.42m145.12-352.51c1.71-1,.75-4.32-1.26-4.27-1.67,1.2-.65,4.43,1.4,4.47m-158.31,364.36,3.06-3.06c-1.93-1.7-5.31,1.67-3.62,3.6Z"/></svg>