<?xml version="1.0" encoding="utf-8"?><!DOCTYPE svg PUBLIC "-//W3C//DTD SVG 1.1//EN" "http://www.w3.org/Graphics/SVG/1.1/DTD/svg11.dtd"><svg version="1.1" id="Contours" xmlns="http://www.w3.org/2000/svg" xmlns:xlink="http://www.w3.org/1999/xlink" x="0px" y="0px" width="878.786133px" height="878.786133px" viewBox="-0.000000 -0.000000 878.786133 904.007507" enable-background="new 0 0 878.786133 878.786133" xml:space="preserve" stroke="black" fill="none" stroke-linecap='round' stroke-linejoin='round'><path class="selected"  fill="#000000" opacity="1.000000" stroke="none" 
 	d="
M268.149020 499.158247 C308.706231 589.603897 366.960528 672.073618 438.647372 740.530169 C448.238754 749.689351 459.977026 759.241578 473.113318 757.418651 C481.690436 756.228403 492.825562 751.255665 497.242234 758.703931 C482.953434 769.919726 462.259603 769.788076 445.398110 763.031310 C428.536617 756.274543 414.636492 743.909309 401.148172 731.742589 C345.201893 681.277957 289.872424 630.129516 235.176300 578.312540 C227.467694 571.009707 219.764887 563.686729 212.576071 555.871686 C197.016524 538.956729 184.005419 519.894513 171.054161 500.908197 C128.707941 438.829376 86.361720 376.750555 44.015499 314.671734 C39.469979 308.008082 34.713156 300.515040 35.796900 292.521823 C36.503113 287.313113 39.615498 282.791577 42.638207 278.491271 C56.627526 258.589137 70.616845 238.687003 84.606163 218.784869 C87.324049 214.918224 90.247321 210.877503 94.558065 208.939638 C98.868810 207.001773 104.948308 208.162177 106.729100 212.540147 C148.094380 314.234171 223.229161 398.983564 268.149019 499.158247 z"/><path class="selected"  fill="#000000" opacity="1.000000" stroke="none" 
 	d="
M387.424287 467.519497 C382.341518 445.445539 377.258750 423.371581 372.175981 401.297623 C367.096628 379.238509 362.006706 357.117973 359.545036 334.615873 C357.578541 316.640185 357.301466 298.527627 357.026291 280.446789 C355.861734 203.927461 354.697176 127.408133 353.532617 50.888806 C353.352296 39.040139 367.637232 33.234581 379.202459 30.652151 C389.343949 28.387636 399.485438 26.123118 409.626926 23.858600 C416.243299 22.381215 423.426541 20.955260 429.583726 23.792183 C437.301961 27.348360 440.742559 36.299694 442.911597 44.516313 C450.848279 74.581571 451.601908 106.077796 450.404558 137.149921 C447.719567 206.827483 435.489991 275.832122 431.691708 345.457870 C424.744614 472.803983 446.499642 601.634237 494.877913 719.637786 C488.351539 716.995067 481.825164 714.352347 475.298790 711.709628 C427.325757 639.130778 406.946275 552.301532 387.424291 467.519497 z"/><path class="selected"  fill="#000000" opacity="1.000000" stroke="none" 
 	d="
M760.110681 105.697855 C748.532357 115.830478 737.318426 126.398046 726.873847 137.695762 C712.336051 153.421039 699.335880 170.509850 687.111275 188.093675 C610.556830 298.209301 564.300582 428.983660 553.383435 562.650597 C548.330769 624.514221 550.492840 687.998984 531.149756 746.977646 C526.298904 641.339155 521.477195 534.994181 535.923320 430.235741 C554.259348 297.269034 603.996050 168.736383 679.939142 58.061174 C685.523650 49.922628 696.505716 45.927345 706.014260 48.575029 C715.522805 51.222713 722.859506 60.318915 723.434054 70.172469 C738.050482 79.155827 750.665899 91.375257 760.110681 105.697854 M689.178073 56.395470 C691.105077 58.339536 694.481187 58.610415 696.693504 56.998463 C696.449530 55.215251 694.848984 53.713034 693.053907 53.582459 C691.258830 53.451883 689.457738 54.706663 688.958275 56.435792 M732.562023 86.968487 C733.277154 84.975079 730.872355 83.361650 728.896393 82.599638 C727.946846 84.699179 730.325597 87.399270 732.528074 86.721915 M608.493996 316.425009 C610.332060 316.628336 611.489791 313.725811 610.016373 312.608286 C608.915343 313.292848 608.328988 314.713555 608.626693 315.975406 z"/><path class="selected"  fill="#000000" opacity="1.000000" stroke="none" 
 	d="
M477.058012 775.802006 C482.393418 775.044939 487.681251 773.498999 493.062252 773.789746 C498.443252 774.080494 504.186903 776.777172 506.001743 781.851230 C503.778582 782.228379 501.555422 782.605527 499.332262 782.982674 C481.717792 798.742452 456.800179 805.975138 433.485159 802.095720 C417.360426 799.412701 402.522697 791.846881 387.980648 784.381334 C307.948250 743.294583 227.915853 702.207831 147.883456 661.121079 C119.831096 646.719657 88.402735 639.969542 60.068941 626.130034 C31.735147 612.290525 5.142487 588.266086 1.532947 556.940264 C-2.812686 519.226162 2.124662 480.476676 15.788751 445.057321 C16.604941 442.941635 17.749898 440.566495 19.953779 440.032450 C21.663626 439.618122 23.395239 440.489302 24.934182 441.341885 C148.846415 509.990104 230.132662 635.648802 342.764819 721.560480 C375.236955 746.329037 412.530624 768.432778 453.363297 769.216261 C450.123200 769.466461 446.883101 769.716667 443.643001 769.966873 C453.802803 775.343256 465.677357 777.416863 477.058012 775.802006 z"/><path class="selected"  fill="#000000" opacity="1.000000" stroke="none" 
 	d="
M519.042437 725.773791 C516.275183 724.888458 513.078500 725.492747 510.825369 727.327117 C483.622050 645.078671 460.372302 560.228803 459.855975 473.599939 C459.268514 375.036269 488.026859 279.049594 508.912000 182.722271 C512.473581 166.295398 515.822575 149.726296 516.407847 132.927949 C516.887027 119.174601 515.507090 105.422931 515.503407 91.661238 C515.496294 65.082058 520.687022 38.511291 530.696605 13.888921 C531.996165 10.692160 533.459127 7.412087 536.078605 5.165652 C538.961915 2.692956 542.854369 1.806915 546.605889 1.212102 C576.836194 -3.580992 609.032177 6.035032 631.682187 26.621973 C635.450010 36.391173 633.175428 47.349330 630.519065 57.477385 C603.666086 159.861171 542.619233 250.866590 516.911174 353.543841 C486.610827 474.562553 507.518460 601.552868 519.042437 725.773791 M558.971220 232.397558 C560.231620 230.562697 559.936765 227.824929 558.314576 226.300520 C556.963947 227.828031 556.320937 229.957113 556.600241 231.976886 C557.316790 232.465822 558.241202 232.638441 559.085914 232.441046 M468.077526 402.477232 C468.760833 403.766772 471.123420 403.392717 471.374963 401.955168 C470.605079 401.033712 469.611162 400.020092 468.422667 400.191211 C467.234173 400.362329 466.977502 402.597622 468.176455 402.531955 M578.555861 3.014096 C579.734785 3.695145 581.267217 3.717885 582.465829 3.072116 C581.202126 1.825736 578.208880 1.330613 578.477091 3.085169 M599.654215 131.809406 C598.254828 131.012368 596.805957 133.774572 598.257183 134.472779 C598.752380 133.668574 599.247572 132.864367 599.742765 132.060160 z"/><path class="selected"  fill="#000000" opacity="1.000000" stroke="none" 
 	d="
M675.405088 726.245289 C659.222217 744.055529 638.716634 757.910030 616.154100 766.277942 C647.427819 730.573119 678.701538 694.868297 709.975257 659.163475 C720.150583 647.546430 731.044282 635.440074 745.708135 630.596071 C742.665240 649.079989 739.235773 667.500265 735.422735 685.840796 C733.658172 694.328264 725.547180 699.732561 718.122680 704.207782 C707.570214 710.568424 697.017749 716.929068 686.465284 723.289711 C683.090044 725.324184 679.162046 727.435506 675.405088 726.245296 z"/><path class="selected"  fill="#000000" opacity="1.000000" stroke="none" 
 	d="
M437.419245 845.868720 C447.509258 842.817331 458.144883 839.425642 465.116850 831.519251 C465.442263 833.194954 465.767676 834.870657 466.093090 836.546360 C468.363755 835.962991 470.905412 836.567153 472.670696 838.109883 C436.736231 859.322832 400.801767 880.535780 364.867303 901.748728 C361.613247 903.669672 356.896480 905.368941 354.557856 902.400819 C346.100789 891.667320 333.992356 883.865372 320.723348 880.599890 C313.316435 878.777060 304.778853 877.866822 300.133607 871.816470 C303.307597 865.651039 311.960837 865.740766 318.875030 866.270556 C359.097908 869.352615 398.805560 857.546144 437.419245 845.868720 z"/><path class="selected"  fill="#000000" opacity="1.000000" stroke="none" 
 	d="
M362.948990 630.408599 C341.658070 598.196410 320.536892 565.531175 306.065088 529.733196 C298.227025 510.344677 292.411902 490.207917 285.408345 470.502586 C273.370460 436.632584 257.855228 404.126043 243.622357 371.118269 C215.174314 305.143763 191.788919 236.986972 173.739522 167.444569 C172.139896 161.281381 170.625647 154.526649 173.288327 148.742721 C187.865691 117.077476 216.502421 92.204730 249.896562 82.203799 C254.462281 106.230354 259.028000 130.256909 263.593719 154.283464 C296.212950 325.938312 329.826596 500.503766 411.254712 655.096338 C422.808564 677.031510 436.103791 699.350625 457.117575 712.506010 C472.106927 721.889885 491.938869 727.833539 497.861082 744.496827 C467.771595 740.189554 440.552151 723.453404 418.692505 702.332673 C396.832860 681.211943 379.709430 655.766379 362.948990 630.408599 z"/><path class="selected"  fill="#000000" opacity="1.000000" stroke="none" 
 	d="
M307.467408 818.279443 C317.123174 822.855817 328.132512 823.378061 338.808673 823.821420 C349.402537 824.261360 359.996401 824.701301 370.590264 825.141242 C370.646416 828.191783 370.702567 831.242324 370.758719 834.292865 C354.701565 842.236326 336.320751 843.684505 318.454383 844.997385 C307.441575 845.806642 296.360821 846.615207 285.375851 845.489480 C282.502577 845.195029 280.220155 847.683634 277.737002 849.158880 C275.253848 850.634126 270.872882 850.141011 270.886585 847.252722 C270.919308 840.355649 270.080594 833.454900 268.396696 826.766465 C268.979707 822.729105 265.713481 818.531271 267.294300 814.770794 C269.124813 810.416338 275.325313 810.745318 279.924227 811.823305 C289.105288 813.975353 298.286348 816.127398 307.467408 818.279443 z"/><path class="selected"  fill="#000000" opacity="1.000000" stroke="none" 
 	d="
M326.799615 772.360980 C352.502567 786.435941 379.461850 798.215635 407.251864 807.514098 C422.134323 812.493729 437.466992 816.796427 453.157794 817.084623 C468.848597 817.372820 485.090831 813.291218 497.048907 803.128111 C501.948342 798.964106 508.722979 793.568883 513.821133 797.487071 C486.346191 828.775582 437.709433 839.202896 399.822769 821.927374 C354.447803 801.237344 307.402576 783.621998 258.491092 773.894118 C209.579608 764.166238 158.623713 762.495030 109.972932 773.452515 C96.758891 776.428678 86.131665 763.028028 79.232288 751.371827 C75.921971 745.779186 72.611653 740.186546 69.301336 734.593906 C67.440789 731.450592 65.755186 726.965398 68.525868 724.585194 C69.345589 723.881003 70.411708 723.547351 71.448118 723.241286 C131.580596 705.483486 195.939067 722.660193 255.829343 741.218456 C268.759963 745.225280 281.708129 749.313142 294.027956 754.923617 C305.292435 760.053485 315.943219 766.416007 326.799615 772.360980 z"/><path class="selected"  fill="#000000" opacity="1.000000" stroke="none" 
 	d="
M839.821646 254.360535 C840.044206 256.274601 840.034614 258.621484 838.389467 259.624816 C812.846676 275.202532 790.446549 295.342206 768.210437 315.358563 C752.829765 329.203835 737.407169 343.091423 723.794393 358.678243 C713.326677 370.663925 703.988320 383.588001 694.945138 396.681913 C651.854043 459.074890 614.717101 526.782838 596.683218 600.434078 C589.653653 629.143157 585.576570 658.542381 577.739794 687.041696 C569.903018 715.541011 557.899786 743.654547 537.464477 765.009269 C569.304667 710.818915 567.137034 644.197527 575.469911 581.900213 C578.514780 559.136505 583.076918 536.575868 589.116015 514.417643 C622.574300 391.654885 700.152658 285.314765 787.893547 193.164409 C793.119025 187.676322 799.648162 181.765386 807.142532 182.887493 C813.987274 183.912335 818.495607 190.415876 821.752021 196.522966 C831.311098 214.450095 837.475136 234.180055 839.821646 254.360535 M829.880320 237.475210 C829.841801 235.905446 828.472846 234.482245 826.905762 234.382784 C826.714561 235.909516 826.615443 237.700757 827.762090 238.726756 C828.908738 239.752755 831.351906 238.406088 830.488641 237.132414 M834.603463 252.785448 C833.706961 252.637806 832.810459 252.490165 831.913956 252.342523 C831.161635 254.274762 832.303498 256.721435 834.267688 257.385877 C834.409807 255.919768 834.551925 254.453659 834.694044 252.987550 M569.066467 691.397872 C570.182341 691.642078 571.974667 691.044950 571.380253 690.069509 C570.681883 688.682812 568.072613 690.302839 569.005690 691.543808 z"/><path class="selected"  fill="#000000" opacity="1.000000" stroke="none" 
 	d="
M719.959812 580.235013 C722.119829 585.960869 726.774285 590.695106 732.462606 592.952118 C733.957119 593.545110 733.005185 595.805882 731.874727 596.949242 C725.716798 603.177432 719.558873 609.405623 713.400947 615.633814 C699.285589 629.910237 685.170231 644.186660 671.054873 658.463083 C669.053179 660.487617 665.462040 662.455660 663.798100 660.145505 C662.240038 657.982347 664.747856 655.310510 666.695863 653.490598 C675.970880 644.825478 676.116836 630.031195 683.357854 619.606326 C687.071889 614.259242 692.611067 610.139048 695.193276 604.162631 C699.234427 594.809547 705.737485 586.533146 713.869074 580.394061 C715.762648 578.964474 719.122371 578.015095 719.959812 580.235013 z"/><path class="selected"  fill="#000000" opacity="1.000000" stroke="none" 
 	d="
M582.282232 725.063603 C595.493518 699.869654 600.235916 671.260727 608.058403 643.909642 C616.742309 613.546632 629.401627 584.323112 645.611345 557.220204 C671.648452 513.685744 706.425645 476.153325 740.935017 438.974253 C752.216415 426.820108 763.497813 414.665963 774.779212 402.511817 C794.194281 381.594768 813.838248 360.479813 837.517079 344.549313 C838.840907 343.658677 840.292170 342.750722 841.886658 342.808677 C843.677855 342.873783 845.172785 344.132631 846.502092 345.334948 C856.286691 354.184819 865.593648 363.562738 874.368944 373.414275 C876.659367 375.985605 879.057232 379.001669 878.761240 382.432437 C878.506394 385.386262 876.311399 387.757471 874.215126 389.854055 C812.192983 451.885354 729.867256 494.960360 683.075660 569.157224 C652.457291 617.708388 639.829618 675.653258 611.090380 725.339838 C605.257669 735.423870 598.777935 745.133596 591.704259 754.389475 C586.305682 761.453491 580.420696 768.377011 572.844978 773.030335 C565.269259 777.683660 555.679124 779.800763 547.345304 776.703604 C552.285740 769.817223 557.226177 762.930843 562.166613 756.044462 C569.350255 746.031320 576.559146 735.977540 582.282232 725.063603 M594.055910 739.427411 C594.904379 738.838746 594.077216 737.180958 593.096660 737.504897 C591.602366 738.770319 590.389868 740.366676 589.571774 742.145701 C591.394015 742.336952 593.269068 741.133408 593.854025 739.397042 M575.049417 757.527730 C572.853711 756.956990 570.541755 760.111781 572.252585 761.601725 C573.569657 760.409748 574.886732 759.217767 576.203807 758.025787 M671.987294 525.354250 C673.117156 524.659903 672.480388 522.504853 671.154594 522.536096 C670.055736 523.332255 670.726726 525.462674 672.083504 525.485419 M567.591375 765.975796 C568.263857 765.303515 568.936339 764.631233 569.608822 763.958952 C568.340455 762.836988 566.108757 765.058060 567.224655 766.331768 z"/></svg>