<?xml version="1.0" encoding="utf-8"?><!DOCTYPE svg PUBLIC "-//W3C//DTD SVG 1.1//EN" "http://www.w3.org/Graphics/SVG/1.1/DTD/svg11.dtd"><svg version="1.1" id="Contours" xmlns="http://www.w3.org/2000/svg" xmlns:xlink="http://www.w3.org/1999/xlink" x="0px" y="0px" width="875.969604px" height="875.969604px" viewBox="-0.000000 0.000000 875.969604 907.393738" enable-background="new 0 0 875.969604 875.969604" xml:space="preserve" stroke="black" fill="none" stroke-linecap='round' stroke-linejoin='round'><path class="selected"  fill="#000000" opacity="1.000000" stroke="none" 
 	d="
M323.479602 101.007683 C321.362354 97.041068 327.802305 93.116286 331.763937 95.242842 C335.725570 97.369399 337.261864 102.133210 339.003750 106.278401 C345.979939 122.879741 361.323582 135.011625 378.262860 141.121659 C395.202138 147.231694 413.657492 147.887662 431.606239 146.433650 C483.656840 142.217074 534.110961 120.279755 572.694081 85.089026 C577.194190 80.984585 584.284213 80.910339 589.890954 83.289807 C595.497695 85.669275 599.965526 90.058992 604.288566 94.349534 C611.418131 101.425514 618.547699 108.501490 625.677267 115.577467 C617.581592 132.320273 603.201100 145.155215 588.158186 156.090122 C552.575315 181.955814 511.151457 199.737232 467.890408 207.715725 C445.571473 211.831933 422.401541 213.339935 400.285620 208.244443 C378.169699 203.148951 357.105170 190.878026 344.700667 171.872598 C334.708440 156.563114 330.921508 138.147602 327.329687 120.222098 C326.046326 113.817293 324.762964 107.412488 323.479602 101.007683 z"/><path class="selected"  fill="#000000" opacity="1.000000" stroke="none" 
 	d="
M138.640084 268.536857 C135.511958 281.620325 123.316127 290.052084 113.276104 299.005309 C89.768042 319.968667 74.900634 349.029240 64.660131 378.815536 C24.211836 496.466493 52.972848 633.843469 132.794826 729.270216 C212.616804 824.696962 339.491382 876.970805 463.781248 871.508071 C570.569483 866.814562 671.212850 823.056163 769.408936 780.827205 C778.488889 776.922396 787.881979 772.957358 797.765877 772.916948 C777.277431 804.596898 742.902209 824.314749 708.734041 840.312622 C662.367602 862.021845 613.861015 879.157151 564.146681 891.389162 C539.803524 897.378697 515.143137 902.199691 490.220411 904.905529 C372.477026 917.688820 250.134674 880.745891 159.144229 804.932593 C68.153784 729.119295 9.736937 615.453544 1.059753 497.336552 C-2.547489 448.233493 2.483370 397.250539 25.026834 353.479374 C47.570297 309.708210 89.734925 274.229691 138.640080 268.536854 z"/><path class="selected"  fill="#000000" opacity="1.000000" stroke="none" 
 	d="
M370.465305 39.310997 C370.986106 36.496323 375.093969 36.776808 377.798583 37.714191 C406.376565 47.619083 438.039108 48.404215 467.072883 39.927921 C477.325938 36.934582 487.392062 32.794729 498.044087 32.007591 C508.696111 31.220453 520.484982 34.580439 526.315442 43.529793 C528.575513 46.998846 527.587977 51.825235 525.060788 55.104802 C522.533599 58.384369 518.781862 60.452812 515.109636 62.365142 C490.446666 75.208508 463.268499 85.375918 435.519360 83.587222 C407.770221 81.798526 379.544253 65.593822 370.465305 39.310997 z"/><path class="selected"  fill="#000000" opacity="1.000000" stroke="none" 
 	d="
M863.816542 558.370685 C862.599435 562.610774 858.354480 565.124711 854.444040 567.166319 C755.262498 618.948072 642.194997 639.953822 530.329947 642.084190 C514.374132 642.388055 498.403615 642.321872 482.469270 641.440393 C405.368465 637.175220 329.420033 613.459348 263.592214 573.093224 C253.688130 567.019969 243.995884 560.567410 234.940474 553.289028 C194.887686 521.096172 168.498578 472.430308 163.369369 421.300111 C158.240159 370.169914 174.436717 317.232000 207.296794 277.724771 C208.947220 275.740489 210.884218 273.651794 213.447699 273.352080 C216.011179 273.052366 218.835531 275.825596 217.564561 278.071903 C196.835490 314.708347 192.441634 359.893406 204.254356 400.296164 C216.067078 440.698922 243.614999 476.001768 279.118217 498.616914 C292.413900 507.086115 306.733427 513.831156 321.262378 519.947703 C486.117052 589.349926 685.839939 574.108770 834.035771 473.950259 C845.158914 498.346931 854.772885 523.431564 862.804464 549.013113 C863.758575 552.052070 864.695361 555.309105 863.816543 558.370685 z"/><path class="selected"  fill="#000000" opacity="1.000000" stroke="none" 
 	d="
M171.323852 279.468043 C155.170118 299.306286 147.864290 324.697958 140.944509 349.327526 C125.580082 404.014064 110.111297 461.480780 122.647747 516.884032 C132.634892 561.020985 159.971634 599.862228 193.770132 629.953337 C227.568631 660.044447 267.686165 682.125912 308.495957 701.680304 C326.406648 710.262376 344.590364 718.434743 363.604695 724.170557 C391.809844 732.678854 421.391748 735.688143 450.829862 736.836623 C598.309096 742.590284 747.268917 701.333590 870.773892 620.526720 C878.622945 628.233408 876.113238 641.243273 872.755854 651.718417 C867.330066 668.647001 861.156660 685.335946 854.259653 701.720310 C848.345743 715.769253 841.513925 730.104743 829.681861 739.714600 C823.304603 744.894128 815.780060 748.433491 808.296638 751.823967 C659.830512 819.088678 488.824028 847.174969 332.058486 802.551020 C273.036832 785.750266 216.320707 758.560317 170.114724 718.176807 C123.908740 677.793297 88.679320 623.631039 76.332153 563.519739 C68.282153 524.328890 70.008674 483.524686 77.980365 444.317836 C90.162959 384.400675 117.003080 327.518605 155.505034 280.020382 C157.860903 277.114047 160.558652 274.058665 164.233116 273.354951 C167.907581 272.651238 172.366315 275.874970 171.323851 279.468043 z"/><path class="selected"  fill="#000000" opacity="1.000000" stroke="none" 
 	d="
M291.028230 199.164812 C307.513077 242.611257 352.715884 270.693791 398.817479 276.523603 C444.919074 282.353415 491.538269 269.026103 533.709925 249.509567 C575.567750 230.138269 614.538090 204.541535 648.942132 173.822053 C650.805778 172.157998 652.834365 170.396327 655.319181 170.135657 C658.635786 169.787739 661.542220 172.191549 663.981703 174.465275 C678.217887 187.734183 691.622568 201.895090 704.090999 216.837347 C705.607422 218.654638 707.179882 220.652165 707.334657 223.013971 C707.553540 226.354017 704.919810 229.122883 702.452961 231.385288 C628.606801 299.111354 525.569311 333.851862 425.791114 324.665636 C366.465171 319.203706 315.712574 276.677008 284.632057 225.849834 C281.508287 220.741412 278.438607 215.104216 278.963824 209.139482 C279.489042 203.174747 285.315045 197.372207 291.028229 199.164811 z"/><path class="selected"  fill="#000000" opacity="1.000000" stroke="none" 
 	d="
M408.350295 8.969508 C409.438155 8.079872 410.817199 7.644541 412.159515 7.228512 C417.492470 5.575649 422.826572 3.922449 428.210753 2.444970 C434.050581 0.842456 440.111537 -0.563068 446.115593 0.226200 C452.119649 1.015467 458.120433 4.431168 460.403127 10.040174 C460.795752 11.004927 461.065442 12.128810 460.605155 13.063176 C460.207411 13.870580 459.362098 14.340630 458.566342 14.761194 C451.637374 18.423219 444.635089 22.114465 437.064682 24.141770 C429.494275 26.169075 421.196053 26.416320 414.014590 23.278228 C411.187033 22.042669 408.473875 20.184813 407.073698 17.435052 C405.673520 14.685290 405.961611 10.922939 408.350292 8.969509 z"/><path class="selected"  fill="#000000" opacity="1.000000" stroke="none" 
 	d="
M253.644078 336.804022 C249.247708 328.541293 245.501216 319.870077 243.386414 310.752600 C240.199510 297.013011 240.802049 282.714894 241.422363 268.624192 C241.674095 262.905992 245.310484 254.947503 250.453553 257.459479 C252.803129 283.076915 267.702276 306.388594 287.227941 323.137378 C306.753606 339.886161 330.640281 350.736132 354.891086 359.319361 C486.247036 405.810939 633.709038 389.855473 763.713311 339.708276 C764.658188 339.343804 765.581376 340.241895 766.196616 341.046327 C781.091198 360.521203 794.280519 381.299800 805.564320 403.066636 C806.776690 405.405338 804.061247 407.787168 801.733617 409.020662 C752.145209 435.299316 698.319330 453.560808 642.977682 462.881746 C632.165791 464.702743 621.283444 466.186499 610.336274 466.796821 C597.016262 467.539432 583.661729 466.986339 570.333032 466.420644 C510.536242 463.882757 449.948740 460.956281 392.886882 442.899663 C335.825024 424.843044 281.757187 389.641037 253.644078 336.804022 z"/></svg>