<svg id="Calque_1" data-name="Calque 1" xmlns="http://www.w3.org/2000/svg" viewBox="0 0 1404 1521"><defs><style>.cls-1{fill:none;stroke:#000;stroke-miterlimit:10;}</style></defs><title>Plan de travail 11</title><path class="cls-1" d="M1276,1067c6.11,1.86,3.59,12.27-2.53,14.12s-12.45-1.4-18.37-3.82c-23.69-9.67-51.31-6.44-74.47,4.44s-42.37,28.77-59,48.27a341,341,0,0,0-80.14,203.45c-.4,8.64-7.45,15.84-15.48,19.09s-16.92,3.32-25.58,3.35l-42.83.16c-8.69-25-7.14-52.31-3-78.42a422.19,422.19,0,0,1,69-172.75c18.29-26.57,40.06-51.37,67.41-68.47s60.85-26,92.41-19.31c25.43,5.34,47.74,20,69.37,34.45Z"/><path class="cls-1" d="M1293.43,712.87c-10-16.29-6.23-37-5.13-56.11,2.55-44.7-11.71-88.84-31.35-129.07C1179.36,368.8,1012.39,259.64,836.26,244S480.1,303.25,360.68,433.65c-102.61,112-159.78,257.16-216,398.29-5.2,13-10.65,26.47-20.54,36.45-11.25-52.43,3.48-106.8,21.74-157.21a1110.62,1110.62,0,0,1,94-196.64c18.44-30.49,38.38-60.12,60.71-87.88C406,295.48,566.11,209.65,733.74,194.4s340.58,40.27,468,150.26c53,45.72,99.16,102,120.49,168.66s14.61,144.68-28.81,199.55Z"/><path class="cls-1" d="M1290.81,1176.22c2.31,3.36-2.1,7.2-5.76,9a210.41,210.41,0,0,0-92,87.49c-7.29,13.32-13.25,27.59-23.16,39.09s-25.14,20-40,16.83c-5.76-1.21-9.62-7-10.38-12.89s.94-11.69,2.71-17.3c11.88-37.69,29-75.22,58.66-101.31S1255.28,1158.93,1290.81,1176.22Z"/><path class="cls-1" d="M273.34,1150.39c-3-5.49-1.3-12.28.58-18.26,47.64-151.72,140.16-286.46,250.44-401,15.73-16.34,31.85-32.32,48.75-47.45A668.73,668.73,0,0,1,861.77,532.37a391.07,391.07,0,0,1,48.7-8.9c72.61-7.89,148,14.49,204.58,60.72s93.46,115.72,100.14,188.44c.34,3.66.49,7.7-1.78,10.58s-7.91,2.93-8.89-.61c-16-57.65-57-107.47-109.45-136.21s-115.65-36.52-174-23.57c-21.88,4.85-43,12.46-63.8,20.92-235.42,95.93-420.83,312-469.11,561.56a926.49,926.49,0,0,1-104.35-46.53C279.75,1156.68,275.54,1154.35,273.34,1150.39Z"/><path class="cls-1" d="M1249.59,734.73c-3.7-36.17-21.88-69-39.67-100.74-39.52-70.4-81.73-143.7-150-186.78-54.39-34.32-120.9-45.88-185.11-42.16S748.08,426.9,687.41,448.26c-26.62,9.38-53.11,19.44-78,32.79C572.53,500.84,539.78,527.55,509,556,355,698.41,246.8,889.58,203.88,1094.91c-15.63.15-26.18-15.45-33.34-29.35q-17.34-33.7-31.66-68.84c-8.17-20.07-15.72-41.34-13.48-62.89,1.2-11.61,5.21-22.73,9.32-33.66C216.33,683.36,360,483.27,562.36,370.57c76.2-42.43,160.52-72.11,247.55-78s176.86,13.18,249.68,61.18c47.48,31.3,86.75,74,118.14,121.46a545.05,545.05,0,0,1,87.21,243c.55,5.29.91,11.07-2.08,15.47S1252.16,739.39,1249.59,734.73Z"/><path class="cls-1" d="M1210,935.74c-60.24-27.1-133.89-9.89-186.08,30.58S938.27,1067,915.5,1129a667,667,0,0,0-39.74,191.87c-.2,3.54-.47,7.35-2.7,10.11-3,3.69-8.32,4.19-13.06,4.36a662.8,662.8,0,0,1-82.89-2.28c-3.35-.3-6.94-.73-9.47-2.94-3.58-3.14-3.71-8.57-3.51-13.32,6.15-142.28,74.79-280.75,184.3-371.79,65.11-54.14,158.86-62.4,241.18-42.56,8.27,2,17,4.58,22.49,11.1S1217.54,931.8,1210,935.74Z"/><path class="cls-1" d="M1283.23,1244.79a15.49,15.49,0,0,1-2.08,5.58c-3.69,7-7.39,14-11.32,20.94-4.26,7.48-8.94,15-15.76,20.22s-16.29,7.84-24.23,4.5a5.39,5.39,0,0,1-3.24-2.84,6.16,6.16,0,0,1,.35-3.75c3.28-10.65,6.61-21.39,12.18-31s13.66-18.23,24-22.3c4.08-1.6,8.68-2.46,12.85-1.1S1283.67,1240.43,1283.23,1244.79Z"/><path class="cls-1" d="M1109.24,759.84c12.72,3.88,25.2,8.83,36.49,15.87,17,10.61,30.77,25.58,44.31,40.37,5.5,6,9.84,17.65,2.15,20.29-28.11-23.38-66.51-31.84-103-29S1017.86,823.22,984.86,839C806.12,924.25,674,1088.49,593.7,1269.54c-.58,1.31-2.41,1.34-3.84,1.15A598,598,0,0,1,488,1247.92c-3.57-1.13-3.24-6.25-2.14-9.83a748.45,748.45,0,0,1,105.42-213.68,421.3,421.3,0,0,1,28.87-36.74c12.64-14.13,26.62-27,40.58-39.82,62.65-57.55,126.48-115.5,202-154.7S1027.88,735,1109.24,759.84Z"/></svg>