<svg id="Calque_1" data-name="Calque 1" xmlns="http://www.w3.org/2000/svg" viewBox="0 0 1393 3169"><defs><style>.cls-1{fill:none;stroke:#000;stroke-miterlimit:10;}</style></defs><title>Plan de travail 10</title><path class="cls-1" d="M601.64,874.59c1.72,9.82,2,21.61-5.86,27.79-101,79.92-236.61,119.13-362.44,91.72-8.27-1.8-10.45-13.68-5.89-20.81s13-10.6,20.75-13.91C305.56,935,356.41,897.86,406.69,861c37.3-27.32,76.39-56.88,93.48-99.84,3.12-7.82,10.27-17.93,17.35-13.37,43.86,28.28,75.11,75.37,84.12,126.76M447.73,957.81l-2.46,3.43a8.55,8.55,0,0,0,5.22,3.15,7.8,7.8,0,0,0,3-5,6.69,6.69,0,0,0-5-.91Z"/><path class="cls-1" d="M910.5,1556.92c-6.25-2.42-12.85,2.12-18.06,6.35a1093.72,1093.72,0,0,1-205.07,131.31c-34.66,17.08-70.62,32.44-108.67,39.17-20.46,3.63-41.28,4.71-62,5.74-43.14,2.15-86.59,4.1-129.39-1.78s-85.36-20.06-119-47.14c-3.56-7.85,8.29-13,16.81-14.32,11.31-1.7,22.28-5.09,33.15-8.64C511.87,1604.19,685.14,1480,807.39,1317c66.67,53.11,110,134.58,116.64,219.56.77,9.78-4.37,23.94-13.53,20.4m-111.68,61.87A9.68,9.68,0,0,0,808,1611a18.08,18.08,0,0,0-13.62,7.51l4.39.64m32.36-23.42,6.61-3.09c-1.78-3.33-8.1-1.49-7.81,2.28m-424.71,125.4c2.66,1.69,5.84-3.46,3.14-5.08-2-1.27-3.26,2.46-2.74,4.77m451-141.33c2.26-1.39,1-5.7-1.67-5.64-2.2,1.59-.85,5.86,1.86,5.9m-130,78.33a4.11,4.11,0,0,0-2.19,5.76c2.67,1,3.56-3.64,2.26-6.19Z"/><path class="cls-1" d="M389.44,1245.87c75.88-43.4,147.57-95.64,205.09-161.47,17.94-20.53,34.6-42.47,55.72-59.7,5.2-4.24,14.7-7.19,17.09-.93,12.79,33.51,47.93,53.42,65.15,84.89,8.77,16,12.46,34.25,16,52.16q6.93,34.76,13.87,69.53c.89,4.46,1.75,9.24-.06,13.41s-7.46,6.94-11.07,4.18c-6.24-4.8-15.12-.73-22,3.17-102,58.22-225.14,62.17-342.59,62.6-23.17.09-46.35.1-69.5,1.2a738.16,738.16,0,0,0-83,8.67c-6.53-4.74,2.35-14.06,9.94-16.8l110.12-39.73c11.26-7.78,23.28-14.39,35.16-21.18m212.23,32c-2.48,0-.51,4.09,1.92,4.61a20.2,20.2,0,0,0,16.47-3.77,23.61,23.61,0,0,0-18.41-.94Z"/><path class="cls-1" d="M250.54,717.07c-6.88,0-14.53-.54-19.28-5.53a59.3,59.3,0,0,0,4.24-29.87A340.09,340.09,0,0,0,370.78,537.61c3.11-6.31,7.1-13.57,14.07-14.51,4.51-.62,8.85,1.72,12.71,4.13a166.73,166.73,0,0,1,72.9,101.64c1.33,5.58,1.33,13.19-4.09,15.09-19.16,6.7-35.89,18.72-53.4,29a322.92,322.92,0,0,1-162.43,44.12m104.71-29.85c.49-2.23-.7-5.82-2.66-4.64-2.78,1.4.47,6.64,3,4.77Z"/><path class="cls-1" d="M256.55,314.58a198.09,198.09,0,0,1,15.74-47.66c3-6.35,12.66-6.69,18.25-2.42s8.12,11.32,10.37,18q4.29,12.69,8.59,25.37c2.27,6.72,3.16,16.48-3.59,18.65-8.68,2.79-16.29,8.34-25.06,10.81s-20,.53-23.86-7.74C254.85,325,255.58,319.57,256.55,314.58Z"/><path class="cls-1" d="M554.6,2956.21c2.38,1.88,6,.05,7.71-2.46s2.45-5.63,4.47-7.88c3.7-4.11,10.05-3.89,15.58-3.89,34.85,0,67.84-21.16,102.51-17.57,1,9,1.85,18.48-1.54,26.91-5.46,13.58-20.6,20.74-35,23.2-18.66,3.18-37.78.67-56.49-2.19-13.71-2.09-28.74-5.13-37.21-16.12m58.9-.85a7.16,7.16,0,0,0-10.16,1.52,8.08,8.08,0,0,0,10.84-1.23Z"/><path class="cls-1" d="M960.38,2624.17c-21,24.19-23.83,58.71-25.68,90.69-1.55,26.76-3,54.43,6.34,79.57,2.1,5.67,4.69,12.17,1.7,17.42-2,3.52-6,5.34-9.71,6.93-72.42,31.06-145.15,62.22-221.22,82.78s-156.17,30.27-234,17.74c1.1-12.49,15.34-18.62,27.19-22.75C595.71,2865,671,2801.22,744,2738.82l125.71-107.49c12.09-10.34,26.9-16.86,41.47-23.24l72.94-31.93c4.34,8.52,1.29,19.15-4.22,27s-13.21,13.82-19.48,21.05M787,2861.68a17.88,17.88,0,0,0-15.91,0,22.37,22.37,0,0,0,19.84,6,8.61,8.61,0,0,0-4.17-5.52m124.48-89.05a10.05,10.05,0,0,0,3.08,11.28,25.93,25.93,0,0,0,2.37-17.43,4.3,4.3,0,0,0-5.82,0c0,2,0,4.1,0,4.1M671.41,2892.32c1.2-3.9-4.22-7.16-8-5.71s-6,5.42-7.8,9.08l15.06-3.78m35.72-7.83-.8,9a6.68,6.68,0,0,0,5.06.91c2.78-3.33.42-9.39-3.88-10m122.17-45.67a4,4,0,0,0-2,5.87l7-3.13c1.08-2.14-2.6-3.33-5-2.93M869,2748.3a3.25,3.25,0,1,0-4.58-3.24,5,5,0,0,0,4.47,2.82m-77.22-14.94c.88-1.24-.82-3-2.32-2.74s-2.55,1.58-3.45,2.81a5,5,0,0,0,6,.08M743.66,2759a6.47,6.47,0,0,0-.72-5c-1.39,1-3,2.22-2.91,3.92s3.06,2.54,3.3.86M610.78,2862.21a4.19,4.19,0,0,0-2.11-5.82c-2.15,1.6-.66,5.8,2,5.68m-26,16.06a4.44,4.44,0,0,0-.38,5.57c3,0,3.36-5.54.41-6Z"/><path class="cls-1" d="M354.57,374l20.52,28.27c4.73,6.51,5.23,15.41,2.89,23.12s-7.19,14.39-12.48,20.45A139,139,0,0,1,322.09,479a322.47,322.47,0,0,1-55.5,21,134.17,134.17,0,0,1-19.92,4.22c-4.91-4.22-4.9-12.17-1.86-17.89s8.37-9.79,13.38-13.91a230.58,230.58,0,0,0,56.12-68c6-11,11.12-22.84,11.46-35.33.18-6.47,8.52-10.07,14.66-8S350.77,368.72,354.57,374Z"/><path class="cls-1" d="M362.17,2232.61a16,16,0,0,1-14.58-3c5.17-6.83,12.72-11.39,20.05-15.82a2936.94,2936.94,0,0,0,640.9-523.16c69.38,77.6,96.22,191.07,69,291.52-1.3,4.8-3,9.95-7.12,12.71-11.81,7.88-22.75,17-33.81,25.86-180.48,145.07-406,243.27-637.54,238-8.7-.2-17.74-.64-25.43-4.72s-13.56-12.91-11.43-21.35m19.72-.24a7.75,7.75,0,0,0,9.63,4.57c1.57-5.35-5.54-8.86-11.07-9.56a3,3,0,0,0,1,4.91M945,2071.23a10.26,10.26,0,0,0,9.14-7.1c-5.11-1.78-11.3,2.71-11.21,8.12m14.92-140a2.67,2.67,0,0,0,3.06,2.87,6.71,6.71,0,0,0,3-7c-2.61-1.5-6.44,1.16-6,4.13m78.89,72.81c1.85-.85-.05-4.37-1.79-3.29-2.53.92.27,5.68,2.3,3.91m-159.46-51.65a2.38,2.38,0,1,0-2.26,3.23l2.69-2.66m194.69-19.35c.39-2.7-3.55-5.2-5.18-3a3.29,3.29,0,0,0,4.94,2.67Z"/><path class="cls-1" d="M1168.3,2468.12c-19.49,16.17-41.65,28.77-63.67,41.28-14.12,8-28.41,16.11-44,20.55-19,5.41-39.17,5.13-58.94,6.51-55.24,3.86-108.57,20.88-162.37,34-147.12,35.93-301,43.47-444.47,92.05-7.37,2.5-12.39-9.58-7.57-15.7s13.53-7.07,21.28-7.82c78.23-7.58,150.92-43,218.94-82.42a1779.82,1779.82,0,0,0,550.23-497.92c9.54,8.9,16.74,20,23.34,31.26,34.86,59.39,56.22,127.93,53,196.72s-32.72,137.49-85.71,181.47m-400,96.57a135.74,135.74,0,0,0-25.91,9.45,51.51,51.51,0,0,0,35.43-5.66c.33-4-5.62-4.78-9.52-3.79m-95.61,19.93c0-2.69-4-2.84-6.58-2l-29.65,9.48a53.47,53.47,0,0,0,33.28-4.23c1.39-.66,2.95-1.69,2.95-3.23M1202,2410.56a25.27,25.27,0,0,0,5.81-13.62,25.51,25.51,0,0,0-12,17.76c2.6,1.7,6.69-.88,6.28-4m8.81-15.3a9.56,9.56,0,0,0,2.64-9.81c-4.39-1.6-7.44,4.58-7.5,9.24l5,1.12m-53.59-99.61c-4.54,2.15-3.49,10.38,1.44,11.33a11.53,11.53,0,0,0-1.06-12.75m80.16-50.41c.44-3.25.32-7.52-2.77-8.63a4.79,4.79,0,0,0,3.06,9.08m-97.17,221.05a4.1,4.1,0,0,0-2,5.95,12.32,12.32,0,0,0,6.93-5.29,6.62,6.62,0,0,0-5-.9m-3-119.22c2.07-.65,1.09-4.57-1-4.17a2.53,2.53,0,1,0,1.34,4.53M937.77,2464.8c.49-2.24-.7-5.83-2.66-4.64-2.78,1.4.47,6.63,3,4.76m220.12-96.49a2.38,2.38,0,1,0-2.26,3.23l2.69-2.66Z"/></svg>