<svg id="Calque_1" data-name="Calque 1" xmlns="http://www.w3.org/2000/svg" viewBox="0 0 356 128"><title>Plan de travail 7</title><path d="M40.31,33.12a12.53,12.53,0,0,0,7.59,1.54,14.06,14.06,0,0,0,7.55-2.94A1.39,1.39,0,0,0,56,30.46c0-2.7,0-5.4,0-8.1,0-.66-.18-.83-.82-.82-2.33,0-4.66,0-7,0-1.79,0-1.8,0-1.79,1.83,0,.79-.26,1.83.14,2.31s1.5.15,2.28.15c2.42,0,2.42,0,2.37,2.44,0,.29.11.58-.3.83-2.32,1.43-6,1.57-8.24-.29a6.92,6.92,0,0,1-2.43-6.52,6.38,6.38,0,0,1,6.11-5.84,7.41,7.41,0,0,1,5.16,1.79c.39.33.7.47,1.1-.07.7-.92,1.46-1.8,2.25-2.65.4-.42.37-.67-.07-1a13,13,0,0,0-4.52-2.29c-.62-.18-1.3,0-1.85-.37h-3.6c0,.16-.15.19-.29.2a9,9,0,0,0-3.93,1.36A11.17,11.17,0,0,0,35,24,10.54,10.54,0,0,0,40.31,33.12Z"/><path d="M259.87,34.22c.73.24.57.4.23.85-.6.82-1.13,1.7-1.72,2.53-.29.42-.14.61.27.78,1,.39,2,.81,3,1.23.37.15.61.28.81-.32.45-1.38,1.05-2.71,1.6-4.06.13-.33.24-.58.73-.6a11.13,11.13,0,0,0,7.33-3.37c.43-.41.34-.7-.05-1.06a17.3,17.3,0,0,1-1.76-1.77c-.66-.83-1.24-1-1.93-.06a2.89,2.89,0,0,1-.71.52,6.57,6.57,0,0,1-8.61-.74,7.16,7.16,0,0,1-1.61-6.62,6.31,6.31,0,0,1,7.47-4.92,8.13,8.13,0,0,1,3.63,1.86c.51.46.85.42,1.27-.13a18.7,18.7,0,0,1,2-2.34c.6-.58.45-.92-.1-1.34A19.23,19.23,0,0,0,269.25,13a19.28,19.28,0,0,0-3.85-1.19h-3.6c-.06.06-.12.17-.19.18A11.09,11.09,0,0,0,252,22.67,11.14,11.14,0,0,0,259.87,34.22Z"/><path d="M310.38,31.38A13.17,13.17,0,0,0,323,34.13c3.67-1.07,5-4.08,4.58-7.51-.33-2.56-2.16-3.95-4.44-4.75-1.95-.69-4-1.21-5.93-1.87a1.69,1.69,0,0,1-1.27-2,1.92,1.92,0,0,1,1.86-1.57,8.48,8.48,0,0,1,6,1.71c.47.3.7.34,1-.16.6-.94,1.26-1.84,1.9-2.75.19-.29.27-.48-.1-.76a11.71,11.71,0,0,0-4-2c-.92-.26-1.86-.41-2.8-.61h-2.2c-.45.39-1,.22-1.55.39-4.31,1.39-5.51,4.26-5,7.92.35,2.48,2.24,3.71,4.47,4.5,1.92.69,4,1,5.84,1.83a1.76,1.76,0,0,1,1.24,2,1.89,1.89,0,0,1-1.54,1.57,6.78,6.78,0,0,1-3.89-.14A11.83,11.83,0,0,1,313.46,28c-.21-.15-.41-.53-.73-.13-.81,1-1.61,2-2.44,3C310.07,31.08,310.12,31.17,310.38,31.38Z"/><path d="M119.21,34.59a11,11,0,0,0,5.79-2.9c1-.92,1.06-.88.15-1.79l-1.06-1.06c-1.22-1.23-1.22-1.23-2.58-.27l-.4.28a6.59,6.59,0,0,1-8.62-.66,7.06,7.06,0,0,1-1.66-6.59A6.32,6.32,0,0,1,117,16.46a7.2,7.2,0,0,1,4.92,2c.52.46.88.53,1.35-.09a29.75,29.75,0,0,1,2.13-2.49c.36-.39.37-.67,0-1A19.12,19.12,0,0,0,123,13.22a17.65,17.65,0,0,0-4.18-1.37h-3.6c0,.16-.15.18-.29.2a9.73,9.73,0,0,0-5.29,2.31,11.17,11.17,0,0,0-4,10.67C106.62,32.18,112.82,35.6,119.21,34.59Z"/><path d="M349.8,85.26V88.2l.2,0v-3Z"/><path d="M349.8,85.26c-.3,0-.6-.06-.89-.06q-86.39,0-172.77,0c-14.36,0-28.72,0-43.09,0q-59.63,0-119.27,0c-1.76,0-1.7,0-1.79,1.75,0,1,.2,1.3,1.27,1.3q167.67,0,335.34,0c.4,0,.8,0,1.2,0A3.27,3.27,0,0,1,349.8,85.26Z"/><path d="M119.9,49.63c-.59,0-.7.2-.7.74,0,6.86,0,13.73,0,20.59,0,.71.25.81.86.8,2.3,0,4.6,0,6.9,0a32.78,32.78,0,0,0,5.85-.29c3.85-.73,5.9-3.76,5-7.55-.47-2-2-3-3.75-3.73a5.41,5.41,0,0,0,2.35-6.82c-.9-2.39-3.2-3.57-5.91-3.68C127,49.54,123.43,49.66,119.9,49.63Zm4.1,8.2c0-1.07,0-2.13,0-3.2,0-.23-.13-.59.31-.58a39.93,39.93,0,0,1,5.58.1,2,2,0,0,1,1.9,2.41,2.31,2.31,0,0,1-2.42,1.88c-.77,0-1.53,0-2.3,0s-1.6,0-2.4,0C124.22,58.47,124,58.41,124,57.83Zm0,8.9c0-1.16,0-2.32,0-3.49,0-.28-.09-.62.41-.59,2.21.1,4.43-.22,6.64.2A2.16,2.16,0,0,1,133,65.24a2.21,2.21,0,0,1-2.14,2,29.16,29.16,0,0,1-3.3.1c-1.08,0-2,0-2.87,0C124.25,67.36,124,67.33,124,66.73Z"/><path d="M82.35,34.35a28,28,0,0,1,3.3,0c.74.05.89-.22.88-.9,0-3.3,0-6.6,0-9.89V20.7a5.09,5.09,0,0,1,.47.43c2.44,3.2,4.92,6.37,7.29,9.63,1.56,2.16,3,4.44,6.22,3.58h.1c.61.14.72-.18.72-.72,0-6.86,0-13.72,0-20.59,0-.72-.25-.81-.85-.79a31,31,0,0,1-3.2,0c-.7,0-.88.16-.87.87,0,3.83,0,7.66,0,11.49,0,.27.15.59-.18.86-2.54-3.35-5.11-6.66-7.59-10-2.34-3.19-2.3-3.22-6.24-3.17h-.2c-.5-.08-.6.16-.59.62q0,10.4,0,20.79C81.6,34.25,81.78,34.38,82.35,34.35Z"/><path d="M229,34.36c1.1,0,2.2,0,3.3,0,.67,0,.84-.2.83-.85,0-3.47,0-6.93,0-10.4V20.87c.35,0,.44.2.55.34,2.44,3.2,4.92,6.36,7.28,9.62,1.53,2.09,2.85,4.37,6,3.52h.2c.57.08.75-.18.74-.74,0-1.8,0-3.6,0-5.4,0-5,0-9.92,0-14.89,0-.86-.21-1.17-1.11-1.09a15.61,15.61,0,0,1-2.9,0c-.83-.07-1,.27-.94,1,0,3.79,0,7.59,0,11.39v1.07c-3.12-4.11-6.09-8-9-11.89-.81-1.1-1.62-1.83-3.08-1.57a8.67,8.67,0,0,1-2.1,0c-.53,0-.66.15-.65.67,0,6.89,0,13.79,0,20.68C228.19,34.25,228.42,34.37,229,34.36Z"/><path d="M180.59,33.54c0,.61.19.83.77.83,1.2,0,2.4,0,3.6,0,.55,0,.67-.19.66-.69,0-1.16,0-2.33,0-3.5,0-.92-.41-2.22.16-2.67s1.84-.11,2.8-.17a1.22,1.22,0,0,1,1.25.69c1.23,1.91,2.5,3.79,3.77,5.68.19.29.36.65.81.65h5.47c-1.71-2.53-3.29-4.91-4.94-7.24-.39-.56-.28-.7.27-1A6.54,6.54,0,0,0,199,21c.82-5.2-2.5-8.51-7.31-8.68-3.43-.11-6.87,0-10.3,0-.63,0-.84.13-.84.81Q180.64,23.3,180.59,33.54Zm5-16.15c0-.46.09-.67.59-.65,1.72.08,3.43-.09,5.15.11a2.84,2.84,0,0,1,2.77,3,3,3,0,0,1-3.1,3h-2.46c-.85-.09-2.21.45-2.78-.19s-.15-1.89-.16-2.88C185.6,19,185.63,18.18,185.6,17.39Z"/><path d="M264,64.9c.61-.47,1.84-.13,2.8-.15a1.15,1.15,0,0,1,1.13.61c.9,1.46,2,2.8,2.82,4.3s2,2.44,3.93,2.11a17.2,17.2,0,0,1,2.49,0c.22,0,.49.17.64-.09s-.14-.4-.26-.58q-2.4-3.55-4.82-7.1a2.18,2.18,0,0,1,.31-.22c3.87-1.66,4.91-5.36,4-9-.85-3.33-3.74-4.89-7-5-3.49-.14-7,0-10.5,0-.57,0-.72.15-.71.71,0,1.64,0,3.27,0,4.9,0,5.2,0,10.4,0,15.6,0,.39-.2.93.53.92,1.3,0,2.6,0,3.9,0,.51,0,.58-.24.57-.68,0-1.17,0-2.33,0-3.5C263.83,66.65,263.41,65.34,264,64.9ZM263.8,57c.1-.81-.43-2.13.2-2.69s1.83-.14,2.79-.13,1.86,0,2.78.11c1.78.15,2.66,1.27,2.63,3.24a2.86,2.86,0,0,1-2.82,2.74c-1.66,0-3.32,0-5,0-.5,0-.61-.16-.59-.62C263.83,58.8,263.8,58,263.8,57Z"/><path d="M155.4,69.41a11.7,11.7,0,0,0,10.41,2.43,11.26,11.26,0,0,0,8.63-14.45c-1.47-5.08-5.81-8.14-11.32-8.14a7.52,7.52,0,0,0-2.69.3c-4.93,1.28-8,4.33-8.85,9.46A10.75,10.75,0,0,0,155.4,69.41Zm7.17-15.53a6.49,6.49,0,0,1,7.12,6.2c.36,4-2.47,7.35-6,7.37a6.39,6.39,0,0,1-7-6.12C156.29,57.47,158.66,54.23,162.57,53.88Z"/><path d="M180,71.77c2.7,0,5.4,0,8.09,0a14.54,14.54,0,0,0,2.45-.25,10.78,10.78,0,0,0,8.87-12.61c-.87-5.73-5.33-8.91-10.67-9.19-2.86-.15-5.73,0-8.59,0-.87,0-1,.27-1,1.06,0,3.33,0,6.66,0,10s0,6.79,0,10.19C179.08,71.57,179.25,71.78,180,71.77ZM184,60.65c0-1.93,0-3.86,0-5.79,0-.5,0-.76.67-.72a29.39,29.39,0,0,1,5,.28A6.26,6.26,0,0,1,194.27,61c-.19,4.09-3.06,6.3-6.88,6.21-.9,0-1.8,0-2.69,0-.58,0-.71-.17-.7-.72C184,64.58,184,62.61,184,60.65Z"/><path d="M331.6,23.19c0,3.43,0,6.87,0,10.3,0,.54.05.88.71.87h15.6c.57,0,.74-.21.71-.77a26.15,26.15,0,0,1,0-2.8c.05-.73-.16-1-.93-1-2.5.05-5,0-7.5,0l-3.48-.06c-.22-1.18,0-2.38-.11-3.56-.07-.7.22-.8.83-.79,2,0,4.07,0,6.1,0,1.13,0,2.26,0,3.38-.06.22-1.15,0-2.31.12-3.46.08-.81-.25-.9-.95-.9-2.83,0-5.66,0-8.49,0-.73,0-1.09-.11-1-.95a11.93,11.93,0,0,0,0-2.39c-.08-.83.11-1.13,1-1.11,3.3.07,6.6,0,9.9.05.66,0,1-.11.89-.85a18.71,18.71,0,0,1,0-2.7c0-.67-.11-.89-.84-.89-5,0-10.07,0-15.1,0-.68,0-.9.13-.89.85C331.62,16.46,331.6,19.83,331.6,23.19Z"/><path d="M129.61,23.28c0,3.43,0,6.86,0,10.29,0,.47-.05.8.65.79,5.17,0,10.33,0,15.49,0,.67,0,.79-.23.77-.8,0-1-.06-1.93,0-2.9,0-.67-.19-.83-.84-.82-3.4,0-6.8,0-10.2,0-.66,0-.95-.11-.88-.85a17.36,17.36,0,0,0,0-2.6c-.06-.74.12-1,.94-1,2.87.06,5.74,0,8.6,0,.64,0,.81-.2.79-.78a26.15,26.15,0,0,1,0-2.8c.06-.74-.22-.86-.89-.85-2.83,0-5.67,0-8.5,0-.82,0-1-.25-.94-1a16.12,16.12,0,0,0,0-2.6c-.06-.74.23-.85.9-.84,3.33,0,6.66,0,10,0,.63,0,.89-.11.85-.8a18.72,18.72,0,0,1,0-2.7c0-.76-.22-.93-1-.93-5,0-9.93,0-14.89,0-.82,0-.9.26-.89.95C129.63,16.55,129.61,19.91,129.61,23.28Z"/><path d="M243.52,54c2.6,0,5.2,0,7.8,0,1,0,2.39.35,3-.16s.13-1.94.19-3a2.78,2.78,0,0,1,0-.5c.11-.62-.15-.79-.76-.78q-7.6,0-15.2,0c-.64,0-.76.18-.76.78,0,3.43,0,6.86,0,10.3s0,6.86,0,10.29c0,.52.07.77.68.76q7.76,0,15.5,0c.47,0,.65-.12.63-.61,0-1-.05-2,0-3,0-.73-.13-.94-.9-.93-3.37,0-6.74,0-10.1,0-.83,0-1-.28-.94-1a18.8,18.8,0,0,0,0-2.6c-.05-.72.2-.87.88-.86,2.93,0,5.87,0,8.8,0,.53,0,.78-.08.74-.7a25.51,25.51,0,0,1,0-2.9c0-.63-.14-.84-.82-.83-3,0-5.93,0-8.9,0-.56,0-.75-.14-.72-.72a25.33,25.33,0,0,0,0-2.89C242.65,54.18,242.88,54,243.52,54Z"/><path d="M60.62,23.34c0,3.43,0,6.87,0,10.3,0,.54.12.74.7.73q7.7,0,15.38,0c.61,0,.79-.19.75-.8a21.44,21.44,0,0,1,0-2.89c.06-.74-.21-.86-.88-.86-3.44,0-6.87,0-10.3,0-.6,0-.8-.11-.75-.75a18.56,18.56,0,0,0,0-2.79c0-.7.15-.9.86-.89,2.9.05,5.8,0,8.7,0,.59,0,.83-.1.78-.75a21.64,21.64,0,0,1,0-2.79c0-.69-.13-.9-.85-.89-2.9,0-5.8,0-8.7,0-.6,0-.83-.1-.79-.75a17.38,17.38,0,0,0,0-2.7c-.06-.77.17-1,1-1,3.34.05,6.67,0,10,0,.71,0,.92-.2.87-.89a22.1,22.1,0,0,1,0-2.7c0-.61-.1-.85-.8-.85-5,0-10.06,0-15.09,0-.64,0-.84.14-.83.8C60.64,16.48,60.62,19.91,60.62,23.34Z"/><path d="M333.47,49.63c-.81,0-.89.27-.88.95,0,3.36,0,6.73,0,10.09s0,6.87,0,10.3c0,.57.07.79.73.79,5.13,0,10.26,0,15.39,0,.58,0,.73-.2.7-.75a26.15,26.15,0,0,1,0-2.8c.06-.75-.13-1-1-1-3.13,0-6.26,0-9.39,0-1.58,0-1.58,0-1.57-1.53a17.19,17.19,0,0,0,0-1.9c-.07-.75.13-1,.95-1,2.86.05,5.73,0,8.59,0,.59,0,.83-.1.79-.75a18.56,18.56,0,0,1,0-2.79c0-.68-.13-.9-.86-.89-2.89,0-5.79,0-8.69,0-.59,0-.83-.11-.78-.75a21.8,21.8,0,0,0,0-2.8c-.05-.69.14-.89.85-.88,3.37,0,6.73,0,10.1,0,.59,0,.82-.1.78-.75a18.69,18.69,0,0,1,0-2.8c0-.68-.14-.88-.86-.88Q340.92,49.69,333.47,49.63Z"/><path d="M275.05,34.36c1.2,0,2.4,0,3.6,0a.9.9,0,0,0,1-.69c.4-1.17.92-2.29,1.35-3.44a1,1,0,0,1,1.15-.8c1.9.05,3.8,0,5.7,0,.89,0,2-.28,2.62.14s.78,1.59,1.12,2.44c.92,2.32.91,2.32,3.41,2.32h.9c1.91,0,1.88,0,1.1-1.81q-4.23-9.94-8.43-19.92a.76.76,0,0,0-.85-.58,26.55,26.55,0,0,1-3.09,0c-.73,0-1,.26-1.27.9-1.06,2.58-2.18,5.14-3.27,7.71-1.85,4.34-3.67,8.68-5.53,13C274.31,34.27,274.45,34.37,275.05,34.36ZM286,18.18,288.79,25h-5.61Z"/><path d="M202.56,34.36c1.13,0,2.26,0,3.39,0a.78.78,0,0,0,.88-.59c.43-1.2.95-2.36,1.38-3.55a1,1,0,0,1,1.18-.76c1.86,0,3.73,0,5.59,0,.93,0,2.07-.27,2.72.16s.76,1.59,1.11,2.44c.94,2.3.94,2.3,3.46,2.3.6,0,1.2,0,1.79,0,.76.06.9-.11.57-.87q-4.15-9.67-8.24-19.38c-.86-2-.85-2-3-2a12.5,12.5,0,0,1-1.5,0c-.71-.08-1,.2-1.28.86-1.72,4.15-3.5,8.27-5.27,12.39q-1.69,4-3.41,8C201.44,34.34,201.45,34.37,202.56,34.36Zm10.6-16.18L216,25h-5.62C211.3,22.72,212.2,20.52,213.16,18.18Z"/><path d="M15.35,34.35c.5,0,.53-.42.66-.73.49-1.17,1-2.34,1.41-3.53a.88.88,0,0,1,1-.66q3.9.06,7.8,0a.88.88,0,0,1,1,.68c.45,1.21.95,2.41,1.42,3.62a.89.89,0,0,0,1,.64c1.27,0,2.54-.07,3.8,0,.73,0,.68-.2.44-.73-.82-1.85-1.61-3.7-2.39-5.56Q28.19,20.39,25,12.7A.86.86,0,0,0,24,12q-1.7.06-3.39,0a.66.66,0,0,0-.74.46q-1.53,3.64-3.07,7.28c-2,4.79-4.07,9.58-6.2,14.56Zm4.38-9.92c.87-2,1.69-4.07,2.59-6.26.88,2.17,1.68,4.2,2.53,6.2.22.52.24.7-.39.69-1.44,0-2.87,0-4.3,0C19.65,25.06,19.51,25,19.73,24.43Z"/><path d="M290.68,67.53a5.06,5.06,0,0,1-.87.12,9.44,9.44,0,0,1-6.33-2.27c-.5-.39-.7-.27-1,.1-.72.87-1.45,1.74-2.18,2.59-.26.3-.33.49,0,.78a14.1,14.1,0,0,0,9.07,3.2,12,12,0,0,0,2.46-.19c4.43-1,6.5-4.54,5.47-8.58-.56-2.17-2.27-3.31-4.25-4s-3.91-1.2-5.85-1.84a1.82,1.82,0,0,1-1.42-1.9c.05-.91.77-1.51,1.87-1.69a8.37,8.37,0,0,1,6,1.68c.6.39.82.23,1.14-.26.52-.8,1.05-1.6,1.63-2.35.42-.54.36-.91-.19-1.28a12.6,12.6,0,0,0-10.39-2,6.29,6.29,0,0,0-5,6.07c-.14,3.14,1.07,5,4.25,6.16,1.89.69,3.86,1.15,5.76,1.82.9.31,1.77.82,1.67,2S291.7,67.3,290.68,67.53Z"/><path d="M160,23.28c0,3.43,0,6.86,0,10.29,0,.62.19.81.79.79,1.16,0,2.33,0,3.49,0,.65,0,.75-.2.74-.79,0-2.23,0-4.46,0-6.69,0-.94.28-1.06,1.11-1.05,2.89.05,5.79,0,8.69,0,.61,0,.89-.09.85-.79a20,20,0,0,1,0-2.9c.05-.77-.23-1-1-.94-3,0-5.93,0-8.9,0-.59,0-.82-.11-.78-.75a18.69,18.69,0,0,0,0-2.8c0-.68.14-.89.86-.88,3.4,0,6.8,0,10.19,0,.71,0,1-.14,1-.93a19.91,19.91,0,0,1,0-2.89c0-.69-.22-.81-.85-.81-5.09,0-10.19,0-15.29,0-.79,0-.9.25-.9.95C160,16.55,160,19.91,160,23.28Z"/><path d="M233.7,49.64a35.82,35.82,0,0,1-3.59,0,1.11,1.11,0,0,0-1.29.87c-1.73,4.76-3.5,9.5-5.31,14.4-.2-.47-.36-.82-.5-1.18-1.67-4.47-3.35-8.94-5-13.43-.19-.52-.4-.66-.9-.65-1.36,0-2.73,0-4.1,0-.57,0-.75,0-.47.71q4.23,10.4,8.36,20.83a.87.87,0,0,0,1,.68c1,0,1.93,0,2.89,0A1,1,0,0,0,226,71.1c.73-1.94,1.49-3.87,2.26-5.79,2-5,4-9.9,6-14.84C234.48,49.83,234.48,49.6,233.7,49.64Z"/><path d="M319.8,49.65c-2.83,0-5.66,0-8.49,0-.55,0-.75.12-.72.7.05,1.07,0,2.14,0,3.2,0,.55.13.74.71.72,1.66,0,3.33,0,5,0,.8,0,1,.13,1,1-.05,5.23,0,10.46,0,15.68,0,.66.16.88.83.84,1.09-.05,2.19-.05,3.29,0,.66,0,.92-.12.91-.87,0-5.26,0-10.52-.05-15.79,0-.75.26-.87.91-.85,1.7,0,3.4,0,5.1,0,.55,0,.76-.12.73-.71,0-1-.05-2.07,0-3.1,0-.65-.17-.83-.82-.82C325.4,49.67,322.6,49.65,319.8,49.65Z"/><path d="M59.2,70.85c0,.67.15,1,.87.93a12.05,12.05,0,0,1,1.9,0c.56,0,.67-.19.65-.69,0-1.13,0-2.26,0-3.4,0-.21-.11-.47.16-.62a3.08,3.08,0,0,1,2.74.72c.78,1.15,1.56,2.29,2.33,3.44.19.28.32.55.74.54,1.13,0,2.25,0,3.39,0a1,1,0,0,0,0-.28c-.93-1.38-1.84-2.8-2.83-4.14-.44-.6-.52-.91.24-1.28,2.19-1.08,2.55-3.4,2.2-5.33A4.64,4.64,0,0,0,67.16,57c-2.37-.17-4.73,0-7.09-.12-.72,0-.87.26-.87.93Q59.24,64.35,59.2,70.85Zm3.41-7.31c0-.44,0-.87,0-1.3,0-2.19,0-2.19,2.3-2.19.57.11,1.26-.14,2,.14a1.83,1.83,0,0,1,1.34,2.21A1.93,1.93,0,0,1,66.39,64c-1.09,0-2.19,0-3.29,0C62.7,64.07,62.59,63.91,62.61,63.54Z"/><path d="M32.82,56.69a7.68,7.68,0,1,0,0,15.35,7.64,7.64,0,0,0,7.85-7.73A7.51,7.51,0,0,0,32.82,56.69Zm.11,12.16a4.37,4.37,0,0,1-4.41-4.52,4.3,4.3,0,0,1,4.31-4.48,4.35,4.35,0,0,1,4.38,4.58A4.26,4.26,0,0,1,32.93,68.85Z"/><path d="M128,103.86c-.73.07-1.74-.61-2.18.63-.87,2.47-1.77,4.92-2.75,7.61l-2.48-6.79c-.54-1.5-.54-1.46-2.12-1.51-.7,0-.88.18-.87.88,0,4.46,0,8.92,0,13.39,0,1.8,0,1.77,1.82,1.79.65,0,.83-.16.82-.82,0-2.73,0-5.47,0-8.21a43,43,0,0,1,1.8,4.94c.15.49.36.74.95.7s.87-.1,1.05-.73c.5-1.67,1.1-3.31,1.66-5l.15,0v7.38c0,1.67,0,1.62,1.65,1.69.81,0,1-.24.95-1,0-4.66,0-9.32,0-14C128.41,104.54,128.84,103.78,128,103.86Z"/><path d="M204.55,71.76a26.12,26.12,0,0,1,3.19,0c1,.09,1.1-.31,1.09-1.16-.05-3.29,0-6.59,0-9.88s0-6.86,0-10.29c0-.66-.18-.83-.82-.81-1.16.06-2.33,0-3.49,0-.58,0-.71.17-.71.72q0,10.34,0,20.67C203.79,71.62,204,71.78,204.55,71.76Z"/><path d="M301.2,23.35c0,3.4,0,6.8,0,10.2,0,.61.17.83.77.81,1.17,0,2.33,0,3.5,0,.52,0,.76-.1.76-.72,0-6.93,0-13.85,0-20.78,0-.48-.12-.63-.6-.62-1.2,0-2.4,0-3.6,0-.66,0-.83.17-.82.82C301.22,16.49,301.2,19.92,301.2,23.35Z"/><path d="M146.33,49.63c-1.19,0-2.39,0-3.59,0-.54,0-.74.1-.74.69q0,10.34,0,20.67c0,.68.28.76.82.75,1.13,0,2.27,0,3.39,0,.68,0,.83-.18.83-.83,0-3.39,0-6.79,0-10.18s0-6.93,0-10.39C147,49.84,146.94,49.61,146.33,49.63Z"/><path d="M302.61,49.63c-.66,0-.83.17-.82.82,0,3.4,0,6.79,0,10.19s0,6.79,0,10.18c0,.78.23,1,1,.94,1.12-.05,2.25,0,3.38,0,.48,0,.71-.07.7-.64q0-10.44,0-20.87c0-.48-.13-.62-.61-.61C305,49.67,303.8,49.69,302.61,49.63Z"/><path d="M54.37,57a7.18,7.18,0,0,1-.8,0c-.57,0-.79.12-.77.77.05,2.43,0,4.86,0,7.3a5.86,5.86,0,0,1-.33,2A2.93,2.93,0,0,1,49,68.84a3,3,0,0,1-2.34-2.92c0-2.17,0-4.33,0-6.5,0-2.55,0-2.54-2.58-2.49-.59,0-.88.13-.84.83.06,1.4,0,2.8,0,4.2s-.08,2.8,0,4.19c.17,2.46,1.15,4.45,3.58,5.36a8.38,8.38,0,0,0,4.37.37A5.72,5.72,0,0,0,56,66.75c.2-2.67,0-5.33.09-8C56.14,57,56.12,57,54.37,57Z"/><path d="M99.28,56.83a.81.81,0,0,0-.85.58q-.74,1.81-1.5,3.6Q94.8,66,92.66,71c-.25.59-.18.8.56.8,2.66,0,2.66,0,3.59-2.41,0-.09.07-.18.09-.27.12-.51.42-.66.94-.64,1.2,0,2.4,0,3.6,0,1.82,0,1.82,0,2.49,1.68s.65,1.62,2.31,1.61c.4,0,.8,0,1.2,0,.64,0,.61-.18.39-.69C106.09,67,104.4,63,102.65,59,101.7,56.77,101.67,56.8,99.28,56.83ZM102,65.42H98.4l1.8-4.4C100.86,62.62,101.42,64,102,65.42Z"/><path d="M14.35,71.77c.5,0,.71-.12.68-.67,0-1,0-2.07,0-3.1,0-.5.1-.68.66-.67a19.66,19.66,0,0,0,3.07-.1c2.58-.33,4.77-2,4.67-5.32A4.91,4.91,0,0,0,18.64,57c-2.06-.16-4.11,0-6.17-.11-.73,0-.88.25-.87.92,0,2.17,0,4.33,0,6.49v4.9C11.62,71.91,11.62,71.89,14.35,71.77ZM15,63.68c0-.53,0-1.07,0-1.6,0-2,0-2,2.07-2,1.73,0,2.38.35,2.77,1.48a2,2,0,0,1-1.62,2.7c-.85.11-1.72.06-2.58.13C15.11,64.4,15,64.18,15,63.68Z"/><path d="M154.21,105.59c0-1.78,0-1.74-1.74-1.79-.69,0-.89.16-.88.87,0,2.65,0,5.3,0,7.94l-.15,0c-1-2.48-2-4.94-2.89-7.45-.38-1.06-.87-1.52-2-1.4-.7.07-.95.15-.94.92,0,4.6,0,9.2,0,13.79,0,1.35,0,1.27,1.36,1.37,1.05.08,1.3-.26,1.27-1.28-.08-2.57,0-5.14,0-7.71,1.17,2.56,2.24,5.11,3.18,7.72a1.61,1.61,0,0,0,1.89,1.29c.81,0,.95-.28.95-1C154.19,114.45,154.21,110,154.21,105.59Z"/><path d="M54.54,111.56c-.24-.65,1.11-1.08,1.08-2a.17.17,0,0,1,0-.1,6.75,6.75,0,0,0,0-2.65,3.16,3.16,0,0,0-3.11-3c-1.4,0-2.8,0-4.19,0-.66,0-.76.21-.75.8,0,2.39,0,4.79,0,7.19s0,4.92,0,7.39c0,.5.1.69.65.68,1.4,0,2.8,0,4.19,0a3.18,3.18,0,0,0,3.12-2.44,8.52,8.52,0,0,0,.13-3.73C55.48,112.8,54.8,112.26,54.54,111.56Zm-3.7-5.35c1.67,0,2.11.24,2.2,1.52.15,2.09-.41,2.76-2.22,2.7-.46,0-.68-.1-.64-.6s0-1,0-1.58a1.65,1.65,0,0,1,0-.59C50.42,107.18,49.56,106.23,50.84,106.21Zm2.1,10.4a2.44,2.44,0,0,1-2.59.86c-.22-.13-.16-.34-.17-.53v-1.89a4.39,4.39,0,0,1,0-1.09c.11-.44-.44-1.13.38-1.3a1.93,1.93,0,0,1,2.37,1A4.3,4.3,0,0,1,52.94,116.61Z"/><path d="M211.81,111.15a3.3,3.3,0,0,0,1.15-2.93c-.05-2.81-.93-4.55-4.32-4.4-1,0-2.06,0-3.09,0-.6,0-.79.12-.78.76,0,2.39,0,4.79,0,7.19s0,4.86,0,7.29c0,.67.18.83.82.81,1.3,0,2.6,0,3.9,0a3.29,3.29,0,0,0,2.86-1.51,6.32,6.32,0,0,0-.54-6.57C211.59,111.5,211.51,111.38,211.81,111.15ZM207.38,109a4.06,4.06,0,0,1,0-.7v-.39c0-1.81,0-1.81,1.49-1.71,1.08.06,1.67.91,1.46,2.22-.09.56-.06,1.21-.62,1.6a2.33,2.33,0,0,1-2.09.32C207.09,110.19,207.46,109.48,207.38,109Zm3,6.42c-.28,2-.68,2.07-2.63,2-.42,0-.38-.26-.38-.53v-2a2.64,2.64,0,0,1,0-.89c.19-.47-.57-1.28.47-1.42,1.4-.17,2.06.2,2.35,1.23A3.76,3.76,0,0,1,210.38,115.44Z"/><path d="M261.56,103.82c-1.13,0-2.27.05-3.4,0-.71,0-.8.24-.79.84,0,2.4,0,4.8,0,7.2v3.6c0,1.23,0,2.46,0,3.69,0,.57.15.74.71.72,1.13,0,2.27,0,3.4,0,2.5.08,3.89-1.7,4.12-3.9a39.91,39.91,0,0,0,0-8.25C265.35,105.28,263.72,103.74,261.56,103.82Zm1.46,11.5c-.15,1.79-.88,2.42-2.65,2.18-.56-.08-.39-.44-.39-.72,0-1.67,0-3.33,0-5s0-3.2,0-4.79c0-.58.09-.81.75-.8,1.74,0,2.15.43,2.31,2.19A40.21,40.21,0,0,1,263,115.32Z"/><path d="M197.73,103.8c-.73,0-.95.15-.94.92,0,3.7,0,7.4,0,11.1,0,1.26-.5,1.84-1.54,1.83s-1.46-.59-1.46-1.8v-10.3c0-1.75,0-1.72-1.79-1.74-.64,0-.83.14-.83.81,0,3.8,0,7.6,0,11.39a4.1,4.1,0,0,0,8.2,0v-10.5C199.41,103.82,199.41,103.86,197.73,103.8Z"/><path d="M334.75,105.4c-.4-1.65-.42-1.62-2.31-1.59-.49,0-.72.15-.84.62-1.24,5.12-2.49,10.24-3.75,15.42a14.37,14.37,0,0,1,1.74,0c.83.1,1.12-.24,1.23-1,.29-2.15.33-2.09,2.48-2.16,1,0,1.66.08,1.87,1.33.33,2,.43,2,2.45,1.87.44,0,.62,0,.48-.6C337,114.64,335.86,110,334.75,105.4Zm-1,9c-2.1.09-2.09.11-1.63-1.9.26-1.12.47-2.25.67-3.38a1.37,1.37,0,0,1,.35-.83c.36,1.85.69,3.69,1.1,5.5C334.36,114.36,334.23,114.41,333.75,114.43Z"/><path d="M39.64,104.7c-.16-.71-.41-1-1.09-.88a2.38,2.38,0,0,1-.8,0c-.72-.14-1,.22-1.12.85-1.06,4.39-2.15,8.78-3.21,13.18-.53,2.22-.51,2.22,1.79,2,.35,0,.57-.09.61-.48s.14-.71.2-1.07c.26-1.63.26-1.63,1.91-1.63,2,0,2,0,2.38,1.92.18,1,.51,1.51,1.41,1.26a5,5,0,0,1,.56,0c.84.1,1-.07.8-1C41.86,114.14,40.74,109.42,39.64,104.7Zm-.79,9.73c-.66,0-1.32,0-2,0,.2-1.1.38-2.13.59-3.15s.45-2,.7-3.22c.44,2,.83,3.88,1.25,5.74C39.48,114.27,39.36,114.45,38.85,114.43Z"/><path d="M84.35,110.27c-1.64-.67-1.82-.94-1.74-2.64,0-1,.55-1.56,1.38-1.58s1.37.33,1.44,1.46c0,.6.28.75.8.71a3.57,3.57,0,0,1,.8,0c.86.09,1.21,0,1-1.12a3.5,3.5,0,0,0-2.27-3.19,4.29,4.29,0,0,0-4.61.83C80,105.89,80,107.36,80,108.87a3.22,3.22,0,0,0,2.16,3.21c.79.31,1.57.66,2.35,1a1.56,1.56,0,0,1,1,1.33,7.37,7.37,0,0,1,0,2,1.34,1.34,0,0,1-1.4,1.27c-.82,0-1.46-.2-1.58-1.12s-.42-1.44-1.28-1.09c-1.66,0-1.58,0-1.38,1.45a3.29,3.29,0,0,0,3,3.06c2.59.42,5.35-.39,5.29-4.11S88,111.72,84.35,110.27Z"/><path d="M97.31,110.38s0,0-.08-.06c-1.83-.74-2-1.07-1.81-3A1.27,1.27,0,0,1,96.83,106a1.21,1.21,0,0,1,1.37,1.32c0,.75.33.92,1,.86a4.18,4.18,0,0,1,1,0c.53.06.68-.15.68-.67a3.68,3.68,0,0,0-3.09-3.89c-2.11-.38-4.27.65-4.7,2.56-.73,3.16-.43,5.33,2.77,6.24a6.43,6.43,0,0,1,.71.32,2.77,2.77,0,0,1,1.78,3.68,1.44,1.44,0,0,1-1.56,1.2,1.28,1.28,0,0,1-1.44-1.2c0-1.06-.55-1.16-1.2-1-1.69,0-1.77.1-1.38,1.63a4.32,4.32,0,0,0,.39,1.2,4.4,4.4,0,0,0,4.72,1.7c1.36-.3,2.61-.87,2.89-2.34C101.39,114.09,101.37,111.44,97.31,110.38Z"/><path d="M182.15,103.82c-1.06,0-2.13,0-3.19,0-.63,0-.78.16-.77.77,0,2.4,0,4.79,0,7.19V118c0,2,0,2,2,1.9.49,0,.6-.17.59-.63,0-1.33,0-2.66,0-4,0-1.57,0-1.57,1.61-1.58a3.55,3.55,0,0,0,3.76-2.7,9.44,9.44,0,0,0,.21-3.26C186.09,105.38,185.31,103.7,182.15,103.82Zm1.43,6.54a2.35,2.35,0,0,1-2.66.84c-.18-.15-.11-.37-.11-.56,0-.63,0-1.26,0-1.9a3.27,3.27,0,0,1,0-1c.16-.51-.52-1.36.45-1.52,1.64-.25,2.2.09,2.46,1.39A5.43,5.43,0,0,1,183.58,110.36Z"/><path d="M81.62,71.77c2.53-.06,5.06,0,7.59,0,2.28,0,2.26,0,2.22-2.33,0-.62-.21-.79-.81-.78-1.89,0-3.79,0-5.69,0-.71,0-1-.12-.94-.91.06-2.79,0-5.59,0-8.38,0-.79.35-1.88-.15-2.3s-1.52-.09-2.31-.14c-.63,0-.86.11-.84.81.06,2.19,0,4.39,0,6.59h0c0,2.16,0,4.32,0,6.49C80.69,71.54,80.84,71.79,81.62,71.77Z"/><path d="M139.6,117.47a6.72,6.72,0,0,1-1.1,0c-1.92,0-1.93,0-1.92-1.89,0-.82-.27-1.9.15-2.41s1.55-.1,2.37-.17a2.67,2.67,0,0,1,.4,0c.54.06.72-.21.68-.71a4.17,4.17,0,0,1,0-.79c.1-.68-.12-1-.85-.9s-1.4,0-2.1,0c-.54,0-.68-.18-.66-.68,0-1,0-2.07,0-3.1,0-.56.2-.67.69-.65.9,0,1.8,0,2.7,0,.68,0,.91-.23.83-.86a3.28,3.28,0,0,1,0-.7c.09-.63-.11-.87-.8-.85-1.76,0-3.53,0-5.29,0-.76,0-.87.26-.86.92,0,2.36,0,4.73,0,7.09s0,4.73,0,7.1c0,.82.26,1,1,1,1.6,0,3.21-.08,4.8,0,1,.06,1.21-.23,1.2-1.19S140.58,117.33,139.6,117.47Z"/><path d="M312.17,117.48h-.5c-2.24,0-2.24,0-2.24-2.28s0-2.17,2.14-2.19c1.78,0,1.56.34,1.61-1.68,0-.58-.17-.75-.73-.72-.77,0-1.53,0-2.3,0-.47,0-.75-.08-.73-.65,0-1.06,0-2.13,0-3.19,0-.44.14-.6.57-.58.73,0,1.46,0,2.19,0,1.78,0,1.55.35,1.6-1.69,0-.48-.08-.72-.65-.71-1.89,0-3.79,0-5.69,0-.48,0-.61.17-.61.64q0,7.38,0,14.78c0,.47.12.64.61.63,1,0,1.93,0,2.9,0h2.79c.27,0,.57.11.65-.37C314.06,117.81,313.82,117.48,312.17,117.48Z"/><path d="M111.26,117.48h-.2c-.79,0-1.85.26-2.31-.14s-.15-1.56-.16-2.38c0-1.95,0-1.93,2-1.95s1.61.38,1.65-1.74c0-.55-.19-.68-.69-.66-.76,0-1.53,0-2.3,0-.47,0-.64-.14-.63-.62,0-1.06,0-2.13,0-3.19,0-.48.13-.64.61-.62.9,0,1.8,0,2.7,0,.69,0,1-.17.9-.89a2.73,2.73,0,0,1,0-.7c.1-.66-.17-.84-.82-.82-1.73,0-3.46,0-5.19,0-.7,0-.8.25-.79.85,0,2.4,0,4.79,0,7.19v7.29c0,.33-.15.74.48.73,1.93,0,3.86,0,5.8,0,.22,0,.42,0,.51-.3C113.18,118.12,112.72,117.48,111.26,117.48Z"/><path d="M18,103.81c-1.77,0-3.53,0-5.3,0-.58,0-.71.18-.7.73,0,2.43,0,4.86,0,7.29s0,4.87,0,7.3c0,.55.11.75.7.73,1.53,0,3.06,0,4.6,0s1.52,0,1.52-1.59c0-.63-.19-.82-.8-.79-.93,0-1.87,0-2.8,0-.46,0-.64-.1-.62-.6,0-1.1,0-2.2,0-3.3,0-.52.18-.61.63-.59.77,0,1.54,0,2.3,0,.29,0,.58,0,.68-.39.36-1.49,0-2-1.51-2h-1.6c-.24,0-.49,0-.49-.33l.06-4a17.24,17.24,0,0,1,3-.1h.3c.71.11,1-.19.88-.88a2.73,2.73,0,0,1,0-.7C18.93,104,18.66,103.79,18,103.81Z"/><path d="M276.78,103.81q-2.59.06-5.19,0c-.65,0-.84.15-.83.81,0,2.4,0,4.8,0,7.19s0,4.93,0,7.39c0,.43,0,.67.57.66,1.9,0,3.8,0,5.7,0,.2,0,.54.13.55-.23a5.3,5.3,0,0,0-.11-2c-.15-.4-.85-.11-1.3-.17a1.33,1.33,0,0,0-.2,0c-.83,0-1.91.27-2.41-.15s-.15-1.56-.16-2.38c0-1.94,0-1.92,1.95-1.94s1.59.31,1.66-1.62c0-.6-.11-.83-.76-.78s-1.53,0-2.29,0c-.44,0-.58-.13-.57-.56q0-1.65,0-3.3c0-.42.1-.59.55-.57.73,0,1.46,0,2.2,0,1.69,0,1.43.23,1.45-1.5v-.1C277.74,103.92,277.4,103.79,276.78,103.81Z"/><path d="M244,115.48h-.3c-.45,0-.69.06-.75.63-.13,1.13-.64,1.56-1.53,1.54s-1.28-.57-1.45-1.67a49.08,49.08,0,0,1-.17-7.07,7,7,0,0,1,.28-1.75,1.31,1.31,0,0,1,1.38-1.16,1.22,1.22,0,0,1,1.35,1.15,1,1,0,0,0,1.3.93,3,3,0,0,1,.9,0c.54.07.6-.21.57-.64a4.11,4.11,0,0,0-3.32-3.79c-2.51-.24-4,.72-4.72,2.92-.54,1.72-.3,3.48-.37,5.17a35,35,0,0,0,.2,4.83,4.09,4.09,0,0,0,3.41,3.47,4,4,0,0,0,4.55-2.66C245.94,115.7,245.79,115.47,244,115.48Z"/><path d="M30,103.81q-3.2.06-6.39,0c-.66,0-.83.17-.82.82,0,1.58,0,1.58,1.55,1.58a1.5,1.5,0,0,0,.3,0c.66-.12.82.17.82.81,0,3.7,0,7.4,0,11.09,0,1.76,0,1.72,1.79,1.75.66,0,.83-.17.82-.82,0-2,0-4,0-6v-4.9c0-1.91,0-1.94,1.9-1.92.7,0,1-.2.88-.9a2.73,2.73,0,0,1,0-.7C30.93,104,30.67,103.79,30,103.81Z"/><path d="M347.8,103.81c-2,0-3.93,0-5.9,0-1.3,0-1.23,0-1.32,1.3-.08,1,.29,1.22,1.15,1.1.26,0,.54,0,.8,0,.57-.08.73.14.72.71,0,2,0,4.06,0,6.09v5.1c0,1.76,0,1.72,1.78,1.75.65,0,.83-.16.82-.82,0-3.63,0-7.26,0-10.89,0-1.91,0-1.94,1.9-1.92.69,0,1-.19.89-.9a2.06,2.06,0,0,1,0-.7C348.7,104,348.46,103.79,347.8,103.81Z"/><path d="M166.31,103.82c-2.34,0-4.67,0-7,0-.29,0-.46,0-.51.4-.25,1.79-.11,2,1.64,2a1.33,1.33,0,0,0,.2,0c.67-.12.83.17.82.81,0,3.7,0,7.4,0,11.1,0,1.75,0,1.71,1.78,1.74.66,0,.83-.17.82-.82,0-2,0-4,0-6s.05-3.73,0-5.59c0-1,.17-1.32,1.22-1.27,1.82.08,1.55.33,1.58-1.55,0-.1,0-.2,0-.3C166.86,103.94,166.69,103.81,166.31,103.82Z"/><path d="M325,103.81c-2,0-4.07.07-6.1,0-.95,0-1.09.28-1.12,1.14,0,1,.26,1.46,1.3,1.28.2,0,.4,0,.6,0,.6-.1.79.11.78.74-.05,2,0,4.07,0,6.1v5c0,1.83,0,1.79,1.8,1.82.64,0,.82-.15.82-.81,0-3.6,0-7.19,0-10.79,0-2,0-2,2-2,.58,0,.89-.14.81-.78a3.57,3.57,0,0,1,0-.8C325.86,104,325.63,103.79,325,103.81Z"/><path d="M296.17,118.2c.06-.59-.22-.75-.76-.73-.87,0-1.74,0-2.6,0s-.86-.22-.86-.89c0-3.67,0-7.33,0-11,0-1.83,0-1.8-1.84-1.81-.62,0-.78.15-.77.77,0,2.39,0,4.79,0,7.19s0,4.93,0,7.39c0,.49.06.71.63.7,1.83,0,3.67,0,5.5,0,.51,0,.74-.12.68-.66A4.78,4.78,0,0,1,296.17,118.2Z"/><path d="M67.09,117.47c-.84,0-1.67,0-2.5,0s-1-.13-1-.95c0-3.66,0-7.33,0-11,0-1.74,0-1.7-1.79-1.75-.74,0-.87.22-.85.9,0,2.36,0,4.73,0,7.1s0,4.86,0,7.29c0,.63.15.79.77.77,1.5,0,3,0,4.5,0s1.6,0,1.58-1.64C67.82,117.64,67.65,117.45,67.09,117.47Z"/><path d="M224.16,117.47c-.83,0-1.67,0-2.5,0s-.88-.16-.87-.86c0-3.67,0-7.34,0-11,0-1.83,0-1.8-1.81-1.82-.63,0-.85.13-.83.8,0,2.4,0,4.8,0,7.2s0,4.74,0,7.1c0,.83.26,1,1,1,1.43,0,2.86,0,4.3,0s1.54,0,1.57-1.55C225,117.6,224.79,117.44,224.16,117.47Z"/><path d="M75,111.84v-6.49c0-1.53,0-1.48-1.58-1.55-.8,0-1.06.13-1,1,0,4.42,0,8.85,0,13.27,0,1.8,0,1.76,1.82,1.8.69,0,.8-.24.79-.85C75,116.63,75,114.23,75,111.84Z"/><path d="M232.21,112v-6.49c0-1.64,0-1.59-1.67-1.66-.82,0-1,.25-.95,1,0,4.39,0,8.78,0,13.17,0,1.94,0,1.91,1.91,1.9.58,0,.7-.18.7-.73C232.19,116.74,232.21,114.34,232.21,112Z"/><path d="M342.65,47.94a27.6,27.6,0,0,0,4.44-3.15c-1.37-.57-2.58-1-3.76-1.58-.3-.13-.55-.3-.79,0-1.19,1.55-2.37,3.11-3.65,4.8C340.27,48,341.66,48.41,342.65,47.94Z"/><path d="M299.57,103.82h-.1c-.5-.08-.7.1-.68.64,0,1.29,0,2.59,0,4.07l2.37-1.74a1.09,1.09,0,0,0,.41-1C301.62,103.78,301.63,103.78,299.57,103.82Z"/><path d="M16.16,102.61a32.93,32.93,0,0,0,1.94-3c-.58,0-1,0-1.31,0s-.74-.15-1,.3c-.46.93-1,1.84-1.48,2.87C15.05,102.75,15.76,103.1,16.16,102.61Z"/><path d="M311.25,102.44c.58-.9,1.13-1.82,1.75-2.82-.54,0-1,0-1.39,0s-.69-.13-.9.36c-.34.78-.79,1.52-1.2,2.27-.09.18-.19.49,0,.49C310.11,102.77,310.8,103.12,311.25,102.44Z"/></svg>