<?xml version="1.0" encoding="utf-8"?>
<!-- Generator: Adobe Illustrator 22.0.1, SVG Export Plug-In . SVG Version: 6.00 Build 0)  -->
<svg version="1.1" id="Calque_1" xmlns="http://www.w3.org/2000/svg" xmlns:xlink="http://www.w3.org/1999/xlink" x="0px" y="0px"
	 viewBox="0 0 100 125" style="enable-background:new 0 0 100 125;" xml:space="preserve">
<path d="M44.6,46.4c-4.3-0.1-8-2.4-8-5.1h-2c0,2.8-3.7,5.1-8.2,5.1c-4.4,0-8.2-2.3-8.2-5.1h0h-2h0c0,2.8-3.7,5.1-8.2,5.1
	c-1.9,0-3.8-0.4-5.3-1.3l-1,1.8c1.8,1,4,1.5,6.3,1.5c4.1,0,7.5-1.6,9.2-4c1.6,2.4,5.1,4,9.2,4s7.5-1.6,9.2-4c1.3,2,3.9,3.4,7,3.9
	c-2.3,2.5-3.7,5.6-4.2,9.1c-1.2-0.9-1.9-2.1-1.9-3.2h-2c0,2.8-3.7,5.1-8.2,5.1c-4.4,0-8.2-2.3-8.2-5.1h-2c0,2.8-3.7,5.1-8.2,5.1
	c-1.8,0-3.6-0.4-5.1-1.1l-0.9,1.8c1.7,0.9,3.8,1.3,6,1.3c4.1,0,7.5-1.6,9.2-4c1.6,2.4,5.1,4,9.2,4c4.1,0,7.6-1.6,9.2-4
	c0.7,1.1,1.8,2,3.3,2.7l1.1,0.5l0.3-1.2l0-0.2c0.2-4.4,1.9-7.9,5.1-10.7c8-7,25.1-9.1,52.3-6.6l0.2-2C70.6,37.2,53.2,39.4,44.6,46.4
	z"/>
</svg>
