<svg id="Calque_1" data-name="Calque 1" xmlns="http://www.w3.org/2000/svg" viewBox="0 0 119 128"><title>Plan de travail 6</title><path d="M60.65,90.92h47.22a1.62,1.62,0,0,1,.22,0c.09,0,.21,0,.26,0s-.06.18-.1.27a28.11,28.11,0,0,1-1.68,3c-.5.84-1,1.67-1.59,2.47-.72,1-1.47,2-2.25,3-1,1.28-2.11,2.5-3.23,3.7-1,1-2,1.94-3,2.89s-2.23,1.93-3.39,2.84c-1,.77-2,1.51-3.05,2.21-.64.43-1.3.84-2,1.23l-1.61.94c-.81.46-1.63.89-2.47,1.28l-1.81.86c-1.1.49-2.21.95-3.35,1.36-.87.31-1.77.57-2.64.88-1.13.4-2.31.62-3.45,1a21.17,21.17,0,0,1-2.72.56,15.3,15.3,0,0,1-1.8.26,10.59,10.59,0,0,0-1.48.23,2.06,2.06,0,0,1-.42,0c-1.2.07-2.4.17-3.59.29h-.25c-1.53,0-3.06,0-4.58-.07-1-.07-2-.13-3-.24s-2.07-.29-3.1-.46c-1.4-.22-2.77-.52-4.15-.86s-2.54-.64-3.78-1.06c-.41-.14-.84-.25-1.24-.4-1.2-.45-2.39-.89-3.56-1.4-.73-.32-1.45-.64-2.16-1-1.06-.53-2.12-1.07-3.14-1.68-.68-.41-1.37-.81-2-1.24-.82-.52-1.66-1-2.42-1.6-1-.75-1.93-1.48-2.87-2.24a50.37,50.37,0,0,1-4.35-4,39.42,39.42,0,0,1-2.86-3.19c-.78-1-1.57-1.94-2.29-3a47.38,47.38,0,0,1-3.46-5.56c-.18-.34-.38-.68-.58-1s-.1-.31.17-.28H60.65Z"/><path d="M107.74,41.1H12.62c-.17,0-.49.16-.26-.32.4-.81.9-1.58,1.32-2.38s1-1.72,1.58-2.56c.83-1.28,1.73-2.5,2.68-3.69s1.87-2.24,2.87-3.31c.7-.76,1.42-1.5,2.17-2.22a48.23,48.23,0,0,1,4-3.43c1.08-.82,2.17-1.65,3.3-2.39.94-.62,1.9-1.22,2.88-1.78.76-.43,1.52-.87,2.3-1.26,1.06-.53,2.14-1,3.24-1.5,1.29-.55,2.6-1.05,3.92-1.51,1.06-.38,2.14-.7,3.23-1,.92-.24,1.84-.44,2.76-.65s2-.42,3-.57,2.1-.24,3.14-.38A37.71,37.71,0,0,1,59.6,12h3.69c.9,0,1.77.22,2.66.27.73,0,1.44.17,2.17.24.39,0,.77.14,1.16.21l2.18.43c.52.11,1,.23,1.55.36.86.23,1.71.46,2.56.72,1.33.4,2.64.86,3.93,1.37s2.31,1,3.43,1.51a52.2,52.2,0,0,1,5.57,3.09c1.41.9,2.78,1.88,4.12,2.91s2.76,2.3,4.09,3.52c1.07,1,2.06,2.06,3.06,3.12.64.68,1.23,1.4,1.84,2.1s1.06,1.36,1.57,2.05c.64.86,1.24,1.74,1.84,2.62.81,1.2,1.52,2.46,2.25,3.7A6.59,6.59,0,0,1,107.74,41.1Z"/><path d="M36.09,65.87V44c0-.47,0-.47.47-.47h18.8a8.15,8.15,0,0,1,1.9.28,14.23,14.23,0,0,1,2.25.67A13.59,13.59,0,0,1,62,45.82a12.25,12.25,0,0,1,1.91,1.61,10.75,10.75,0,0,1,2,3,11,11,0,0,1,.84,3.16,12.58,12.58,0,0,1-.16,4.19A10.46,10.46,0,0,1,65.22,61a11.81,11.81,0,0,1-2.91,3.15A17.45,17.45,0,0,1,59.43,66a8.11,8.11,0,0,1-.91.4c-.13,0-.18.1-.18.22v.26q0,10.47,0,21c0,.33-.08.41-.4.41q-10.74,0-21.47,0c-.32,0-.4-.08-.4-.41Q36.1,76.84,36.09,65.87Z"/><path d="M108.8,54.53a.51.51,0,0,1,.07.37v6.28c0,.45,0,.45.47.45,1.48,0,3,0,4.45,0,.32,0,.37.15.39.39a11.54,11.54,0,0,1,.06,2.49,48.24,48.24,0,0,0-.12,5.1c0,.28-.08.37-.37.36-1.47,0-2.94,0-4.41,0-.32,0-.4.09-.4.41q0,3.18,0,6.38c0,.28.07.33.33.33h3.91c.25,0,.32,0,.25.32-.28,1.16-.63,2.31-1,3.46-.24.89-.5,1.77-.77,2.65-.22.68-.41,1.36-.65,2A13.75,13.75,0,0,1,110,88.11a.52.52,0,0,1-.51.3H86.94c-.26,0-.33-.06-.33-.33,0-5-.11-10,0-15,.11-3.23,0-6.45.09-9.68s0-6.51,0-9.76,0-6.51,0-9.76c0-.3.09-.34.35-.34H109a.51.51,0,0,1,.54.33c.76,1.7,1.49,3.41,2.14,5.15a24.29,24.29,0,0,1,.75,2.33,17.51,17.51,0,0,1,.64,2.87c0,.26-.07.31-.31.31Z"/><path d="M32.86,74c0,5.25,0,9.59,0,13.93,0,.35-.1.44-.45.44-1.9,0-3.8,0-5.7,0A20,20,0,0,1,22.86,88,31.52,31.52,0,0,1,19.15,87,20.41,20.41,0,0,1,15,85.16a13.15,13.15,0,0,1-3.55-3,39.47,39.47,0,0,1-2.63-3.63A24.51,24.51,0,0,1,7.06,75.4a11,11,0,0,1-.71-2c-.15-.59-.28-1.19-.4-1.79s-.2-1.22-.29-1.83L5.3,67.54a1.62,1.62,0,0,1,0-.22,24.38,24.38,0,0,1,.08-3.42c.13-.9.22-1.8.43-2.68a21.17,21.17,0,0,1,.87-2.87,19.35,19.35,0,0,1,1.81-3.61,20.59,20.59,0,0,1,2.58-3.31A37.46,37.46,0,0,1,14,48.72a32.69,32.69,0,0,1,3.14-2.25,25.13,25.13,0,0,1,3.83-2,19.21,19.21,0,0,1,2.32-.79,4.36,4.36,0,0,1,1.1-.18h8c.38,0,.46.11.46.46,0,5.3-.07,10.6,0,15.9C32.87,64.89,32.82,69.88,32.86,74Z"/><path d="M63.83,43.54H83c.37,0,.45.11.45.46q0,22,0,44c0,.36-.1.47-.46.45-.79,0-1.58,0-2.37,0-5.42-.16-10.85,0-16.27-.08-.74,0-1.47,0-2.21,0-.19,0-.24-.06-.23-.24,0-1.81-.06-3.62,0-5.42.1-2.26,0-4.51.06-6.77s0-4.61,0-6.92a1.48,1.48,0,0,1,.69-1.3c.63-.48,1.24-1,1.84-1.51s1-.82,1.46-1.3a12.5,12.5,0,0,0,3.25-6A24,24,0,0,0,69.69,56a10.86,10.86,0,0,0,0-2.13,12,12,0,0,0-.64-3.13,15.49,15.49,0,0,0-2-3.75A18.68,18.68,0,0,0,65,44.6C64.66,44.25,64.24,44,63.83,43.54Z"/></svg>