<svg id="Calque_1" data-name="Calque 1" xmlns="http://www.w3.org/2000/svg" viewBox="0 0 329 120"><title>Plan de travail 5</title><path d="M86.11,83c-.24.75-.44,1.51-.7,2.25a5.64,5.64,0,0,0-.17,2.2.86.86,0,0,0,.7.84c.4,0,.47-.36.57-.62.36-.93.73-1.87,1-2.82.75-2.44,1.94-4.76,2.08-7.38A15.09,15.09,0,0,1,90,75.12a12,12,0,0,0-.17-5.29,26.59,26.59,0,0,1-.81-7.9,7.46,7.46,0,0,0-.56-3.58,7.63,7.63,0,0,1-.51-2.28c-.19-1.46-.36-2.93-.61-4.39-.17-.94-.47-1.85-.7-2.78a.75.75,0,0,0-.62-.6c-.39,0-.62.23-.79.56a2.11,2.11,0,0,0-.07,1.4c.33,1.75.66,3.51,1,5.26.06.32.12.66-.27.74s-.46-.19-.59-.43a9.46,9.46,0,0,1-1.09-3.46c-.19-2.17-.42-4.33-.8-6.47a10,10,0,0,0-.51-2.42,1.09,1.09,0,0,0-1.23-.76c-.68.12-.67.72-.74,1.23,0,.12.06.25.07.38.21,2.56.75,5.07,1,7.63a25,25,0,0,0,1.2,5.86,11.87,11.87,0,0,1,.41,5.29A17.82,17.82,0,0,0,84.08,70a20.31,20.31,0,0,1,0,11.2,4.87,4.87,0,0,0-.21,1.41c0,.24-.06.58.28.65s.46-.21.56-.44a25.92,25.92,0,0,0,1.57-3.87,17.38,17.38,0,0,0,0-9.41,17.9,17.9,0,0,1-.72-6.32c.08-1.1-.19-2.26.47-3.43a2,2,0,0,1,.87,1.78c0,.92,0,1.84,0,2.75a12.4,12.4,0,0,0,.76,5.26,6.9,6.9,0,0,1,.49,3.33A50.33,50.33,0,0,1,86.11,83Z"/><path d="M97.54,49.05c.53-.12.69.55.84,1,.62,1.81,1.25,3.62,1.84,5.44a33.44,33.44,0,0,1,1.36,7.69,12.39,12.39,0,0,0,.44,3.09c.08.25.1.54.45.56s.44-.23.58-.45a2.57,2.57,0,0,0,.35-1.5,61,61,0,0,0-.61-7c-.45-3.64-2.09-6.88-3.42-10.23a1.21,1.21,0,0,0-.2-.33,14.13,14.13,0,0,1-2.69-5,11.84,11.84,0,0,0-2.06-3.91c-2.89-3.2-5.45-6.7-8.73-9.54a11.34,11.34,0,0,0-2-1.63,4.19,4.19,0,0,1-2-2.49A16.77,16.77,0,0,0,81,22.84a2.61,2.61,0,0,0-2-1.7c-.74-.11-1.34.45-.84,1.2a13.53,13.53,0,0,1,1.35,3.34,3.71,3.71,0,0,0,1,1.37c1,1.05,2.12,2.08,3.25,3a30.6,30.6,0,0,1,3.58,3.62,49.37,49.37,0,0,0,3.51,4.22,17.46,17.46,0,0,1,3.91,6.56,5.87,5.87,0,0,1,.36,2.43,14.13,14.13,0,0,0,.8,5.77A31.13,31.13,0,0,1,98,60.22a42.42,42.42,0,0,1,.55,5.84c0,1.48,0,3,.06,4.43A1.72,1.72,0,0,0,99.29,72a1.53,1.53,0,0,0,.89-1,6.5,6.5,0,0,0,.34-2.18c.06-3-.36-6-.57-9a12.4,12.4,0,0,0-1.14-4.38,13.83,13.83,0,0,1-1.53-5.1C97.26,49.85,97,49.19,97.54,49.05Z"/><path d="M68.34,103.18c2.15-2.65,3.81-5.64,6-8.23a1.38,1.38,0,0,0,.37-.81c.05-.63-.09-.81-.7-.72a1.86,1.86,0,0,1-1,.06,4.26,4.26,0,0,1,.69-1.4A43.23,43.23,0,0,0,79.37,79.8a8.08,8.08,0,0,0,.31-3.24c0-.34-.11-.75-.53-.81s-.56.37-.66.67c-.32,1-.55,2-.87,3a35.11,35.11,0,0,1-3.21,7.85,90.41,90.41,0,0,1-7.06,9.57,45,45,0,0,1-9.74,8.51,32.46,32.46,0,0,1-11.73,5.26,1,1,0,0,0-.83.48,2.76,2.76,0,0,0,2,.79,7.86,7.86,0,0,0,3.16-.7c5.79-1.68,10.33-5.32,14.64-9.31A19.43,19.43,0,0,0,66.44,100c.56-.67,1.1-1.36,1.68-2,.26-.3.65-.66,1-.4s.22.79,0,1.19c0,.08-.1.14-.15.22a26.71,26.71,0,0,1-6.19,7c-3.45,2.54-6.83,5.14-11,6.47a1,1,0,0,0-.77.71c.17.1.34.27.53.29a7,7,0,0,0,4.07-.63c1.18-.65,2.35-1.32,3.54-2A30.18,30.18,0,0,0,68.34,103.18Z"/><path d="M76.49,9.29a29.59,29.59,0,0,0-8.08-1.45,16.1,16.1,0,0,0-8.94,1.91,10.76,10.76,0,0,1-2.37,1.07A21.08,21.08,0,0,0,50.84,14a.94.94,0,0,0-.35,1.35.92.92,0,0,0,1.3.5c.65-.27,1.29-.53,1.94-.78A26.45,26.45,0,0,1,65.4,13.37c2.34.19,4.67.55,7,.52a12.05,12.05,0,0,1,6.83,1.84,2.41,2.41,0,0,0,1.19.52c.54,0,1.18.19,1.49-.49s-.15-1.09-.56-1.46a5.26,5.26,0,0,0-2-1c-2.51-.74-5.11-1-7.66-1.59-1.21-.26-2.45,0-3.65-.28A13.66,13.66,0,0,0,65,11.26c-.8,0-1.61,0-2.42,0,0-.41.25-.5.5-.6a12.75,12.75,0,0,1,6.52-.88c2.21.26,4.37.72,6.55,1.14A15,15,0,0,1,84,14.46a10.6,10.6,0,0,0,1.24,1c.51.37,1.07,1,1.69.59s.3-1.21.14-1.84c-.09-.33-.38-.67-.11-1s.62.07.93.14a1,1,0,0,1,.24.09.47.47,0,0,0,.68-.15c.22-.26.06-.49-.07-.71a2.46,2.46,0,0,0-1.28-.87L78.91,8a2.37,2.37,0,0,0-.75-.19c-.47,0-.64.22-.44.65s.56.67.66,1.16A3.8,3.8,0,0,1,76.49,9.29Z"/><path d="M51.18,88.65a2,2,0,0,0,1.57-.78c2.31-2.44,4.42-5.05,6.83-7.41a10.21,10.21,0,0,0,2.7-5,42.47,42.47,0,0,1,3.25-8.8,9.44,9.44,0,0,0,.89-5.1,4.63,4.63,0,0,0-1.27-2.79C63.8,57.29,59.89,57,58,59.05a14.4,14.4,0,0,0-2.07,2.85C54.58,64.26,53.28,66.62,52,69a18,18,0,0,0-.82,1.78c-.18.44-.32.94.13,1.32s1,.14,1.45-.12a4.84,4.84,0,0,0,1.83-2c.69-1.41,1.3-2.85,1.88-4.31A25.61,25.61,0,0,1,58,62.33a4,4,0,0,1,3-2.22,2.48,2.48,0,0,1,2.93,2.77,11.82,11.82,0,0,1-.83,3.41c-1,2.24-2,4.47-2.83,6.75A7.39,7.39,0,0,1,57,76.82c-1.38.83-2.73,1.7-4.1,2.53a2.6,2.6,0,0,0-1.11,1.25.83.83,0,0,0,0,.87c.23.31.54.18.83.08a10.34,10.34,0,0,0,1.09-.44c1-.54,2.06-1.11,3.3-1.79a3.11,3.11,0,0,1-.84,1.56c-1.89,1.69-3.42,3.7-5.14,5.54a2.34,2.34,0,0,0-.63,1.4C50.39,88.35,50.6,88.63,51.18,88.65Z"/><path d="M92.76,85.43c.46.22.85-.06,1.08-.48a5.57,5.57,0,0,0,.66-1.42c.22-.88.5-1.76.74-2.64s.45-1.77.73-2.64c.2-.59.49-.6.87-.09.08.11.12.24.2.35.38.51.74.48,1.07-.09a4.29,4.29,0,0,0,.31-1.66,6.45,6.45,0,0,0-.41-2.3,21.09,21.09,0,0,1-1-4.2q-.32-4.31-.46-8.62a18.21,18.21,0,0,0-1.16-6.39A23,23,0,0,1,94,46.82a8.15,8.15,0,0,0-2.15-5.6,23.42,23.42,0,0,1-4.07-5.08,1.87,1.87,0,0,0-.26-.3c-1.54-2-3.62-3.37-5.32-5.18A7.09,7.09,0,0,0,81,29.79a2.32,2.32,0,0,0-1.32-.49,1.06,1.06,0,0,0-1.1.55,1.3,1.3,0,0,0,.07,1.25,2.28,2.28,0,0,0,.66.62C81,33,82.6,34.34,84.22,35.66a7.93,7.93,0,0,1,2.52,2.8,14.47,14.47,0,0,0,2.7,3.81,17.38,17.38,0,0,1,1.38,1.9,6.18,6.18,0,0,1,1,3.59c0,.3,0,.61,0,.91a49.27,49.27,0,0,0,1.93,9.71A12.19,12.19,0,0,1,94.39,63a20.56,20.56,0,0,0,.54,6.73,11.54,11.54,0,0,1-.38,7.41,6.7,6.7,0,0,0-.23.88c-.57,2.15-1.14,4.3-1.69,6.45C92.55,84.8,92.38,85.25,92.76,85.43Z"/><path d="M251.45,88.65c0-.26,0-.53,0-.79s-.14-.28-.32-.34a1.92,1.92,0,0,0-2.36,1c-.33.57-.65,1.14-1,1.7l-4.17,7.21-2.4-4.17c-1-1.7-2-3.4-3-5.09a1.73,1.73,0,0,0-2.06-.63c-.74.17-.39.78-.39,1.18,0,4.5,0,9,0,13.5,0,.78,0,1.57,0,2.35,0,.45.16.65.6.63.13,0,.26,0,.39,0,1.47,0,1.3.08,1.3-1.23V93.86a1.62,1.62,0,0,1,.18-1l5.36,9.17c1.86-3.2,3.59-6.18,5.31-9.16l.24.08v11.36c0,.29-.14.72.18.83a3.1,3.1,0,0,0,1.81,0c.57-.16.28-.75.28-1.14C251.46,98.86,251.45,93.76,251.45,88.65Z"/><path d="M73.77,28.34c.46,0,.82-.09,1-.63a1,1,0,0,0-.33-1.27,5.62,5.62,0,0,0-2.23-1A16.9,16.9,0,0,0,68,24.93a26.37,26.37,0,0,0-4.48.4A21.73,21.73,0,0,0,53,29.64c-3.62,2.93-7,6.11-10.89,8.77a30.18,30.18,0,0,0-10.8,14.14c-1.57,4-3.13,7.93-4.78,11.87a2.82,2.82,0,0,0-.23.61.74.74,0,0,0,1,.91,1.56,1.56,0,0,0,1.11-.85A10.25,10.25,0,0,0,29,63.77,70.24,70.24,0,0,1,36.5,47.45a28.55,28.55,0,0,1,7.3-8.29,94.39,94.39,0,0,0,8.48-7,12.52,12.52,0,0,1,3.61-2.34,38.62,38.62,0,0,1,6.51-2.27c3.49-.83,7-1.05,10.35.57A2.22,2.22,0,0,0,73.77,28.34Z"/><path d="M76.13,101.91c1.29-3.85,2.06-7.83,3.33-11.68.69-2.07.85-4.28,1.65-6.31a15.88,15.88,0,0,0,1-5.1,45.42,45.42,0,0,0,.25-5.35,2.62,2.62,0,0,0-.26-1.26c-.16-.26-.29-.62-.66-.51a.69.69,0,0,0-.44.73,10.06,10.06,0,0,0,.1,1.56,8.68,8.68,0,0,1,.15,1.43c.15,3.9-1.13,7.46-2.62,11-.82,1.91-1.89,3.75-2,5.9a8.28,8.28,0,0,1-2.09,4.84c-1.47,1.79-2.85,3.64-4.17,5.54a22.84,22.84,0,0,1-4.16,5c-2.63,2.15-5.18,4.41-8.31,5.85-.19.09-.43.19-.39.45s.28.31.5.34A6.51,6.51,0,0,0,63,113.17,36.52,36.52,0,0,0,67.78,109a36.29,36.29,0,0,0,5.67-7.49,3.52,3.52,0,0,1,1-1.29c.42.31.21.57.12.86a18.59,18.59,0,0,1-3,5.35,58.35,58.35,0,0,1-6,6.55c-.37.37-.84.66-1,1.22a.89.89,0,0,0,.82.28,4.4,4.4,0,0,0,2.77-1.33c.77-.83,1.56-1.65,2.39-2.43A20.61,20.61,0,0,0,76.13,101.91Z"/><path d="M231.37,88.62c0-.22,0-.44,0-.66s0-.4-.21-.42c-.52,0-1.05,0-1.57,0s-.51.42-.68.71l-3.27,5.66-2,3.51c-.89-1.53-1.69-2.92-2.5-4.3-1-1.7-2-3.4-2.94-5.1-.5-.88-1.34-.48-2-.45s-.33.69-.33,1.06c0,4.49,0,9,0,13.49,0,.79,0,1.57,0,2.36,0,.58.2.78.75.72a4.69,4.69,0,0,1,.53,0c.91,0,.93,0,.93-.92,0-3.36,0-6.72,0-10.08V92.93l.27-.08L223.6,102l5.3-9.13.26.06v10.94c0,.31,0,.61,0,.92,0,.12.07.31.14.33a3.78,3.78,0,0,0,1.8,0c.46-.13.23-.69.24-1Q231.38,96.34,231.37,88.62Z"/><path d="M50.8,107.43c3.47-1.23,6.26-3.58,9.26-5.58,1.6-1.07,2.75-2.67,4.23-3.89a42.59,42.59,0,0,0,6.25-6.69A35.72,35.72,0,0,0,75.35,82a23.18,23.18,0,0,0,2.08-8.17A7.85,7.85,0,0,0,77.15,71c-.16-.44-.32-.84-.9-.71s-.58.58-.56,1a14.65,14.65,0,0,1-.55,4.51,70.89,70.89,0,0,1-2.82,7.87A16.35,16.35,0,0,1,70,87.78c-.88,1.14-1.8,2.25-2.66,3.41A42.53,42.53,0,0,1,59,99.64c-2.16,1.63-4.39,3.17-6.51,4.84a17.69,17.69,0,0,1-9.39,3.58,13.12,13.12,0,0,0-1.42.2c-.4.1-.78.33-.7.81s.43.51.79.53a4.78,4.78,0,0,0,1.69-.09,3.84,3.84,0,0,1,1.3-.16,7.36,7.36,0,0,0,3.29-.71C49,108.23,49.86,107.76,50.8,107.43Z"/><path d="M28.47,32.3c-2.36,3.81-4.38,7.83-7,11.47a28.08,28.08,0,0,0-3.06,5.45c-.88,2-1.8,4.06-2.69,6.09a11,11,0,0,0-.86,2.46,2.64,2.64,0,0,0,.06,1.42.76.76,0,0,0,.64.57.7.7,0,0,0,.73-.45c.21-.43.42-.86.6-1.3.61-1.49,1.2-3,1.82-4.48A49.81,49.81,0,0,1,22.1,46.2q4.13-6.66,8.23-13.35c1.6-2.59,3.19-5.18,5-7.67,2.58-3.62,5.31-7.12,8.14-10.55a24.34,24.34,0,0,1,8-6.73l0-.37a18.63,18.63,0,0,0-3.3.78,5.54,5.54,0,0,0-2.36,1.32A80.38,80.38,0,0,0,38,18.22C34.25,22.54,31.45,27.49,28.47,32.3Z"/><path d="M244.63,26.93a9.18,9.18,0,0,0-8.94-9.2,9.09,9.09,0,0,0-9.26,9.15,8.94,8.94,0,0,0,9.08,9A9,9,0,0,0,244.63,26.93Zm-15.87-.11a6.62,6.62,0,0,1,6.76-6.7c3.19-.26,6.74,2.72,6.78,6.68a6.94,6.94,0,0,1-6.7,6.81A6.79,6.79,0,0,1,228.76,26.82Z"/><path d="M241.49,69.83l.24-.06c.11.18.23.35.33.54q3,5.25,6.08,10.52c.18.3.34.61.54.89a2.55,2.55,0,0,0,2,.31c.52-.22.27-.69.27-1q0-7.8,0-15.58c0-.22,0-.44,0-.66s0-.4-.22-.43a3.82,3.82,0,0,0-1.81,0c-.53.17-.31.75-.31,1.15,0,3.32,0,6.64,0,10a2,2,0,0,1-.09,1c-.43-.17-.5-.54-.66-.82-2-3.43-4-6.86-6-10.3-.13-.22-.23-.47-.38-.68a2.51,2.51,0,0,0-2-.33c-.49.23-.29.68-.29,1q0,7.79,0,15.58c0,1.13,0,1.13,1.15,1.13h.26c.66.08.91-.18.89-.88,0-1.87,0-3.75,0-5.63Z"/><path d="M145.51,58q0-7.79,0-15.58c0-1.19,0-1.19-1.25-1.19s-1.11-.2-1.11,1.15c0,3.23,0,6.46,0,9.69v1.24c-.48,0-.48-.32-.6-.52-1.8-3.09-3.58-6.19-5.37-9.28-.35-.6-.69-1.21-1.06-1.8a2.37,2.37,0,0,0-2.24-.37.54.54,0,0,0-.14.34c0,.31,0,.62,0,.92V58.4c0,.38.16.55.55.53h.79c1,0,1,0,1-1q0-5,0-10.08V46.51a1.69,1.69,0,0,1,.65.8q2.92,5,5.84,10.07a9.48,9.48,0,0,0,.73,1.23c.5.62,1.22.3,1.83.28S145.51,58.3,145.51,58Z"/><path d="M172.2,50.05c0,4.38,3.93,9.26,9.12,9,4.82.28,9.09-4.13,9.09-9a9.11,9.11,0,1,0-18.21,0Zm9.61-6.79a6.78,6.78,0,0,1-.63,13.54,6.78,6.78,0,1,1,.63-13.54Z"/><path d="M203.2,87.24a9.1,9.1,0,0,0,0,18.2c5.29,0,9.42-4.68,9-9.15C212.55,92.13,208.74,87.24,203.2,87.24Zm-.1,15.82a6.73,6.73,0,1,1,.18-13.45,6.73,6.73,0,1,1-.18,13.45Z"/><path d="M154,35.93A9.09,9.09,0,1,0,154,17.75c-5.36,0-9.35,4.79-9,9.06C144.61,31.31,148.8,36,154,35.93Zm.06-15.81c3.43-.21,6.76,3.17,6.68,6.88a7.05,7.05,0,0,1-6.87,6.62,6.8,6.8,0,0,1-6.68-6.81A6.59,6.59,0,0,1,154.1,20.12Z"/><path d="M289.38,40.9a9.18,9.18,0,0,0-9.22,9c0,5.25,4.5,9.39,9.1,9.09a8.92,8.92,0,0,0,9.1-9A9.12,9.12,0,0,0,289.38,40.9Zm-.16,15.89a6.74,6.74,0,0,1-6.74-6.88,6.77,6.77,0,1,1,13.53.2A6.68,6.68,0,0,1,289.22,56.79Z"/><path d="M112.59,71.4a18,18,0,0,1-1.16-5.21,5.83,5.83,0,0,0-1.58-3.78,16.23,16.23,0,0,0-3.24-2.2c-.87-.5-1.47-.13-1.73.84A6.77,6.77,0,0,0,105,64.4a19,19,0,0,1,.43,7.77,3.82,3.82,0,0,0,.5,2.77,4.82,4.82,0,0,1,.59,2.51c0,2.27-.23,4.52-.31,6.78a41.82,41.82,0,0,1-.55,5.59,14.67,14.67,0,0,0-.28,3.62c0,.24,0,.55.29.65s.48-.14.67-.31a2.94,2.94,0,0,0,.81-1.18,7.83,7.83,0,0,0,.31-1.53c.28-2.46.59-4.92.77-7.39a19.2,19.2,0,0,0,.12-5.08c-.26-1.32-.45-2.66-.69-4a6,6,0,0,1,.06-2.85,6.88,6.88,0,0,0-.1-4.48,7.44,7.44,0,0,1-.41-2.44c0-.24-.07-.55.27-.65a.59.59,0,0,1,.75.35,4.39,4.39,0,0,1,.35.84c.19.72.33,1.44.51,2.16.49,2,.78,4,1.86,5.82a5.28,5.28,0,0,1,.8,3.11,36.5,36.5,0,0,0,.21,4,2.42,2.42,0,0,0,.65,1.7,2.16,2.16,0,0,0,1.23-2.1c0-.92-.06-1.83-.11-2.75A17.62,17.62,0,0,0,112.59,71.4Z"/><path d="M155.51,64.16c-4.23-.4-9.15,3.38-9.19,9a9.11,9.11,0,0,0,9.15,9.11,9.21,9.21,0,0,0,9.06-9.07C164.56,68.16,160,63.84,155.51,64.16ZM155.33,80a7,7,0,0,1-6.68-6.81,6.76,6.76,0,0,1,6.73-6.75,6.61,6.61,0,0,1,6.76,6.8C162.36,76.82,158.91,80,155.33,80Z"/><path d="M247.85,34.86a2.25,2.25,0,0,1,0,.26c0,.37.12.58.52.56H249c1.11,0,1.12,0,1.12-1.14V23.45c.4,0,.43.28.52.44,1.17,2,2.32,4,3.48,6L257.09,35a1.8,1.8,0,0,0,2.14.68c.65-.22.33-.82.33-1.23,0-4.94,0-9.87,0-14.81,0-1.71,0-1.68-1.72-1.61-.53,0-.68.21-.65.69s0,.79,0,1.18V30.07l-.23.07c-.25-.4-.51-.8-.75-1.21-1.89-3.29-3.81-6.56-5.66-9.87A1.72,1.72,0,0,0,248.74,18c-.64,0-.91.15-.9.87C247.87,24.2,247.85,29.53,247.85,34.86Z"/><path d="M166.32,34.75c0,.13,0,.27,0,.4,0,.39.17.54.55.53h.79c.92,0,.93,0,.94-.93V23.42l.26,0,3.68,6.33c1,1.77,2,3.55,3.06,5.32a1.77,1.77,0,0,0,2.06.63c.69-.2.36-.81.36-1.22,0-5.06,0-10.13,0-15.19a2.54,2.54,0,0,1,0-.39c.13-.75-.27-.91-.9-.85-.18,0-.35,0-.53,0-.9,0-.92,0-.92.93,0,3.45,0,6.9,0,10.35,0,.25.18.59-.19.8-.19-.27-.37-.51-.52-.77q-2.91-5-5.81-10.08a6.7,6.7,0,0,0-.54-.9c-.54-.66-1.3-.32-2-.29s-.33.63-.33,1Q166.32,26.89,166.32,34.75Z"/><path d="M91.33,18.06a37.53,37.53,0,0,0,3.79,4c1.44,1.33,3,2.47,4.35,3.94,3.52,3.93,6.08,8.5,8.88,12.91a7.91,7.91,0,0,1,.42.82c1,2.34,2.07,4.7,3.16,7a6.9,6.9,0,0,1,.63,3.55,27.49,27.49,0,0,0,0,3,1.55,1.55,0,0,0,1.43,1.43c.55,0,.86-.47,1-1.33a9,9,0,0,0-.22-3.75c-.52-1.92-.66-3.95-1.64-5.75s-1.73-3.61-2.53-5.45a31,31,0,0,0-5.48-8.54c-2.64-2.93-5.07-6-6-10a2.27,2.27,0,0,0-.85-1.29L93.8,15.4c-.21-.15-.39-.39-.74,0a3.54,3.54,0,0,0,1.11,1.51,15.1,15.1,0,0,1,1.54,1.2,2.59,2.59,0,0,1,1.07,2.25A1.26,1.26,0,0,1,96,19.9a21.9,21.9,0,0,1-3.41-3.79c-.24-.37-.46-.76-.91-.89a1.1,1.1,0,0,0-1.22.19.89.89,0,0,0,0,1.1A8.83,8.83,0,0,0,91.33,18.06Z"/><path d="M25.05,63.57c.55.2.64-.44.79-.81.71-1.73,1.44-3.46,2.07-5.22a57.21,57.21,0,0,1,5.72-11.71c1.89-3,3.93-5.76,7-7.67A31.55,31.55,0,0,0,47,33a47.67,47.67,0,0,1,8.83-6.93,10.09,10.09,0,0,1,2.11-1,40.71,40.71,0,0,1,8.16-1.71,10.25,10.25,0,0,1,5.53.38,15.63,15.63,0,0,0,2.11.56c.33,0,.63,0,.8-.33a.84.84,0,0,0-.25-1,3.16,3.16,0,0,0-1.68-.67A22.41,22.41,0,0,0,65,22,24.49,24.49,0,0,0,56.9,24a49,49,0,0,0-6.71,4.29C48,30,45.91,31.76,43.84,33.57c-.31.28-.69.73-1.13.47s-.06-.76,0-1.16.25-.8-.18-1.05-.68,0-1,.24a3.88,3.88,0,0,0-.64.64,8.62,8.62,0,0,0-1.35,2.38,11.17,11.17,0,0,1-2.71,4.1,22.46,22.46,0,0,0-5.55,7.33c-.87,2-2,3.88-2.69,5.95a62.66,62.66,0,0,1-2.92,7.27,26.52,26.52,0,0,0-1,2.56C24.61,62.76,24.5,63.37,25.05,63.57Z"/><path d="M31,64.48A1,1,0,0,0,32.25,64,10.26,10.26,0,0,0,33,62.5c1.63-3.71,3.16-7.46,4.88-11.12A27.56,27.56,0,0,1,48.29,39.54a52.2,52.2,0,0,0,6.15-4.41c4.31-3.63,9.15-5.45,14.85-4.33a.77.77,0,0,0,.95-.89,1.41,1.41,0,0,0-1.3-1.27c-.94-.18-1.9-.26-2.8-.37a22.06,22.06,0,0,0-12.81,5.14,48.1,48.1,0,0,1-5.9,4.75c-4.55,2.78-8.32,6.24-10.69,11.15a129.08,129.08,0,0,0-5.82,13.13,2.37,2.37,0,0,0-.23,1C30.71,63.82,30.53,64.3,31,64.48Z"/><path d="M67.62,46.1c.06-.61-.33-.84-.84-1-3.22-.93-6-.71-7.92,2.35a6.58,6.58,0,0,1-2.51,2.26,18,18,0,0,0-5.07,4.48,10.26,10.26,0,0,0-1.8,3,14,14,0,0,1-1.24,2.44c-2.42,3.7-3.61,7.92-5.13,12A1.51,1.51,0,0,0,43.27,73c.45.69.95.75,1.47.14a3.25,3.25,0,0,0,.7-1.24,47,47,0,0,1,4.17-9.43,41.83,41.83,0,0,1,5.29-8.38A8.61,8.61,0,0,1,63.53,51a2.84,2.84,0,0,0,1.64-.24,1.07,1.07,0,0,0,.7-1.15c-.05-.48-.49-.53-.88-.63a16.59,16.59,0,0,0-2.72-.26c-.35-.05-.76,0-.88-.41s.19-.72.54-.95A4.32,4.32,0,0,1,65.1,47c.43.06.85.17,1.11.23C67.08,47.18,67.55,46.77,67.62,46.1Z"/><path d="M71,34.57c.26-.51,0-.93-.47-1.23a5.08,5.08,0,0,0-.69-.38,9.2,9.2,0,0,0-5.33-.79c-3.51.41-6.74,1.39-9.38,3.86a50.62,50.62,0,0,1-7,5.41,24.11,24.11,0,0,0-8.59,9.68c-2.07,4.18-3.66,8.58-5.85,12.7a2.55,2.55,0,0,0-.37,1.49c0,.38,0,.73.4.89a.86.86,0,0,0,1-.31,3.82,3.82,0,0,0,.48-.77c.27-.55.52-1.11.75-1.67,1.21-2.94,2.36-5.9,3.81-8.74a30.59,30.59,0,0,1,8.73-10.63c2.5-1.9,4.9-3.94,7.32-5.93A19.44,19.44,0,0,1,65,33.88a6.26,6.26,0,0,1,3.84.44c.32.14.62.31,1,.44S70.73,35.13,71,34.57Z"/><path d="M70,43.24a1.57,1.57,0,0,0-.27-1.48,2,2,0,0,0-1.22-.93c-3.42-1-6.67-.76-9.5,1.62a43.69,43.69,0,0,1-5.17,3.79,12.44,12.44,0,0,0-3.62,3.35C49.17,51,48,52.42,47,53.86a53,53,0,0,0-7.14,13.76,1.87,1.87,0,0,0,0,1.52.85.85,0,0,0,1.38.39,2.39,2.39,0,0,0,.88-1.11c1.37-2.92,2.76-5.83,4.12-8.75A28.28,28.28,0,0,1,53.41,50c2.12-1.81,4.26-3.61,6.26-5.56a5.93,5.93,0,0,1,4.4-1.68,8.82,8.82,0,0,1,3,.66,3.64,3.64,0,0,0,1.51.39C69.14,43.76,69.73,43.79,70,43.24Z"/><path d="M29.55,24.57a12.65,12.65,0,0,0-2,3.32,11.29,11.29,0,0,1-2.43,3.84,10.41,10.41,0,0,0-2.07,3A27.06,27.06,0,0,1,20,40a35.62,35.62,0,0,0-4.26,6.56,50.44,50.44,0,0,0-2.52,5.74c-.45,1.31-.32,2.1.31,2.36s1.12-.11,1.7-1.56c.39-1,.64-2.07,1.11-3.06,1-2.17,2.33-4.19,3.47-6.29a22.09,22.09,0,0,1,2.62-4.05,20.05,20.05,0,0,0,3-4.61,9.11,9.11,0,0,1,1.52-2.27,6.9,6.9,0,0,0,1.7-3,2.87,2.87,0,0,1,.75-1.35A23.66,23.66,0,0,0,32.56,24a61.28,61.28,0,0,1,9.93-12.93,2.13,2.13,0,0,0,.72-.94,8.66,8.66,0,0,0-2,.71,6.7,6.7,0,0,0-3.81,3A7.78,7.78,0,0,1,36.3,15.3,28.91,28.91,0,0,0,32,21,22.77,22.77,0,0,1,29.55,24.57Z"/><path d="M50.92,46.87c2.7-2.15,5.38-4.32,8.1-6.44a10.05,10.05,0,0,1,7.46-2.15l1.53.2a1.5,1.5,0,0,0,1.53-1.17A1.48,1.48,0,0,0,68.31,36a4.6,4.6,0,0,0-.52-.06,12.61,12.61,0,0,0-9.15,2.33C55,40.91,51.54,43.76,48,46.56a21.72,21.72,0,0,0-4.3,4.72,52.46,52.46,0,0,0-5.4,10.14C37.66,63,37,64.66,36.39,66.27a.73.73,0,0,0,.16,1,1,1,0,0,0,1.21,0,2.48,2.48,0,0,0,.72-.92c1.5-3,3.07-6,4.48-9A27.86,27.86,0,0,1,50.92,46.87Z"/><path d="M45.16,106.21a4,4,0,0,0,2.25-.5c3.71-2.13,7.17-4.63,10.67-7.08A25.93,25.93,0,0,0,62,95.32c2.23-2.32,4-5,6.24-7.36a20.74,20.74,0,0,0,4.57-8.43,15.59,15.59,0,0,0,.93-7.06,4.72,4.72,0,0,0-.81-2.3c-.35-.45-.74-.37-1.17-.25a.78.78,0,0,0-.67.83,5.64,5.64,0,0,0,.11,1.43,6.9,6.9,0,0,1,.24,2.36,11.67,11.67,0,0,1-.57,3.83c-1,3.67-2.54,7-5.64,9.48a14.31,14.31,0,0,0-4,4.94,5,5,0,0,1-1.27,1.65,49.41,49.41,0,0,1-5.55,4.35c-2.91,1.77-5.65,3.78-8.51,5.62a9.86,9.86,0,0,0-1.06.77.61.61,0,0,0-.15.71A.5.5,0,0,0,45.16,106.21Z"/><path d="M304.05,75.1a5.86,5.86,0,0,0,2.07-6.2,5.77,5.77,0,0,0-4.75-4.48,23.42,23.42,0,0,0-4.43-.13c-1.07,0-1.09,0-1.09,1V80.92c0,1.14,0,1.14,1.13,1.14h.27c.93,0,.94,0,.95-.92,0-1.35,0-2.7,0-4,0-.26-.06-.54.23-.7a2.16,2.16,0,0,1,2.19.57c.93,1.47,1.84,3,2.77,4.43.21.32.36.7.86.68.72,0,1.43,0,2.35,0l-3.82-5.93C303.25,75.76,303.66,75.44,304.05,75.1Zm-3.77-1c-2.07.19-2.07.18-2.07-1.89v-2c0-.87,0-1.74,0-2.61,0-1,0-1,1.09-1a6.68,6.68,0,0,1,1.94.16,3.7,3.7,0,0,1-.07,7.17A5.4,5.4,0,0,1,300.28,74.13Z"/><path d="M106.8,54a20.38,20.38,0,0,0,.82,3.7.91.91,0,0,0,1.12.66,1.13,1.13,0,0,0,1-1.2c-.08-.29-.17-.62-.29-1-.73-2-1.42-4.11-2.23-6.13-.6-1.49-1.45-2.87-1.93-4.42a26.68,26.68,0,0,0-1.89-4.44c-1.88-3.6-4-7.08-6.16-10.49A19.85,19.85,0,0,0,93,26.18c-2.52-2.06-5.07-4.14-6.81-7a1.94,1.94,0,0,0-1.2-.93c-.46-.12-.89-.2-1.18.24s0,.74.24,1.05A8.6,8.6,0,0,1,85.75,22a10.38,10.38,0,0,0,3.56,4.26,26.44,26.44,0,0,1,6.14,6.39c1.14,1.71,2.31,3.39,3.58,5a15.27,15.27,0,0,1,1.71,2.78q2.67,5.54,5.33,11.08A8.39,8.39,0,0,1,106.8,54Z"/><path d="M88.61,20.26c.18.35.36.7.55,1a6.94,6.94,0,0,0,2.18,2,29,29,0,0,1,5.83,5.22,72.42,72.42,0,0,1,8.13,13.23,108.38,108.38,0,0,1,4.34,11.06c.41,1.19.84,2.38,1.26,3.57a.64.64,0,0,0,.66.52.72.72,0,0,0,.76-.58,5,5,0,0,1,.2-.62,2.69,2.69,0,0,1-.14-.52c-.1-1.69-.93-3.16-1.42-4.73a73,73,0,0,0-6.12-14.39,62.3,62.3,0,0,0-3.9-6.49,35.38,35.38,0,0,0-6.53-6.92,30.65,30.65,0,0,1-3.62-3.21,2,2,0,0,0-.83-.62,1.3,1.3,0,0,0-1.35.24C88.18,19.46,88.39,19.87,88.61,20.26Z"/><path d="M190.81,75.74c.14-.1.3-.18.43-.29a6.09,6.09,0,0,0,2.46-6.58,5.81,5.81,0,0,0-5.17-4.53,38.78,38.78,0,0,0-4.18-.08c-.63,0-.84.17-.84.8q0,8.11,0,16.24c0,.52.11.84.72.77a2,2,0,0,1,.65,0c.73.11.88-.25.86-.89,0-1.35,0-2.71,0-4.06,0-.3,0-.62.35-.75a2,2,0,0,1,2.23.78c.63,1,1.25,2,1.88,3,1.3,2.06,1.3,2.06,3.69,1.89,0,0,.05,0,.17-.16l-3.71-5.77ZM188,74.12c-2.22.25-2.22.23-2.22-2V67.3c0-.31,0-.66.42-.67,1.47,0,2.94-.16,4.18,1A3.76,3.76,0,0,1,188,74.12Z"/><path d="M182.67,35.69c.61,0,1.22,0,1.83,0a8.55,8.55,0,0,0,5.67-2.31,8.65,8.65,0,0,0,2.53-8.47,8.23,8.23,0,0,0-6.09-6.52,12.77,12.77,0,0,0-3.89-.34c-.91,0-.92,0-.92.95q0,3.91,0,7.85c0,2.66,0,5.32,0,8C181.77,35.52,182,35.74,182.67,35.69Zm1.59-15.28A5.58,5.58,0,0,1,189,22.48a6.61,6.61,0,0,1-2.9,10.64l-.12.05c-1.6.44-1.81.29-1.81-1.33q0-5,0-10.08A3.71,3.71,0,0,1,184.26,20.41Z"/><path d="M88.84,88.91a2.84,2.84,0,0,0,1.71-2.15,33.94,33.94,0,0,1,1.52-5.13,25.2,25.2,0,0,0,1.14-13.24,24.08,24.08,0,0,1-.55-6.4,25,25,0,0,0-.12-3.75,9.55,9.55,0,0,0-.61-1.85A18.86,18.86,0,0,1,91,52.87a29.09,29.09,0,0,0-.67-3.59c-.14-.43-.23-.84-.82-.84s-.63.42-.73.78a7,7,0,0,0-.31,3,17.32,17.32,0,0,0,.86,3.67,13,13,0,0,1,.89,5.24c0,1.09,0,2.18,0,3.27a14.49,14.49,0,0,0,.7,4.89,8.76,8.76,0,0,1,.44,2.44A29.2,29.2,0,0,1,88.53,85a10.33,10.33,0,0,0-.86,3.13C87.54,89,88,89.3,88.84,88.91Z"/><path d="M190.89,89.09c0-1.71-.07-1.76-1.73-1.59-.37,0-.58.12-.56.53s0,.53,0,.79c0,1.92,0,3.84,0,5.76,0,1,0,1-1,1-1.22,0-2.44,0-3.66,0-.71,0-.89-.25-.88-.91,0-2,0-3.93,0-5.89,0-1.5.3-1.32-1.41-1.34h-.13c-.64-.08-.82.22-.82.83q0,8,0,16c0,.71.24.91.91.88,1.79-.06,1.44.18,1.46-1.44s0-3.4,0-5.1c0-.51.08-.83.7-.82,1.39,0,2.79,0,4.19,0,.44,0,.63.2.61.63s0,.61,0,.92c0,1.7,0,3.4,0,5.1,0,.53.19.72.68.69.17,0,.35,0,.52,0,1.08,0,1.09,0,1.09-1,0-2.57,0-5.15,0-7.72Z"/><path d="M104.11,55.72a.83.83,0,0,0,.79.57c.35,0,.56-.25.7-.52a2.33,2.33,0,0,0,.05-2.12c-1.94-4.57-3.89-9.13-6.19-13.53a8.94,8.94,0,0,0-2.23-2.88,10.3,10.3,0,0,1-2.32-2.8A20.86,20.86,0,0,0,90,28.23c-2.4-1.9-4.76-3.79-5.84-6.86a2.75,2.75,0,0,0-2.47-1.72c-.41,0-.77,0-.94.29s.14.66.39.86a4.25,4.25,0,0,1,1.46,2.26,5.67,5.67,0,0,0,1.6,2.65C85.8,27.3,87.38,28.93,89,30.5a47.73,47.73,0,0,1,9.51,12.71c1,2,1.68,4.11,2.74,6.06A44,44,0,0,1,104,55.34Z"/><path d="M45.15,100.7a1.1,1.1,0,0,0,.13,1.12,1,1,0,0,0,1.12.07,8.49,8.49,0,0,0,1.26-.68,69.82,69.82,0,0,0,9.41-6.61,9.51,9.51,0,0,0,3-4,4.56,4.56,0,0,1,1.46-1.82c1.16-1,2.31-2,3.48-3A11.07,11.07,0,0,0,68,82a22.85,22.85,0,0,0,1.91-7.29,6.17,6.17,0,0,0-.13-1.55.62.62,0,0,0-1.23-.13c-.2.66-.4,1.33-.54,2a15.83,15.83,0,0,1-4.7,8.7c-1.35,1.25-2.6,2.59-3.9,3.89a7.73,7.73,0,0,0-1.84,2.52,6,6,0,0,1-1.8,2.2c-.79.68-1.64,1.29-2.46,1.94-2.16,1.69-4.39,3.28-6.7,4.75A2.83,2.83,0,0,0,45.15,100.7Z"/><path d="M242.91,48.3c0-2,0-3.93,0-5.9,0-1.38.08-1.22-1.16-1.22-1,0-1.05-.17-1,1.08V52.88c0,1.79,0,3.58,0,5.37,0,.49.15.74.68.68a2.83,2.83,0,0,1,.65,0c.69.1.91-.18.89-.86,0-1.79,0-3.59,0-5.38,0-1.08,0-1.09,1-1.1s2.35,0,3.53,0c.9,0,.91,0,.92.93,0,1.83,0,3.67,0,5.5,0,.29-.13.74.19.83a3.46,3.46,0,0,0,1.94,0c.42-.13.21-.7.21-1.07,0-5.15,0-10.31,0-15.46,0-.18,0-.35,0-.52,0-.42-.12-.67-.59-.64-.22,0-.44,0-.66,0-1.19,0-1.11-.07-1.11,1.16,0,2.05,0,4.11,0,6.16,0,.55-.17.77-.75.75-1.26,0-2.53,0-3.79,0C242.93,49.22,242.91,49.21,242.91,48.3Z"/><path d="M291.37,64.26a4.51,4.51,0,0,1-.52,0c-1,0-1,0-1,1,0,2.84,0,5.68,0,8.52,0,.87,0,1.75,0,2.61a3.6,3.6,0,0,1-2.32,3.22A3.48,3.48,0,0,1,283.7,79a3.66,3.66,0,0,1-1.32-3c0-3.54,0-7.08,0-10.61,0-.34.13-.71-.14-1a5.15,5.15,0,0,0-1.93-.07c-.38.22-.27.61-.27.94q0,5.44,0,10.87c0,.31,0,.61.08.92a6,6,0,0,0,12-.76c0-1.79,0-3.58,0-5.37v-3c0-1,0-1.92,0-2.88C292.12,64.49,292,64.19,291.37,64.26Z"/><path d="M179.7,65.08c0-.5-.07-.82-.7-.81-2,0-1.63,0-1.66,1.57,0,.3,0,.61,0,.91,0,3.19,0,6.38,0,9.57a3.63,3.63,0,0,1-5,3.31,3.7,3.7,0,0,1-2.41-3.69q0-3.54,0-7.08c0-1.27,0-2.53,0-3.8,0-.57-.2-.81-.76-.77h-.52c-1,0-1,0-1,1,0,1.88,0,3.76,0,5.64s.05,3.49,0,5.24a6,6,0,1,0,12.07,0c0-1.53,0-3.06,0-4.59C179.7,69.45,179.69,67.27,179.7,65.08Z"/><path d="M264.21,87.49q-3.93,0-7.86,0c-.67,0-.91.17-.9.88.05,2.67,0,5.33,0,8s0,5.33,0,8c0,.63.18.87.81.83s1.14,0,1.7,0c2.1,0,4.2,0,6.29,0,.6,0,.93-.14.83-.81a1.51,1.51,0,0,1,0-.52c.1-.68-.17-.92-.86-.9-1.79,0-3.58,0-5.37,0-1,0-1,0-1-1s0-2.18,0-3.28-.2-1.23,1.3-1.23H264c1.11,0,1.11,0,1.11-1.17v-.13c0-1,0-1-1-1-1.8,0-3.59,0-5.38,0-.7,0-.9-.24-.87-.91,0-1.13,0-2.27,0-3.4s0-1,1-1c1.7,0,3.41,0,5.11,0,1.3,0,1.17,0,1.18-1.24a1.13,1.13,0,0,1,0-.26C265.21,87.66,264.87,87.49,264.21,87.49Z"/><path d="M216,58.78c.54.43,1.43.11,2.32.16a27.86,27.86,0,0,0-1.15-3.35q-2.44-6.77-4.9-13.51c-.31-.88-.59-1-1.29-.9s-.53.64-.67,1q-2.9,7.86-5.72,15.73c-.11.29-.39.59-.15,1a13.28,13.28,0,0,1,1.41,0,.93.93,0,0,0,1.13-.79c.31-1,.78-2,1.1-3.07.19-.65.49-.94,1.2-.88s1.39,0,2.09,0c.92,0,2-.27,2.7.13s.76,1.68,1.13,2.56C215.52,57.53,215.58,58.4,216,58.78Zm-6.61-7a27.88,27.88,0,0,1,2-5.22l1.91,5.22Z"/><path d="M261.3,65.25a3,3,0,0,0-.24-.61.85.85,0,0,0-1.47.07,8,8,0,0,0-.33.86c-1.61,4.41-3.25,8.82-4.83,13.24a17.68,17.68,0,0,0-1.06,3.25c.6,0,1.12,0,1.64,0s.83-.23,1-.77c.32-1,.76-2,1.09-3.08.21-.66.51-1,1.29-.94a13.75,13.75,0,0,0,1.7,0c1,0,2.18-.28,3,.14s.85,1.82,1.22,2.78c.77,2,.74,2,2.85,1.79,0,0,.07,0,.11-.06a1,1,0,0,0-.07-.64Q264.22,73.29,261.3,65.25Zm-3,9.72,2-5.6c.73,2,1.36,3.7,2.05,5.6Z"/><path d="M143.26,103.71c.07-.57-.15-.75-.73-.75-1.92,0-3.84,0-5.76,0-.51,0-.7-.16-.69-.67,0-1.31,0-2.62,0-3.93,0-.89,0-.9.94-.9,1.79,0,3.58,0,5.37,0,.73,0,.94-.25.86-.9a2.26,2.26,0,0,1,0-.52c.09-.68-.17-.91-.87-.89-1.88,0-3.76,0-5.63,0-.5,0-.69-.15-.68-.67,0-1.26,0-2.53,0-3.79,0-.66.14-.92.86-.9,1.61.06,3.23,0,4.84,0s1.47.35,1.49-1.56a.57.57,0,0,1,0-.13c.07-.51-.15-.68-.66-.67-2.71,0-5.42,0-8.12,0-.72,0-.75.3-.75.86,0,2.62,0,5.24,0,7.85h0v7.86c0,1.24,0,1.11,1.15,1.11h1.7c2,0,3.93,0,5.89,0,.65,0,.88-.2.79-.82A2.83,2.83,0,0,1,143.26,103.71Z"/><path d="M216.51,82.07a1,1,0,0,0,1.23-.83c.28-1,.69-2,1-2.95s.37-1,1.48-1c.83,0,1.66,0,2.49,0s1.49-.24,2.05.12.57,1.22.83,1.85c.12.28.23.57.34.85.73,2.06.73,2.06,2.93,1.86a1.35,1.35,0,0,0-.18-1q-1.86-5.16-3.73-10.31c-.69-1.88-1.39-3.75-2.07-5.63-.15-.42-.27-.79-.85-.81s-.8.39-1,.85a2.5,2.5,0,0,1-.07.26Q219,71,216.91,76.65c-.63,1.75-1.25,3.51-1.88,5.27A4.1,4.1,0,0,0,216.51,82.07ZM222,69.5c.87,1.86,1.38,3.6,2.07,5.46h-4C220.67,73.17,221.28,71.46,222,69.5Z"/><path d="M318.06,72c-1.87,0-3.75,0-5.62,0-.62,0-.87-.19-.85-.82,0-1.26,0-2.53,0-3.8,0-.62.22-.83.84-.82,1.65,0,3.31,0,5,0s1.61,0,1.54-1.64c0-.58-.25-.73-.8-.72-1.3,0-2.61,0-3.92,0h-3.54c-1.32,0-1.29-.22-1.29,1.24V80c0,.48,0,1,0,1.44s.2.59.63.59c2.75,0,5.5,0,8.24,0,.54,0,.7-.2.66-.69a5.06,5.06,0,0,1,0-.78c.08-.69-.19-.9-.89-.89-1.87.05-3.75,0-5.62,0-.62,0-.86-.17-.84-.82.05-1.18,0-2.36,0-3.53,0-1,0-1,1-1,1.74,0,3.49,0,5.23,0,1.05,0,1.05,0,1.06-1.11a2.54,2.54,0,0,1,0-.39C319,72.21,318.75,72,318.06,72Z"/><path d="M29.73,40a44.85,44.85,0,0,0,4.53-6.71,31.33,31.33,0,0,1,2.87-4.37A25.11,25.11,0,0,0,39.72,25a57,57,0,0,1,5.05-8.09,3.51,3.51,0,0,0,.5-.77c.13-.31.27-.69-.11-.94s-.6,0-.82.2c-.48.5-1,1-1.41,1.54a19.7,19.7,0,0,0-3.21,4.44,17.3,17.3,0,0,1-3.31,4.79,22.53,22.53,0,0,0-3.07,3.9C31,34.09,28.51,38,26,41.83a58.54,58.54,0,0,0-3.74,6.29,11.21,11.21,0,0,0-.63,2.35c.08.45.05,1,.59,1.09s.81-.2,1.08-.56a3.49,3.49,0,0,0,.32-.57l1.73-3.36A40.07,40.07,0,0,1,29.73,40Z"/><path d="M256.79,53c0-1.05,0-2.1,0-3.15,0-2.62,0-5.24,0-7.87,0-.52-.11-.85-.72-.76a2.54,2.54,0,0,1-.39,0c-1.24,0-1.24,0-1.24,1.19,0,3.19,0,6.38,0,9.57a13.61,13.61,0,0,0,.16,2.21A6,6,0,0,0,261.2,59a5.88,5.88,0,0,0,5.3-5.68c0-1.79,0-3.58,0-5.38h0c0-2,0-3.93,0-5.89,0-.29.13-.73-.22-.82a3.15,3.15,0,0,0-1.8,0c-.39.17-.2.71-.2,1.08,0,3.32,0,6.64,0,10a5.72,5.72,0,0,1-.12,1.3,3.58,3.58,0,0,1-4,3.07A3.69,3.69,0,0,1,256.79,53Z"/><path d="M195.25,35.68c1.11,0,1.11,0,1.48-1s.73-2,1.09-3.07a.85.85,0,0,1,1-.66c.7.05,1.4,0,2.1,0,1,0,2.08-.36,2.81.14s.82,1.76,1.17,2.69c.75,2,.74,2,3.13,1.79l-3.08-8.42c-1-2.79-2-5.57-3-8.35-.29-.8-.54-.92-1.24-.8-.52.1-.52.53-.65.88q-2.46,6.75-4.91,13.5A20.68,20.68,0,0,0,194,35.68ZM201,23.07l2,5.61a28.93,28.93,0,0,1-4.06,0C199.51,26.86,200.18,25.14,201,23.07Z"/><path d="M157.58,56.34a9.1,9.1,0,0,0,13.13-.15l-.57-.53c-1-.92-1-.93-2.18-.15a6.58,6.58,0,0,1-4.17,1.29,6.89,6.89,0,0,1-6.42-6.94c.09-4.66,5.22-8.09,9.54-5.91.77.39,1.43.95,2.15,1.39.37-.3.68-.54,1-.81s.41-.43.62-.64a8.91,8.91,0,0,0-12.48-.73A9.08,9.08,0,0,0,157.58,56.34Z"/><path d="M139.34,64.44a24.84,24.84,0,0,0-4.56-.14c-1,0-1,0-1.05,1,0,2.62,0,5.24,0,7.85h0c0,2.53,0,5.06,0,7.59,0,1.51-.19,1.33,1.44,1.34.89,0,.9,0,.91-1s0-1.83,0-2.74c0-2,0-2,1.95-2a6.41,6.41,0,0,0,1.94-.2,6,6,0,0,0-.64-11.68Zm-.22,9.5a10.18,10.18,0,0,1-2.46.2c-.49,0-.58-.24-.58-.65,0-1,0-2.09,0-3.14V67.21c0-.33,0-.61.48-.59a10.32,10.32,0,0,1,2.6.17,3.72,3.72,0,0,1,0,7.15Z"/><path d="M25.09,53.33c.27,0,.46-.22.58-.45.54-1,1.06-2,1.59-3a69.27,69.27,0,0,1,8.5-13A36.54,36.54,0,0,0,40,30.94a12.62,12.62,0,0,1,3.49-4.19c.7-.5,1.48-.9,2.23-1.35a2.46,2.46,0,0,0,1.16-1.2,1.17,1.17,0,0,0,0-1.25c-.37-.43-.8-.13-1.19,0-.2.08-.38.2-.87.46a7.56,7.56,0,0,1,1.3-2.84,5.74,5.74,0,0,0,1.08-1.93c.09-.36.19-.82-.2-1.08s-.75.08-1,.38a27.06,27.06,0,0,0-4.22,6.27,9.54,9.54,0,0,1-1.69,2.63,23.13,23.13,0,0,0-3.22,4.59,60,60,0,0,1-5.66,8.78,58.76,58.76,0,0,0-6.12,10.63,3.47,3.47,0,0,0-.46,1.75C24.64,52.93,24.74,53.27,25.09,53.33Z"/><path d="M80.28,66.75c.48.41.84.37,1.18-.15a2.14,2.14,0,0,0,.26-.6,17.93,17.93,0,0,0,.51-5.16,30.3,30.3,0,0,0-1-5.5,29,29,0,0,1-1.14-8.23,5.67,5.67,0,0,0-.11-1.3A3,3,0,0,0,78.81,44a.86.86,0,0,0-1.46.36,3.59,3.59,0,0,0-.13,2.31,10.14,10.14,0,0,1,.41,3.17,1.84,1.84,0,0,1-.93-1.24c-.32-.76-.61-1.54-.89-2.32a2.23,2.23,0,0,0-.46-.77,1.71,1.71,0,0,0-2.16-.13c-.57.48-.54,1,.18,1.79a4.59,4.59,0,0,1,.86,1.3,18.79,18.79,0,0,0,2,3.49A16.39,16.39,0,0,1,79,58.62a22.7,22.7,0,0,1,.18,5.46A3,3,0,0,0,80.28,66.75Z"/><path d="M225.06,59a5.09,5.09,0,0,0,2.47-.51,5.56,5.56,0,0,0,1.37-9,8.89,8.89,0,0,0-3.08-1.92,5.53,5.53,0,0,1-2-1.19,1.83,1.83,0,0,1,.05-2.77,1.8,1.8,0,0,1,2.64.34,3.56,3.56,0,0,1,.38.69.39.39,0,0,0,.62.21c.27-.14.57-.22.85-.34.77-.34.8-.39.46-1.14a3.89,3.89,0,0,0-3.66-2.5,4.15,4.15,0,0,0-3.22,6.9,6.83,6.83,0,0,0,2.94,1.88,6.15,6.15,0,0,1,2.69,1.78,3.21,3.21,0,0,1,0,4.08,3.12,3.12,0,0,1-4.11.76A3.33,3.33,0,0,1,221.89,54c-.23-.94-.23-.94-1.17-.61a4.49,4.49,0,0,1-.61.23c-.6.11-.63.47-.5,1A5.35,5.35,0,0,0,225.06,59Z"/><path d="M47.55,94.81c0,1,.48,1.25,1.22.86a7.51,7.51,0,0,0,1.51-1.24c1.49-1.35,3.36-2.24,4.72-3.72,3-3.21,6-6.38,8.73-9.76a12.13,12.13,0,0,0,2.71-6,34.79,34.79,0,0,1,1.86-7.59,1.69,1.69,0,0,0,.13-.77c0-.31-.13-.62-.48-.69s-.47.18-.6.41c-.43.76-.81,1.55-1.27,2.29a10.39,10.39,0,0,0-1.59,4.51,14.06,14.06,0,0,1-3.57,8c-2.13,2.42-4.36,4.76-6.64,7A42.71,42.71,0,0,1,49,92.67,2.87,2.87,0,0,0,47.55,94.81Z"/><path d="M97.91,98.84a6.93,6.93,0,0,1-.26-4,17.63,17.63,0,0,1,2.23-5.55,14,14,0,0,0,2.19-6.62A35.7,35.7,0,0,1,103.55,74a7.54,7.54,0,0,0,.37-2.84c0-.42-.13-.8-.59-.92s-.71.17-.94.52a4.1,4.1,0,0,0-.55,1.86,15.43,15.43,0,0,1-.9,3.66,6.44,6.44,0,0,0-.5,2.67c0,1.27-.19,2.52-.24,3.78a6.51,6.51,0,0,1-.73,2.62c-.64,1.33-1.49,2.56-2,4a24.66,24.66,0,0,0-1.66,5.07,37.92,37.92,0,0,1-.76,4.1c-.55,2.15-.67,4.35-1.09,6.63,2.08-.42,2.07-2.26,2.76-3.64.37.15.36.41.47.58s.28.49.6.4a.74.74,0,0,0,.59-.63,4,4,0,0,0,0-.91A10.14,10.14,0,0,0,97.91,98.84Z"/><path d="M36.54,84.37A19.55,19.55,0,0,1,33.31,89a1.74,1.74,0,0,0-.53,1.4c.08.83.49,1.08,1.22.69a5.13,5.13,0,0,0,1.7-1.61q2.67-3.72,5.36-7.42c.53-.74,1.15-1.43,1.67-2.18a1.4,1.4,0,0,0,0-1.9,1.73,1.73,0,0,0-1.81.37c-.22.2-.4.47-.63.65-.61.48-1.09.28-1.15-.48a5,5,0,0,1,.17-1.68,5.88,5.88,0,0,0,.32-2.14.76.76,0,0,0,0-.3c-.09-.45-.25-.87-.75-1a1.06,1.06,0,0,0-1.07.6,3.16,3.16,0,0,0-.49,1.6,5.73,5.73,0,0,1-.58,2.27,25.63,25.63,0,0,1-2.24,3.68c-1.14,1.54-2.24,3.11-3.35,4.68a1.8,1.8,0,0,0-.42.94,1,1,0,0,0,.5,1c.38.26.67.09,1-.07a3.72,3.72,0,0,0,1.17-1.23c.79-1.14,1.56-2.31,2.33-3.47.15-.22.27-.46.43-.66s.39-.54.74-.35.29.53.21.81A7.47,7.47,0,0,1,36.54,84.37Z"/><path d="M135.29,35.69c.64,0,.82-.19.81-.82,0-2,0-4,0-6,0-.71.22-.88.89-.86,1.48,0,3,0,4.45,0,.66,0,.87-.23.8-.84a3.53,3.53,0,0,1,0-.65c.08-.62-.16-.84-.81-.82-1.52,0-3.05,0-4.58,0-.57,0-.76-.16-.75-.74,0-1.31.05-2.62,0-3.93,0-.72.28-.86.92-.85,1.49,0,3,0,4.46,0,.53,0,.84-.1.76-.71a2.43,2.43,0,0,1,0-.66c.12-.73-.24-.86-.88-.85-2.23,0-4.46,0-6.69,0-.88,0-.9,0-.9,1,0,2.62,0,5.24,0,7.86h0c0,2.45,0,4.9,0,7.34C133.75,35.83,133.39,35.65,135.29,35.69Z"/><path d="M12.76,49.19a.68.68,0,0,0,.72-.18,2.75,2.75,0,0,0,.54-.88c1.89-3.77,3.53-7.69,6.05-11.12.1-.14.16-.31.25-.46a36.9,36.9,0,0,1,4.13-6.34,7,7,0,0,0,1.48-2.43,9.3,9.3,0,0,1,1.9-3.24,25.27,25.27,0,0,0,4.06-6.07,12.06,12.06,0,0,1,2-3.07l-.31-.27c-2,1.31-3.94,2.71-5.06,4.95a5.67,5.67,0,0,1-.52.76c-2.3,3.38-4.53,6.82-6.64,10.33-3,5.08-5.23,10.62-8.4,15.64a2.84,2.84,0,0,0-.51,1.73C12.43,48.82,12.48,49.08,12.76,49.19Z"/><path d="M47.12,76.18a.57.57,0,0,0,.73,0c.85-.73,1.89-1.36,1.73-2.72a8.33,8.33,0,0,1,1-4.63c1.68-3.5,3.24-7,5.66-10.12A6.45,6.45,0,0,1,60.55,56a13.26,13.26,0,0,0,3.28-.82c.41-.18.79-.45.73-1s-.43-.68-.9-.79a7.49,7.49,0,0,0-4,.25,8.73,8.73,0,0,0-5.47,4.12c-.9,1.59-2,3.05-3,4.61a31.7,31.7,0,0,0-4.42,12.87A.77.77,0,0,0,47.12,76.18Z"/><path d="M36.74,99.25A1,1,0,0,0,38,98.79a4,4,0,0,1,2-1.35A5.92,5.92,0,0,0,42.34,96a27.91,27.91,0,0,1,4.34-3.55,1.78,1.78,0,0,0,.82-1.67c0-.78-.23-1-.94-.65a22.83,22.83,0,0,0-2.08,1.09c-.29.16-.57.26-.82,0s0-.48.14-.69a12,12,0,0,1,3.14-3.28c1.35-.82,1.71-2.25,2.07-3.64a.82.82,0,0,0-.39-.82,3.2,3.2,0,0,0-.56.27,24.85,24.85,0,0,0-6.24,6.61c-.66,1.13-1.31,2.26-2,3.39a6.12,6.12,0,0,1-2.06,2.31,5.21,5.21,0,0,0-1.39,1.38A1.84,1.84,0,0,0,36,98.1,1.24,1.24,0,0,0,36.74,99.25Z"/><path d="M309.76,42.88c0-.22,0-.44,0-.66,0-1,0-1-1.08-1h-7.87c-1.69,0-1.66,0-1.57,1.63,0,.52.22.68.71.67.87,0,1.75,0,2.62,0,.64,0,.82.2.81.83,0,2.27,0,4.54,0,6.81v6.56c0,1.47-.06,1.26,1.25,1.28s1.12,0,1.12-1.16c0-.35,0-.7,0-1.05q0-6.15,0-12.32c0-.92,0-.93.9-.94s1.67,0,2.49,0C309.56,43.48,309.79,43.34,309.76,42.88Z"/><path d="M277.68,65.37c0-1.07,0-1.08-1-1.08l-8,0c-1.62,0-1.49-.24-1.5,1.59a.56.56,0,0,1,0,.13c-.07.54.22.65.7.64.82,0,1.66,0,2.48,0s.88.24.87.89c0,2.27,0,4.54,0,6.81v1.57c0,1.79,0,3.58,0,5.36,0,.64.2.82.82.83,1.55,0,1.55.07,1.55-1.49q0-6.48,0-13c0-1,0-1,1-1,.82,0,1.65,0,2.48,0,.42,0,.67-.12.63-.59C277.67,65.81,277.68,65.59,277.68,65.37Z"/><path d="M208.34,20.23q1.24,0,2.49,0c1,0,1,0,1,1,0,2.23,0,4.46,0,6.68s0,4.55,0,6.82c0,.94,0,1,.89,1,1.75,0,1.46.16,1.47-1.44,0-4.33,0-8.65,0-13,0-1,0-1,1-1,.7,0,1.4,0,2.09,0,1,0,1,0,1-.89v-.26c0-1,0-1-1.06-1h-8c-1.6,0-1.58,0-1.47,1.59C207.76,20.06,207.9,20.24,208.34,20.23Z"/><path d="M75.79,19.9a1.2,1.2,0,0,0-1-.77c-.59-.14-1.2-.24-1.8-.32-2.69-.35-5.4-.34-8.1-.52a10.16,10.16,0,0,0-3.76.37c-1.95.64-3.88,1.32-5.82,2a18.1,18.1,0,0,0-4,1.94,4.48,4.48,0,0,0-1,.82,1.39,1.39,0,0,0-.07,1.69c.47.48,1,.28,1.45,0,.87-.49,1.72-1,2.59-1.54A18.81,18.81,0,0,1,61.63,21c1.81-.22,3.64-.35,5.45-.57a14.72,14.72,0,0,1,4.14.18c1.12.18,2.22.42,3.33.63C75.54,21.24,76.06,20.7,75.79,19.9Z"/><path d="M61.58,61.93c-.71-.21-1.15.28-1.48.8A18.18,18.18,0,0,0,59,64.66c-.72,1.49-1.46,3-2.08,4.5a11.26,11.26,0,0,1-4.74,5.56,10.05,10.05,0,0,0-2.38,2A1.11,1.11,0,0,0,51.1,78.5a3.15,3.15,0,0,0,.57-.31,22.52,22.52,0,0,1,3.07-1.72,7.35,7.35,0,0,0,3.36-3A43,43,0,0,0,62,64.39a7.36,7.36,0,0,0,.16-.88C62.16,62.81,62.31,62.15,61.58,61.93Z"/><path d="M76.87,16.5a6,6,0,0,0-2.79-.58,7.58,7.58,0,0,1-3.72-.47,10.07,10.07,0,0,0-4.45-.86,41.16,41.16,0,0,0-10.4,1.74,16.72,16.72,0,0,0-5.28,2.82c-.44.35-1.1.7-.83,1.46.17.47.77.48,1.77,0,1.63-.71,3.27-1.43,4.89-2.17a17.13,17.13,0,0,1,8.72-1.73c1.6.13,3.19.48,4.79.47a18.53,18.53,0,0,1,5.92.85c.45.14.92.23,1.37.41a.65.65,0,0,0,.8-.24.7.7,0,0,0,.11-.84A1.76,1.76,0,0,0,76.87,16.5Z"/><path d="M278.14,56.56c-1.49,0-3,0-4.46,0-1,0-1,0-1-1,0-4.2,0-8.39,0-12.58,0-.44,0-.88,0-1.31a.44.44,0,0,0-.47-.5h-.78c-1.08,0-1.09,0-1.09,1,0,2.57,0,5.15,0,7.73s0,5.41,0,8.12c0,.7.22.89.9.87,2.1,0,4.2,0,6.29,0,1.61,0,1.44.3,1.5-1.59C279,56.66,278.71,56.55,278.14,56.56Z"/><path d="M193.59,50V57.9c0,1,0,1,1,1h6.29c1.46,0,1.36.27,1.37-1.42a.57.57,0,0,1,0-.13c.09-.64-.2-.84-.82-.82-1.44,0-2.88,0-4.32,0-1.18,0-1.22.21-1.22-1.18V43.47c0-.53,0-1,0-1.58s-.23-.78-.77-.72a2.91,2.91,0,0,1-.66,0c-.69-.09-.89.2-.88.88C193.61,44.71,193.59,47.38,193.59,50Z"/><path d="M212,79.72c-1.36,0-2.71,0-4.06,0-1.53,0-1.34.21-1.34-1.28,0-4.32,0-8.64,0-13,0-1.21,0-1.21-1.2-1.21s-1.15,0-1.15,1.15c0,2.58,0,5.15,0,7.72s0,5.41,0,8.11c0,.51.07.82.69.81q3.67,0,7.33,0c.53,0,.69-.23.65-.71a3.38,3.38,0,0,1,0-.78C213,79.85,212.66,79.7,212,79.72Z"/><path d="M156.1,88.51c0-1.06.06-1-1-1-2.71,0-5.42,0-8.12,0-1.64,0-1.44-.36-1.49,1.56,0,.66.28.83.87.81.83,0,1.66,0,2.49,0s.86.25.85.91c0,2.22,0,4.45,0,6.68v6.29c0,1.56,0,1.54,1.59,1.45.44,0,.63-.14.61-.6,0-.78,0-1.57,0-2.36,0-3.71,0-7.42,0-11.13,0-1.34-.12-1.23,1.3-1.23.7,0,1.4,0,2.1,0s.85-.25.79-.84A4.69,4.69,0,0,1,156.1,88.51Z"/><path d="M79.9,100.26a19.17,19.17,0,0,0,1.65-5.21,32.87,32.87,0,0,1,1.21-5.48,6.24,6.24,0,0,0,.38-1.91c0-.13,0-.26,0-.39a.65.65,0,0,0-.43-.73c-.37-.13-.55.15-.74.39a5.44,5.44,0,0,0-.88,1.6c-.68,2.06-1.27,4.16-1.83,6.26a82.34,82.34,0,0,1-3.61,11.46,14,14,0,0,1-4.09,6,.81.81,0,0,0-.18.19c-.17.2-.39.43-.26.69a.71.71,0,0,0,.79.35,3,3,0,0,0,2.2-1.26c.45-.7,1-1.36,1.41-2.05a11,11,0,0,0,1.64-2.81A59.23,59.23,0,0,1,79.9,100.26Z"/><path d="M84.32,43.1a11.7,11.7,0,0,0,.61,1.58.91.91,0,0,0,.78.59c.17-.07.38-.09.49-.2A1.2,1.2,0,0,1,88,44.93c.46.32,1-.1.92-.68a1.31,1.31,0,0,0-.51-1c-1.5-1-2.13-2.61-2.82-4.16a7,7,0,0,0-2.37-2.89q-3-2.18-6.08-4.3a4.5,4.5,0,0,0-1-.53,1.52,1.52,0,0,0-1.92.86c-.24.62,0,1.13.77,1.55a13,13,0,0,1,2.23,1.36c1.23,1,2.5,1.88,3.7,2.89A9.31,9.31,0,0,1,84.32,43.1Z"/><path d="M174.89,103.9c0-.9,0-.92-.94-.92H169.5c-1,0-1.05,0-1.06-1.11,0-2.22,0-4.45,0-6.67s0-4.53,0-6.8c0-.65-.12-1-.85-.89a2,2,0,0,1-.65,0c-.58-.07-.74.17-.74.74q0,8.1,0,16.21c0,.57.16.75.74.74,1.92,0,3.84,0,5.75,0,.53,0,1.05,0,1.57,0s.66-.17.62-.62C174.87,104.34,174.89,104.12,174.89,103.9Z"/><path d="M97.6,83.54c.1-.3.28-.71-.13-.94s-.63.13-.88.36A2.42,2.42,0,0,0,96,84c-.26.73-.57,1.46-.78,2.21-.94,3.29-1.45,6.71-2.71,9.93a3.9,3.9,0,0,0-.18.75,46.63,46.63,0,0,1-2,8.09,3.38,3.38,0,0,0-.14.79c0,.45-.09.84.28,1.06s.79,0,1.09-.21a2.68,2.68,0,0,0,1.07-1.73c.71-2.24.88-4.59,1.49-6.87C95.4,93.19,96.05,88.26,97.6,83.54Z"/><path d="M92.38,90.32c0-.27.12-.64-.25-.79s-.57.14-.8.32a3.07,3.07,0,0,0-.92,1.25,27,27,0,0,0-2,6.45c-.6,3.82-1,7.68-3.29,11a1.36,1.36,0,0,0-.2.48,1.93,1.93,0,0,0-.1.63.77.77,0,0,0,1.26.68,2.71,2.71,0,0,0,.9-1.11c.51-.95,1-1.93,1.49-2.89a13.61,13.61,0,0,0,1.48-4.84A44.75,44.75,0,0,1,92.08,92,8.7,8.7,0,0,0,92.38,90.32Z"/><path d="M35.61,95.22A4.09,4.09,0,0,0,37.09,94a64,64,0,0,0,4.31-6.06,22.17,22.17,0,0,1,5.19-6,1.65,1.65,0,0,0,.72-1.37c0-.78-.11-.88-.85-.72a4.55,4.55,0,0,0-2.36,1.53c-2.53,2.7-4.7,5.71-7,8.57l-2.21,2.73a2.24,2.24,0,0,0-.6,1.79C34.39,95.37,34.79,95.59,35.61,95.22Z"/><path d="M220.78,26.72h0v7.72c0,1.44-.11,1.22,1.27,1.25s1.09-.09,1.09-1.17c0-3.14,0-6.29,0-9.43,0-2.05,0-4.1,0-6.15,0-.9,0-.9-.95-.92a4.51,4.51,0,0,1-.52,0c-.65-.08-.91.11-.9.84C220.81,21.48,220.78,24.1,220.78,26.72Z"/><path d="M82.69,101.34a29.38,29.38,0,0,1,1.51-5.66,6.65,6.65,0,0,0,.58-2.85,3.18,3.18,0,0,0,0-.34c0-.31,0-.64-.4-.75s-.65.11-.86.42a4,4,0,0,0-.6,1.42c-1.49,6.09-3.06,12.16-6.78,17.38-.26.36-.51.77-.25,1.2s.79.3,1.2.32a1.34,1.34,0,0,0,1-.55,5,5,0,0,0,.85-1.31c.86-1.71,1.27-3.61,2.28-5.26A11.72,11.72,0,0,0,82.69,101.34Z"/><path d="M105.68,79a3,3,0,0,0,0-1.55c-.11-.32-.19-.69-.63-.74a.79.79,0,0,0-.89.59,6.9,6.9,0,0,0-.47,2.15,30.86,30.86,0,0,1-1.3,8.09,5.39,5.39,0,0,0-.26,2.19c.21,1.9.15,3.82.2,5.73a2.43,2.43,0,0,0,.14.9.83.83,0,0,0,.9.61.8.8,0,0,0,.78-.74,11.39,11.39,0,0,0,0-1.43,48.32,48.32,0,0,1,.42-7.41A78.94,78.94,0,0,0,105.68,79Z"/><path d="M77.31,59.94c.26-4.18-1.8-7.55-4.45-10.66a2.49,2.49,0,0,0-.47-.45.81.81,0,0,0-1.3.3,1.49,1.49,0,0,0,0,1.6c.51.94,1.47,1.52,2,2.4a14.29,14.29,0,0,1,2,10.85A6.18,6.18,0,0,0,75,65.8a1,1,0,0,0,1,.94.8.8,0,0,0,.8-1,22.49,22.49,0,0,1,.34-4A5.26,5.26,0,0,0,77.31,59.94Z"/><path d="M149.65,58.84a2.92,2.92,0,0,0,1.78,0c.38-.12.21-.62.21-1,0-4.13,0-8.27,0-12.41,0-1.18,0-2.36,0-3.53,0-.66-.23-.8-.84-.79-1.36,0-1.37,0-1.37,1.29V50q0,4,0,8C149.46,58.31,149.32,58.74,149.65,58.84Z"/><path d="M87.81,94.37a4.52,4.52,0,0,0,.09-.67c-.06-.45-.05-1-.61-1.17s-1,.28-1.2.77a3.36,3.36,0,0,0-.29.86c-.35,1.66-.72,3.31-1,5A27.61,27.61,0,0,1,81,109.33a10.2,10.2,0,0,0-.68,1.26.85.85,0,0,0,.31,1.15c.45.32.77,0,1-.29.54-.73,1.05-1.49,1.54-2.26a19.2,19.2,0,0,0,2.74-6.45C86.43,99.93,87,97.12,87.81,94.37Z"/><path d="M13,43.42a.72.72,0,0,0,.89-.37,3.66,3.66,0,0,0,.44-.94c.86-3.18,2.64-6,4-8.94a12.31,12.31,0,0,1,1.75-2.91,41.07,41.07,0,0,0,4.65-7.21h-.08l-.07,0h0l-.08-.08a.11.11,0,0,1,0-.16,43.37,43.37,0,0,0-5,5.85,41.63,41.63,0,0,0-6.39,11.63,8.31,8.31,0,0,0-.47,2.42A.69.69,0,0,0,13,43.42Z"/><path d="M24.56,23v-.08h0Z"/><path d="M29.16,85.75c.46.13.7-.19.93-.53L34,79.8a7.91,7.91,0,0,0,1.23-2.86c.34-1.48.57-3,.9-4.46.13-.55.07-1-.46-1.18a.86.86,0,0,0-1.14.61c-.28.68-.48,1.4-.69,2.1A15.08,15.08,0,0,1,31,79.69a15.88,15.88,0,0,0-2.22,4.11A2.59,2.59,0,0,0,28.59,85,.78.78,0,0,0,29.16,85.75Z"/><path d="M73.67,58.13A5.24,5.24,0,0,0,72,54.81a17.6,17.6,0,0,1-2.28-2.52c-.28-.36-.54-.89-1.14-.52a1.11,1.11,0,0,0-.11,1.63,7,7,0,0,0,1,1A5,5,0,0,1,71.13,57a11.27,11.27,0,0,1,.31,5.79c-.19.81-.37,1.61-.53,2.42a1,1,0,0,0,.67,1.24A1.12,1.12,0,0,0,73,66.06a2.64,2.64,0,0,0,.26-.59A24.66,24.66,0,0,0,74,61.35C73.86,60.2,73.82,59.16,73.67,58.13Z"/><path d="M22.47,77.44a9.26,9.26,0,0,0,1.9-4.64c-.12-.23,0-.73-.41-.92s-.82.14-1.13.44a2.24,2.24,0,0,0-.45.64c-.28.58-.54,1.18-.78,1.78a8.71,8.71,0,0,1-2.16,3.37C18,79.51,16.49,81,15,82.37c-.15.15-.31.3-.46.46a.8.8,0,0,0-.1,1.17.79.79,0,0,0,1,.21,4.47,4.47,0,0,0,1.44-.87A56,56,0,0,0,22.47,77.44Z"/><path d="M105.7,28.58a24.82,24.82,0,0,1,2.92,4.32c.44.9.87,1.81,1.28,2.72a18.72,18.72,0,0,0,2,3.08.68.68,0,0,0,.9.32c.42-.22.24-.59.11-.91-.2-.49-.39-1-.61-1.44a50.19,50.19,0,0,0-8.56-12.62,11.73,11.73,0,0,0-2.38-2.4,2.11,2.11,0,0,0,.43,1.39A39.75,39.75,0,0,0,105.7,28.58Z"/><path d="M28.45,81.25c2-3.11,2.94-6.65,4.08-10.11a2,2,0,0,0,0-1.37c-.81.45-.83.44-1.14.94a87.71,87.71,0,0,0-4.68,9.16,3.18,3.18,0,0,0-.18,2c.15.77.58.9,1.19.39A4.65,4.65,0,0,0,28.45,81.25Z"/><path d="M47.8,12.31c-.3.29-.49.63-.12,1a.8.8,0,0,0,1.07.19,7.69,7.69,0,0,0,.7-.58A10.37,10.37,0,0,1,52.53,11c2.32-.77,4.53-1.79,6.76-2.77a12.7,12.7,0,0,1,3.86-1.13c.73-.07,1.46-.2,2.19-.31.24-.31.59-.24.91-.25s.67.07.92-.24c-1.3-.08-2.61-.21-3.91-.2a10.36,10.36,0,0,0-5.14,1.14A26.86,26.86,0,0,1,52,9.69,9.35,9.35,0,0,0,47.8,12.31Z"/><path d="M19.63,68.1c.05-.25.09-.55-.17-.7a.79.79,0,0,0-1,.09,3.6,3.6,0,0,0-.95,1.39A13.79,13.79,0,0,1,13,75.11a3.1,3.1,0,0,0-1.08,1.59c-.17.64.18,1,.85.91a4,4,0,0,0,1.64-.75C17.43,74.7,18.87,71.6,19.63,68.1Z"/><path d="M111,81.37c-.18-1.81-.38-3.62-.57-5.43a5,5,0,0,0-.53-1.73.53.53,0,0,0-.65-.3.44.44,0,0,0-.32.5,6.79,6.79,0,0,0,.1,1.42,17.32,17.32,0,0,1,.44,4.65c-.08,2.44-.39,4.85-.63,7.38,0,.19,0,.49,0,.8s0,.57.29.65.45-.21.58-.43a9.22,9.22,0,0,0,1.43-6.09C111.05,82.32,111,81.85,111,81.37Z"/><path d="M18.46,77.42a4,4,0,0,0,1.6-1.69,31.57,31.57,0,0,0,1.59-5.23.69.69,0,0,0-.44-.85.69.69,0,0,0-.85.45A4.91,4.91,0,0,0,20,71.48a5.57,5.57,0,0,1-2.17,3.86,31.33,31.33,0,0,0-4.09,3.46,2.44,2.44,0,0,0-.7,1.08.62.62,0,0,0,.62.81,1.86,1.86,0,0,0,1-.51A22.89,22.89,0,0,1,18.46,77.42Z"/><path d="M17,66.45a2.78,2.78,0,0,0,.12-.7c0-.62-.07-1.17-.73-1.29s-.87.28-1.09.74c-.06.12-.1.24-.15.37a14.71,14.71,0,0,1-3.37,5.08,6.53,6.53,0,0,0-1.14,1.59.74.74,0,0,0,0,.86.89.89,0,0,0,.94.31,1.92,1.92,0,0,0,.8-.42C14.7,71.35,15.93,69,17,66.45Z"/><path d="M41.65,105c.44-.15.37-.63.37-1,0-.13,0-.26-.05-.39A4.82,4.82,0,0,1,43.2,99.5a1.32,1.32,0,0,0,.42-1c0-.64-.11-.76-.75-.73a2.42,2.42,0,0,0-1.08.42,20.58,20.58,0,0,0-3.61,3,.84.84,0,0,0-.21,1.16,1,1,0,0,0,1.24.43c.25-.09.47-.24.72-.32.52-.16.86.16.74.67a2.91,2.91,0,0,1-.27.6c-.16.32-.32.64.07.91S41.21,105.17,41.65,105Z"/><path d="M24.3,86.31a1.29,1.29,0,1,0-1.56-2l-.21.17c-1.66,1.34-3,3-4.64,4.4a.72.72,0,0,0-.15,1,1.43,1.43,0,0,0,1.08.94,2.09,2.09,0,0,0,1.28-1,11.18,11.18,0,0,1,3.13-2.72A7.84,7.84,0,0,0,24.3,86.31Z"/><path d="M21.54,54.89c.16-.83-.35-1.26-1.14-1a2.08,2.08,0,0,0-1.24,1.27A51.25,51.25,0,0,0,17.22,61c0,.16-.07.33-.08.4A1.3,1.3,0,0,0,18,62.81c.65.2.74-.44,1-.83a4,4,0,0,0,.2-.48c.71-2,1.43-3.92,2.14-5.87A5.31,5.31,0,0,0,21.54,54.89Z"/><path d="M25.41,77.89c.42.14.67-.28.89-.61a2.33,2.33,0,0,0,.2-.34q1.34-2.39,2.66-4.79a10,10,0,0,0,1.06-2.94c.12-.67-.1-.85-.78-.85a1,1,0,0,0-1,.56c-.33.61-.68,1.21-1,1.82-.92,1.73-1.38,3.66-2.33,5.38a1.48,1.48,0,0,0-.15.79C25,77.28,25,77.75,25.41,77.89Z"/><path d="M24.38,56.72c0-.46,0-.78-.36-.9a.69.69,0,0,0-.82.25c-.21.28-.4.56-.59.86A30.59,30.59,0,0,0,20,63.33a1.78,1.78,0,0,0,0,1.16c.11.29.27.55.65.56a.64.64,0,0,0,.64-.34c.14-.27.32-.52.45-.8.66-1.47,1.32-2.94,2-4.41A15.8,15.8,0,0,0,24.38,56.72Z"/><path d="M112.71,61.38a1,1,0,0,0-1.41-.49c-.56.34-.39.82-.14,1.25a8.6,8.6,0,0,1,1.06,3.34,24.88,24.88,0,0,0,1.07,4.43,6.78,6.78,0,0,0,.39,1,.49.49,0,0,0,.52.31.52.52,0,0,0,.41-.45c.06-.48.1-1,.15-1.37a24,24,0,0,0-.82-4.28A18.56,18.56,0,0,0,112.71,61.38Z"/><path d="M32.19,98.37c.15-.17.13-.49.15-.59,0-1.3-.49-1.83-1.32-1.43-1.36.67-2.68,1.42-4,2.15a.64.64,0,0,0-.42.61c.08,1,1.88,2.2,2.82,1.77A8.76,8.76,0,0,0,32.19,98.37Z"/><path d="M30.69,94.12c.42-.51.17-1-.14-1.41a.82.82,0,0,0-1.25-.22c-.8.51-1.63,1-2.41,1.54s-1.65,1.26-2.47,1.9a.83.83,0,0,0-.24,1,1.22,1.22,0,0,0,1,.75,5,5,0,0,0,.67-.31c1.43-.92,2.84-1.84,4.25-2.77A2.56,2.56,0,0,0,30.69,94.12Z"/><path d="M22.2,82.78c.23-.2.44-.43.65-.64a.62.62,0,0,0,.11-.83c-.2-.34-.41-.68-.76-.68a2.33,2.33,0,0,0-1.46.76c-1.17,1.1-2.35,2.21-3.49,3.35a8.31,8.31,0,0,0-1,1.22c-.21.28-.38.63-.06.94a.81.81,0,0,0,1,.06,5.7,5.7,0,0,0,1-.67Z"/><path d="M11.36,68a30.37,30.37,0,0,0,2.54-3.32,3.27,3.27,0,0,0,.43-1.62,2.49,2.49,0,0,0-.11-.51c-.13-.32-.28-.67-.67-.73s-.54.31-.7.62a20.53,20.53,0,0,1-2.1,3,6.93,6.93,0,0,0-1,1.52c-.29.7-.19,1.22.28,1.51C10.64,68.85,11,68.41,11.36,68Z"/><path d="M27.24,91.89a.68.68,0,0,0,.07-1c-.33-.4-.68-.29-1-.07A24.5,24.5,0,0,1,22,93.08a1,1,0,0,0-.6,1.3,1.4,1.4,0,0,0,1.39,1.08,2.32,2.32,0,0,0,.55-.18A15.15,15.15,0,0,0,27.24,91.89Z"/><path d="M21.8,90.28c-.35.8,0,1.25.83,1.24A2,2,0,0,0,23.94,91c.46-.39.92-.78,1.4-1.16s1-.69,1.47-1.09A1.15,1.15,0,0,0,27,87.22c-.35-.44-.79-.31-1.18-.1-.88.47-1.75,1-2.6,1.48A3.54,3.54,0,0,0,21.8,90.28Z"/><path d="M70.29,62.11a2.79,2.79,0,0,0,.2-1.37,11,11,0,0,0-1-3.6A3,3,0,0,0,68.39,56c-.31-.19-.63-.39-1-.1a.74.74,0,0,0-.15,1A9,9,0,0,1,68.77,62c0,.47.52.7.93.78S70.22,62.42,70.29,62.11Z"/><path d="M34.43,101.41c0-.85-.59-1.5-1.22-1.23-1,.45-2,1-3,1.52-.35.18-.34.46-.17.76a1.94,1.94,0,0,0,3.1.62c.27-.21.55-.42.81-.65A1.36,1.36,0,0,0,34.43,101.41Z"/><path d="M177,87.61a1.56,1.56,0,0,0-2.09.42,1.49,1.49,0,0,0-.07,1.82,1.23,1.23,0,0,1,0,1.44,1.08,1.08,0,0,0-.27.73,4.18,4.18,0,0,0,3-2.26A1.59,1.59,0,0,0,177,87.61Z"/><path d="M37.51,105.87c-.43.14-.88.5-1.31,0s.1-.72.12-1.08c0-.13.1-.25.11-.37a.77.77,0,0,0-1.08-.85,5.78,5.78,0,0,0-2,1.1,13.35,13.35,0,0,0,4.93,3c.41.07.71-.07.75-.49s.14-.88-.22-1.24S38,105.73,37.51,105.87Z"/><path d="M101.08,97.85a5.56,5.56,0,0,1-.42-3.42,2,2,0,0,0-.3-1.84,1.22,1.22,0,0,0-.74.91,10.24,10.24,0,0,0-.34,3.21,6.82,6.82,0,0,0,.75,2.61.65.65,0,0,0,.86.37.63.63,0,0,0,.44-.71A3.7,3.7,0,0,0,101.08,97.85Z"/><path d="M78.46,39.5a1.07,1.07,0,0,0,.46-1,1.94,1.94,0,0,0-1-1.25,17.55,17.55,0,0,0-2.6-1.21c-.41-.15-.8-.22-1,.18s.13.74.42,1c1,.76,1.94,1.49,2.91,2.23A.63.63,0,0,0,78.46,39.5Z"/><path d="M72.87,40.81c.59.51,1.23,1,1.83,1.46s.82.16,1.12-.19A1.36,1.36,0,0,0,76,40.49a2.63,2.63,0,0,0-2.33-1.43c-.42,0-.82.09-1,.53A1.06,1.06,0,0,0,72.87,40.81Z"/><path d="M47,26.38a1.12,1.12,0,0,0-.38.06A5.46,5.46,0,0,0,44.35,29a.53.53,0,0,0,.21.68.74.74,0,0,0,.84,0,10.87,10.87,0,0,0,2.35-1.8.86.86,0,0,0,.13-1.07A.77.77,0,0,0,47,26.38Z"/><path d="M115.18,59.88a1,1,0,0,0-.15-.36c-.29-.43-.67-.72-1.21-.46a1,1,0,0,0-.57,1.18,3.16,3.16,0,0,0,.25.6l1.2,2.33c.14.27.29.57.69.43s.33-.46.33-.79C115.55,61.85,115.37,60.86,115.18,59.88Z"/><path d="M9.79,63a.74.74,0,0,0,.86,0,2.5,2.5,0,0,0,1.24-1.77c0-.32-.05-.53-.08-.74a1,1,0,0,0-.68-.87c-.44-.11-.72.14-1,.47a3.87,3.87,0,0,0-.81,1.74A1.19,1.19,0,0,0,9.79,63Z"/><path d="M22.52,64.57a1,1,0,0,0-.25.28,2.59,2.59,0,0,0,.23,3c.13.2.28.5.58.38a.68.68,0,0,0,.34-.66,1.51,1.51,0,0,0-.09-.64,8.91,8.91,0,0,1-.54-2.39C22.69,64.56,22.58,64.53,22.52,64.57Z"/><path d="M9.65,58.73c.09.18.14.45.42.41a.56.56,0,0,0,.42-.44,9.05,9.05,0,0,0,.29-1.25c.05-.44.23-1-.46-1.14-.46-.1-.79.31-.88,1a2.25,2.25,0,0,0,0,.26A2.58,2.58,0,0,0,9.65,58.73Z"/><path d="M25.38,70.26c.3,0,.71-.68.67-1.33,0-.24-.32-.34-.7-.3s-.66.36-.62.8S24.91,70.21,25.38,70.26Z"/><path d="M65.34,6.78l4.42,0h0L70,6.56h0a25.1,25.1,0,0,0-2.87-.27C66.75,7.15,65.87,6.34,65.34,6.78Z"/><path d="M69.76,6.83h0a3.14,3.14,0,0,0,2,.17A2.17,2.17,0,0,0,70,6.56C70.09,6.81,70,6.94,69.76,6.83Z"/><path d="M33.85,15.4a5.06,5.06,0,0,0,1.35-1l-.26-.23a4.75,4.75,0,0,0-1.4,1C33.81,15,33.87,15.18,33.85,15.4Z"/><path d="M53.77,7.11h0c.2,0,.4-.07.52.17a.59.59,0,0,0,.6-.51A3.3,3.3,0,0,0,53.27,7l.07.11Z"/><path d="M51.46,7.9a4.34,4.34,0,0,0,1.28-.35l-.29-.26a1.36,1.36,0,0,0-1,.24A.25.25,0,0,1,51.46,7.9Z"/><path d="M24.68,23l0,.1a1.39,1.39,0,0,0,.55-.73l-.05-.43h0a2.11,2.11,0,0,0-.77.88l.1,0A.54.54,0,0,1,24.68,23Z"/><path d="M52.74,7.55c.21,0,.42.09.55-.16h0V7.13h0V7c-.28.06-.6,0-.82.27C52.73,7.18,52.79,7.31,52.74,7.55Z"/><path d="M35.2,14.41c.14,0,.26-.14.17-.27s-.29,0-.43,0A.4.4,0,0,1,35.2,14.41Z"/><path d="M25.25,22.32c.19-.12.33-.28.21-.5s-.2-.05-.26.07A.3.3,0,0,1,25.25,22.32Z"/><path d="M53.35,7.16v0h-.06c.09.06.11.11.09.17s0,.09-.08.09l.5-.09V7.18A3.24,3.24,0,0,1,53.35,7.16Z"/><path d="M53.88,7.23a.09.09,0,0,1-.09.07l.5,0a.57.57,0,0,0-.4-.09A.08.08,0,0,1,53.88,7.23Z"/><path d="M53.83,7.18h.06s0-.06-.12-.08,0,0,0,.07Z"/><path d="M24.56,23h0Z"/></svg>