<?xml version="1.0" encoding="utf-8"?>
<!-- Generator: Adobe Illustrator 22.0.1, SVG Export Plug-In . SVG Version: 6.00 Build 0)  -->
<svg version="1.1" id="Calque_1" xmlns="http://www.w3.org/2000/svg" xmlns:xlink="http://www.w3.org/1999/xlink" x="0px" y="0px"
	 viewBox="0 0 99 123.8" style="enable-background:new 0 0 99 123.8;" xml:space="preserve">
<title>zntitled-1</title>
<path d="M78.3,32.8c0.1-0.8,0.2-1.6,0.2-2.5c0-10.3-8.3-18.6-18.5-18.7c-6.8,0-13.1,3.7-16.4,9.7c-2.2-1.7-4.9-2.6-7.7-2.6
	c-6.9,0-12.6,5.6-12.7,12.5C14.9,33.6,10,42.3,12.4,50.7c1.5,5.1,5.4,9.2,10.5,10.8c1.5,0.5,3,0.7,4.6,0.7h14.9l-3.9,10.3
	c-0.1,0.3-0.1,0.6,0.1,0.9c0.2,0.3,0.5,0.4,0.8,0.4h5.3L40.4,86c-0.1,0.4,0,0.9,0.4,1.1c0.4,0.2,0.9,0.2,1.2-0.2l17.5-19
	c0.2-0.3,0.3-0.7,0.2-1c-0.2-0.3-0.5-0.6-0.9-0.6h-4.6l2.3-4.2h15.8c4.2,0,8.2-1.8,11-5c2.5-2.9,3.9-6.6,3.9-10.4
	C87.3,40.8,83.8,35.3,78.3,32.8z M51.8,66.8c-0.2,0.3-0.2,0.7,0,0.9c0.2,0.3,0.5,0.5,0.8,0.5h4l-12.9,14l3.2-9.2
	c0.1-0.3,0.1-0.6-0.1-0.9c-0.2-0.2-0.5-0.4-0.8-0.4h-5.2l3.6-9.7h9.9L51.8,66.8z M81.2,55.2c-2.2,2.5-5.5,4-8.8,4H27.5
	c-1.3,0-2.5-0.2-3.8-0.6c-6.8-2.1-10.6-9.3-8.4-16.1c1.4-4.5,5.1-7.8,9.7-8.8c0.7-0.1,1.2-0.8,1.1-1.5c0-0.3,0-0.5,0-0.8
	c0-5.4,4.4-9.8,9.8-9.8c2.7,0,5.2,1.1,7.1,3.1c0.5,0.6,1.4,0.6,2,0.1c0.2-0.1,0.3-0.3,0.3-0.5c3.3-8,12.5-11.8,20.5-8.5
	c7,2.9,10.9,10.3,9.4,17.7c-0.1,0.7,0.2,1.4,0.9,1.6c5,1.8,8.2,6.5,8.2,11.8C84.3,49.9,83.2,52.9,81.2,55.2z"/>
</svg>
