<svg id="Calque_1" data-name="Calque 1" xmlns="http://www.w3.org/2000/svg" viewBox="0 0 112 128"><title>Plan de travail 1</title><path d="M95.16,89.71c.24-.71-.15-1.26-.33-1.87a5.33,5.33,0,0,1-.32-1.15,12,12,0,0,1,.37-3.87,30,30,0,0,0,.62-6.12,25.77,25.77,0,0,0-.43-4.18A13.78,13.78,0,0,0,93.21,67a6.2,6.2,0,0,1-1-3.45,9.35,9.35,0,0,0-.62-3.22c-.06-.19-.14-.54-.38-.47s-.24.43-.18.66c.16.62.3,1.24.47,1.86.26,1-.08,2,.24,2.92.1.31-.16.22-.39.18-1.54-.32-3.22-.19-4.49-1.4l-.07,0c-.16,0-.37-.11-.47.1s.07.27.18.37a4.64,4.64,0,0,0,3.12,1.32,3.57,3.57,0,0,1,3.67,2.53,24.35,24.35,0,0,1,1.52,7,28.9,28.9,0,0,1-.18,5.26A10.81,10.81,0,0,1,94,83.61a4.68,4.68,0,0,1-.94-1.39,5.81,5.81,0,0,0-1.71-2.67,9.41,9.41,0,0,0-6-3,17.86,17.86,0,0,0-7.28,1.09,4.65,4.65,0,0,0-2.82,2.21,1.25,1.25,0,0,1-.64.6,2.59,2.59,0,0,0-1.41,1.66,5.06,5.06,0,0,1-.33.9,12.16,12.16,0,0,0-1.14,3c-.35,1.14-1,2.28-.53,3.56,0,.08-.07.24-.14.33a1.44,1.44,0,0,0-.26,1.37c.22.82-.52,1.45-.36,2.24,0,.1-.11.16-.22.16-.45,0-.41.27-.34.56.11.5.12.82-.57.57a.72.72,0,0,0-.95.73c0,.71-.27.71-.77.49-.13-.06-.28-.18-.4-.06a.31.31,0,0,0,0,.47.54.54,0,0,1,.12.74c-.17.3-.38.61-.09,1a.89.89,0,0,0,1.11.18c.4-.16.63-.12.73.31,0,.19.11.36.32.35a.31.31,0,0,0,.29-.37c0-.27,0-.47.37-.35s.47.25.25.6-.31.69-.13.94c.59.81-.11,1.72.25,2.55.1.21-.13.3-.31.31-.41,0-.81.06-1.21.07-1.19,0-2.38,0-3.56.11-.65.07-.81-.15-.82-.71,0-1.59-.11-3.18-.15-4.77a1.21,1.21,0,0,0-.82-1.22c-.5-.21-1-.36-1.52-.61-2.61-1.3-5.37-2.25-8-3.66a31.67,31.67,0,0,0-6.88-2.71,1.27,1.27,0,0,0-1,.11c-.41.23-.88.36-1.26.62-.55.38-.72.1-.71-.36.06-2-.45-4-.51-5.94,0-.53,0-1.16-.67-1.46-1.94-.83-3.82-1.81-5.82-2.51a1.16,1.16,0,0,0-1.39.3c-1.49,1.51-2.84,3.14-4.23,4.73-.3.34-.42.34-.74,0-1.26-1.18-2.34-2.51-3.5-3.78a1,1,0,0,0-.81-.46,11.33,11.33,0,0,0-2.26.06c-.71.16-.9-.15-1.05-.69a13.62,13.62,0,0,0-2.57-5.09,2.64,2.64,0,0,1,.55-3.94c-.07,1.05.26,1.71,1,1.77a1.9,1.9,0,0,1,.94.38c.46.32,1.16.5,1.49,0a1.16,1.16,0,0,1,.9-.57c.37-.07.72-.25.19-.65-.22-.16-.43-.34-.23-.69s0-.43-.22-.58-.31-.11-.26-.3.24-.14.39-.16a1,1,0,0,0,1-1.22,2.9,2.9,0,0,1,.18-2c.22-.45,0-.73-.45-.61a2.32,2.32,0,0,1-2-.28.77.77,0,0,0-.9.2c-.14.13-.35.38-.5.15-.29-.46-.9-.66-1-1.27s-.32-.36-.59-.16c-1.07.82-1.62,3-.7,4s.58,1.39-.18,2c-.07.06-.09.19-.17.25s-.16.48-.45.43-.26-.35-.32-.54a8.08,8.08,0,0,1,0-4c.3-1.74.72-3.35,2.56-4.1a.76.76,0,0,0,.19-.12.66.66,0,0,0-.1-1.23c-1.1-.58-1.1-.58-.81-1.75a5.51,5.51,0,0,1,.32-1.14c.44-.85.68-1.88,1.75-2.29.11.62.13,1.12-.51,1.46a1.18,1.18,0,0,0-.51.89,1.6,1.6,0,0,0,1.29,1.94c.33.09.83-.07,1,.48.5,1.61,1.59,2,3.12,1.23a2.28,2.28,0,0,1,1.89-.3A1.92,1.92,0,0,0,32,61.3c.48-.72.13-1.7-.78-2.39a.85.85,0,0,1-.41-.66c0-1.08-.38-1.5-1.48-1.73-.45-.1-.52-.14-.35-.6a1.68,1.68,0,0,0-1-2.14,1.65,1.65,0,0,0-2.25.52.59.59,0,0,1-.8.28,2.53,2.53,0,0,0-2.18.07c-.47.28-1,.54-1.44.81-.14.07-.21.34-.43.21s-.08-.32-.08-.49a5.15,5.15,0,0,1,3.64-4.73c.34-.08.71.06,1-.11s.45-.11.48-.41-.15-.37-.32-.47c-.83-.52-1.64-1.21-2.63-.28-.09.08-.27.07-.55.14.52-1,.38-2.07.77-3,1.31-3.2,3.78-5.23,6.73-6.8.39-.21.61-.22.9.23a2.33,2.33,0,0,0,2.79.86A8.58,8.58,0,0,0,36,39.67c.2-.11.57,0,.61-.31s-.34-.4-.51-.61-.22-.11-.32-.17-.22-.24,0-.35c.89-.57,1-1.65,1.53-2.42.24-.33.15-.48-.28-.61a4.11,4.11,0,0,0-2,.06c0-.5.57-1.07.15-1.33s-1,.24-1.41.49c-.24.13-.49.47-.71.34-.65-.37-.81,0-1,.51a.81.81,0,0,1-.5.42,2.33,2.33,0,0,0-1.26,1.52.91.91,0,0,1-.55.62,32.23,32.23,0,0,0-2.94,1.47c-.34.22-.59.6-1.16.65a6.08,6.08,0,0,1,1.55-2.23c1.24-1,2.59-2,3.21-3.61a4.05,4.05,0,0,1,2.44-2.27,7.49,7.49,0,0,0,1-.41c.48-.29.62-.09.79.36a2.78,2.78,0,0,0,3.19,1.77A1.83,1.83,0,0,0,39,32.5a1.06,1.06,0,0,0-.4-1.22,3.3,3.3,0,0,0-2.25-1.06c-.18,0-.42.11-.51-.17a2.94,2.94,0,0,1,3.92,0,5.17,5.17,0,0,0,2.32,1.09A2.57,2.57,0,0,0,43.69,31c.29-.12.28-.34.23-.55s-.31-.1-.43-.06a2.52,2.52,0,0,1-1.25,0,5.87,5.87,0,0,1-2.45-1.24,3.88,3.88,0,0,0-4.86.72c-.65.91-1.66.86-2.53,1.23A9.12,9.12,0,0,1,34,28.78a10.36,10.36,0,0,0,2.16-2.6A7.44,7.44,0,0,1,39.71,23c.2-.11.5-.34.65,0s-.21.41-.42.51a1.64,1.64,0,0,0-1,2,16.19,16.19,0,0,0,.94,2.58c.12.43,1.43.95,1.65.71.83-.9,2.18-1.6,1.27-3.26a2.22,2.22,0,0,1,1.17.74c.6.57,1.39.62,1.8-.08a3.23,3.23,0,0,1,2.79-1.9.46.46,0,0,0,.2-.86,4.64,4.64,0,0,1-2-2.82,1.48,1.48,0,0,0-2.22-.76,1.16,1.16,0,0,1-.67.3,7.87,7.87,0,0,0,.46-1c.06-.22.28-.57.05-.7-.7-.4-.46-1-.46-1.59,0-.4-.11-.5-.48-.32a6.36,6.36,0,0,1-.71.21c-.22.06-.43.14-.54-.19-.19-.54-.47-.45-.84-.13a10.13,10.13,0,0,1-1.79,1.35c-.74.39-1.45,2.54-.93,3.21a1.57,1.57,0,0,0,.74.47c.12,0,.29,0,.36.07s.65-.08.68.33-.38.34-.61.43a10.22,10.22,0,0,0-3.11,2c-.84.77-1.1,1.92-1.91,2.69a28.37,28.37,0,0,0-4.6,6.19c-.72,1.18-1.26,2.48-2.45,3.28a11.41,11.41,0,0,0-3.53,4.69c-.11.24-.38.53,0,.81s.56,0,.76-.22a16.29,16.29,0,0,1,3.26-2.53,15.4,15.4,0,0,1,2.5-1.12c-.13.43-.42.5-.66.63a17.14,17.14,0,0,0-6,5c-1.31,1.82-1.52,4-2.35,6-.16.37.18.46.48.46a2.69,2.69,0,0,0,1.58-.58c.33-.23.65-.31.84.22A4.58,4.58,0,0,0,22.12,51a8.63,8.63,0,0,0-1.77,2.91,4.32,4.32,0,0,0,.06,2.66c.13.37.3.48.6.1a5.64,5.64,0,0,1,2.46-1.63.66.66,0,0,1,.9.2,3.85,3.85,0,0,0-2.49,1.32,8.57,8.57,0,0,0-1.5,4,1.19,1.19,0,0,0,.69,1.3c.16.08.46.08.43.32s-.29.31-.49.42A3.49,3.49,0,0,0,19.15,65c-.11.51-.27,1-.39,1.52a7.64,7.64,0,0,0,.1,4.93,8.33,8.33,0,0,1,.74,2.33,2.3,2.3,0,0,0,.63,1.4c1.3,1.26,1.74,2.94,2.36,4.54.35.87.13,1.08-.82,1s-.52-.71-.6-1.08A7.28,7.28,0,0,0,20.1,77a11.41,11.41,0,0,1-2.29-6.83,51.44,51.44,0,0,1,.55-5.54,5.23,5.23,0,0,0-.16-2.23c-.24-.79-1-1.27-1.6-1s-1.45.27-2.12.64a1.52,1.52,0,0,1-1.25,0A1.6,1.6,0,0,0,11,63.11a1.43,1.43,0,0,1-.63.78,1.82,1.82,0,0,0-.74,2.45.72.72,0,0,1,0,.76,1.61,1.61,0,0,0,.29,2.32,1.43,1.43,0,0,1,.51,1.24A1.89,1.89,0,0,0,12,72.44a1.62,1.62,0,0,0,1.88-1.29,2.62,2.62,0,0,1,.65-1,8.28,8.28,0,0,1,2-1.81,1.13,1.13,0,0,0,.51-.72c.05-.25.26-.29.27-.07s.12.68-.12,1a12.82,12.82,0,0,0,1.83,8,7.54,7.54,0,0,1,1.54,3.59c0,.31.27.69-.22.8a.76.76,0,0,1-1-.48c-.27-.8-.64-1.57-.89-2.38a8.9,8.9,0,0,0-3.11-4.39,2.22,2.22,0,0,0-.92-.46,3.45,3.45,0,0,0-4,2.51,7.28,7.28,0,0,0,0,2.79A19.23,19.23,0,0,0,12,83.62c.17.38.24.83.62,1.07.34-.33.22-.67.09-1-.3-.76-.61-1.52-.9-2.29A11.15,11.15,0,0,1,11,76.21c.18-1.8,2.25-3,3.63-2.09-.12.21-.36.22-.55.33a3.28,3.28,0,0,0-1.44,1.48,1.94,1.94,0,0,0,.83,2.46,1.9,1.9,0,0,0,2.43-.86c.32-.55.3-1.19.59-1.75a.92.92,0,0,1,.2.17,17.69,17.69,0,0,1,2,4.55c.15.39-.14.54-.48.58-.6.06-1.2.13-1.8.16-1.43.07-1.43.06-1.35,1.45a1.76,1.76,0,0,1,0,.23c.18,2.55.17,5.1.15,7.65a1.44,1.44,0,0,0,.55,1.2c0-2.43,0-4.76,0-7.1,0-.47-.05-1-.06-1.43,0-.14-.07-.33.09-.41s.29.12.4.23a7,7,0,0,0,1.53,1.35c1.07.58,1.83,1.56,2.88,2.17a.52.52,0,0,1,.26.5c0,.78.15,1.55.16,2.34,0,2.49.07,5,.14,7.48.05,1.38.16,2.76.24,4.14a3,3,0,0,0,.09,1.2c.06.13.14.29.33.26a.28.28,0,0,0,.24-.33c0-.35-.07-.7-.08-1.06-.08-1.84-.57-3.8,1.45-5.06.21-.12.33-.38.5-.57s.11-.26.27-.18.15.19.14.32c0,.5-.09,1-.08,1.5a46,46,0,0,0,.22,4.84,1.36,1.36,0,0,1-.28,1.12,5.59,5.59,0,0,0-.59,1.14.33.33,0,0,0,.12.46c.23.13.32-.11.4-.22.28-.41.53-.85.78-1.28a.69.69,0,0,1,.67-.38c.66,0,1.31-.08,2-.14a1.46,1.46,0,0,1,1.33.49c.65.69,1.39,1.3,2,2,.31.34.36.56,0,.88a2.17,2.17,0,0,0-.5.66,1.22,1.22,0,0,1-1.36.67c-.83-.05-1.67,0-2.5,0-.14,0-.34-.07-.37.14s.15.25.25.35.33.1.5.13c1.83.27,3.67,0,5.5.14.24,0,.62.11.65-.2s-.34-.47-.65-.48a4.57,4.57,0,0,1-1.28-.07c-.18-.05-.37-.09-.18-.34.46-.64.89-1.3,1.85-1.2.5.06,1,0,1.52,0s.81.34.45.79a2.67,2.67,0,0,0-.42,2.69c.17.47,0,.61-.4.6-.65,0-1.29,0-2-.09a25.13,25.13,0,0,0-2.88,0c-.2,0-.37.07-.39.27s.14.31.33.34a2.32,2.32,0,0,0,.45.06c1.52,0,3,.08,4.55.08.51,0,.67.11.52.65-.29,1,0,1.42.91,1.8.27.11.53.19.44.64-.16.75.3,1.26,1.12,1.33a.89.89,0,0,1,.85.56,2.84,2.84,0,0,0,4.1.93c.3-.22.51-.37.84-.11a.67.67,0,0,0,.5.13c1.89-.11,3.77.18,5.67.16,2.58,0,5.16,0,7.74,0,.24,0,.59,0,.6-.26s-.3-.37-.56-.41c-.1,0-.2,0-.3,0-.78,0-1.56.06-2.34.06l-5.54,0c-.15,0-.32,0-.42-.11s0-.23.13-.3a6.66,6.66,0,0,1,3.78-1.43c1.56.07,3.13-.07,4.69-.13.16,0,.41.09.44-.16s-.2-.36-.38-.41a2,2,0,0,0-.6,0H52.88A2.39,2.39,0,0,1,54.63,112a.73.73,0,0,0,.65-.46c.07-.3-.23-.41-.44-.54-.59-.36-1.19-.72-1.8-1.07a2,2,0,0,1-1-1.49,2.59,2.59,0,0,0-.62-1.48c-.29-.34-.17-.41.27-.52,1.21-.33,2.4.16,3.6,0a11.69,11.69,0,0,1,1.45,0c.39,0,.52.32.55.6s-.31.31-.55.31c-.48,0-1,0-1.44,0-.18,0-.53-.18-.53.18s.25.42.53.42a9.87,9.87,0,0,0,1.88.15.59.59,0,0,1,.69.44,10.27,10.27,0,0,0,2.42,3.5c-.47,0-.83.08-1.19.15-.19,0-.54-.16-.54.2s.29.45.6.41c2-.24,3.88.44,5.85.18a20.18,20.18,0,0,1,2.58,0c.17,0,.4,0,.43-.19s-.13-.3-.29-.42-.62-.1-.93-.19c1.2-1.54,2.09-1.61,3.45-.33,1.13,1.07,2.37,2,4.06,1.73a29.22,29.22,0,0,1,3.62-.15c.18,0,.51.17.5-.24s-.25-.34-.49-.37a2.44,2.44,0,0,1-1.15-.2,2.55,2.55,0,0,1,2.48-.8,7.63,7.63,0,0,0,1.89.43c.15,0,.34.22.45,0a.44.44,0,0,0-.13-.49,11,11,0,0,0-.9-.91c-1.74-1.35-2.72-1.54-4.19-.5-2.3,1.61-4.11.34-5.51-1.61,2.42.15,4.79-.2,7.15-.08,1.57.08,3.13.07,4.69.1,1.32,0,2.63,0,4,0,.35,0,.66-.13.66-.44s-.37-.16-.57-.17c-2.48-.07-4.95,0-7.42-.1-3.05-.14-6.12-.06-9.18,0a6.6,6.6,0,0,0-3.9,1.16,4.2,4.2,0,0,1-3.28.79A3.92,3.92,0,0,1,60,106.67c0-.43.07-.68.55-.7,1.06,0,2.12-.09,3.18-.09,3.39,0,6.78,0,10.17,0,.4,0,.75,0,.82.62H73.51c-1.69,0-3.37,0-5.06-.06-1.43,0-2.86.1-4.3.13-.19,0-.38,0-.44.15s.1.31.22.44.38.11.57.11c1,0,2.06-.11,3.09-.13,1.66,0,3.32,0,5,.08,2.61.15,5.24.06,7.86,0,.6,0,1.2-.07,1.8-.07,2,0,4,0,6,0,.58,0,.79-.46,1-.83s-.26-.47-.48-.65-.43-.34-.64-.52-.25-.27-.16-.39.32-.12.48,0c.33.26.66.54,1,.82s.35.21.52,0c.52-.67,1.51-1.11,1.07-2.28.33,0,.83.46.79,0-.08-.8.34-1,.88-1.14,0,0,.07-.07.1-.11a20.34,20.34,0,0,0,1.54-3.23c.15-.29,0-.83.15-1,.74-.7.55-1.5.39-2.31,0-.22-.07-.38.18-.47.49-.18.4-.52.31-.93s-.76-1.24.28-1.63c.07,0,.1-.22.1-.34a2.62,2.62,0,0,0-.29-1.73C95.27,90.18,95.1,89.89,95.16,89.71ZM67.83,97.57a3,3,0,0,1,.82-.85C68.9,97.32,68.59,97.65,67.83,97.57Zm-47-30.14c.1-.35-.34-.68-.06-1s.17-.71.53-.55.87.33.75.9-.32,1.06.35,1.23.75-.51.95-.94.49-.76,1-.31a.78.78,0,0,0,.54.2c.86-.14.82.36.8,1-.05,1.4,0,1.41-1.44,1.46a.81.81,0,0,0-.77.51c-.15.38.28.41.5.51s.59.22.49.62.32.44.3.75c-.35.2-1.23-.23-.87.76-.34,0-.45-.22-.6-.38a.63.63,0,0,0-.7-.26c-.57.13-.91-.26-.66-.75a6.16,6.16,0,0,0,.81-1.74.92.92,0,0,1,.88-.6c.35,0,.76-.07.66-.5s-.51-.23-.83-.15a1.14,1.14,0,0,0-.73.34,1.16,1.16,0,0,1-1.54.25C20.71,68.54,20.68,67.94,20.82,67.43ZM32.39,35.82A3.47,3.47,0,0,0,33.76,35a3.17,3.17,0,0,1,.48-.29c0,.47-.34.62-.48.9s-.28.35-.15.55.35.09.54,0a12.72,12.72,0,0,0,1.48-.47.66.66,0,0,1,.78.07c.19.22-.09.41-.17.6A2.16,2.16,0,0,1,34.42,38c-.42,0-.29.24-.08.43a3.25,3.25,0,0,1,.29.23c.19.2.68.23.53.6a.89.89,0,0,1-.8.47,5.37,5.37,0,0,0-1.14.31A1.59,1.59,0,0,1,32,39.94a1.28,1.28,0,0,1-.75-1.22c.05-.53.6-.68,1.1-.73a3.42,3.42,0,0,0,1.18-.15c.18-.09.44-.07.37-.35a.41.41,0,0,0-.55-.27c-.77.18-1.61.06-2.28.58a.91.91,0,0,1-.29.1C30.67,36.93,31.16,36.19,32.39,35.82Zm3.77-5a3.11,3.11,0,0,1,2,.78c.4.3.48.72-.09,1.07a2.1,2.1,0,0,1-2.94-1.31C35.08,31,35.35,30.86,36.16,30.84Zm4.54-5.22c.3.21.48-.15.63-.36a2.88,2.88,0,0,0,.6-2c-.06-.63.08-.75.66-.46a5,5,0,0,0,2.12.63,1,1,0,0,0,.51,0c.13-.07.35-.18.31-.37s-.22-.19-.38-.19C44,22.83,43,22,41.83,22c-.14,0-.29-.1-.28-.21.06-.71-.49-1.4,0-2.11.11-.18.23-.37,0-.52s-.38.06-.48.22a1.44,1.44,0,0,0-.36,1.24c0,.12.11.3-.06.29a3.89,3.89,0,0,1-1.18-.2c-.29-.1-.29-.41-.24-.71a1.55,1.55,0,0,1,.75-1.32c.37-.2.47-.9,1-1.18.21-.11.39-.3.44.14s.27.19.45.11.35-.18.54-.25c.87-.34,1-.25.84.71,0,.12-.07.32,0,.36,1,.77-.11,1.17-.29,1.74-.1.31-.8.49-.34.89a1.15,1.15,0,0,0,1.47,0c.28-.2.49-.51.76-.73.61-.49,1.19-.36,1.41.37a5.35,5.35,0,0,0,1.41,2.42c.24.23.39.51-.09.53a2.24,2.24,0,0,0-1.88,1.41c-.54.91-.66.92-1.51.25A4.7,4.7,0,0,0,43,24.82a.73.73,0,0,0-.9.14c-.24.29-.11.57,0,.83a1.54,1.54,0,0,1-1,2.21c-.26.07-.6,0-.65-.22-.24-.94-.94-1.7-1-2.7,0-.45.09-.82.58-.91a1.31,1.31,0,0,0,1-1,1.88,1.88,0,0,1-.32,1.73C40.64,25.12,40.38,25.41,40.7,25.62ZM26.82,61.91a.76.76,0,0,1-.77.15,1.62,1.62,0,0,1-1-1.54,2.76,2.76,0,0,1,.44-.9c.13-.22.36-.11.56-.08s.29.24.28.45a2.7,2.7,0,0,0,.37,1.36C26.76,61.54,27.06,61.73,26.82,61.91Zm1.68-.48a1,1,0,0,1-1.2-.3,2,2,0,0,1-.31-1c0-.69.27-.87,1-.58a1.39,1.39,0,0,0,.42.14c.38,0,.78,0,.84.49A1.19,1.19,0,0,1,28.5,61.43Zm2.16-2a1.12,1.12,0,0,1,.94,1.23,1.19,1.19,0,0,1-1.27,1h-.06c-.52,0-.65-.49-.42-.73C30.26,60.39,29.26,59.17,30.66,59.38ZM29,57.1c.76,0,1.24.33,1.24.88s-.62.9-1.38,1-.86-.22-.72-.83C28,57.41,28.27,57.08,29,57.1Zm-2-2.88c.76,0,1.46.55,1.45,1.14a1.08,1.08,0,0,1-1.12,1c-.64,0-1.39-.63-1.39-1.15A1.2,1.2,0,0,1,27.06,54.22Zm-.8,2.87A.46.46,0,0,1,27,57,1.24,1.24,0,0,1,27.52,58a.93.93,0,0,1-.75.88c-.48.11-1.11,0-1.24-.46S26,57.56,26.26,57.09Zm-1.44-1.21a.83.83,0,0,1,.84.74,1.15,1.15,0,0,1-1,1.09.79.79,0,0,1-.8-.9A1,1,0,0,1,24.82,55.88Zm0,3.18c0,.5-.19,1-.82,1A1.17,1.17,0,0,1,22.8,59a.83.83,0,0,1,.76-.88C24.05,58,24.89,58.63,24.86,59.06Zm-9.32,3.28c.25-.15.42,0,.6.17a1.21,1.21,0,0,1,.4,1.42.68.68,0,0,1-.78.45c-.53-.09-.09-.54-.19-.68a4.85,4.85,0,0,0-.13-.77C15.35,62.69,15.3,62.49,15.54,62.34Zm-1.32.39c.58,0,.66.47.68.89a.88.88,0,0,1-.87.93c-.52,0-.72-.32-.77-.74A1.1,1.1,0,0,1,14.22,62.73Zm-2.64.59c.05-.5.28-.84.87-.75.2,0,.49-.14.49.31-.26.28-.1,1-.83.91C11.81,63.77,11.53,63.71,11.58,63.32Zm.9,1.25c.56,0,.75.47.82,1s-.37,1.08-.91,1.07a1.09,1.09,0,0,1-1-1.13C11.42,64.77,12,64.6,12.48,64.57Zm-2.4.6a.88.88,0,0,1,1.05-.75,2.06,2.06,0,0,0-.29,1.66c.05.38-.14.4-.37.28A1,1,0,0,1,10.08,65.17ZM9.9,68.05c0-.63.32-1,1.44-1,.63,0,.65.56.69.91,0,.86-.43,1.38-1,1.35A1.33,1.33,0,0,1,9.9,68.05Zm2.41,3.78c-.63,0-1.33-.54-1.34-1a1.09,1.09,0,0,1,.95-1,3.31,3.31,0,0,1,1.39,1.08A1,1,0,0,1,12.31,71.83Zm1.17-2c-.41-.1-.93-.28-1-.86-.08-1,.25-1.59.84-1.57a1.45,1.45,0,0,1,1.27,1.34A1.18,1.18,0,0,1,13.48,69.86Zm.37-3.68c0-.68.41-1.2,1-1.17s.61.6.67,1a.73.73,0,0,1-.78.83C14.2,66.83,13.84,66.74,13.85,66.18Zm1.86,2a.43.43,0,0,1-.64-.19c-.17-.27-.11-.41.2-.56s.38-.39.58-.57.05-.54.39-.41.19.38.19.61C16.52,67.61,16.1,67.89,15.71,68.15Zm2.06-4.52c-.05,1.07-.25,2.13-.39,3.2h-.19a2.26,2.26,0,0,0-.89-1.25c-.27-.18-.27-.4,0-.64,1.19-1,1.2-1,.63-2.52-.05-.15-.14-.32,0-.41s.31.08.41.2A2,2,0,0,1,17.77,63.63Zm-2.1,12.31a1.93,1.93,0,0,1-.7,1.71,1.2,1.2,0,0,1-1.63-.18,1.5,1.5,0,0,1,.27-2,2.63,2.63,0,0,1,.63-.41C15.18,74.71,15.7,74.58,15.67,75.94ZM31.3,100.38c.07,0,.08.17.12.26s-.11.45-.41.24l-1.79-1.19c-.06,0-.07-.19-.06-.28s.13-.15.22-.1C30,99.66,30.67,100,31.3,100.38Zm-.13-1c-.13.18-.3,0-.39,0-.57-.36-1.3-.52-1.52-1.34.58.32,1.17.63,1.74,1C31.12,99,31.32,99.13,31.17,99.33Zm-8.89-3c-.11.09-.15.32-.33.26s-.2-.26-.2-.44V92.75c.08-1.37-.2-3.12-.17-4.88a3.85,3.85,0,0,1,0-.68c.05-.27.29-.32.53-.32a.34.34,0,0,1,.38.36,13.26,13.26,0,0,1,0,3.67,12.53,12.53,0,0,0,.21,3.45C22.82,95.07,22.93,95.75,22.28,96.28Zm1.59-3.58c0,.47,0,1,0,1.44,0,.25,0,.5-.4.65a18.91,18.91,0,0,1-.23-4.3,16.15,16.15,0,0,0,0-2.95c0-.22-.29-.64.15-.69s.31.37.32.63C23.68,89.22,23.94,91,23.87,92.7Zm-2-6.45c-.78.24-1.15-.39-1.78-.8,2.3-.72,4.58-.45,6.84-.74a.72.72,0,0,0-.75-.58,29.54,29.54,0,0,0-4.88.37l-1.56.24a.75.75,0,0,1-.7-.18c-.08-.08-.24-.14-.15-.29a.36.36,0,0,1,.25-.13c.89-.11,1.78-.23,2.68-.3s2.06-.11,3.08-.17c.24,0,.61,0,.61-.27s-.38-.37-.65-.36c-.91,0-1.82.08-2.72.12a22.41,22.41,0,0,0-3.65.5,2,2,0,0,1-.6,0,.49.49,0,0,1-.5-.39c0-.29.29-.17.47-.21a20.1,20.1,0,0,1,3.71-.44,16.75,16.75,0,0,1,2.76-.13.81.81,0,0,0-1-.63c-1.28.11-2.55.23-3.83.36-.87.09-1.74.21-2.62.31-.3,0-.58-.1-.61-.41s.29-.25.48-.26c1.9-.16,3.8-.29,5.7-.47a27.74,27.74,0,0,1,3.75-.3.93.93,0,0,1,.79.33c1,1.26,2.14,2.48,3.3,3.63.05,0,.05.13.13.32a57.28,57.28,0,0,0-5.85.61A15.26,15.26,0,0,0,21.88,86.25Zm3.53,15.81c-.42,0-.29-.3-.33-.52a22.74,22.74,0,0,1-.15-3.69c0-.88,0-1.76,0-2.64,0-.25,0-.58.31-.57s.28.31.28.54c0,1.63.25,3.25.17,4.89a3.83,3.83,0,0,0,.11,1.34C25.89,101.68,25.85,102,25.41,102.06Zm1.61-.48a.36.36,0,0,1-.31.37c-.22,0-.25-.16-.26-.36l-.3-6.25c0-.29-.1-.69.33-.71s.38.39.38.68c0,1.48,0,3,0,4.45H27C27,100.37,27,101,27,101.58Zm1.41-.79c0,.22,0,.45,0,.68s-.08.44-.41.43-.31-.25-.31-.48c0-.58,0-1.16,0-1.92.11-1.34-.26-2.83-.17-4.35,0-.33,0-.63.43-.64s.34.34.34.61C28.28,97,28.52,98.89,28.43,100.79Zm.06-10.56c0,.9,0,1.81,0,2.72,0,.57-.07.87-.8.94C26.8,94,25.9,94,25,94c-.42,0-.52-.15-.51-.53a40.47,40.47,0,0,0-.29-6,2.36,2.36,0,0,1,0-.46.28.28,0,0,1,.24-.25c.24,0,.21.18.19.31a2.9,2.9,0,0,0,.15.88c0,.2.05.36.3.31a.35.35,0,0,0,.31-.36c0-.33,0-.65,0-1,0-.1,0-.28.14-.3s.21.15.27.28c.13.31-.19.93.39.88s.15-.66.28-1c0-.08.05-.18.11-.38a1.26,1.26,0,0,1,.35.77c0,.23.17.39.41.31a.39.39,0,0,0,.29-.47c0-.09-.07-.18-.09-.28s0-.33.17-.38.26.11.27.25.12.45.4.44.3-.25.33-.48.23-.38.4-.08.54.38.66,0c.18-.59.61-.36.92-.34s.31.45.31.72c0,2.57.1,5.15,0,7.73,0,.23.12.59-.24.58s-.33-.37-.32-.65c.06-1.77-.19-3.53-.27-5.29,0-.17.1-.46-.17-.51s-.36.28-.4.47a2.66,2.66,0,0,0-.05,1c.19.94,0,1.91.27,2.84a.59.59,0,0,1,0,.23c0,.3.09.8-.3.81s-.3-.47-.3-.78c0-1,0-2.08,0-3.11,0-.23,0-.57-.31-.56S28.5,90,28.49,90.23ZM29,94.94c.15-.22.38-.06.5,0a8.55,8.55,0,0,1,1.6,1.46l-.15.16c-.59-.41-1.19-.81-1.78-1.23C29,95.28,28.85,95.1,29,94.94ZM31,97.74c.14.15.24.32-.07.35-.6.06-1.9-1.2-1.91-1.94A7.14,7.14,0,0,1,31,97.74Zm.15,6.57c-.24.19-.39-.13-.48-.31-.28-.48-.81-.67-1.16-1.06a1,1,0,0,1-.35-1c.67.51,1.35,1,2,1.54A.5.5,0,0,1,31.17,104.31Zm.18-1.88c-.22.41-.42,0-.58-.08-.51-.36-1-.73-1.49-1.13a.53.53,0,0,1-.2-.53c0-.1.11-.17.31-.13l.29.24c.48.32.95.64,1.43.94C31.38,101.92,31.52,102.14,31.35,102.43ZM94.29,88.84a1.44,1.44,0,0,1-.46-1C94.35,88.21,94.35,88.21,94.29,88.84Zm-.59,3a.4.4,0,0,1-.56-.24,5,5,0,0,0-.74-1.68c-.11-.17-.08-.35.25-.34a.57.57,0,0,1,.18.15c.33.51.68,1,1,1.56C93.89,91.47,94,91.76,93.7,91.86ZM89.19,97c.08-.09.27-.07.3-.07a.64.64,0,0,1,.71.48c.09.2.14.42.21.63s.44.42.12.64-.48-.13-.63-.34-.41-.62-.62-.93C89.19,97.24,89.1,97.07,89.19,97Zm0,1.57a3.14,3.14,0,0,1-1.55-1.34c-.11-.16-.35-.4-.08-.58a.46.46,0,0,1,.61.15A10.45,10.45,0,0,1,89.21,98.53Zm.52-4.2a3,3,0,0,1,.61,2.06A1.85,1.85,0,0,1,89.73,94.33Zm.51-.84a7,7,0,0,0-.58-1.28.19.19,0,0,1,.08-.31.48.48,0,0,1,.55.15,2.91,2.91,0,0,1,.55,1.25c0,.18,0,.36-.16.41A.37.37,0,0,1,90.24,93.49ZM92,86.76a2,2,0,0,1-.58-1.66c0-.11,0-.22.16-.19a1.17,1.17,0,0,1,.31.2C91.51,85.63,92.09,86.08,92,86.76Zm.09,1.6c-.24-.27-.62-.46-.45-.88,0-.11.18-.09.32,0C92.49,87.67,91.91,88.08,92.11,88.36Zm-.57,1.43a3.69,3.69,0,0,1,.67,1.15c.05.19.25.38.09.55s-.46,0-.6-.11a2.2,2.2,0,0,1-.83-1.46c0-.18.11-.32.36-.37A.43.43,0,0,1,91.54,89.79Zm-1.22-2.33c-.09-.15,0-.22.13-.27a.22.22,0,0,1,.3.14c.2.48.36,1,.53,1.47C90.67,88.48,90.58,87.92,90.32,87.46Zm.21,3.76a1.4,1.4,0,0,1-.76-1.45c0-.12.1-.21.19-.18a.47.47,0,0,1,.24.26C90.32,90.26,90.4,90.69,90.53,91.22Zm-.24-8c-.08-.29-.41-.22-.65-.12s-.39-.19-.46-.36.08-.38.3-.42a2.16,2.16,0,0,1,1.92,1.29C91,83.62,90.5,84,90.29,83.23Zm.48,1.62c.13.3-.09.58-.13.89-.3-.39-.52-.68-.9,0a1.81,1.81,0,0,1-1,.58c-.19,0-.69-1.24-.58-1.47,0,0,0,0,0,0C88.39,84.47,90.64,84.53,90.77,84.85Zm.11,9.72c.08.06.21.1.22.17a7.63,7.63,0,0,0,.61,1.37.2.2,0,0,1,0,.27c-.12.08-.29.08-.33,0-.23-.54-.43-1.09-.63-1.64C90.69,94.69,90.8,94.63,90.88,94.57Zm.55-1.16c0-.19-.14-.38-.13-.56s-.39-.5,0-.65a.72.72,0,0,1,.92.3,4.16,4.16,0,0,1,.38,1.11c.1.43-.16.38-.43.39S91.45,93.88,91.43,93.41ZM93,88.53A4,4,0,0,1,92.8,88c0-.15-.27-.3-.08-.47s.28,0,.4.06.3.29.08.46S93.23,88.4,93,88.53Zm.38-1.85c0,.11,0,.18-.17.18a.32.32,0,0,1-.31-.16,4.88,4.88,0,0,1-.6-1.52A1.93,1.93,0,0,1,93.41,86.68Zm-1.25-3.5c.31-.16.54.35.71.65a.89.89,0,0,1,0,.77.86.86,0,0,1-.59-.51C92.17,83.79,91.81,83.37,92.16,83.18Zm-3-3.77a2.38,2.38,0,0,1-.7-1.18C89.34,78.35,89.44,78.51,89.17,79.41Zm-1.3-1.65c.27.09.58.15.18.52s.11.65,0,1c-.6-.42-.52-1.13-1-1.77C87.49,77.66,87.69,77.7,87.87,77.76ZM70.28,95.64a1.66,1.66,0,0,1,1.13-.76c.26,0,.37.12.31.38-.16.59-.71.42-1,.53S70.23,95.72,70.28,95.64Zm-.18,1.79a1.32,1.32,0,0,1-.31-1c.4,0,.56.35.77.57s.27.35.11.52S70.24,97.59,70.1,97.43Zm2.26,6.38c-2.83.43-5.6.12-8.58.23C64.59,103.34,71.75,103.22,72.36,103.81Zm-13.73-3.58c-.08-.45.32-1.28-.27-1.29s-.28.81-.32,1.26a8.13,8.13,0,0,1-.28,1.55c0,.17-.06.37-.32.27s-.16-.22-.12-.37a17.53,17.53,0,0,0,.1-3.32c0-.17,0-.37-.25-.38a.36.36,0,0,0-.36.32,2.41,2.41,0,0,0-.06.81,5.35,5.35,0,0,1-.07,2.32c-.06.18-.08.37-.32.32a.35.35,0,0,1-.29-.45,21.93,21.93,0,0,0,.15-4c0-.89.09-.94.9-.54,1,.49,2,1,3,1.5a.48.48,0,0,1,.31.65c-.37,1.5-.69,3-1,4.52,0,.2-.07.45-.25.51s-.28-.24-.39-.39a1.72,1.72,0,0,1-.42-1.19A5.45,5.45,0,0,0,58.63,100.23Zm.78-3.17a21.26,21.26,0,0,0-2.83-1.3c-.17-.07-.41,0-.51-.26s-.24-.31-.15-.48.3,0,.45,0c1.59.71,3.11,1.57,4.73,2.2.17.07.43.16.38.4s-.29.13-.53.17C60.47,97.58,59.93,97.34,59.41,97.06Zm1.31,4.42,2.68-1.36c.12-.06.27-.09.35,0s0,.23-.11.29l-2.93,1.74-.13,0c-.15,0-.22-.07-.17-.25S60.51,101.58,60.72,101.48Zm-.5,1.81q1.61-1,3.24-2c.12-.06.37-.14.38.08a.44.44,0,0,1-.26.42c-1,.62-2,1.26-3,1.87-.13.08-.33.35-.5.06S60.07,103.38,60.22,103.29Zm3.48-4.12a10.2,10.2,0,0,1-2.94,1.39c.08-.54.47-.63.79-.79.62-.3,1.24-.59,1.87-.87a.44.44,0,0,1,.34,0C63.84,99,63.78,99.11,63.7,99.17Zm0-1.35s0,.05,0,.08a5.43,5.43,0,0,1-2.41,1.15c-.29-.18-.07-.4.06-.47.7-.33,1.41-.63,2.12-.92A.16.16,0,0,1,63.66,97.82Zm-8.34-4.28c.13-.33.38,0,.49,0,2.38,1,4.75,2,7.12,3,.15.07.49.12.37.37a.65.65,0,0,1-.68.24A1,1,0,0,1,62,97l-6.31-3C55.44,93.91,55.22,93.8,55.32,93.54Zm-.94-.25c.22.54.42,1.09.63,1.63l-.13.09c-.47-.45-.94-.88-1.4-1.34-.16-.15-.3-.45-.53-.25a.45.45,0,0,0,.08.67c.77.68,1.31,1.59,2.15,2.21a.82.82,0,0,1,.4.52c0,.18.12.44-.09.55s-.29-.11-.42-.22a12,12,0,0,1-1.47-1.71c-.17-.21-.36-.72-.73-.44s.05.57.22.81a16.15,16.15,0,0,0,2,2.34c.3.3.76.7.36,1-.23.21-.65-.3-.9-.6-.43-.52-.85-1-1.29-1.57-.14-.15-.3-.44-.53-.22s-.09.43.05.62a15.49,15.49,0,0,0,1.67,1.95c.32.29.64.58.92.89a.41.41,0,0,1,0,.5c-.19.21-.3,0-.43-.13a16.42,16.42,0,0,1-1.87-1.86c-.14-.12-.25-.43-.46-.3s-.14.47,0,.67a6.59,6.59,0,0,0,1.48,1.59,1.31,1.31,0,0,1,.6.76s-.15.14-.24.15c-.42.06-.6-.29-.82-.54s-.47-.6-.74-.86-.25-.49-.52-.22a.52.52,0,0,0,0,.7c.18.23.47.37.58.67s.37.24.18.49a.39.39,0,0,1-.54.11c-.53-.29-.47.08-.45.39a1.69,1.69,0,0,0,.65,1.31c.12.09.37.22.21.4s-.35,0-.51-.11a5.68,5.68,0,0,0-1.06-1c-.13-.07-.23-.34-.43-.13a.41.41,0,0,0,0,.55c.07.1.17.18.24.29s.52.22.24.49-.55.07-.7-.19c-.22-.41-.39-.85-.57-1.28-.42-1-.84-2.08-1.27-3.11a2.78,2.78,0,0,1,.12-1.91,26,26,0,0,0,.68-3.91.91.91,0,0,1,.6-.84l1.66-.68A1.58,1.58,0,0,1,54.38,93.29Zm-7.51,8.79c.38,1.19.36,1.26-.85,1a7.76,7.76,0,0,1-5.59-3.47c-.5-.83-1.07-1.63-1.6-2.44-.08-.13-.19-.27-.06-.4s.23,0,.35,0a1.87,1.87,0,0,1,1.27,1.07c.19.4.42.79.64,1.18a.47.47,0,0,0,.64.23c.29-.15.06-.37,0-.56s-.3-.58-.46-.9c.46-.11.54.18.7.41s.39.83.8,1.07c.15.09.33.29.53.07s-.08-.29-.13-.44a2.86,2.86,0,0,0-.2-.48c.45-.2.57.11.74.41.35.58.47.56,1,.08.25-.26.44,0,.61.18s.57.87,1.11.22c.13-.16.37,0,.48.22a31.66,31.66,0,0,1,1.84,3.8c0,.1.07.27-.08.32s-.25-.07-.31-.17a9.5,9.5,0,0,1-.67-1.65c-.07-.24-.06-.71-.5-.56S46.78,101.78,46.87,102.08ZM39.3,99.39c-.15.13-.48.06-.73.08a.35.35,0,0,1-.41-.35c0-.51-.06-1-.09-1.53l.13,0c.3.43.59.86.89,1.28C39.22,99,39.48,99.22,39.3,99.39Zm.16.69c.26,0,.64,0,.63.37s-.4.18-.63.21l-.28,0c-.26-.06-.81.2-.82-.28s.54-.28.87-.32A.88.88,0,0,1,39.46,100.08Zm-1.14,1.78a.58.58,0,0,1,.21-.38,3,3,0,0,1,2.83.32,1.59,1.59,0,0,0,1,.68,1.64,1.64,0,0,1,1,.54c-.07,0-.12.11-.17.12-1.44.25-2.54,1.21-3.8,1.83a1.89,1.89,0,0,1-.54.25c-.49.09-1.08.19-1.43-.18s.08-.84.26-1.23A6.55,6.55,0,0,0,38.32,101.86ZM47.84,100c-.07-.16-.24-.32,0-.45a.35.35,0,0,1,.46.13,43.21,43.21,0,0,1,1.83,4.42c-.72-.3-.77-.85-1-1.26C48.64,101.94,48.27,101,47.84,100Zm3.86-8.37a.73.73,0,0,1-.22.16l-1.84.77c-.18.07-.36.1-.44-.1s.12-.26.27-.32c.64-.25,1.28-.5,1.92-.73C51.55,91.37,51.69,91.44,51.7,91.65ZM50.35,91c.08.13-.06.12-.09.13a7.11,7.11,0,0,1-2.65.85A10,10,0,0,1,50,90.82C50.15,90.77,50.27,90.86,50.35,91Zm-1.48-.58a5.61,5.61,0,0,1-2.77.95A3.88,3.88,0,0,1,48.87,90.4Zm-2.21-.63a.3.3,0,0,1,.4.09.16.16,0,0,1-.11.24,7.39,7.39,0,0,1-2.18.83A5.4,5.4,0,0,1,46.66,89.77Zm-2.47,1.72c1.46.54,2.92,1.09,4.4,1.6.55.19.64.44.55,1-.21,1.41-.51,2.8-.79,4.19-.08.41-.24.59-.66.57-1.25-.32-2.52-.56-3.74-1-1.88-.62-3.69-1.42-5.59-2-.62-.18-.71-.58-.2-1a27.44,27.44,0,0,1,5.39-3.45A.8.8,0,0,1,44.19,91.49Zm-1.32-7.74c.23-.06.26.11.26.26,0,1.76.51,3.47.48,5.24v.83c0,.52-.86,1.35-1.37,1.3-.28,0-.29-.28-.29-.51,0-1.81-.14-3.61-.25-5.41A6.25,6.25,0,0,1,42.87,83.75Zm-.38-1.13c.36.25,0,.44-.06.6a11.45,11.45,0,0,1-.82,1.15.82.82,0,0,1-.45.37.78.78,0,0,1-.51-.31c-.14-.16,0-.28.1-.38.35-.46.71-.9,1.08-1.34A.45.45,0,0,1,42.49,82.62ZM41.15,82c.11,0,.17.08.17.26a1.52,1.52,0,0,1-.11.2c-.35.45-.71.89-1.07,1.33a.45.45,0,0,1-.66.11c-.28-.21,0-.39.11-.55.36-.42.73-.82,1.08-1.23C40.81,82,41,82,41.15,82ZM40,81.45c.37.24-.06.43-.18.65a6.15,6.15,0,0,1-1,1.12.54.54,0,0,1-.44.24c-.17-.1-.42-.08-.5-.29s.11-.31.21-.44a8.75,8.75,0,0,0,.95-1.16C39.34,81.06,39.74,81.29,40,81.45Zm-1.49-.61a.23.23,0,0,1,.06.34,6.4,6.4,0,0,1-1.49,1.58c-.06,0-.18,0-.35,0a7.87,7.87,0,0,1,1.38-1.81A.29.29,0,0,1,38.5,80.84Zm-1.85-.42c.1-.28.31-.19.55-.1s.23.33.11.46A4.78,4.78,0,0,1,36.16,82,6,6,0,0,1,36.65,80.42Zm-.43,2.81,4.2,1.91c.45.2.79.46.76,1-.1,1.7.22,3.38.15,5.07a1.86,1.86,0,0,1,0,.53.55.55,0,0,1-.56.42c-.29,0-.17-.33-.17-.5,0-1.89-.12-3.78-.28-5.66,0-.27,0-.65-.35-.62s-.3.41-.28.67c.14,1.94.27,3.87.28,5.81a4,4,0,0,1,0,.6c0,.35-.22.71-.57.68s-.15-.43-.15-.66c0-1.77,0-3.54,0-5.31a10.31,10.31,0,0,0-.15-1.58c0-.26,0-.55-.35-.56s-.27.37-.25.56c.18,2.19.13,4.39.13,6.58a13,13,0,0,1-.16,1.64c0,.22-.19.27-.37.28a42.22,42.22,0,0,1-.07-6v-2.8c0-.3,0-.61-.39-.6s-.29.36-.29.58c0,1.21-.06,2.42-.07,3.63,0,1.86,0,3.72,0,5.63-.59-.11-.61-.5-.6-.92,0-2.55-.07-5.1.14-7.64a6.67,6.67,0,0,0-.14-1.27c0-.28-.16-.47-.4-.43s-.23.29-.22.51v4.76c0,1.19,0,2.38,0,3.57a.88.88,0,0,1-.25.83c-.07-.89-.18-1.64-.19-2.39,0-2.65,0-5.3,0-7.95C35.55,83.05,35.78,83,36.22,83.23Zm-4,8.93a.34.34,0,0,1-.42-.24,1.29,1.29,0,0,1-.1-.51c0-1.14-.05-2.27-.07-3.41a1.06,1.06,0,0,1,.47-.88l.29,0c0,1.55,0,3.11,0,4.66C32.37,91.94,32.4,92.12,32.2,92.16Zm-.42.9c.07-.21.25-.14.37-.07,1.47.91,3.11,1.45,4.63,2.22a.54.54,0,0,1,.34.38c0,.26-.16.26-.36.18-1.67-.69-3.22-1.58-4.82-2.4C31.82,93.3,31.73,93.19,31.78,93.06Zm1.79-3.89h0c0,1,0,2,0,3,0,.22,0,.52-.25.52s-.2-.29-.21-.49C33,90.35,33,88.46,33,86.57A4.64,4.64,0,0,1,33,86c0-.22.14-.41.38-.39s.2.25.2.41C33.58,87.1,33.57,88.13,33.57,89.17Zm1.37,3.67c0,.26.05.65-.3.65s-.45-.3-.45-.66c0-2.57,0-5.15,0-7.72a1,1,0,0,1,.62-1,17,17,0,0,1,.12,3.32C34.93,89.26,34.94,91.05,34.94,92.84Zm-3.21-7.3q1.77-2,3.55-4.07s.14,0,.21-.06c0,1-2,3.57-3.79,4.88A.66.66,0,0,1,31.73,85.54ZM32.49,97c.51.26,1,.48,1.56.7.2.08.46.19.59-.08s-.06-.45-.33-.55c-.74-.3-1.46-.63-2.2-.93-.27-.1-.48-.26-.33-.55s.35,0,.51.05c.93.35,1.76.92,2.71,1.24.32.1.67.31.84-.07s-.28-.48-.53-.56c-1.14-.38-2.16-1-3.26-1.48-.24-.1-.54-.22-.41-.51s.43-.06.61,0a48.25,48.25,0,0,0,4.42,2.1,1.05,1.05,0,0,1,.73,1.15c0,.86.14,1.71.23,2.56,0,.22.16.49,0,.65s-.43,0-.62-.13c-1.58-.73-3.14-1.49-4.73-2.2-.47-.21-.5-.56-.51-1S32,96.76,32.49,97Zm2.3,7.89a.5.5,0,0,1-.64.25c-.32-.1-.25-.29-.12-.52s0-.25-.16-.31-.27,0-.39.12c-.29.23-.44.88-.87.6s.25-.55.36-.86c.05-.16.11-.37-.08-.47a.35.35,0,0,0-.46.15l-.41.57a3.82,3.82,0,0,1,.75-2.33c.11-.21.36-.41.12-.67s-.35,0-.51.08-.2.09-.27,0a.39.39,0,0,1,0-.43c.43-.5.6-1,0-1.43a.41.41,0,0,1-.1-.41c.09-.17.33-.14.48-.07.63.29,1.24.62,1.86.93a.23.23,0,0,1,.11.11c0,.68.2,1,.93.48.2-.15.21.17.22.34s-.14.42.12.53.41-.06.55-.26.18-.21.32-.13.12.19.08.33-.4.58,0,.75.46-.25.61-.48c0,0,.09,0,.2-.06a.84.84,0,0,1-.08.8,5.15,5.15,0,0,0-.44,1c-.15.71-.48,1.06-1.24.92A.81.81,0,0,0,34.79,104.93Zm10.74,10.53c-.24.06-.45.17-.69,0,0-.27.18-.37.33-.47,1.1-.72,1.31-1.41.65-2.45-.24-.38-.34-.65,0-1s.69-.61,1.19-.3.82.48,1.23.72c.18.1.25.22.14.43C47.73,113.71,47.18,115.09,45.53,115.46Zm5.8-3.51a6.81,6.81,0,0,1-4,3.27,18.28,18.28,0,0,0,1.85-3,2.25,2.25,0,0,1,1.73-.91C51.45,111.23,51.54,111.5,51.33,112Zm1.39.58a2.83,2.83,0,0,1-1.24.77,2.78,2.78,0,0,1,.58-1.36c.2-.34.49-.17.72,0S52.9,112.38,52.72,112.53Zm-1.29-3.67a2.38,2.38,0,0,0,1.47,1.71,3.05,3.05,0,0,1,1.07.78c-.5.24-.87,0-1.22-.19a3.68,3.68,0,0,0-3.5,0,1.17,1.17,0,0,1-1.32-.15c-1-.76-1.52-.72-2.4,0a1.18,1.18,0,0,0-.35,1.75c.46.89.32,1.1-.43,1.75a2.29,2.29,0,0,1-2.15.72c-.35-.08-.57.26-.81.48a2.06,2.06,0,0,1-3.35-.73.87.87,0,0,0-1-.67c-.58.06-.85-.21-.78-.8a.94.94,0,0,0-.91-1.2c-.49-.07-.8-.45-.55-.93a2.3,2.3,0,0,0-.14-2.15,2.19,2.19,0,0,1,.06-1.87c.17-.38.37-.45.65-.1a3,3,0,0,0,1.51,1.1,2,2,0,0,1-1.12.17c-.2,0-.37.09-.39.28s.2.31.36.31a4.89,4.89,0,0,0,1.57-.07,4.82,4.82,0,0,1,1.71-.2c-.57.28-1.16.53-1.71.85-.35.21-1.11.33-.84.83s.8-.06,1.13-.27a11,11,0,0,1,2.35-.92c.2-.07.42-.08.52.14s-.13.38-.32.47a2.61,2.61,0,0,0-1.69,1.87,1.68,1.68,0,0,0-.06.37c0,.19-.07.45.22.49s.39-.1.42-.39a2,2,0,0,1,1.4-1.75c.15,0,.32-.21.49-.06a.44.44,0,0,1,0,.57,6.78,6.78,0,0,0-.53,1.31.76.76,0,0,0,.1.79.31.31,0,0,0,.41,0c.27-.15.19-.43.2-.68a1.3,1.3,0,0,1,.08-.51c.29-.65.45-.7.88-.14a2.69,2.69,0,0,0,1.19,1,.45.45,0,0,0,.59-.12c.22-.24,0-.36-.16-.47a2.64,2.64,0,0,1-.93-2,3.06,3.06,0,0,0-3.36-2.88c-1.31,0-2.64.06-3.68-1-.08-.06-.19-.1-.24-.18-.19-.33-.64-.64-.36-1s.71,0,1,.12a6.76,6.76,0,0,0,4.59.6,4.1,4.1,0,0,1,4.12,1.78,1.88,1.88,0,0,1,.42.94,2.8,2.8,0,0,0,.28.76c.1.23.3.4.53.28s.11-.34.05-.55a5,5,0,0,0-3.65-3.87,4.62,4.62,0,0,1,5.34,1.32c.25.4.41.87.86,1.11.16.08.36.13.49,0a.38.38,0,0,0,0-.36,6,6,0,0,0-2.94-2.74,9.12,9.12,0,0,0-4-.08c-.44,0-.87.15-1.39.24a1.26,1.26,0,0,1,1-.72,8.68,8.68,0,0,1,6.46.56A3,3,0,0,1,50,106C50.47,107,51.3,107.7,51.43,108.86Zm-11.53-.61c1.53-.18,2.37.53,2.4,2.3C41.79,109.49,41.23,108.48,39.9,108.25Zm16.37-2.55H53.72a17,17,0,0,0-2.51.08.64.64,0,0,1-.75-.37c-.05-.13-.24-.22-.15-.4s.27-.07.4-.07c.58,0,1.17,0,1.75,0a1.29,1.29,0,0,0,1.31-.51.49.49,0,0,1,.16-.16,3.51,3.51,0,0,1,2.71,1.07C56.75,105.7,56.52,105.7,56.27,105.7Zm3.93,3a3.72,3.72,0,0,0,4.1,1.92,6.5,6.5,0,0,0,2.58-1.09c1.76-1.27,3.16-.48,4.25.51.35.32.68.66,1.06,1a3.61,3.61,0,0,0,4.39-.12,2.18,2.18,0,0,1,3.18.19,1,1,0,0,1-.65.05,3.77,3.77,0,0,0-2.83.91,3.56,3.56,0,0,1-4.56.13c-.63-.46-1.24-.93-1.89-1.37-1.16-.8-1.82-.85-2.81.12a4.92,4.92,0,0,1-6.74.21,7.62,7.62,0,0,1-2.07-3.27,17.55,17.55,0,0,1-.63-2.06c-.45-1.51-1.72-1.91-3-2.24-.5-.13-1.3-.14-1.31-.6,0-.62.82-.5,1.29-.6,2.23-.48,3.67.74,4.4,3A21,21,0,0,0,60.2,108.73Zm0-3.39a.33.33,0,0,1-.42,0c-.14-.15.07-.26.1-.4s.26-.35.46-.44a24,24,0,0,0,3-1.74.49.49,0,0,1,.48-.12.18.18,0,0,1,.12.21.55.55,0,0,1-.27.38C62.59,104.06,61.34,104.62,60.18,105.34Zm12.87-.14-8.41,0H61.92a1.56,1.56,0,0,1,1.34-.6c2.15,0,4.29,0,6.44.09.94,0,1.88-.26,2.84-.25a3.11,3.11,0,0,1,.53,0c.27,0,.56.17.56.42S73.28,105.2,73.05,105.2Zm13.8,0a.42.42,0,0,1-.35-.35c0-.21.14-.22.29-.23a.29.29,0,0,1,.34.3C87.13,105.07,87,105.23,86.85,105.2Zm.21.83s.06-.15.1-.15c.24,0,.31.18.44.38C87.29,106.38,87.12,106.29,87.06,106Zm.85-2.07c-.18.11-.28,0-.39-.13a4.73,4.73,0,0,1-.75-.73c-.14-.22-.26-.41-.5-.3s-.15.39-.08.59a4.05,4.05,0,0,0,.26.47c-.49-.11-1.22-1.23-1.08-1.54,0-.12.15-.11.25-.13s.38-.11.58-.14c1.4-.22,1.72,0,1.89,1.45A.43.43,0,0,1,87.91,104Zm.39-3.09a.33.33,0,0,1-.34.25.56.56,0,0,1-.61-.45c-.16-.46-.32-.59-.71-.16s-.38-.16-.52-.29-.22-.46-.49-.33-.11.42-.06.65a.93.93,0,0,0,.1.2c.1.2.49.38.19.62a.63.63,0,0,1-.88-.16A4.65,4.65,0,0,1,84.2,100c-.09-.21-.17-.49-.46-.37s-.22.41-.13.65.4.53.36,1a2.41,2.41,0,0,0-1.76-.46,1,1,0,0,1-1-.71c-.13-.3-.37-.48-.64-.33s0,.46.06.66a1.61,1.61,0,0,0,1.82,1,.74.74,0,0,1,.76.23,1.57,1.57,0,0,0,.91.5c.66.11.55.76.83,1.13.11.15-.13.28-.27.23-.61-.18-1.38,0-1.76-.76-.08-.16-.2-.38-.47-.19s-.18.36-.07.59a2,2,0,0,0,1.75,1,2.06,2.06,0,0,1,2.11,2c-.57-.13-.6-.15-1-1-.12-.23-.21-.56-.54-.44s-.1.48,0,.73.38.46.16.67-.46-.08-.68-.14c-.5-.15-.73-.58-1-1-.14-.22-.33-.35-.57-.21s-.11.38,0,.56.13.22.21.32.38.4.19.56-.53.06-.73-.17-.29-.4-.44-.59-.28-.35-.5-.23-.1.34,0,.53.37.37.13.59-.53,0-.74-.14a2.53,2.53,0,0,1-.84-.85c-.09-.17-.24-.36-.47-.2s-.12.33-.07.54.65.47.26.8-.74-.09-1.06-.3a3.54,3.54,0,0,1-.74-.85c-.1-.13-.19-.38-.47-.16s-.13.33,0,.51.37.41.38.74c-.5.13-.7-.26-1-.54s-.3-.87-.77-.61.06.64.13,1c-.54-.09-.78-.51-1.08-.84a17.91,17.91,0,0,0-2.31-2.38,3.26,3.26,0,0,0-.84-.46c-.25-.09-.64.1-.72-.26s-.36-.93,0-1.36a.57.57,0,0,0,0-.89,1,1,0,0,1,0-1.36,2,2,0,0,0,.34-1c.07-.31-.38-.75.48-.75.59,0,0-.53-.12-.81,0-.06.06-.13.09-.13.83,0,.79,0,.56-.9a1.43,1.43,0,0,0-.93-1.14.87.87,0,0,1-.38-1.23A2.28,2.28,0,0,0,71.41,91a.38.38,0,0,1,.11-.48c.66-.38.41-.93.27-1.44A1.39,1.39,0,0,1,72,87.57c.19-.19.09-.44.12-.66a1.85,1.85,0,0,1,.53-1.42.73.73,0,0,0,.23-.62,1.83,1.83,0,0,1,.5-1.37c.34-.33.25-.79.38-1.18a1.88,1.88,0,0,1,1.29-1.42.74.74,0,0,0,.59-.42c.49-1.4,1.69-1.86,2.94-2.3a16.4,16.4,0,0,1,6.62-1c.4,0,.92,0,1.12.29A4.78,4.78,0,0,1,87,79.09c.06.33-.28.17-.42.07a3.77,3.77,0,0,1-.87-1.29c-.12-.22-.18-.54-.51-.36s-.17.37,0,.6l.52,1.1c-.8.28-1.09-.26-1.36-.81-.1-.21-.1-.58-.44-.47s-.2.47-.12.71A1.88,1.88,0,0,0,86,80c.81-.12,1.56.32,2.37.24a12,12,0,0,1,2.53.33A1.79,1.79,0,0,1,92.05,82c0,.31-.15.37-.37.27a1.42,1.42,0,0,1-.8-.66c-.26-.58-.53-.68-.88-.09-.33-.23-.57-1-1-.1-.1.22-.2,0-.26-.08s-.38-.18-.47,0c-.66.92-.43-.19-.62-.29s-.07-.37-.29-.36-.29.25-.33.44a1.4,1.4,0,0,0,.87,1.5.94.94,0,0,1,.65.5c-.2.12-.5.19-.59.36-.2.37-.35.2-.49,0-.25-.34-.48-.51-.94-.27-.27.15-.5-.16-.69-.35s-.27-.64-.65-.46,0,.52,0,.9c-.51-.27-.83-.35-1.15.14-.18.29-.53-.07-.77-.21s-.35-.28-.52-.07,0,.38.09.55a2,2,0,0,0,1.75.44,5.38,5.38,0,0,1,2.49,0c.15,0,.17.22.21.38.12.53.28,1.05.43,1.58-.36,0-.33-.31-.43-.5s-.18-.29-.38-.31-.26.17-.26.35-.16.19-.28.11-.12-.16-.19-.23-.17-.79-.67-.63.11.58-.13.85c-.31,0-.47-.27-.64-.47a.43.43,0,0,0-.55-.11c-.21.12-.13.37,0,.53.26.37.52.76,1,.82,1.27.16,2.46.89,3.81.51a.43.43,0,0,1,.51.44c0,.45-.27,0-.41.1-.53.18-.11.54-.21.87-.36-.26-.67-.57-1.14-.17-.22.19-.5-.1-.67-.33s-.53-.23-.62,0c-.21.6-.48.27-.74.09s-.46-.31-.66-.08.07.45.24.61a1.77,1.77,0,0,0,1.28.53,13.83,13.83,0,0,0,1.44,0c.76-.06,1,.36,1.09,1s-.73.31-.75.82c0,.06-.34-.26-.47-.45s0-.11-.06-.14c-.21-.28,0-.92-.52-.85s-.08.64-.24.95c-.38.05-.37-.35-.57-.51s-.26-.25-.46-.19-.13.29-.13.44.31.32,0,.5-.45,0-.65-.07-.3-.26-.4-.43-.27-.38-.53-.29-.09.39-.11.59c.19,0,.31,0,.18.27a1.38,1.38,0,0,0,1.27.51,9.16,9.16,0,0,1,2,.27,2.1,2.1,0,0,1,1.65,1.55c.13.34.08.45-.29.45-.69,0-1.37,0-1.63-.83-.06-.21-.22-.51-.55-.36s-.18.36-.07.58.18.41-.06.54-.45,0-.6-.2a1.94,1.94,0,0,1-.33-.58.38.38,0,0,0-.42-.23c-.28,0-.2.22-.22.38a.83.83,0,0,1,0,.36c-.47.58-.47.57.26.79a8.17,8.17,0,0,0,2.7.13c.56,0,.77.2.83.69a1.34,1.34,0,0,1,0,.52c-.06.25.35.58,0,.73a.91.91,0,0,1-1-.35,2.07,2.07,0,0,1-.19-.32c-.14-.17-.26-.39-.54-.33s-.08.39-.25.57c-.47-.17-.64-.67-1-1-.12-.11-.22-.31-.44-.16s-.18.32,0,.5.26.29,0,.44-.33,0-.49,0a3.52,3.52,0,0,1-.67-.61c-.25-.22-.56-.35-.57.21,0,.14.1.31-.13.35a.5.5,0,0,1-.46-.19c-.31-.31-.69-1.13-.94.08-.06.24-.49.17-.73,0a4.2,4.2,0,0,1-.44-.41c-.16-.13-.36-.22-.54,0s0,.33.1.46a1.52,1.52,0,0,0,1.58.87c1-.09,2.12,0,3.18,0,.67,0,1.22.13,1.44.87a2.53,2.53,0,0,0,.77,1.08c.11.11.26.19.13.37a.27.27,0,0,1-.34.09c-.56-.19-1.3,0-1.59-.79-.07-.19-.25-.35-.47-.14-.44.44-.66.14-.89-.23a2.2,2.2,0,0,0-.33-.41c-.1-.1-.21-.24-.38-.1a.34.34,0,0,0-.11.33c0,.24.49.5.06.68a1.16,1.16,0,0,1-1.15-.08c-.21-.15-.41-.54-.66-.22s.06.61.32.82a2,2,0,0,0,1.53.2A5.37,5.37,0,0,1,88,100.21.71.71,0,0,1,88.3,100.87Zm.72,3a.22.22,0,0,1-.29-.16c-.12-.58-.23-1.17-.33-1.75,0-.15.06-.24.22-.21s.3.2.34.35c.12.47.21,1,.3,1.45A.26.26,0,0,1,89,103.87Zm0-3.14a1.81,1.81,0,0,0-.83-1.1c-.13-.09-.36-.23-.21-.4s.37-.09.55,0a2.29,2.29,0,0,1,.61.92,5.81,5.81,0,0,1,.33.8A.34.34,0,0,1,89,100.73Zm.78,4.19c-.11,0-.18,0-.23-.12s0-.16.11-.17.19,0,.22.17S89.86,104.9,89.81,104.92Zm.4-1.07c-.35.05-.27-.26-.3-.47s-.1-.69-.16-1c0-.17-.1-.38.13-.43s.29.17.33.33c.07.36.11.73.16,1.06S90.51,103.81,90.21,103.85Zm.36-2.65c-.08.11-.17,0-.23,0a7.55,7.55,0,0,1-.84-1.65c-.08-.16.08-.2.21-.21a.38.38,0,0,1,.34.26A5.86,5.86,0,0,0,90.6,101,.22.22,0,0,1,90.57,101.2Zm.72-.14h-.16c-.14-.39-.31-.78-.43-1.17,0-.17-.12-.42.22-.43a.3.3,0,0,1,.37.34C91.28,100.23,91.29,100.64,91.29,101.06Zm.77-2.15a.67.67,0,0,1-.47-.15,3.52,3.52,0,0,1-.73-1.44c-.12-.3.25-.31.46-.25.74.18.75.84.9,1.27S92.26,98.87,92.06,98.91Zm-.16-4.48a3.34,3.34,0,0,1,.92,2.11A3.09,3.09,0,0,1,91.9,94.43Zm1.82,3.83a1.2,1.2,0,0,1-.09.59c-.12.19-.23.44-.47.43s-.23-.33-.24-.54-.06-.3-.07-.44-.21-.57,0-.78.38,0,.58,0C93.83,97.7,93.68,98,93.72,98.26ZM94.35,96c-.06.48.1.9-.31.94s-.44-.29-.49-.62a6.53,6.53,0,0,0-.35-1.14c-.06-.14-.15-.29,0-.4a.32.32,0,0,1,.46.07C94,95.27,94.42,95.63,94.35,96Zm-.53-3.48a2.12,2.12,0,0,1,.74,1.72C93.94,93.91,93.9,93.33,93.82,92.56ZM94.93,92c-.37-.09-.4-.46-.45-.77s.08-.59.26-.55c.44.12.28.61.42,1C95.18,91.81,95.13,92.05,94.93,92Z"/><path d="M10.83,58.65c.31.13,1,0,.77.76-.06.2.26.26.46.27s.71,0,1.06,0,.84-.21.59.5c0,.12.09.2.23.25A3.25,3.25,0,0,0,17,59.5c.24-.35.39-.32.54,0,.22.53.43,1.06.65,1.58.15.33.21.8.72.7s.49-.59.48-.92c0-1.16-.07-2.31-.21-3.47a14.63,14.63,0,0,1,0-3.91,20.58,20.58,0,0,1,1.51-4.59c.6-1.56,1.28-3.11.84-4.85a3.89,3.89,0,0,1-.15-1.26,8.67,8.67,0,0,0-1-4.12c-.14-.32-.61-.8-.28-1s.44.47.65.75a3.14,3.14,0,0,1,.9,1.69c.06.95.19,1.9.29,2.85,0,.12,0,.27.12.32s.28-.08.36-.21a12.52,12.52,0,0,0,1.2-2.22,12.42,12.42,0,0,1,3.56-5.28,9.29,9.29,0,0,0,3-4.48,19.65,19.65,0,0,0,.23-3.07c-.29-1.1-.19-2.24-.42-3.35a.36.36,0,0,1,.24-.42c.31-.05.19.23.2.37a21.44,21.44,0,0,1,.13,3.4c0,.55,0,1.11.06,1.66,0,.16,0,.44.27.48s.27-.19.38-.32c.68-.84,1.32-1.71,2.06-2.5a11,11,0,0,0,2.43-4.58c.53-1.84.54-3.81,1.21-5.61.52-1.38,1-2.81,2.87-3A34.77,34.77,0,0,1,44,14.14a6.32,6.32,0,0,0,2.78-.56c.2-.09.43-.35.76-.07a7.3,7.3,0,0,1-4.16,1.3A8.5,8.5,0,0,0,41,14.9c-1.58.42-2.85,1.18-3.16,3-.26,1.48-.57,2.94-.86,4.41,0,.12,0,.29.09.33a.45.45,0,0,0,.35-.09,1.13,1.13,0,0,0,.33-.65c.19-1.18.37-2.37.64-3.54.18-.78.27-1.62,1.13-2.09a5.57,5.57,0,0,1,3.39-.77A8.38,8.38,0,0,0,48.09,14a6.19,6.19,0,0,1,2.45-1.24c.14,0,.26-.11.23-.23s-.18-.17-.29-.2a3.38,3.38,0,0,0-2.7.15,8.29,8.29,0,0,1-4.7,1,14.07,14.07,0,0,0-3.83.3,2.63,2.63,0,0,0-1.72,1.09,13.08,13.08,0,0,0-1.8,5.26c-.42,2.31-.84,4.6-2.45,6.45-.56.65-1.11,1.31-1.71,2a32.15,32.15,0,0,1-.34-3.33c0-.22-.15-.46.05-.64s.37.07.54.12a2,2,0,0,0,2-.68A9.1,9.1,0,0,0,34.93,18c-.08-.49-.4-.55-.75-.21a2.62,2.62,0,0,0-.54,1,.54.54,0,0,1-.6.36c-.36-.05-.21-.36-.2-.54a4.26,4.26,0,0,0-.31-1.83,2.11,2.11,0,0,0-1.28-1.07c-.39-.19-.58.29-.86.48a4.37,4.37,0,0,1-.78.45A3,3,0,0,0,27.7,20.2c.09.57-.28.48-.51.58s-.42-.07-.48-.36,0-.4-.22-.43-.35.15-.47.33a2.31,2.31,0,0,0,.34,3.1c.25.22.65.43.1.77-.31.2-.06.35.1.44a2.73,2.73,0,0,0,2.39.49c.37-.14.5-.05.56.39a38.64,38.64,0,0,1,.3,4.44c0,1.93-1.23,3.16-2.24,4.54-.06.08-.14.16-.26.12a.19.19,0,0,1-.09-.25c.71-1.44,0-3.05.71-4.55.82-1.77-.68-3.88-2.39-4.83a3.18,3.18,0,0,0-4.28,1.65c-.13.32-.27.66.11.84s.4-.34.48-.54a2.88,2.88,0,0,1,2.43-1.67c1.79.16,3.95,2.84,2.9,4.57-.24-.34-.44-.67-.68-1a1.81,1.81,0,0,0-1.45-.92c-.89,0-1.29.49-1.68,1.77a1.84,1.84,0,0,0,.54,2,2,2,0,0,0,1.92.3c.36-.07.71-.65,1-.23.2.26.07.78,0,1.18a5.66,5.66,0,0,1-.16.8A5.81,5.81,0,0,1,25.12,37a4.9,4.9,0,0,0-1.44,2.5,8.91,8.91,0,0,1-.7,1.55c-.06.13-.11.3-.31.23a.31.31,0,0,1-.16-.32,3.94,3.94,0,0,0-.88-2.53l.27,0c1.38.05,1.66-.15,2.17-1.48a3.91,3.91,0,0,1,.34-.49,4.42,4.42,0,0,0,1-2.43c-1.44.59-1.94.42-2.56-.61-.34-.56-.82-.48-1.27-.11a2.18,2.18,0,0,0-.38.47c-.3.49-.4.25-.56-.11a1.45,1.45,0,0,1-.08-.74A1.87,1.87,0,0,0,20,31.48a5.85,5.85,0,0,1-.92-1.63c-.15-.34-.14-1.06-.82-.41-.1.1-.33,0-.5,0s-.48-.11-.63.24a8.26,8.26,0,0,1-1.07,1.62c-1,1.45-1.34,2.67.15,3.94.28.24.16.43-.09.48-.9.18-1.24,1.2-2.2,1.37,1.11.21,1.58,1.38,2.65,1.54.32,0,.25.23.1.42s-.28.45.09.48a3.26,3.26,0,0,0,2.25-.4c.7-.52.63-.51,1.05.3.91,1.78.47,3.79,1,5.63.06.2-.1.25-.28.24a2.32,2.32,0,0,1-1.38-1.33,1.91,1.91,0,0,0-1.68-1.67c-.83,0-1-.39-1.25-1a1.71,1.71,0,0,0-2-1.13,2.15,2.15,0,0,0-1.32,2.09,1,1,0,0,1-.3.86,1.72,1.72,0,0,0-.49,1.72.82.82,0,0,1-.38,1c-1,.71-1.19,1.45-.67,2.25a1.25,1.25,0,0,1,0,1.4c-.48,1.07-.39,1.64.28,2.23a2,2,0,0,0,2.31.16c.18-.09.31-.23.55-.12a1.7,1.7,0,0,0,1.83-.23c.17-.13.32,0,.49,0A1.69,1.69,0,0,0,19,49.82a1,1,0,0,1,.45-.88,3.48,3.48,0,0,0,.63-.64,2.45,2.45,0,0,0-.92-2.94,1.42,1.42,0,0,1,1.51,1.85c-.13.37-.3.73-.46,1.09.06.29-.12.53-.21.78a18.87,18.87,0,0,0-1.4,4.45c-.08,1-.16,1.95-.24,3-.75-1.37-2.07-1.6-3.29-2a.33.33,0,0,0-.46.35c0,.63-.31.4-.62.28s-.41-.32-.62-.4c-.52-.21-1-1.12-1.63-.14-.07.11-.22,0-.34,0a8.67,8.67,0,0,0-2.33-.74c-.43-.13-.46,0-.35.36s.39.91.52,1.39c.09.33.6.82-.24,1-.25,0-.09.36,0,.52A3.08,3.08,0,0,0,10.83,58.65ZM29.65,21.93c.08.59-.14.72-.65.51-.2-.08-.44-.26-.56,0s.11.41.34.5l.07,0c.36.16,1,.21.94.63a1.28,1.28,0,0,1-1.4.8l-.39,0c.48-.41.41-.58-.14-.81-.71-.29-1.51-.64-1.56-1.62,0-.21-.11-.36.35-.37a5.25,5.25,0,0,1,1.81.05c.49.14.45-.29.27-.63a2.75,2.75,0,0,1-.27-2.62c.51-1,1.59-1.31,2.47-1.85.23-.14,1.28,1.09,1.29,1.49a4.55,4.55,0,0,1-.43,2.26,3.19,3.19,0,0,0-.2.64c-.06.18-.07.37.14.45a.35.35,0,0,0,.47-.26,1.65,1.65,0,0,1,1.59-1.49c.14,0,.26-.31.4-.48a7,7,0,0,1-.53,4,1.52,1.52,0,0,1-1.35,1.05c-.62,0-.9-.6-1.29-1s.15-.31.36-.31a11.93,11.93,0,0,0,1.2,0c.28-.05.66-.22.55-.58s-.41-.09-.64,0c-.61.13-1.25,0-1.87.12-.26.06-.31-.34-.36-.58a3.2,3.2,0,0,1,.3-1.75c.06-.14.1-.28.15-.42.15-.38.37-.91-.07-1.05s-.34.49-.46.78A4.73,4.73,0,0,0,29.65,21.93Zm-4.56,9.51a1.2,1.2,0,0,1-1.24-1.22c0-.85.55-1.63,1.18-1.66s1.54,1.2,1.57,1.9C26.62,30.85,25.7,31.45,25.09,31.44Zm-5.86,4.47A1.54,1.54,0,0,1,19,35a2.92,2.92,0,0,0,0-1c-.09-.34-.16-.94-.52-.88s-.15.57-.12.9c0,.48,0,1,.07,1.44a2.82,2.82,0,0,0,.61,1.3c-.44.23-.75-.08-1.1-.07-.16,0-.36-.14-.43.14a.37.37,0,0,0,.23.43,3.31,3.31,0,0,0,1,.32c.78.07.46.38.19.69s-.43.47-.69.35.15-.42,0-.71a10,10,0,0,0-1.09,0c-.72.07-1.14-.45-1.65-.78-.21-.14,0-.28.09-.42.47-.55,1.16-.54,1.76-.73.23-.07.54,0,.57-.36s-.25-.4-.43-.56a.79.79,0,0,0-.26-.13c-1.57-.71-1.69-1.75-.72-3.21a11.75,11.75,0,0,0,1-1.37c.11-.23,1.1,0,1.27.33.45.89,1.36,1.58,1.19,2.76a1.57,1.57,0,0,0,.3.92c.37.62.78.61,1.18,0,.12-.16.26-.31.38-.47s.38-.35.63,0c.41.57.84,1.15,1.66,1.13.29,0,.26.22.18.37a4.54,4.54,0,0,1-.48.67c-.23.28-.74.38-.43,1,.15.29-.79.8-1.23.61s-1.07-.56-1.6-.84a.25.25,0,0,1-.15-.3c0-.13.15-.11.24-.13a3.66,3.66,0,0,1,1.18-.16.31.31,0,0,0,.36-.3c0-.19-.16-.29-.36-.3a2.53,2.53,0,0,0-1.87.38C19.54,36.42,19.39,36.23,19.23,35.91Zm-2.68,7.83c0-.56.3-1,.94-.92a1.34,1.34,0,0,1,1.3,1.3c0,.7-.49,1.32-1,1.29A1.75,1.75,0,0,1,16.55,43.74Zm-1.52-3a1.21,1.21,0,0,1,1.09,1.2,1,1,0,0,1-1,1c-.65,0-1.32-.59-1.3-1.08A1.34,1.34,0,0,1,15,40.71Zm-1.91,3.16c.21-.47.53-1,1.19-.47a.89.89,0,0,0,.56.18c.73-.09.89.29.8.85a1.25,1.25,0,0,1-.77,1.37,1.31,1.31,0,0,1-1.48-.42A1.3,1.3,0,0,1,13.12,43.87ZM13,51.49c-.73,0-1.3-.44-1.3-1s.5-1.44.86-1.44c.78,0,1.27.54,1.26,1.68C13.84,51.06,13.74,51.52,13,51.49Zm.34-2.9a1.74,1.74,0,0,1-1.62-1.32A1.52,1.52,0,0,1,12.88,46c.49,0,1.59.75,1.58,1.11C14.43,47.79,13.84,48.59,13.37,48.59Zm2.79,1.95c-.21.56-.35.66-1,.65a.6.6,0,0,1-.71-.69,2.45,2.45,0,0,0-.19-1.17c-.2-.36.08-.58.26-.78s.43.06.61.19C16.27,49.52,16.42,49.79,16.16,50.54Zm.18-1.95a1.44,1.44,0,0,1-1.28-1.48,6.18,6.18,0,0,1,1.22-1.82c.44,0,.56.45.91.59s.2.35.13.51A2.47,2.47,0,0,0,17.15,48C17.25,48.48,16.8,48.65,16.34,48.59Zm1.11,2.29c-.79,0-.51-.56-.61-1.17-.12-.44.23-.77.81-.78a.67.67,0,0,1,.76.79A1.19,1.19,0,0,1,17.45,50.88Zm2.17-3.5c0,.58-.49,1.21-.92,1.19s-.92-.63-.93-1.18.44-1.31.85-1.35S19.62,46.65,19.62,47.38Zm-1.14,9.9a9.7,9.7,0,0,1,.23,2.93C17.87,59,17.82,58.26,18.48,57.28ZM9.72,54.8c.19-.34.83.1,1.25.31a5.8,5.8,0,0,0,1.23.51c.63.17.58-.13.46-.6.82.45,1.57.89,2.34,1.3.18.09.4.32.61.13s0-.37-.07-.56-.11-.39,0-.59a1.76,1.76,0,0,1,1,.63c.19.17.28.84.7.19a.07.07,0,0,1,.06,0c.2,0,.23.22.26.33a2,2,0,0,1,0,1.46c-.14.27-.35.09-.52,0a14.2,14.2,0,0,0-3.29-1.18c-.27-.07-.72-.38-.84.06s.31.46.66.55c.88.24,1.73.58,2.61.85.55.17.71.35.37.94a1.44,1.44,0,0,1-1.5.73c-.22,0-.47-.13-.38-.35.24-.58-.2-.45-.45-.46-1.36,0-2.45-.91-3.72-1.23a1.45,1.45,0,0,1-.47-.37c-.3-.28-.18-.42.18-.46s.56.07.62-.26-.32-.26-.45-.44l-.06,0C9.91,55.8,9.5,55.18,9.72,54.8Z"/><path d="M78.4,21.3c.26,1,0,2.06.25,3.07.11.38-.13.42-.43.35-1.49-.34-3.13-.21-4.36-1.37a.4.4,0,0,0-.59,0c-.09.16,0,.23.14.31a5,5,0,0,0,2.91,1.39c1.4.13,2.74.36,3.44,1.91.78,1.72,1.7,3.37,2.57,5a.73.73,0,0,1,.27.47h0c.22.39.45.78.66,1.17A48.9,48.9,0,0,0,85.72,38c.13.19.27.43.54.3s.16-.36.07-.58c-.23-.62-.46-1.25-.66-1.89-1-3.31-2.53-6.46-3.64-9.74a17.35,17.35,0,0,1-.92-4.46c0-.29,0-.61.32-.7s.44.14.62.33a16.31,16.31,0,0,1,2.24,3.1,14.62,14.62,0,0,1,1.36,3.26,1,1,0,0,1-.45-.41c-.51-.65-1-1.3-1.57-1.93A.54.54,0,0,0,83,25c-.28.11-.21.38-.22.59a6.08,6.08,0,0,0,.5,2.18c1.34,3.47,2.76,6.91,4,10.4s2.46,6.7,3.52,10.11c.1.32.13.84.51.82s.37-.5.42-.85a32.41,32.41,0,0,0,.29-4.82,2.77,2.77,0,0,0-.44-1.33c-.07-.11-.12-.24-.26-.18a.41.41,0,0,0-.2.28,1.33,1.33,0,0,0,.06.52c.5,1.5.08,3,0,4.54C88.94,40.21,86,33.38,83.62,26.35a4.27,4.27,0,0,1,.9,1A37.06,37.06,0,0,1,87,31.54c.1.2.23.57.5.46s.18-.46.1-.72A36.86,36.86,0,0,0,85,24.37a11.92,11.92,0,0,0-3-4c-.73-.57-1.12-.38-1.39.48a5.64,5.64,0,0,0,.09,2.68,39.24,39.24,0,0,0,2,6.55,5.23,5.23,0,0,1,.54,2c-1.16-2.25-2.43-4.21-3.37-6.36a5.52,5.52,0,0,1-.68-2.27,11.8,11.8,0,0,0-.54-3.74c-.06-.22-.14-.65-.48-.52-.19.07-.21.46-.13.75C78.17,20.39,78.29,20.84,78.4,21.3Z"/><path d="M101.91,68.6a11.52,11.52,0,0,0-.69-3.82c-.54-1.21-1.38-1.32-2.23-.31a11.24,11.24,0,0,0-1.64,3.17c-.27.67-.49,1.36-.74,2a6.7,6.7,0,0,1,0-2.89,6.48,6.48,0,0,1,2.49-4.32,5.74,5.74,0,0,0,1.63-1.77c.14-.25.51-.63.21-.82s-.56.24-.72.51c-.8,1.38-2.43,1.93-3.22,3.49a4.85,4.85,0,0,0-.6-1.71,4.22,4.22,0,0,1-.89-2.73,1.09,1.09,0,0,0-.22-.54.31.31,0,0,0-.23-.14c-.13,0-.14.12-.14.22a4.43,4.43,0,0,0,.51,2.82,4.8,4.8,0,0,1,.75,3.92A17.39,17.39,0,0,0,96,72.28c0,.21,0,.45.29.45s.29-.23.33-.44a46.39,46.39,0,0,1,1.54-4.9,8.67,8.67,0,0,1,1.23-2.45c.51-.74,1-.67,1.33.17a7.89,7.89,0,0,1,.44,2.19,36,36,0,0,1,0,7.19,11.4,11.4,0,0,1-.54,3.18,3.25,3.25,0,0,1-.17-1.57,25.12,25.12,0,0,0,0-4.67,4.27,4.27,0,0,0-.3-1.46c-.28-.74-.75-.87-1.36-.35a3.08,3.08,0,0,0-.9,1.52,86.47,86.47,0,0,0-1.84,9c0,.15,0,.33.14.39s.36,0,.46-.24c.29-.51.54-1.05.78-1.59a5.24,5.24,0,0,1,1.1-2A21.71,21.71,0,0,1,97,85.08,7.82,7.82,0,0,1,96.87,84c0-.2,0-.47-.27-.47s-.3.26-.31.5a11,11,0,0,1-.13,2.56c-.06.22-.13.57.18.67s.46-.2.58-.46c.29-.66.64-1.3.89-2A23.32,23.32,0,0,0,99,75.3c0-.22.06-.51-.22-.59s-.41.24-.51.45c-.34.71-.66,1.43-1,2.14a11.63,11.63,0,0,1,.36-3,13.5,13.5,0,0,1,1.23-4c.07-.15.14-.43.41-.37s.28.3.3.47a29.73,29.73,0,0,1,.25,4.21c-.15,2.38.08,4.78-.38,7.15,0,.24-.08.62.17.68s.39-.32.49-.55a26,26,0,0,0,1.58-7.12A30.46,30.46,0,0,0,101.91,68.6Zm-1.27,9.53a1.26,1.26,0,0,1-.18.21c-.1-.22-.14-.43.05-.49S100.73,78,100.64,78.13Z"/><path d="M36.75,51.35c.35,0,.49-.17.48-.52v-8c0-.42-.19-.63-.65-.63a1.3,1.3,0,0,0-1.3.68c-.65,1.12-1.37,2.2-2.06,3.29-.43.67-.51.68-.95,0-.76-1.17-1.5-2.36-2.24-3.55-.37-.6-1-.38-1.43-.32s-.26.52-.26.83c0,2.49.05,5,0,7.48,0,.64.17.83.8.81,1.09,0,1.09,0,1.09-1.1s0-2.07,0-3.11c0-.18-.11-.4.11-.55.26.06.34.28.46.46l1.41,2.21c.43.68.59.68,1,0L35,46.57l.23.08V50C35.26,51.46,35.3,51.49,36.75,51.35Z"/><path d="M79.32,49.17c.6-1,1.25-1.9,1.89-2.86.3.24.2.52.2.75,0,1.14,0,2.28,0,3.42,0,.58.2.78.75.71a1.69,1.69,0,0,1,.45,0c.61.07.79-.21.78-.79,0-1.24,0-2.47,0-3.71s-.07-2.72-.08-4.08c0-.59-.32-.73-.84-.69a1.22,1.22,0,0,0-1,.68c-.81,1.31-1.64,2.61-2.47,3.91a2.22,2.22,0,0,1-.61-.68c-.72-1.12-1.45-2.22-2.16-3.34A1.14,1.14,0,0,0,74.92,42c-.54.11-.38.58-.38.93,0,2.55,0,5.09,0,7.64,0,.46.11.73.64.65a2,2,0,0,1,.6,0c.5.06.69-.16.67-.65,0-.73,0-1.47,0-2.2v-2a21.77,21.77,0,0,1,2.14,2.81C78.85,49.66,79,49.64,79.32,49.17Z"/><path d="M94.49,66.86c0,.16.08.4.27.41s.32-.2.33-.42a2.41,2.41,0,0,0,0-.38c-.35-1.65-.63-3.33-1.08-4.95-1.12-4.11-3.48-7.57-5.83-11-.16-.25-.32-.67-.73-.5s-.26.56-.26.88a2.51,2.51,0,0,0,.1.44,5.23,5.23,0,0,1,0,2.35A21.85,21.85,0,0,1,86,46.23c0-.24-.06-.59.21-.67s.49.23.67.49a45.53,45.53,0,0,1,2.56,4.38c.65,1.22,1.23,2.48,1.86,3.72.08.16.16.4.43.37s.34-.28.43-.48,0-.39-.09-.58a75,75,0,0,0-3.14-8.85A22.24,22.24,0,0,0,83,36.23a10.23,10.23,0,0,1-3.12-3.94,6,6,0,0,0-1.54-1.94c-.15-.16-.39-.45-.6-.26s0,.53.17.69c1.23.95,1.62,2.43,2.38,3.68.13.21.2.41-.23.36a5.53,5.53,0,0,0-2.45.22,2.14,2.14,0,0,1-1.2,0,1.61,1.61,0,0,0-1.6.3,5.32,5.32,0,0,0,3.48.23,4.42,4.42,0,0,1,4,.86,20.6,20.6,0,0,1,4.51,5.42,34.65,34.65,0,0,1,3.19,7.46c.14.39.46.77.27,1.31-.61-1.1-1.15-2.16-1.77-3.17a11,11,0,0,0-1.84-2.55c-.66-.61-1.09-.46-1.3.43a3.94,3.94,0,0,0,0,.6,15.21,15.21,0,0,0,.16,2.33,15,15,0,0,0,1.37,5.93,3.42,3.42,0,0,0,.92,1.36c.14.11.31.32.52.15a.43.43,0,0,0,.15-.52,7.29,7.29,0,0,1-.34-1.83c0-.58-.33-1.14-.13-1.79a2.66,2.66,0,0,1,.83,1c.51.85,1,1.73,1.53,2.56a22.09,22.09,0,0,1,3.35,8.08C94,64.38,94.32,65.6,94.49,66.86Z"/><path d="M39.63,49.48c.5,1.57,2.38,2.25,4.11,2a3.33,3.33,0,0,0,2.9-3.37c0-1.77,0-3.54,0-5.31,0-.65-.38-.75-.89-.71s-1.13-.12-1.1.75,0,1.82,0,2.73v2.58a1.33,1.33,0,0,1-.14.72,1.78,1.78,0,0,1-3.32-1.05c0-1.54,0-3.08,0-4.62,0-.54.15-1.15-.77-1.1s-1.07.11-1.07,1.09c0,1.62,0,3.24,0,4.85A4.84,4.84,0,0,0,39.63,49.48Z"/><path d="M65,47.84c.08,1.79.55,2.83,2.46,3.38s4.15-.3,4.54-2.37c.21-1.14,0-2.26.12-3.18,0-1.12,0-2,0-2.94S71.5,42.08,71,42s-.72.18-.71.74c0,1.69,0,3.39,0,5.08a1.71,1.71,0,0,1-2.62,1.56,2,2,0,0,1-.86-1.8c0-1.61,0-3.23,0-4.85,0-.59-.18-.77-.72-.68a1.69,1.69,0,0,1-.45,0c-.55-.07-.69.18-.68.7C65,44.45,65,46.15,65,47.84Z"/><path d="M57.55,51.31c1.62,0,3.24,0,4.85-.09.66-.06.47-.53.49-.91s-.08-.69-.58-.67-1.27,0-1.9,0c-1.74,0-1.44.19-1.51-1.5,0-.52.19-.73.69-.72.71,0,1.42,0,2.12,0,.49,0,.64-.19.58-.63s.24-1-.57-1-1.46,0-2.19,0c-.42,0-.68-.16-.64-.63a7.73,7.73,0,0,0,0-.83c0-.51.2-.65.68-.63.83,0,1.67,0,2.5,0,.67,0,.68-.33.66-.81s.12-.92-.64-.89c-1.49,0-3,0-4.48,0-.57,0-.68.2-.67.71,0,1.29,0,2.58,0,3.87s0,2.68,0,4C56.94,51.14,57.14,51.31,57.55,51.31Z"/><path d="M52.21,49.67A2.42,2.42,0,0,1,50,49c-.65-.67-.87,0-1.2.3s-.43.85.09,1.16a4.76,4.76,0,0,0,3.79.94A2.87,2.87,0,0,0,55,48.91a2.74,2.74,0,0,0-2.09-2.75A8.7,8.7,0,0,1,51,45.42c-.59-.36-.68-.75-.24-1.27s1.1-.63,2.05-.18,1.23.36,1.7-.59c.15-.31.11-.54-.21-.68a4.41,4.41,0,0,0-2.42-.63,6.54,6.54,0,0,0-.77,0,2.74,2.74,0,0,0-2.23,3.6,3.38,3.38,0,0,0,2.1,1.69,9.54,9.54,0,0,1,1.6.64c.34.19.65.44.56.86A1,1,0,0,1,52.21,49.67Z"/><path d="M93.56,49.09a39.79,39.79,0,0,0,.18,4.23c.05,1.27.28,2.54.42,3.8,0,.17,0,.33.22.34s.26-.13.3-.29a2.37,2.37,0,0,0,.09-.36c.26-2.58.49-5.16.78-7.73a11.59,11.59,0,0,1,.59-3.33c.14.44.24.69.3,1,.26,1.08.51,2.16.77,3.25,0,.19.08.45.28.48s.31-.28.43-.46,0-.19,0-.29a16.32,16.32,0,0,0,.13-5.31,35.21,35.21,0,0,0-.76-3.5c-.17-.69-.71-.81-1.25-.34a4.85,4.85,0,0,0-1.32,1.81A20.27,20.27,0,0,0,93.56,49.09Zm2.52-7.74c.12-.17.26-.34.48-.32s.28.29.31.45a25.21,25.21,0,0,1,.47,2.57,14.69,14.69,0,0,1,.14,3.46c-.43-.48-.36-1.09-.57-1.59s-.25-1.35-.82-1.35-.61.84-.7,1.37a56.35,56.35,0,0,0-.8,5.79,1.52,1.52,0,0,1-.23.89,23.94,23.94,0,0,1,.57-8.94A7.8,7.8,0,0,1,96.08,41.35Z"/><path d="M29.68,68.77c.37.49.75,1,1.11,1.49,1,1.41,2,2.81,3,4.23a.89.89,0,0,0,.9.39c.24,0,.42-.11.43-.34,0-2.56,0-5.11,0-7.67,0-.41-.39-.36-.7-.37s-.36.26-.36.5c0,.61,0,1.22,0,1.82a22.16,22.16,0,0,1-.16,3.93c-.27-.38-.44-.6-.59-.82-1.21-1.7-2.42-3.38-3.6-5.09a.81.81,0,0,0-.93-.3c-.35.07-.3.41-.3.69q0,3.52,0,7c0,.4.11.61.55.61s.53-.24.52-.63c0-1.64,0-3.29,0-4.93C29.5,69.15,29.37,68.92,29.68,68.77Z"/><path d="M36.48,55c-.28.06-.31.28-.31.52q0,3.61,0,7.21c0,.4.21.52.57.53s.51-.26.51-.64c0-1.81,0-3.62,0-5.43l.21-.08,1.43,2,2.63,3.75a.85.85,0,0,0,1,.36c.43-.11.21-.49.22-.76,0-.78,0-1.56,0-2.35,0-1.56,0-3.13,0-4.7,0-.31-.12-.49-.42-.5s-.54.09-.52.48,0,.66,0,1c0,1.39,0,2.78,0,4.17,0,.17,0,.4-.16.46s-.26-.18-.35-.32l-1.14-1.59c-.88-1.24-1.78-2.47-2.65-3.73A.88.88,0,0,0,36.48,55Z"/><path d="M64.67,74.62a31.61,31.61,0,0,0-2-2.55c-.55-.58-.44-.83.17-1.23a2.21,2.21,0,0,0,1-2.53,2.51,2.51,0,0,0-2.38-1.93c-.9-.08-1.82,0-2.73,0-.43,0-.57.16-.57.58q0,3.65,0,7.28c0,.48.24.54.61.55s.5-.21.49-.56c0-.74,0-1.47,0-2.2,0-.23,0-.56.24-.57.57,0,1.18-.33,1.64.34s1.19,1.44,1.69,2.21A1.42,1.42,0,0,0,64.67,74.62Zm-3.32-4.16a4.64,4.64,0,0,1-.53,0c-1.74,0-1.55.32-1.57-1.56s.32-1.91,2.21-1.53a1.54,1.54,0,0,1,1.24,2.15A1.52,1.52,0,0,1,61.35,70.46Z"/><path d="M63.48,55.34c0-.36-.15-.54-.56-.54s-.49.22-.49.58c0,.81,0,1.62,0,2.42,0,.37-.09.56-.48.57-1.13,0-2.26.05-3.39.06-.39,0-.39-.29-.39-.59,0-.83,0-1.67,0-2.5,0-.26-.07-.54-.48-.52s-.59.07-.6.48A7.4,7.4,0,0,0,57,56.35c.14,2.06,0,4.13,0,6.19,0,.39.06.63.51.64s.64-.15.63-.61c0-.83,0-1.67,0-2.5,0-.49.14-.69.64-.68,1,0,2,0,3,0,.47,0,.61.21.59.65,0,.81,0,1.62,0,2.43,0,.39,0,.72.52.71s.56-.3.55-.71c0-1.14,0-2.27,0-3.41h0Z"/><path d="M36.29,74.81a.71.71,0,0,0,.9-.13,1.48,1.48,0,0,0,.3-.6c.22-1.3,1.08-1.56,2.21-1.41a.88.88,0,0,0,.23,0,2,2,0,0,1,2.71,1.71.54.54,0,0,0,.64.49c.7.07.6-.35.43-.76-1-2.3-2-4.6-3-6.9-.16-.37-.27-.73-.81-.73s-.6.41-.73.73c-1,2.33-1.94,4.67-2.9,7C36.25,74.41,36,74.67,36.29,74.81Zm2.77-4.55c.23-.49.41-1,.64-1.49.07-.14.06-.4.28-.4s.24.2.3.36c.3.76.57,1.53.92,2.26.26.55.15.73-.44.69-.27,0-.55,0-.82,0C38.41,71.68,38.41,71.68,39.06,70.26Z"/><path d="M93.87,77.33a24,24,0,0,0-1.51-6.06c-.74-1.61-1.56-3.14-3.24-4-1.15-.57-2.1-.09-1.94,1.14a7.66,7.66,0,0,1,0,.83h0c0,.28,0,.56,0,.84a6.71,6.71,0,0,0,1.41,3.71c.16.2.39.46.7.27s.19-.46.12-.69a6.61,6.61,0,0,1-.1-1.88c0-.19-.16-.52.15-.57s.36.24.47.44c.45.83.94,1.64,1.34,2.49a29.35,29.35,0,0,1,2.1,5.25c.05.22.07.5.38.46s.25-.32.26-.54A7.65,7.65,0,0,0,93.87,77.33Zm-.94-1.43c-.48-1-.92-1.89-1.32-2.78A13.25,13.25,0,0,0,90,70.45c-.19-.23-.43-.48-.77-.35a.82.82,0,0,0-.52.76,2.9,2.9,0,0,1-.24,1.42,7.66,7.66,0,0,1-.63-4.2c0-.5.52-.41.85-.27A4.73,4.73,0,0,1,91,69.94C91.84,71.37,93.11,74.45,92.93,75.9Z"/><path d="M80.35,74.73c1.29,0,2.58,0,3.87,0,.36,0,.68,0,.68-.49s-.39-.43-.71-.43c-.83,0-1.67,0-2.5,0-.64,0-1-.15-.89-.85a6.12,6.12,0,0,0,0-1.21c0-.61.14-.89.8-.84s1.57,0,2.36,0c.34,0,.5-.11.51-.48S84.27,70,84,70c-.84,0-1.67,0-2.51,0-.44,0-.66-.15-.64-.62a12.85,12.85,0,0,0,0-1.52c0-.47.17-.61.62-.6.94,0,1.87,0,2.81,0,.33,0,.64-.13.66-.48s-.28-.58-.65-.58c-1.31,0-2.62,0-3.94.07-.45,0-.58.24-.57.68,0,1.16,0,2.33,0,3.49s0,2.43,0,3.64C79.73,74.56,79.88,74.73,80.35,74.73Z"/><path d="M56.32,72.65a32.19,32.19,0,0,0,.06-5.81c0-.54-.36-.55-.73-.42s-.2.38-.2.59c0,1.6,0,3.19,0,4.78A2.12,2.12,0,0,1,53.25,74a2,2,0,0,1-1.92-2.22V69.62h-.09c0-.88,0-1.77,0-2.65,0-.31,0-.61-.49-.61a.55.55,0,0,0-.6.62,32.26,32.26,0,0,0,.17,5.65A2.77,2.77,0,0,0,53.43,75,2.7,2.7,0,0,0,56.32,72.65Z"/><path d="M67.2,67.27c.86,0,1.72,0,2.57,0,.36,0,.73,0,.72-.51s-.38-.45-.69-.45c-1.21,0-2.42.05-3.63,0-.54,0-.71.2-.7.71,0,1.13,0,2.27,0,3.41h0c0,1.13,0,2.26,0,3.4,0,.61.13.91.84.87,1.21-.07,2.42,0,3.64,0,.33,0,.64,0,.64-.42s-.29-.52-.68-.5-.85,0-1.28,0c-2.16,0-2.14,0-2.13-2.15,0-.6.26-.74.77-.72.76,0,1.52,0,2.28,0,.31,0,.55,0,.53-.43s-.16-.54-.57-.5a8,8,0,0,1-1,0c-2.09,0-2.07,0-2-2.09C66.54,67.41,66.72,67.26,67.2,67.27Z"/><path d="M94.25,39.45A7.72,7.72,0,0,0,93,41.87a5.63,5.63,0,0,0-1.26-1.53,4.83,4.83,0,0,1-1.6-2,2.11,2.11,0,0,0-.57-.68c-.09-.07-.25-.13-.34,0a.28.28,0,0,0,0,.27,7.94,7.94,0,0,0,1.91,2.74,3.72,3.72,0,0,1,1.57,3.56c-.18,1.84-.24,3.7-.29,5.55,0,1.23,0,2.47.11,3.7a20.46,20.46,0,0,0,.8,4.88,1.17,1.17,0,0,0,.37-1.13A20.85,20.85,0,0,1,93.13,53a77.89,77.89,0,0,1,.3-9.66,5.52,5.52,0,0,1,1.06-3.06,4.57,4.57,0,0,0,1.05-3c0-.23.09-.62-.23-.62s-.34.38-.34.66A4.16,4.16,0,0,1,94.25,39.45Z"/><path d="M62.92,89.91c.79-.59.77-.9,0-1.47-.1-.06-.27,0-.27-.28s.18-.08.26-.16.4-.28.24-.54-.34-.09-.53,0c-.38.15-.46,0-.46-.39A1,1,0,0,0,61.18,86c-.56-.12-.78.29-1,.74-.09.25-.17.56-.58.33a.38.38,0,0,0-.55.23c-.13.34.19.35.37.43.52.25.66.46.09.85a.66.66,0,0,0-.09,1.14c.66.46.49.69-.09,1-.17.08-.34.18-.27.39a.39.39,0,0,0,.44.22c.24,0,.5,0,.56.25.11.44.35.75.8.72a1,1,0,0,0,.85-.86c.12-.42.29-.54.67-.38.17.07.33.18.45,0a.36.36,0,0,0-.09-.48C62.41,90.19,62.68,90.09,62.92,89.91Zm-2-3c.06-.14.14-.19.36-.16a.3.3,0,0,1,.24.39,3.09,3.09,0,0,1-.61,1.18s-.15-.07-.15-.1A3.9,3.9,0,0,1,60.89,86.88Zm.18,4.3a1,1,0,0,1-.24.15,1.25,1.25,0,0,1-.22-.62c0-.2,0-.4,0-.64.36.05.39.29.5.43A.5.5,0,0,1,61.07,91.18Zm1.44-1.77a.77.77,0,0,1-.95,0,3.39,3.39,0,0,0-.34-.23c.09-.25.3-.19.45-.26a.83.83,0,0,1,.89.15C62.7,89.2,62.62,89.35,62.51,89.41Z"/><path d="M88.1,31.34a1.7,1.7,0,0,0,0,.22c.52,2.33,2.24,3.85,3.72,5.53.28.3.58.15.64-.24a32.1,32.1,0,0,0,.64-3.3,8.72,8.72,0,0,0-.65-3.29c-.09-.23-.22-.53-.51-.45s-.24.35-.24.59a8.88,8.88,0,0,1-.35,2.29c-.09.38-.25.6-.62.2-.6-.65-1.22-1.26-1.82-1.91-.18-.19-.26-.55-.61-.43S88.13,31.06,88.1,31.34Zm2.83,2.83c.15.19.29.47.57.43s.27-.4.34-.61a17.49,17.49,0,0,1,.4-1.82c.58,1,.1,2-.11,2.93-.07.3.09.79-.24.87s-.51-.4-.72-.64a6.56,6.56,0,0,1-1.86-2.91A7.22,7.22,0,0,1,90.93,34.17Z"/><path d="M47.39,67.42c.42,0,.86,0,1.28,0s.69-.06.7-.49-.26-.59-.69-.58c-1.16,0-2.32,0-3.48,0-.58,0-1.16,0-1.74,0a.55.55,0,0,0-.61.61c0,.44.29.46.61.45.51,0,1,0,1.52,0s.62.17.61.63c0,1,0,2.07,0,3.1s0,2,0,3c0,.38,0,.7.53.7s.54-.3.54-.69c0-2,0-4,0-6C46.62,67.63,46.76,67.35,47.39,67.42Z"/><path d="M70.16,85a1,1,0,0,0,.65-1.26.8.8,0,0,0-1-.67c-.29,0-.51-.08-.52-.39s-.14-.43-.41-.4-.2.29-.22.47c0,.48-.15.75-.66.33a.61.61,0,0,0-1,.24c-.27.83-.59.82-1.09.22-.09-.12-.22-.26-.37-.11s-.21.24-.08.4c.37.48,0,.74-.3,1s-.28.64.06.93a1,1,0,0,0,.9.26c.52-.13.57.08.52.49,0,.17,0,.39.17.47s.36-.1.41-.24c.18-.46.34-.32.62-.08.7.6,1.17.41,1.32-.49,0-.12,0-.26.11-.33s.15.08.22.14.31.39.57.2,0-.41-.06-.58S69.75,85.13,70.16,85Zm-4.4.22a2.9,2.9,0,0,1,1.15-.66C66.81,85.2,66.52,85.38,65.76,85.22Zm2.43.86a.67.67,0,0,1-.44-.77c0-.19,0-.52.2-.47.42.09.4.56.52.9C68.52,85.89,68.38,86.14,68.19,86.08Zm.36-1.94c.36-.39.81-.27,1.17-.43a.31.31,0,0,1,.45.25.37.37,0,0,1-.31.45A1.63,1.63,0,0,1,68.55,84.14Z"/><path d="M53.25,83.39a.57.57,0,0,0,.25-.49c0-.89-.24-1.19-1-1.2-.34,0-.71.1-.94-.29a.34.34,0,0,0-.47-.13c-.15.07-.1.26-.08.4.08.48-.12.59-.54.46a.72.72,0,0,0-1,.68c-.06.63-.27.68-.74.38-.18-.11-.36-.23-.55,0s-.07.41.11.57.15.41,0,.63-.35.66,0,1a.87.87,0,0,0,1,.24c.36-.15.69-.22.7.36,0,.1.06.31.26.32a.33.33,0,0,0,.34-.25c.15-.51.39-.43.79-.26s.94.09,1-.46.23-.61.64-.65.41-.18.17-.44S52.89,83.64,53.25,83.39ZM48.9,84.67l1-.79C49.87,84.69,49.8,84.74,48.9,84.67Zm2.5.22a.8.8,0,0,1-.65-.79c0-.14,0-.3.22-.32a1.14,1.14,0,0,1,.68.78C51.68,84.74,51.67,84.94,51.4,84.89Zm1.4-2.25c-.08.55-.54.56-.93.6-.22-.06-.64.06-.53-.24s.7-.47,1.11-.61A.24.24,0,0,1,52.8,82.64Z"/><path d="M66.87,18.39a16,16,0,0,1,2.36,2,31.64,31.64,0,0,1,3.67,4.94c.22.32,0,.43-.23.45-1.15.15-2.29.59-3.48.12a1.23,1.23,0,0,0-1.4.22,10.07,10.07,0,0,0,2.41.62c1.29.07,2.51-.48,3.8-.46.16,0,.38.08.47-.14s-.13-.34-.27-.47a7,7,0,0,1-1.29-1.47,17.47,17.47,0,0,0-5-5.75,7.88,7.88,0,0,1-3.08-3.76,12.4,12.4,0,0,0-.6-1.28c-.1-.19-.19-.4-.46-.38-.19.84.33,1.46.6,2.14A6.61,6.61,0,0,0,66.87,18.39Z"/><path d="M56.94,82.07c.28.26.48-.13.73-.12.47,1.28.56,1.31,1.67.5.24-.17.33-.18.38.13a.4.4,0,0,0,.45.33c.22,0,.26-.24.21-.41-.19-.66.21-.54.61-.5a.85.85,0,0,0,1-.47.74.74,0,0,0-.35-1c-.23-.16-.35-.36-.17-.64s.13-.36,0-.47-.33,0-.46.15c-.47.53-.74.28-.94-.25s-.52-.68-.92-.38c-.63.45-.85.27-.9-.41,0-.16-.05-.33-.24-.31s-.3.11-.31.18c0,.67-.44.73-1,.69-.21,0-.35.16-.46.34-.38.6-.19,1.12.51,1.53.13.07.57,0,.3.41C56.9,81.61,56.67,81.82,56.94,82.07Zm3.2-1.56c.36.18.86.19,1,.59.09.19-.25.14-.36.22a1.07,1.07,0,0,1-.95-.66C59.83,80.51,60,80.45,60.14,80.51Zm-1.5.38c.1-.15.21-.39.44-.32s.18.33.17.53a1.29,1.29,0,0,1-.52,1c-.09.07-.18,0-.23-.11A1.1,1.1,0,0,1,58.64,80.89Zm-1.71-.56c-.15-.08-.3-.2-.23-.41a.35.35,0,0,1,.37-.2,2.27,2.27,0,0,1,1.27.4C57.87,80.38,57.44,80.62,56.93,80.33Z"/><path d="M70.86,16.17c.08.24.27.68-.25.49a8.89,8.89,0,0,1-2.3-.82,4.3,4.3,0,0,0-.48-.22c-.12.05-.26.07-.33.15s0,.24.07.34a7.59,7.59,0,0,0,.56.71c.94,1,1.87,2,3.42,2.06a3.19,3.19,0,0,1,1.91.55c.12.09.33.29.54.09s.15-.39,0-.61a18.36,18.36,0,0,1-1.1-2.77,7.45,7.45,0,0,0-2.26-3c-.2-.18-.48-.4-.73-.22s0,.44.06.67C70.3,14.48,70.59,15.33,70.86,16.17Zm1.52.28c.2.46.29,1,.49,1.47.07.18.16.54-.23.45-1-.23-2.2-.16-3.07-1-.09-.09-.19-.17-.13-.36a13.12,13.12,0,0,1,2,.66c.21.07.42.41.65.14s0-.52-.13-.76a8.65,8.65,0,0,1-.87-2.5A4.49,4.49,0,0,1,72.38,16.45Z"/><path d="M83.46,53.87c-.22-.11-.45-.21-.63-.09s0,.36.06.54a15,15,0,0,1,.8,2.46c.06.18.28.36.12.55s-.41,0-.62-.07a12.09,12.09,0,0,1-2.27-.74c-.43-.05-.48.09-.41.34a6,6,0,0,0,3,2.67,7.85,7.85,0,0,1,2.94.72.44.44,0,0,0,.5,0,.37.37,0,0,0,.05-.43c-.85-1.37-.9-3.12-2.05-4.35A6.58,6.58,0,0,0,83.46,53.87Zm2.16,5.34c-1-.4-2.18-.09-3-.92a4.38,4.38,0,0,1-.64-.65,10.5,10.5,0,0,1,2.34.76c.23.09.5.24.7,0s-.06-.41-.16-.59a8.54,8.54,0,0,1-.71-2.32,6.93,6.93,0,0,1,1.75,3.3C85.94,59.06,85.86,59.3,85.62,59.21Z"/><path d="M72.72,74.73c1.7,0,3.39,0,5.08,0,.41,0,.6-.11.6-.55s-.3-.37-.56-.37c-1.29,0-2.58,0-3.87,0-.61,0-.78-.19-.77-.79,0-2,0-4,0-5.92,0-.42,0-.8-.64-.78s-.46.42-.46.74c0,1.14,0,2.28,0,3.42h0c0,1.18,0,2.37,0,3.56C72.1,74.49,72.17,74.74,72.72,74.73Z"/><path d="M98.48,55.57c-.26,0-.17-.26-.25-.4-.49-.92-.57-2-1.12-3.08a6.47,6.47,0,0,0-.75,3.63c.19,1.22,1.09,2.19,1.15,3.45,0,.2.07.43.27.49s.34-.19.45-.33c.56-.74,1.16-1.46,1.71-2.2A5.14,5.14,0,0,0,101,53.21c0-.24-.11-.5-.34-.55s-.35.2-.47.39c-.46.75-.94,1.48-1.41,2.21C98.71,55.39,98.66,55.57,98.48,55.57Zm1.86-1.35a4.75,4.75,0,0,1-.92,2.53c-.31.44-.75.8-1,1.28-.11.17-.3.39-.43,0-.42-1.14-1.23-2.18-1-3.51,0-.13,0-.25.2-.33A8.56,8.56,0,0,1,98,56.49c0,.19.07.41.3.46s.34-.19.42-.35A11.65,11.65,0,0,1,100.34,54.22Z"/><path d="M71.08,28.56c-.21,0-.47,0-.53.2s.15.32.35.43a6.92,6.92,0,0,1,1.91,2L70,31.71c-.26.05-.65-.09-.7.26s.3.43.55.55l.34.14c1.9.83,3.86.23,5.79.25l.07,0c.42-.11.51-.35.14-.6a7.27,7.27,0,0,1-1.64-1.94A4.71,4.71,0,0,0,71.08,28.56ZM75,32.13c-.15.44-.72.15-1.1.25a4,4,0,0,1-2.58-.15,5.7,5.7,0,0,1,2.16-.35c.18,0,.42.14.53-.13s-.1-.31-.21-.44c-.37-.42-.74-.83-1.1-1.25-.08-.1-.17-.33-.13-.38s.26,0,.41.05a3.63,3.63,0,0,1,1.4,1.43C74.55,31.51,75.09,31.78,75,32.13Z"/><path d="M46.72,54.85c-.38,0-.51.36-.65.65-.57,1.21-1.14,2.43-1.68,3.65-.11.25-.42.57,0,.77a.6.6,0,0,0,.84-.41c.23-.62.67-.75,1.3-.75s1.46,0,1.75.88c.11.33.42.3.7.26a.25.25,0,0,0,.22-.34c-.06-.14-.13-.3-.21-.45l-1.65-3.58C47.21,55.23,47.1,54.86,46.72,54.85Zm.41,3a.69.69,0,0,1-.83,0c-.32-.51.18-.87.45-1.47C46.94,57,47.48,57.32,47.13,57.81Z"/><path d="M82.17,32.21A20.79,20.79,0,0,0,77.86,28a6,6,0,0,0-5.51-1,8.91,8.91,0,0,1-2.91.3c-.38,0-.72-.23-1.11-.16-.19,0-.38.09-.41.27s.24.23.37.27a7.43,7.43,0,0,0,3.44.13c1.55-.34,3.08-.73,4.61.05a15.16,15.16,0,0,1,5.53,5c.1.14.16.43.41.34s.22-.31.18-.52h0Z"/><path d="M61,118.73c-1.72,0-3.43.08-5.14.15-3,.14-6-.22-9-.12-.25,0-.55-.13-.81.16a4,4,0,0,0,2.28.56c4.23,0,8.47.07,12.7-.12.27,0,.66,0,.66-.32S61.32,118.73,61,118.73Z"/><path d="M70,58.93a2.08,2.08,0,0,1-1.29-.33.43.43,0,0,0-.67.21c-.16.29,0,.48.25.62a2.6,2.6,0,0,0,1.29.45,1.77,1.77,0,0,0,1.92-1.25c.16-.76-.09-1.15-1-1.6a8.23,8.23,0,0,0-1-.37c-.33-.1-.67-.21-.56-.63a.64.64,0,0,1,.79-.43c.31,0,.61.18.92.26a.4.4,0,0,0,.56-.32c.07-.26.13-.48-.24-.56a4.06,4.06,0,0,0-1.29-.31A1.91,1.91,0,0,0,68.06,56c-.14.7.21,1.19,1.1,1.54.35.13.71.23,1,.39s.49.22.43.54A.65.65,0,0,1,70,58.93Z"/><path d="M56.5,118.3c.2,0,.54.13.57-.17s-.31-.34-.53-.43a.59.59,0,0,0-.23,0c-2.29-.06-4.58,0-6.87-.13s-4.74.15-7.1-.17a.49.49,0,0,0-.55.23,2.41,2.41,0,0,0,1.64.52c2,0,4.08,0,6.11.08C51.86,118.34,54.18,118.26,56.5,118.3Z"/><path d="M75.39,114.79c-1.09,0-2.18-.05-3.26,0a61.68,61.68,0,0,1-8.63.13c-.26,0-.72,0-1.17,0-.17,0-.47-.15-.48.16a.44.44,0,0,0,.45.43c.45,0,.87.19,1.33.17,1.79-.08,3.58,0,5.37-.09,2.14-.08,4.27-.32,6.41-.23.2,0,.53.12.53-.23S75.64,114.79,75.39,114.79Z"/><path d="M71.68,25.05c.1-.21-.06-.39-.17-.55-.59-.83-1.13-1.69-1.67-2.55a8.55,8.55,0,0,0-3.59-3.33c-.27-.12-.7-.49-.84-.22s.27.61.6.79A8.8,8.8,0,0,1,69.69,23c.22.42.85,1,.64,1.2-.42.29-1.08.07-1.64,0-.34-.06-.66-.29-1-.18-.19.06-.45.12-.47.33s.24.27.42.3l3.39.59C71.28,25.17,71.56,25.34,71.68,25.05Z"/><path d="M90.23,64.51c.22.14.45.34.67.15s0-.48-.12-.66A5.54,5.54,0,0,1,90,61.24a6.8,6.8,0,0,0-.67-2.89c-.11-.21-.15-.59-.43-.51s-.27.47-.14.71c.83,1.52.22,3.3,1.08,5A6.25,6.25,0,0,0,87,62.83c-.94,0-1.54-1.06-2.69-1a3.94,3.94,0,0,0,2.85,1.66A6.25,6.25,0,0,1,90.23,64.51Z"/><path d="M76.27,19.05c.27.83,0,1.7.24,2.53.1.32.43.72.21,1s-.6-.17-.93-.21a7.39,7.39,0,0,1-3.7-1.24c-.26-.18-.47-.13-.71.13a5.15,5.15,0,0,0,3.13,1.55,5.7,5.7,0,0,1,2.78,1c.17.13.37.41.65.17s0-.48-.08-.67a5.44,5.44,0,0,1-.77-2.65,7.46,7.46,0,0,0-.81-3.23c-.08-.16-.16-.36-.36-.31s-.15.28-.14.45A5.38,5.38,0,0,0,76.27,19.05Z"/><path d="M92.75,38.59c-.08.28-.27.45-.54.14a13.09,13.09,0,0,1-2.49-3c-.17-.37-.34-1.11-.8-.85s.07.84.29,1.26c.8,1.53,2.24,2.5,3.26,3.83.36.47.56.07.62-.27a9.07,9.07,0,0,1,.58-1.76A5.18,5.18,0,0,0,94.29,35a3.23,3.23,0,0,0,0-1c-.05-.18.09-.62-.29-.56s-.41.41-.34.67C94.06,35.75,93.2,37.13,92.75,38.59Z"/><path d="M74.76,20.56c-1.32-.65-2.91-.25-4.08-1.24-.07-.06-.24,0-.37,0s-.27,0-.29.14a.29.29,0,0,0,.12.33,3.5,3.5,0,0,0,1.86.9,7.87,7.87,0,0,1,3.41,1c.2.11.44.4.65.14s-.07-.46-.18-.67A6.48,6.48,0,0,1,75,18.61a6.45,6.45,0,0,0-1-2.85c-.1-.16-.26-.49-.5-.35s-.2.5-.06.67C74.51,17.38,74.09,19.11,74.76,20.56Z"/><path d="M76,54.68c-1.06,0-2.12,0-3.18,0a.53.53,0,0,0-.51.78c.19.27.51.17.77.14.67-.07.92.22.88.87,0,.46,0,.91,0,1.37s0,1,0,1.44c0,.3,0,.56.44.56s.5-.23.49-.59c0-.81,0-1.62,0-2.43,0-1.1,0-1.11,1.08-1.2.3,0,.58-.06.58-.44A.48.48,0,0,0,76,54.68Z"/><path d="M53.16,59.88c.26,0,.63.13.63-.4s-.28-.57-.68-.56-.76,0-1.14,0-.64-.17-.63-.65c0-.93,0-1.87,0-2.81,0-.35,0-.66-.52-.65s-.55.28-.54.65v1.9c0,.63,0,1.27,0,1.9s.27.73.69.66C51.7,59.81,52.43,60,53.16,59.88Z"/><path d="M87.33,61.1c-1.18-.3-2.46-.13-3.54-.82a1.08,1.08,0,0,0-1,0,3.81,3.81,0,0,0,2.12,1.12c1.14.2,2.35.13,3.34.9.17.13.36.49.63.25s0-.56-.12-.8a5.68,5.68,0,0,1-.85-2.51,5.49,5.49,0,0,0-1-2.72c-.12-.15-.24-.4-.47-.29s-.12.47,0,.59c.85,1.2.73,2.66,1.12,4C87.64,61,87.6,61.17,87.33,61.1Z"/><path d="M75.4,71.84c.83,0,1.66,0,2.5,0,.36,0,.5-.15.5-.5s-.18-.43-.49-.42a10.84,10.84,0,0,0-1.14,0c-.77.11-1-.28-.94-1,0-1,0-2.12,0-3.18,0-.36-.15-.47-.5-.47s-.46.17-.45.51c0,.73,0,1.47,0,2.2h0c0,.76,0,1.52,0,2.28C74.86,71.69,75,71.85,75.4,71.84Z"/><path d="M100.41,57.21c-.47,1.59-1.94,2.4-2.89,3.68-.33-1.41-1.43-2.49-1.52-4,0-.25-.13-.48-.39-.43s-.25.29-.23.51A4.59,4.59,0,0,0,96,59,7.48,7.48,0,0,1,97,61.9c0,.23,0,.52.24.56s.36-.23.46-.44a7.17,7.17,0,0,1,1.81-2.36A5.61,5.61,0,0,0,101,57.48c.07-.15.15-.43-.09-.53A.35.35,0,0,0,100.41,57.21Z"/><path d="M75.2,34.5c1.18,0,2.27-.6,3.48-.5.44,0,.4-.36.14-.63A5.63,5.63,0,0,1,77.91,32a5.56,5.56,0,0,0-2.72-2.69c-.13-.06-.3-.3-.44,0a.38.38,0,0,0,.15.47c.14.1.28.21.43.3a6.13,6.13,0,0,1,2.33,2.87c.11.25.2.42-.14.5a5.92,5.92,0,0,1-3.67.23,2.47,2.47,0,0,0-.66-.07.33.33,0,0,0-.38.19c0,.16.14.25.28.3A6.62,6.62,0,0,0,75.2,34.5Z"/><path d="M98.33,54.15c.3.48.58.23.72-.08a4.68,4.68,0,0,0,.89-2.56,2.25,2.25,0,0,0-.32-1.59c-.25-.45-.52-.64-1-.11A3.84,3.84,0,0,0,98.33,54.15Zm.74-3.68c.51.86.07,1.59-.08,2.33a.27.27,0,0,1-.22.17c-.13,0-.15-.15-.2-.28A2.2,2.2,0,0,1,99.07,50.47Z"/><path d="M19.78,90.39c-.31,0-.17.36-.16.56,0,.8.29,1.57.27,2.38-.06,1.9-.09,3.81-.13,5.72a1.09,1.09,0,0,0,.13.73c.1.13.14.36.37.29s.12-.26.11-.4c-.07-1.81.12-3.62.16-5.42a12.24,12.24,0,0,0-.3-3.36C20.18,90.61,20,90.36,19.78,90.39Z"/><path d="M90.8,31.7c.3-.11.33-.46.35-.77s.11-.79.17-1.19a3.12,3.12,0,0,0-1.26-2.37c-.48-.49-.68-.42-.91.24a3.43,3.43,0,0,0,1,3.68C90.33,31.48,90.51,31.8,90.8,31.7Zm-1.17-3.76c1.09.63.9,1.59.88,2.73A3.41,3.41,0,0,1,89.63,27.94Z"/><path d="M69.62,15.8c.4,0,.58-.11.55-.42a4.32,4.32,0,0,0-2.81-3c-.33-.06-.86-.13-.81.46A3.52,3.52,0,0,0,69.62,15.8Zm-2-2.72c.38,0,1.53,1.25,1.49,1.62,0,.21-.12.2-.25.18a2.1,2.1,0,0,1-1.42-1.47C67.44,13.28,67.38,13.09,67.63,13.08Z"/><path d="M82.64,56.65c.45,0,.54-.12.38-.52a6.53,6.53,0,0,0-.88-1.7,2.93,2.93,0,0,0-1.89-1.27c-.83,0-1,.13-.8.8A3.68,3.68,0,0,0,82.64,56.65Zm-2.35-2.79c.08-.06.29,0,.41.07a3,3,0,0,1,1.42,1.75,2,2,0,0,1-1.88-1.34C80.19,54.17,80.14,54,80.29,53.86Z"/><path d="M50.71,62.13l-4.22.13c-.26,0-.62-.16-.62.38s.25.54.62.54h2.27v0c.78,0,1.56,0,2.34,0,.31,0,.58-.06.58-.5s-.3-.46-.59-.5A2.38,2.38,0,0,0,50.71,62.13Z"/><path d="M61.2,39.64H58.47c-.33,0-.42.16-.45.47-.09.94,0,1,.93,1h.83c.48,0,1,0,1.44,0,.64,0,.42-.55.46-.92S61.63,39.63,61.2,39.64Z"/><path d="M72.34,63c.35,0,.55-.13.55-.44a.46.46,0,0,0-.52-.49c-1.59,0-3.18,0-4.77,0-.37,0-.47.16-.48.5s.23.42.54.42h2.26C70.73,63,71.54,63,72.34,63Z"/><path d="M19,90.11c0-.24-.05-.49-.33-.5s-.27.28-.3.5c-.08.51.22,1,.14,1.49a32.47,32.47,0,0,0-.14,4.52,4.15,4.15,0,0,0,.33,1.59c.05.12.14.3.33.23s.11-.21.1-.32q0-.68-.09-1.35a24.44,24.44,0,0,1,.1-4.36A15.58,15.58,0,0,0,19,90.11Z"/><path d="M67.91,29c-.25.1-.36.23-.28.51.38,1.2,2.83,2.13,3.86,1.46.18-.12.23-.22.15-.43A3,3,0,0,0,69,28.84,3.26,3.26,0,0,0,67.91,29Zm2.52,1c.13.08.25.19.16.37a.32.32,0,0,1-.39.14A8.2,8.2,0,0,1,69,30.15c-.2-.09-.53-.21-.43-.51s.39-.13.4-.14A1.78,1.78,0,0,1,70.43,30Z"/><path d="M66.56,55.29c0-.24,0-.5-.38-.49s-.56.1-.56.51c0,1.34,0,2.67,0,4,0,.31.08.52.46.54s.51-.24.52-.56c0-.68,0-1.36,0-2h0C66.56,56.6,66.57,56,66.56,55.29Z"/><path d="M17.34,88.72a.44.44,0,0,0-.4-.4c-.32,0-.2.29-.2.46-.07,1.77.06,3.52.15,5.28a1.24,1.24,0,0,0,.56,1c0-1.8,0-3.46,0-5.11C17.45,89.52,17.38,89.12,17.34,88.72Z"/><path d="M65.68,116.47c-1.86-.1-3.71.16-5.57.15-.15,0-.35,0-.36.18s.15.24.25.35.38.08.58.08H64.8v-.13c.43,0,.86,0,1.29,0a.4.4,0,0,0,.25-.1c.08-.13,0-.22-.12-.32A.71.71,0,0,0,65.68,116.47Z"/><path d="M67.16,22.67a.53.53,0,0,0-.45.21c-.1.22.16.28.3.34a4.71,4.71,0,0,0,1.63.48c.38,0,.58-.07.36-.54a8.34,8.34,0,0,0-2-2.7c-.19-.17-.5-.44-.71-.19s.09.54.31.67A4.77,4.77,0,0,1,68,22.74C67.62,22.87,67.4,22.68,67.16,22.67Z"/><path d="M72.89,116c-.86,0-1.71,0-2.57,0a13.58,13.58,0,0,0-2.52.17.93.93,0,0,0,1,.59l4.11-.16c.19,0,.54.15.55-.16S73.22,116,72.89,116Z"/><path d="M29.81,109.19c.57,0,1.1,0,1.63,0,.11,0,.27,0,.3-.13s-.07-.23-.18-.3a.89.89,0,0,0-.48-.19,20.89,20.89,0,0,1-3.16-.14c-.2,0-.53-.1-.58.19s.22.39.48.46A9.65,9.65,0,0,0,29.81,109.19Z"/><path d="M65.2,114.19c.23,0,.59.12.57-.28s-.33-.35-.58-.35c-.68,0-1.36,0-2,0-.18,0-.47-.1-.46.22a.44.44,0,0,0,.47.4c.38,0,.76,0,1.13,0h0C64.6,114.2,64.9,114.21,65.2,114.19Z"/><path d="M19.66,45.53a2.19,2.19,0,0,1,.43,2.77h.13a5.17,5.17,0,0,1,.23-.88C20.7,46.53,20.59,46.22,19.66,45.53Z"/><path d="M30.53,28.11h.15a4.78,4.78,0,0,1-.13-.74A6.1,6.1,0,0,1,30.53,28.11Z"/><path d="M30.51,26.61a9.06,9.06,0,0,0-.12-1.42C30.4,25.64,30.46,26.12,30.51,26.61Z"/><path d="M68.71,113.89a2,2,0,0,0,.43,0c.21-.06.58.19.6-.21s-.32-.4-.61-.4a1.6,1.6,0,0,0-.38,0c-.37.13-1.09-.31-1.09.26S68.39,113.75,68.71,113.89Z"/><path d="M17.05,67.6c.24.27.05.61.15.9C17.32,67.86,17.31,67.79,17.05,67.6Z"/><path d="M82.33,32.05l-.16.16c.23.07.24.29.29.48l.14-.17C82.38,32.44,82.42,32.21,82.33,32.05Z"/><path d="M82,90.28c0,.15-.25,0-.38,0a.42.42,0,0,0-.46.27c0,.12,0,.21.13.31a4.11,4.11,0,0,0,3.21-.06,5.88,5.88,0,0,1-3-.11,1.38,1.38,0,0,1,1.8-.2.82.82,0,0,0,1,0,4.12,4.12,0,0,1-1.37-.34C82.59,90,82.16,89.12,82,90.28Z"/><path d="M50.94,18.92c.13.07.31.13.23.33-.51,1.23-.32,2.66-.9,3.83-1.07,2.16-1.15,4.47-1.36,6.78A7.5,7.5,0,0,1,47,34.69c-.21.21-.52.43-.21.75s.52-.07.7-.2a8.26,8.26,0,0,0,3-4c.25-.74.57-.89,1.36-.75a26.18,26.18,0,0,0,4.05.7,37.38,37.38,0,0,0,5.79-.48c1.41-.2,1.6-.07,2.21,1.25A11,11,0,0,0,66,35.57c.17.15.29.54.64.27s.08-.51,0-.72a13.49,13.49,0,0,1-.87-2.29c-.51-1.42-.2-2.87-.26-4.3a9,9,0,0,0-1.45-4.64,2.74,2.74,0,0,1-.35-2.09,10.31,10.31,0,0,0,.11-1.18A7.07,7.07,0,0,0,63,17.45c-.69-1.38-1-2.92-1.72-4.27a3.5,3.5,0,0,0-4.79-1.63,18.74,18.74,0,0,1-4.12,1.64,3.45,3.45,0,0,0-1.51.77C49.37,15.22,48.59,17.59,50.94,18.92ZM49.13,32.37c.34-.79.2-1.73.77-2.44A3.12,3.12,0,0,1,49.13,32.37Zm15.7-.22c-.24-.39-.43-.69-.6-1a2.28,2.28,0,0,0-2.78-1.22,27.23,27.23,0,0,1-4.68.59,23.29,23.29,0,0,1-5.31-.81,9.88,9.88,0,0,1-1.15-.13A1.41,1.41,0,0,1,52,29.15a14.92,14.92,0,0,0,5.36.91,24.3,24.3,0,0,0,6.33-1c.46-.16,1.25.35,1.15.84C64.66,30.63,65,31.31,64.83,32.15Zm-2.63-4c.39-.12.59.11.87.3-3.54.88-7.08,1.37-10.71.12a.81.81,0,0,1,.91-.29A16,16,0,0,0,62.2,28.17Zm-6.85-.28a13,13,0,0,1,5.23,0C58.84,28,57.09,28.55,55.35,27.89ZM64.59,27c-.45.21-.59-.24-.89-.26C64.14,26.59,64.14,26.59,64.59,27Zm-.83-1.29c-.54-.16-1.09-.29-1.62-.46-1.08-.35-2.23-.35-3.32-.59-.39-.09-.71.08-.75.43s.32.29.58.32c.65.06,1.3.12,2,.23a13.78,13.78,0,0,1,1.87.46,16.68,16.68,0,0,1-2.83-.32,13.58,13.58,0,0,0-5.08.25,1.74,1.74,0,0,0-.53.26c-.15.12-.35.26-.2.5s.31.07.47,0c2.19-.8,4.39-.45,6.61-.13a9.14,9.14,0,0,1,3.5,1.22c.26.16.56.28.38.73a9,9,0,0,0-3-1.31,23,23,0,0,0-7.36,0,11.32,11.32,0,0,0-4.12,1.48c-.47.27-.66.2-.66-.39a2.45,2.45,0,0,1,1.55-2.63,14,14,0,0,1,7.16-1.53,22.79,22.79,0,0,1,4.4.84A1.63,1.63,0,0,1,63.76,25.68ZM52.43,13.86a28.67,28.67,0,0,0,4.92-2c1.42-.69,3.39.81,3.7,2.37.08.45-.34.17-.46.13a4.46,4.46,0,0,0-1.91-.57c-.19,0-.51-.14-.5.26s.22.33.48.36a6.2,6.2,0,0,1,2.77,1.2c.13.09.35.22.22.42s-.29.05-.43,0a5.38,5.38,0,0,0-1.7-.51c-.23-.06-.63-.16-.68.23s.28.33.55.38a6.5,6.5,0,0,1,2.38,1,1.32,1.32,0,0,1,.75,1,10.7,10.7,0,0,0-3.44-1.53c-.24,0-.48-.13-.57.16a.41.41,0,0,0,.41.52A7.78,7.78,0,0,1,62.4,19,1.11,1.11,0,0,1,63,20.41a9.3,9.3,0,0,0-5.49-2.64c.07.61.5.66.88.77a7.76,7.76,0,0,1,4.44,2.85.8.8,0,0,1,.24.69A3,3,0,0,0,63.34,24c0,.11.19.21.08.34s-.25,0-.4,0a23.09,23.09,0,0,0-5.53-.92,12.4,12.4,0,0,0-5.23,1.12l-2.09.89c0-.47.28-.62.55-.75s.74-.28,1.09-.46c.16-.08.5-.08.34-.44s-.36-.27-.58-.22-.52.32-.64,0,.18-.51.48-.63c.49-.2,1-.42,1.44-.62.2-.08.38-.19.32-.43s-.34-.19-.5-.15-.55.21-.84.27-.39.24-.54,0,0-.44.16-.59a2.17,2.17,0,0,1,.61-.43c.17-.08.35-.14.34-.34a.35.35,0,0,0-.43-.32c-.54.07-.37-.32-.3-.52a2.75,2.75,0,0,1,1.71-1.67,19.66,19.66,0,0,0,2.37-1.23,1.2,1.2,0,0,0,.58-1.37c0-.18,0-.52-.35-.48s-.23.28-.26.48-.07.34-.1.51a.36.36,0,0,1-.31.37c-.25,0-.11-.22-.18-.32-.27-.35-.55-.25-.7.06a6.21,6.21,0,0,1-.31.75c-.12.18-.18.46-.48.4s-.13-.32-.15-.49-.1-.36-.3-.36a.32.32,0,0,0-.32.26c0,.17-.1.34-.15.5-.17.63-.5,1.17-1.2,1.13a1.68,1.68,0,0,1-1.41-1.76A3,3,0,0,1,52.43,13.86Z"/><path d="M75.63,97c-.68,0-1.12.6-1.2,1.55,0,.13,0,.26,0,.38s0,.5-.47.5-.33.41-.17.65c.3.45.57.91.83,1.39.45.83,1.34.74,2.15.72.61,0,.79-.48.95-.92a4.29,4.29,0,0,0,.09-1,7.35,7.35,0,0,0-.21-1.87A1.73,1.73,0,0,0,75.63,97Zm-.35,3.9a2.57,2.57,0,0,1,0-2.22Zm1.86,0a.64.64,0,0,1-.68.65c-.45,0-.31-.4-.37-.68A5,5,0,0,1,76,99.46a5.66,5.66,0,0,1,.12-1.34c.13-.59.35-.37.59-.13a.88.88,0,0,1,.21.39A8.93,8.93,0,0,1,77.14,100.9Z"/><path d="M78.62,91.23c0-.3-.34-.3-.58-.34a3,3,0,0,1-1.11-.35.39.39,0,0,0-.54.07c-.18.26.08.37.21.47a2.51,2.51,0,0,0,1.29.5C78.25,91.56,78.59,91.56,78.62,91.23Z"/><path d="M80.33,90.66a2.1,2.1,0,0,1-1.21-.52.36.36,0,0,0-.54,0c-.14.18,0,.33.13.46a2.2,2.2,0,0,0,1.55.66c.18,0,.48.11.53-.2S80.62,90.67,80.33,90.66Z"/><path d="M80.11,102.6a.29.29,0,0,0,0,.27A2.56,2.56,0,0,0,81.7,104c.21,0,.4,0,.46-.28,0,0,0-.14-.11-.17a7.61,7.61,0,0,1-1.53-1.06A.31.31,0,0,0,80.11,102.6Z"/><path d="M75.85,102.83a.32.32,0,0,0-.41.09c-.16.16-.07.28,0,.39a3.67,3.67,0,0,0,1.28,1c.31.15.46,0,.57-.24,0,0,0-.11-.08-.14C76.78,103.58,76.32,103.19,75.85,102.83Z"/><path d="M82.33,84.33c0-.15,0-.34-.2-.34a1.58,1.58,0,0,1-1.28-.67.3.3,0,0,0-.41-.06c-.15.09-.12.28,0,.41a1.5,1.5,0,0,0,1.34.92C81.94,84.54,82.27,84.73,82.33,84.33Z"/><path d="M80.86,92.56A2.19,2.19,0,0,0,82,93.68c.19.09.45.15.49-.14a3.89,3.89,0,0,0-1.36-1.45C80.88,92.14,80.73,92.26,80.86,92.56Z"/><path d="M83.19,87.43a.38.38,0,0,0-.14.39A1.64,1.64,0,0,0,84.39,89c.19,0,.37,0,.37-.28a.29.29,0,0,0-.16-.29,2.68,2.68,0,0,1-1.09-1A.21.21,0,0,0,83.19,87.43Z"/><path d="M81.76,85.6a.26.26,0,0,0,0,.34,2.48,2.48,0,0,0,1.57.94c.2,0,.36,0,.34-.3,0,0,0-.13,0-.16-.53-.32-1.07-.62-1.61-.91A.3.3,0,0,0,81.76,85.6Z"/><path d="M77.65,88a.34.34,0,0,0,0,.42,2,2,0,0,0,1.35,1c.25.09.29-.1.33-.3s0-.17,0-.2a10.37,10.37,0,0,1-1.33-1S77.71,87.94,77.65,88Z"/><path d="M76.38,91.58a.26.26,0,0,0-.19-.28c-.47-.18-1-.34-1.44-.49-.11,0-.27,0-.31.12a.36.36,0,0,0,.13.4,3,3,0,0,0,1.43.54C76.22,91.92,76.3,91.74,76.38,91.58Z"/><path d="M79.54,86.18a2.14,2.14,0,0,0,1.49.88.29.29,0,0,0,.33-.26c0-.19-.16-.33-.33-.35A1.75,1.75,0,0,1,80,85.78c-.12-.12-.23-.19-.39-.06A.29.29,0,0,0,79.54,86.18Z"/><path d="M80.57,87.78c-.26,0-.27.24-.16.44a2.07,2.07,0,0,0,1.32,1c.29.09.32-.15.32-.36A7.45,7.45,0,0,0,80.57,87.78Z"/><path d="M78.5,82.3a.72.72,0,0,0,.57.17c.3,0,.62.06.66-.29s-.3-.3-.52-.35a1.4,1.4,0,0,1-.42-.15c-.26-.17-.57-.55-.81-.15S78.25,82.1,78.5,82.3Z"/><path d="M73.25,102c-.17,0-.32.09-.32.31s.85,1.13,1.2,1.15.31-.12.32-.31A4,4,0,0,0,73.25,102Z"/><path d="M83.4,80.9A1.67,1.67,0,0,0,84.59,82c.22,0,.32-.1.32-.35,0,0,0-.14-.07-.17a3.47,3.47,0,0,1-1.06-.92c-.07-.09-.18-.07-.27,0A.33.33,0,0,0,83.4,80.9Z"/><path d="M82.88,82.16c.28,0,.29-.26.2-.38-.33-.45-1-.53-1.19-1-.3,0-.34.06-.35.29A1.44,1.44,0,0,0,82.88,82.16Z"/><path d="M81.15,79.75c.15,0,.49.07.4-.24-.18-.62-.94-.41-1.31-.81,0-.06-.44.13-.33.37A1.25,1.25,0,0,0,81.15,79.75Z"/><path d="M79,103.24c-.19-.21-.44-.68-.75-.34s.1.64.37.85a2.76,2.76,0,0,0,.71.4c.24.09.36-.08.39-.33S79.25,103.47,79,103.24Z"/><path d="M78.08,93.63a2,2,0,0,0-.83-1.11c-.17-.14-.38,0-.39.26a2,2,0,0,0,1,1.2C78.06,94,78.12,93.8,78.08,93.63Z"/><path d="M80.2,93.71a2.89,2.89,0,0,0-1.08-1.29c-.21,0-.36.14-.27.34a2.08,2.08,0,0,0,.94,1.11C80,94,80.16,93.91,80.2,93.71Z"/><path d="M86.35,82c.17.07.31-.11.37-.27s-1.13-1.15-1.32-1.07a.31.31,0,0,0-.17.44A2,2,0,0,0,86.35,82Z"/><path d="M74,92.18a.28.28,0,0,0,.29-.3s0-.15-.1-.18c-.41-.2-.83-.4-1.25-.58a.3.3,0,0,0-.27.06.28.28,0,0,0,0,.4A1.75,1.75,0,0,0,74,92.18Z"/><path d="M76.28,89.43c.23.07.47-.08.41-.3-.16-.56-.79-.51-1.13-.81-.26,0-.42.09-.37.3C75.33,89.17,75.84,89.28,76.28,89.43Z"/><path d="M80.92,82.25c.23.06.36-.1.36-.35s-.48-.36-.72-.55-.4-.43-.62-.18,0,.53.24.75A1.5,1.5,0,0,0,80.92,82.25Z"/><path d="M77.4,84.72c.18,0,.27-.17.34-.34a2.31,2.31,0,0,0-1.32-.86.22.22,0,0,0-.16.34A1.81,1.81,0,0,0,77.4,84.72Z"/><path d="M83.53,93.49a.22.22,0,0,0,.37-.1c.1-.36-.22-.56-.35-.83s-.21-.46-.49-.52-.29.14-.27.31A1.71,1.71,0,0,0,83.53,93.49Z"/><path d="M77.36,82.65c.21,0,.32-.11.34-.29s-1-.92-1.24-.87-.27.18-.19.34A1.53,1.53,0,0,0,77.36,82.65Z"/><path d="M77.53,85.67a.47.47,0,0,0-.12.07.31.31,0,0,0-.09.4,1.48,1.48,0,0,0,.94.87c.18,0,.28-.06.37-.19a.33.33,0,0,0,0-.14A4.81,4.81,0,0,0,77.53,85.67Z"/><path d="M83,79.46c.19,0,.42.06.49-.22a3.1,3.1,0,0,0-1.17-.89c-.19,0-.3.07-.26.25A.92.92,0,0,0,83,79.46Z"/><path d="M73.06,100.5a2.51,2.51,0,0,0-1-.89c-.16-.06-.28.07-.29.25s.7,1.08,1,1.07S73.08,100.79,73.06,100.5Z"/><path d="M73.94,89.61c.21,0,.47.09.48-.24a3,3,0,0,0-1.14-.84c-.22,0-.25.14-.24.3C73.1,89.39,73.5,89.54,73.94,89.61Z"/><path d="M78.66,83.55c-.15-.09-.33.14-.27.33a1.38,1.38,0,0,0,1,.88c.2.06.35,0,.31-.4A9,9,0,0,0,78.66,83.55Z"/><path d="M77.37,96.27a.33.33,0,0,0,.25-.34,1.86,1.86,0,0,0-1.32-.76c-.13,0-.22.12-.18.27A2.54,2.54,0,0,0,77.37,96.27Z"/><path d="M79.17,80.17c.3,0,.52-.09.45-.31-.17-.5-.79-.36-1.12-.7-.12-.12-.39.14-.36.27C78.27,80,78.85,80,79.17,80.17Z"/><path d="M79.13,96a.65.65,0,0,0,.69.11c.16-.09.11-.31,0-.4a2.63,2.63,0,0,0-1-.64c-.2,0-.35,0-.35.17C78.51,95.63,78.86,95.79,79.13,96Z"/><path d="M80.33,97.2a.21.21,0,0,0-.27.26c.11.5.53.68,1,.79.2,0,.31-.11.35-.31A1.47,1.47,0,0,0,80.33,97.2Z"/><path d="M79.06,100.23c-.18,0-.37.09-.29.33a1.35,1.35,0,0,0,1,.87.25.25,0,0,0,.25-.36A2.4,2.4,0,0,0,79.06,100.23Z"/><path d="M75.66,94c.2.08.29-.13.3-.4-.18-.27-.32-.66-.71-.79a.26.26,0,0,0-.35.34A1.25,1.25,0,0,0,75.66,94Z"/><path d="M75.46,86.35c.05.45.42.58.79.66.18,0,.41.06.47-.3-.14-.38-.58-.43-.91-.6C75.65,86,75.43,86.11,75.46,86.35Z"/><path d="M74.79,87.05c-.14-.43-.54-.54-.92-.63-.18,0-.4.1-.32.29a1.22,1.22,0,0,0,.89.65C74.67,87.35,74.85,87.26,74.79,87.05Z"/><path d="M73,97.75c-.15,0-.43,0-.36.26s.49.55.81.7.41-.11.36-.3A.91.91,0,0,0,73,97.75Z"/><path d="M75.42,82.92c.2,0,.4,0,.36-.27-.06-.4-.4-.56-.75-.63s-.3.13-.3.38A.69.69,0,0,0,75.42,82.92Z"/><path d="M75.42,84.87c.19.08.33-.05.39-.3s-.48-.42-.78-.54a.29.29,0,0,0-.41.28C74.7,84.7,75.12,84.75,75.42,84.87Z"/><path d="M74.14,93.78a.79.79,0,0,0-.75-.55c-.14,0-.34,0-.32.2.05.41.42.55.72.7S74.1,94,74.14,93.78Z"/><path d="M74.83,96.33c.16,0,.28,0,.32-.24a.9.9,0,0,0-.76-.58c-.18,0-.43,0-.36.24A1,1,0,0,0,74.83,96.33Z"/><path d="M77.38,80.49c.19.05.26-.08.25-.26,0-.45-.37-.55-.63-.65s-.43.1-.37.23A1.21,1.21,0,0,0,77.38,80.49Z"/><path d="M74.08,85.36c.18,0,.37,0,.35-.21,0-.4-.35-.51-.68-.56s-.39.12-.36.28C73.45,85.25,73.82,85.27,74.08,85.36Z"/><path d="M78.84,98.08a.6.6,0,0,0-.55-.3c-.18,0-.4,0-.35.27a.7.7,0,0,0,.6.48C78.72,98.57,78.83,98.37,78.84,98.08Z"/><path d="M51.69,96.28A.3.3,0,0,0,52,96a2.58,2.58,0,0,0-1.16-1.1c-.12,0-.19.13-.2.29S51.4,96.31,51.69,96.28Z"/><path d="M52.16,94.82a.25.25,0,0,0,.25-.35c-.19-.47-.64-.67-1-.93-.2,0-.33.14-.33.34S51.94,94.83,52.16,94.82Z"/><path d="M51.25,97.64c.23.09.28-.1.27-.3s-.52-.93-.72-.92-.27.23-.26.37A1,1,0,0,0,51.25,97.64Z"/><path d="M50.23,99.61c-.17,0-.25.12-.24.29a.67.67,0,0,0,.5.65c.25.06.26-.15.26-.47A.57.57,0,0,0,50.23,99.61Z"/><path d="M55.66,102.75c-.23,0-.51,0-.49.34s.26.33.5.33.51,0,.52-.28S55.89,102.77,55.66,102.75Z"/></svg>