<?xml version="1.0" encoding="utf-8"?>
<!-- Generator: Adobe Illustrator 22.0.1, SVG Export Plug-In . SVG Version: 6.00 Build 0)  -->
<svg version="1.1" id="Calque_1" xmlns="http://www.w3.org/2000/svg" xmlns:xlink="http://www.w3.org/1999/xlink" x="0px" y="0px"
	 viewBox="0 0 99 123.8" style="enable-background:new 0 0 99 123.8;" xml:space="preserve">
<title>zntitled-1</title>
<path d="M72.4,65.3H27.5c-8.7,0-15.7-7-15.8-15.7c0-7.1,4.7-13.3,11.5-15.2C23.3,27.6,28.9,22,35.9,22c2.8,0,5.5,0.9,7.7,2.6
	c4.9-9,16.2-12.3,25.2-7.3c6.7,3.7,10.5,11.1,9.5,18.8c5.5,2.5,9,8,9,14c0,3.8-1.4,7.5-3.9,10.3C80.6,63.5,76.6,65.3,72.4,65.3z
	 M35.9,24.9c-5.4,0-9.8,4.4-9.8,9.8c0,0.3,0,0.5,0,0.8c0.1,0.7-0.4,1.4-1.1,1.5c-7,1.4-11.5,8.2-10.1,15.1c1.2,6,6.5,10.3,12.6,10.3
	h44.8c3.4,0,6.6-1.5,8.8-4c2-2.3,3.2-5.3,3.2-8.4c0.1-5.3-3.2-10-8.2-11.8c-0.7-0.2-1.1-0.9-0.9-1.6C77,28.1,71.5,19.8,63,18.1
	c-7.4-1.5-14.7,2.4-17.6,9.4c-0.3,0.7-1.1,1.1-1.9,0.8c-0.2-0.1-0.4-0.2-0.5-0.3C41.1,26,38.6,24.9,35.9,24.9z"/>
<path d="M39.8,84c-0.8,0-1.4-0.6-1.4-1.4c0-0.2,0-0.3,0.1-0.5l5.1-13.8c0.3-0.7,1.1-1.1,1.9-0.8c0.7,0.3,1.1,1.1,0.8,1.8l-5.1,13.9
	C40.9,83.6,40.4,84,39.8,84z"/>
<path d="M32,77.9c-0.8,0-1.4-0.6-1.4-1.4c0-0.2,0-0.3,0.1-0.5l2.9-7.8c0.3-0.7,1.1-1.1,1.9-0.8c0.7,0.3,1.1,1.1,0.8,1.8L33.3,77
	C33.1,77.6,32.6,77.9,32,77.9z"/>
<path d="M62.3,77.9c-0.8,0-1.4-0.6-1.4-1.4c0-0.2,0-0.3,0.1-0.5l2.9-7.8c0.3-0.7,1.1-1.1,1.9-0.8c0.7,0.3,1.1,1.1,0.8,1.8L63.6,77
	C63.4,77.6,62.9,77.9,62.3,77.9z"/>
<path d="M49.9,84c-0.8,0-1.4-0.6-1.4-1.4c0-0.2,0-0.3,0.1-0.5l5.1-13.8c0.3-0.7,1.1-1.1,1.9-0.8c0.7,0.3,1.1,1.1,0.8,1.8l-5.1,13.9
	C51,83.6,50.5,84,49.9,84z"/>
</svg>
