<svg id="Calque_1" data-name="Calque 1" xmlns="http://www.w3.org/2000/svg" viewBox="0 0 113 489"><defs><style>.cls-1{fill:none;stroke:#000;stroke-miterlimit:10;stroke-width:3px;}</style></defs><title>Plan de travail 2</title><rect class="cls-1" x="17.54" y="205.31" width="78.31" height="78.31" rx="12.93" ry="12.93"/><rect class="cls-1" x="17.54" y="143.64" width="78.31" height="45.13" rx="12.93" ry="12.93"/><path class="cls-1" d="M30.47,127.1H82.92a12.93,12.93,0,0,0,0-25.86H30.47a12.93,12.93,0,1,0,0,25.86Z"/><path class="cls-1" d="M82.92,361.82H30.47a12.93,12.93,0,0,0,0,25.86H82.92a12.93,12.93,0,0,0,0-25.86Z"/><rect class="cls-1" x="17.54" y="300.16" width="78.31" height="45.13" rx="12.93" ry="12.93"/><path class="cls-1" d="M28.67,64.48H84.73a4.78,4.78,0,0,0,2.55-8.82c-34.21-21.61-61.38.12-61.65.34a4.78,4.78,0,0,0,3,8.48Z"/><path class="cls-1" d="M24.91,89.48H88.48a4.78,4.78,0,0,0,2.35-8.94c-35.85-20.22-67.18-.71-68.49.13a4.78,4.78,0,0,0,2.57,8.81Z"/><path class="cls-1" d="M36,39H77.37a4.78,4.78,0,0,0,2.81-8.65C59.4,15.33,40.09,24,32.78,30.74A4.78,4.78,0,0,0,36,39Z"/><path class="cls-1" d="M84.73,424.44H28.67a4.78,4.78,0,0,0-2.56,8.83c11.34,7.16,21.91,9.56,31,9.56a52.44,52.44,0,0,0,30.67-9.91,4.78,4.78,0,0,0-3-8.48Z"/><path class="cls-1" d="M88.48,399.44H24.91a4.79,4.79,0,0,0-2.35,8.95,68.19,68.19,0,0,0,33.89,9.13,68.9,68.9,0,0,0,34.6-9.27,4.78,4.78,0,0,0-2.57-8.81Z"/><path class="cls-1" d="M77.37,449.88H36a4.78,4.78,0,0,0-2.81,8.65c8.45,6.12,16.65,8.32,23.9,8.32a36,36,0,0,0,23.5-8.67,4.78,4.78,0,0,0-3.24-8.3Z"/></svg>