<?xml version="1.0" encoding="utf-8"?>
<!-- Generator: Adobe Illustrator 22.0.1, SVG Export Plug-In . SVG Version: 6.00 Build 0)  -->
<svg version="1.1" id="Calque_1" xmlns="http://www.w3.org/2000/svg" xmlns:xlink="http://www.w3.org/1999/xlink" x="0px" y="0px"
	 viewBox="0 0 99 123.8" style="enable-background:new 0 0 99 123.8;" xml:space="preserve">
<title>zntitled-1</title>
<path d="M72.4,65.4H27.5c-8.7,0-15.7-7-15.8-15.7c0-7.1,4.7-13.3,11.5-15.2c0.1-6.9,5.7-12.5,12.7-12.5c2.8,0,5.5,0.9,7.7,2.6
	c4.9-9,16.2-12.3,25.2-7.3c6.7,3.7,10.5,11.2,9.5,18.8c5.5,2.5,9,8,9,14c0,3.8-1.4,7.5-3.9,10.3C80.6,63.6,76.6,65.4,72.4,65.4z
	 M35.9,25c-5.4,0-9.8,4.4-9.8,9.8c0,0.3,0,0.5,0,0.8c0.1,0.7-0.4,1.4-1.1,1.5c-7,1.4-11.5,8.2-10.1,15.1c1.2,6,6.5,10.3,12.6,10.3
	h44.8c3.4,0,6.6-1.5,8.8-4c2-2.3,3.2-5.3,3.2-8.4c0.1-5.3-3.2-10-8.2-11.8c-0.7-0.2-1.1-0.9-0.9-1.6C77,28.3,71.5,20,63,18.3
	c-7.4-1.5-14.7,2.4-17.6,9.4c-0.3,0.7-1.1,1.1-1.9,0.8c-0.2-0.1-0.4-0.2-0.5-0.3C41.1,26.1,38.6,25,35.9,25z"/>
<path d="M65.5,74.1c0.4,0.7,0.3,1.6-0.4,2c-0.5,0.3-1.1,0.3-1.6,0l-1.8-1.8L60,76.1c-0.3,0.3-0.6,0.4-1,0.4c-0.8,0-1.4-0.7-1.4-1.5
	c0-0.4,0.2-0.7,0.4-1l1.8-1.8L58,70.5c-0.7-0.4-0.8-1.3-0.4-2s1.3-0.8,2-0.4c0.2,0.1,0.3,0.2,0.4,0.4l1.8,1.8l1.8-1.8
	c0.4-0.7,1.3-0.8,2-0.4s0.8,1.3,0.4,2c-0.1,0.2-0.2,0.3-0.4,0.4l-1.8,1.8L65.5,74.1z"/>
<path d="M41.1,74.1c0.4,0.7,0.3,1.6-0.4,2c-0.5,0.3-1.1,0.3-1.6,0l-1.8-1.8l-1.8,1.8c-0.4,0.7-1.3,0.8-2,0.4s-0.8-1.3-0.4-2
	c0.1-0.2,0.2-0.3,0.4-0.4l1.8-1.8l-1.8-1.8c-0.7-0.4-0.8-1.3-0.4-2s1.3-0.8,2-0.4c0.2,0.1,0.3,0.2,0.4,0.4l1.8,1.8l1.7-1.8
	c0.4-0.7,1.3-0.8,2-0.4s0.8,1.3,0.4,2c-0.1,0.2-0.2,0.3-0.4,0.4l-1.8,1.8L41.1,74.1z"/>
<path d="M53.3,81.5c0.6,0.6,0.6,1.5,0,2c-0.3,0.3-0.6,0.4-1,0.4c-0.4,0-0.7-0.2-1-0.4l-1.8-1.8l-1.8,1.8c-0.6,0.5-1.4,0.5-2,0
	c-0.5-0.6-0.5-1.4,0-2l1.8-1.8L45.7,78c-0.4-0.7-0.3-1.6,0.4-2c0.5-0.3,1.1-0.3,1.6,0l1.8,1.8l1.8-1.8c0.7-0.4,1.6-0.3,2,0.4
	c0.3,0.5,0.3,1.1,0,1.6l-1.8,1.8L53.3,81.5z"/>
</svg>
