<?xml version="1.0" encoding="utf-8"?>
<!-- Generator: Adobe Illustrator 22.0.1, SVG Export Plug-In . SVG Version: 6.00 Build 0)  -->
<svg version="1.1" id="Calque_1" xmlns="http://www.w3.org/2000/svg" xmlns:xlink="http://www.w3.org/1999/xlink" x="0px" y="0px"
	 viewBox="0 0 99 123.8" style="enable-background:new 0 0 99 123.8;" xml:space="preserve">
<title>weather</title>
<path d="M49.5,67.3c-9.8,0-17.8-7.9-17.8-17.8s7.9-17.8,17.8-17.8s17.8,7.9,17.8,17.8C67.2,59.3,59.3,67.2,49.5,67.3z M49.5,34.6
	c-8.2,0-14.9,6.7-14.9,14.9s6.7,14.9,14.9,14.9s14.9-6.7,14.9-14.9C64.4,41.3,57.7,34.6,49.5,34.6z"/>
<path d="M49.5,28.9c-0.8,0-1.4-0.6-1.4-1.4v-6.7c0-0.8,0.6-1.4,1.4-1.4c0.8,0,1.4,0.6,1.4,1.4v6.7C50.9,28.2,50.3,28.9,49.5,28.9
	L49.5,28.9z"/>
<path d="M33.2,34.6c-0.4,0-0.7-0.2-1-0.4l-4-4c-0.4-0.7-0.3-1.6,0.4-2c0.5-0.3,1.1-0.3,1.6,0l4,4c0.6,0.6,0.6,1.5,0,2
	C33.9,34.5,33.6,34.7,33.2,34.6L33.2,34.6z"/>
<path d="M65.1,35.3c-0.8,0-1.4-0.7-1.4-1.5c0-0.4,0.2-0.7,0.4-1l4.8-4.8c0.4-0.7,1.3-0.8,2-0.4s0.8,1.3,0.4,2
	c-0.1,0.2-0.2,0.3-0.4,0.4l-4.8,4.8C65.9,35.2,65.5,35.3,65.1,35.3z"/>
<path d="M29.1,71.3c-0.8,0-1.4-0.7-1.4-1.5c0-0.4,0.2-0.7,0.4-1l4.8-4.8c0.7-0.4,1.6-0.3,2,0.4c0.3,0.5,0.3,1.1,0,1.6l-4.8,4.8
	C29.9,71.1,29.5,71.3,29.1,71.3z"/>
<path d="M49.5,79.7c-0.8,0-1.4-0.6-1.4-1.4l0,0v-5.7c0-0.8,0.6-1.4,1.4-1.4c0.8,0,1.4,0.6,1.4,1.4v5.7
	C50.9,79.1,50.3,79.7,49.5,79.7z"/>
<path d="M27.4,50.9h-6.7c-0.8,0-1.4-0.6-1.4-1.4c0-0.8,0.6-1.4,1.4-1.4h6.7c0.8,0,1.4,0.6,1.4,1.4C28.9,50.3,28.2,50.9,27.4,50.9z"
	/>
<path d="M78.3,50.9h-6.7c-0.8,0-1.4-0.6-1.4-1.4c0-0.8,0.6-1.4,1.4-1.4h6.7c0.8,0,1.4,0.6,1.4,1.4C79.7,50.3,79.1,50.9,78.3,50.9z"
	/>
<path d="M69.8,71.3c-0.4,0-0.7-0.2-1-0.4l-4.8-4.8c-0.4-0.7-0.3-1.6,0.4-2c0.5-0.3,1.1-0.3,1.6,0l4.8,4.8c0.6,0.6,0.6,1.5,0,2
	C70.6,71.2,70.2,71.3,69.8,71.3L69.8,71.3z"/>
</svg>
