<?xml version="1.0" encoding="utf-8"?>
<!-- Generator: Adobe Illustrator 22.0.1, SVG Export Plug-In . SVG Version: 6.00 Build 0)  -->
<svg version="1.1" id="Calque_1" xmlns="http://www.w3.org/2000/svg" xmlns:xlink="http://www.w3.org/1999/xlink" x="0px" y="0px"
	 viewBox="0 0 99 123.8" style="enable-background:new 0 0 99 123.8;" xml:space="preserve">
<title>zntitled-1</title>
<path d="M65.2,27.5c-0.8,0-1.4-0.6-1.4-1.4v-6.7c0-0.8,0.6-1.4,1.4-1.4c0.8,0,1.4,0.6,1.4,1.4v6.7C66.7,26.9,66,27.6,65.2,27.5z"/>
<path d="M80.8,34c-0.8,0-1.4-0.7-1.4-1.5c0-0.4,0.2-0.7,0.4-1l4.8-4.8c0.4-0.7,1.3-0.8,2-0.4s0.8,1.3,0.4,2
	c-0.1,0.2-0.2,0.3-0.4,0.4l-4.8,4.8C81.6,33.8,81.2,34,80.8,34z"/>
<path d="M94,49.6h-6.7c-0.8,0-1.4-0.6-1.4-1.4c0-0.8,0.6-1.4,1.4-1.4l0,0H94c0.8,0,1.4,0.6,1.4,1.4C95.4,49,94.8,49.6,94,49.6z"/>
<path d="M85.6,70c-0.4,0-0.7-0.2-1-0.4l-4.8-4.8c-0.7-0.4-0.8-1.3-0.4-2s1.3-0.8,2-0.4c0.2,0.1,0.3,0.2,0.4,0.4l4.8,4.8
	c0.6,0.6,0.6,1.5,0,2C86.3,69.9,86,70,85.6,70L85.6,70z"/>
<path d="M83,48.2c0-9.8-8-17.7-17.8-17.8c-2.4,0-4.8,0.5-7,1.5c-2.1-0.8-4.4-1.2-6.6-1.2c-0.6,0-1.2,0-1.7,0.1l-3.9-3.9
	c-0.7-0.4-1.6-0.3-2,0.4c-0.3,0.5-0.3,1.1,0,1.6l2.5,2.5c-4.7,1.4-8.8,4.6-11.1,8.9c-2.2-1.7-4.9-2.6-7.7-2.6
	c-6.9,0-12.6,5.6-12.7,12.5C6.6,52.5,1.8,61.2,4.2,69.6c1.5,5.1,5.4,9.2,10.5,10.8c1.5,0.5,3,0.7,4.6,0.7h44.8c4.2,0,8.2-1.8,11-5
	c3.8-4.3,4.9-10.2,3-15.6C81.3,57.1,83,52.7,83,48.2z M73,74.2c-2.2,2.5-5.5,4-8.8,4H19.3c-1.3,0-2.5-0.2-3.8-0.6
	C8.7,75.5,4.9,68.3,7,61.6c1.4-4.5,5.1-7.9,9.7-8.8c0.7-0.1,1.2-0.8,1.1-1.5c0-0.3,0-0.5,0-0.8c0-5.4,4.4-9.8,9.8-9.8
	c2.7,0,5.3,1.1,7.1,3.1c0.5,0.6,1.4,0.6,2,0.1c0.2-0.1,0.3-0.3,0.3-0.5c2.4-5.9,8.2-9.7,14.5-9.7c2.1,0,4.2,0.4,6.1,1.2
	c5.8,2.5,9.6,8.2,9.6,14.5c0,1-0.1,2.1-0.3,3.1c-0.2,0.7,0.3,1.4,0.9,1.7c3.2,1.1,5.7,3.6,7.1,6.7C76.9,65.2,76.1,70.4,73,74.2
	L73,74.2z M76.6,57.4c-0.1-0.2-0.2-0.4-0.4-0.5L76,56.5c-0.2-0.3-0.4-0.6-0.6-0.8c-0.2-0.3-0.4-0.5-0.7-0.7c-0.5-0.5-1.1-1-1.7-1.5
	c-0.9-0.7-1.9-1.3-3-1.8c0.1-0.8,0.2-1.6,0.2-2.5c0-0.4,0-0.8,0-1.2s0-0.6-0.1-0.9L70,46.7c0-0.3-0.1-0.6-0.1-0.9c0-0.1,0-0.2,0-0.3
	c-0.1-0.3-0.1-0.5-0.2-0.8c0-0.1,0-0.2-0.1-0.3c-0.1-0.3-0.2-0.6-0.2-0.8s-0.2-0.7-0.4-1.1l-0.1-0.4c-0.1-0.2-0.2-0.4-0.3-0.6
	c0-0.1-0.1-0.2-0.1-0.2c-0.1-0.3-0.3-0.6-0.4-0.9c-0.3-0.5-0.6-1.1-1-1.6c-0.1-0.1-0.2-0.3-0.3-0.4l-0.1-0.2
	c-0.1-0.2-0.3-0.4-0.4-0.6s-0.4-0.5-0.7-0.8l-0.4-0.4L65,36.3l-0.5-0.5c-0.3-0.3-0.6-0.5-0.9-0.8L63,34.5h-0.1
	c-0.1-0.1-0.3-0.2-0.4-0.3l-0.1-0.1c-0.2-0.2-0.4-0.3-0.6-0.4c8-1.9,16,3.1,17.8,11.1c1,4.5-0.1,9.2-3,12.8
	C76.7,57.5,76.6,57.5,76.6,57.4L76.6,57.4z"/>
</svg>
