<?xml version="1.0" encoding="utf-8"?><!DOCTYPE svg PUBLIC "-//W3C//DTD SVG 1.1//EN" "http://www.w3.org/Graphics/SVG/1.1/DTD/svg11.dtd"><svg version="1.1" id="Contours" xmlns="http://www.w3.org/2000/svg" xmlns:xlink="http://www.w3.org/1999/xlink" x="0px" y="0px" width="514.153259px" height="514.153259px" viewBox="-0.000001 -0.000000 514.153259 1355.967285" enable-background="new 0 0 514.153259 514.153259" xml:space="preserve" stroke="black" fill="none" stroke-linecap='round' stroke-linejoin='round'><path class="selected"  fill="#000000" opacity="1.000000" stroke="none" 
 	d="
M188.098141 306.195942 C188.957753 311.097120 189.072259 316.989867 185.170426 320.077936 C134.725238 360.002275 66.968266 379.586205 4.109767 365.893921 C-0.021158 364.994094 -1.108764 359.062025 1.169103 355.500347 C3.446969 351.938669 7.642561 350.203989 11.533739 348.550824 C40.187157 336.377437 65.590145 317.818673 90.707188 299.424546 C109.340340 285.778808 128.867883 271.009028 137.408749 249.550833 C138.964903 245.641132 142.538612 240.592114 146.075340 242.872230 C167.982291 256.995638 183.595363 280.522807 188.098141 306.195942 M111.207964 347.768681 C110.799627 348.339445 110.391289 348.910209 109.982951 349.480974 C110.617553 350.301903 111.564685 350.874949 112.586362 351.056123 C113.384486 350.458181 113.934807 349.539264 114.085191 348.553404 C113.359612 348.081150 112.442487 347.913286 111.596674 348.097922 z"/><path class="selected"  fill="#000000" opacity="1.000000" stroke="none" 
 	d="
M342.391672 647.056176 C339.266508 645.849137 335.968865 648.116509 333.366517 650.226338 C301.802843 675.816390 267.369973 697.864800 230.920913 715.825375 C213.608904 724.356010 195.642879 732.028895 176.638827 735.393922 C166.415445 737.204166 156.015217 737.745004 145.645626 738.260852 C124.090754 739.333125 102.387341 740.306754 81.006149 737.372999 C59.624958 734.439244 38.365194 727.348045 21.547871 713.822516 C19.772873 709.902738 25.691837 707.308943 29.946788 706.668105 C35.594557 705.817498 41.078777 704.127090 46.506641 702.349699 C143.250713 670.670206 229.807149 608.625444 290.878788 527.180613 C324.186014 553.711815 345.808451 594.414126 349.147153 636.865616 C349.531526 641.752899 346.964800 648.822464 342.391672 647.056175 M286.599898 677.962074 C288.776345 677.956646 290.823338 676.232401 291.198506 674.088527 C288.521866 674.226498 285.940194 675.648978 284.393640 677.837950 C285.125895 677.944314 285.858151 678.050677 286.590407 678.157040 M302.754333 666.458524 C303.855201 665.944507 304.956070 665.430489 306.056938 664.916472 C305.166140 663.252789 302.012013 664.172048 302.154524 666.053819 M89.987522 728.700729 C91.318303 729.544045 92.906790 726.971707 91.556765 726.159554 C90.556899 725.525188 89.927040 727.390415 90.189033 728.545193 M315.488474 657.942764 C316.618336 657.248417 315.981568 655.093366 314.655774 655.124610 C313.556916 655.920769 314.227906 658.051188 315.584683 658.073932 M250.643217 697.201866 C249.515924 697.553822 248.940118 699.067467 249.548467 700.079679 C250.881593 700.598346 251.323834 698.260961 250.676225 696.985484 z"/><path class="selected"  fill="#000000" opacity="1.000000" stroke="none" 
 	d="
M82.090520 491.668405 C119.998306 469.990110 155.811344 443.890631 184.544147 411.006367 C193.504983 400.750824 201.828904 389.790695 212.380839 381.180852 C214.975879 379.063430 219.724197 377.588414 220.918554 380.717506 C227.308937 397.459690 244.860441 407.404118 253.464829 423.123601 C257.845455 431.126633 259.686386 440.232364 261.470976 449.179633 C263.780457 460.758504 266.089937 472.337375 268.399418 483.916246 C268.843549 486.142953 269.272598 488.534010 268.369999 490.617466 C267.467400 492.700923 264.643027 494.084113 262.842467 492.700835 C259.725003 490.305840 255.288112 492.337000 251.873800 494.285591 C200.914076 523.369038 139.406729 525.342969 80.732265 525.561018 C69.156313 525.604037 57.575289 525.607668 46.012305 526.157124 C32.123413 526.817105 18.272000 528.265000 4.546860 530.491527 C1.284817 528.123326 5.723479 523.466001 9.515301 522.098017 C27.852006 515.482654 46.188710 508.867290 64.525414 502.251926 C70.149722 498.362650 76.154532 495.063014 82.090520 491.668405 M188.113076 507.646893 C186.871871 507.634312 187.858566 509.687217 189.071916 509.949001 C191.911838 510.561715 195.008881 509.852953 197.299652 508.066073 C194.468442 506.668617 191.058680 506.494035 188.099547 507.595022 z"/><path class="selected"  fill="#000000" opacity="1.000000" stroke="none" 
 	d="
M12.700030 227.504041 C9.262910 227.504347 5.441086 227.232344 3.072249 224.741881 C5.047293 220.061120 5.784412 214.864490 5.188976 209.819120 C34.174344 193.229956 58.034006 167.822072 72.770517 137.852302 C74.321236 134.698590 76.316871 131.075996 79.799179 130.602545 C82.050521 130.296458 84.218497 131.463361 86.144475 132.668697 C104.254546 144.002559 117.634648 162.654627 122.566664 183.441793 C123.228349 186.230620 123.227965 190.033088 120.522459 190.979458 C110.952295 194.327041 102.590204 200.334489 93.844283 205.463156 C69.380956 219.808616 41.059272 227.501521 12.700030 227.504041 M65.010849 212.591945 C65.255635 211.475351 64.661127 209.681764 63.683242 210.273748 C62.294335 210.975145 63.917697 213.588838 65.162056 212.654717 z"/><path class="selected"  fill="#000000" opacity="1.000000" stroke="none" 
 	d="
M15.706322 26.434544 C17.303151 18.207659 19.952170 10.185597 23.568446 2.625566 C25.083665 -0.542086 29.891901 -0.714654 32.682673 1.416428 C35.473444 3.547509 36.738776 7.073881 37.864571 10.399914 C39.294586 14.624737 40.724602 18.849557 42.154618 23.074377 C43.290555 26.430374 43.732878 31.306058 40.360074 32.391074 C36.028307 33.784585 32.222659 36.558324 27.841938 37.789325 C23.461216 39.020326 17.831635 38.057184 15.922117 33.926830 C14.855538 31.619786 15.222025 28.929641 15.706320 26.434545 z"/><path class="selected"  fill="#000000" opacity="1.000000" stroke="none" 
 	d="
M164.599494 1346.082032 C165.788493 1347.019578 167.598829 1346.106316 168.448680 1344.853135 C169.298531 1343.599953 169.670310 1342.039286 170.683098 1340.913689 C172.529994 1338.861078 175.702998 1338.971033 178.464199 1338.972619 C195.875640 1338.982629 212.354293 1328.402295 229.673208 1330.194936 C230.148645 1334.705593 230.596960 1339.428628 228.904989 1343.636870 C226.175892 1350.424638 218.615494 1353.998818 211.403605 1355.227805 C202.082490 1356.816227 192.532967 1355.560820 183.185611 1354.134921 C176.336127 1353.090062 168.828716 1351.570277 164.599494 1346.082032 M194.019374 1345.654903 C192.537765 1344.415039 189.999379 1344.796054 188.947069 1346.416262 C190.531960 1347.655217 193.091851 1347.365042 194.359213 1345.802770 z"/><path class="selected"  fill="#000000" opacity="1.000000" stroke="none" 
 	d="
M367.309027 1180.207629 C356.823509 1192.292474 355.404489 1209.538171 354.479936 1225.511109 C353.705939 1238.882977 352.994707 1252.704601 357.647953 1265.264586 C358.696403 1268.094550 359.990647 1271.343717 358.496325 1273.965729 C357.494133 1275.724225 355.506866 1276.631837 353.646637 1277.429487 C317.465052 1292.943839 281.135458 1308.510189 243.130701 1318.778620 C205.125944 1329.047051 165.117882 1333.903493 126.251207 1327.643794 C126.801084 1321.401779 133.915665 1318.339808 139.833087 1316.278439 C185.132625 1300.498148 222.734054 1268.654355 259.192869 1237.480321 C280.125639 1219.581800 301.058409 1201.683278 321.991179 1183.784756 C328.031167 1178.620277 335.428363 1175.361041 342.708286 1172.174190 C354.854097 1166.857254 366.999907 1161.540318 379.145717 1156.223381 C381.316206 1160.481663 379.792034 1165.789481 377.036931 1169.695039 C374.281828 1173.600597 370.441336 1176.597558 367.309027 1180.207629 M280.670934 1298.859299 C278.216550 1297.618626 275.170596 1297.624200 272.720770 1298.873848 C275.259951 1301.419867 279.104021 1302.589042 282.630800 1301.887990 C282.363880 1300.732964 281.587760 1299.705350 280.549800 1299.132664 M343.272940 1254.646433 C342.505480 1256.589305 343.163799 1259.000967 344.811964 1260.284439 C346.203155 1257.637664 346.629648 1254.496880 345.994641 1251.574965 C345.232678 1250.815864 343.853939 1250.808573 343.083990 1251.559573 C343.086295 1252.561666 343.088601 1253.563759 343.090906 1254.565852 M222.948435 1314.166744 C223.551801 1312.215844 220.844482 1310.589009 218.935600 1311.314428 C217.026718 1312.039847 215.951805 1314.019656 215.039757 1315.846740 C217.546268 1315.217675 220.052777 1314.588607 222.559285 1313.959540 M240.402555 1310.048836 C240.270446 1311.552843 240.138337 1313.056850 240.006228 1314.560857 C240.743154 1315.038824 241.674843 1315.206050 242.531993 1315.014198 C243.922082 1313.348715 242.743246 1310.323098 240.592812 1310.037067 M301.623882 1287.221781 C300.472680 1287.576420 299.925516 1289.169882 300.616010 1290.156924 C301.773784 1289.635862 302.931561 1289.114797 304.089337 1288.593731 C304.629049 1287.521352 302.789885 1286.929091 301.606289 1287.130060 M321.656693 1242.219351 C322.694681 1241.751238 322.856665 1240.069124 321.927079 1239.411538 C320.997492 1238.753952 319.465300 1239.466785 319.369517 1240.601411 C319.762234 1241.444181 320.672458 1242.018290 321.602197 1242.009641 M283.025033 1234.545933 C283.464460 1233.924913 282.619445 1233.056912 281.868489 1233.178675 C281.117532 1233.300439 280.593634 1233.965769 280.146909 1234.581560 C280.986366 1235.266316 282.301461 1235.282535 283.157552 1234.618693 M259.043296 1247.567420 C259.264948 1246.737811 259.132618 1245.819762 258.685693 1245.086523 C257.986949 1245.568214 257.210875 1246.193058 257.231421 1247.041498 C257.251967 1247.889938 258.758451 1248.312243 258.879417 1247.472220 M192.661807 1299.122867 C193.259380 1298.109490 192.716436 1296.612314 191.608203 1296.217540 C190.535419 1297.013979 191.279614 1299.112005 192.614476 1299.054424 M179.639774 1307.073458 C178.930027 1307.796946 178.844377 1309.046550 179.448772 1309.860112 C180.942618 1309.835834 181.128660 1307.088677 179.651726 1306.863211 z"/><path class="selected"  fill="#000000" opacity="1.000000" stroke="none" 
 	d="
M64.672270 56.099948 C68.088467 60.807269 71.504663 65.514591 74.920860 70.221912 C77.282788 73.476513 77.533478 77.922592 76.366301 81.770815 C75.199124 85.619039 72.775063 88.961497 70.128525 91.989195 C64.098103 98.888133 56.679773 104.568841 48.447198 108.592029 C39.554395 112.937864 30.260159 116.461822 20.721539 119.104356 C17.450804 120.010465 14.141391 120.815037 10.770949 121.213619 C8.315192 119.104833 8.318946 115.135257 9.839697 112.277805 C11.360447 109.420352 14.022673 107.383426 16.523348 105.328106 C27.937693 95.946600 37.515864 84.339584 44.560483 71.352158 C47.537614 65.863533 50.111451 59.942864 50.284992 53.701214 C50.374866 50.468785 54.540360 48.672877 57.608340 49.694725 C60.676320 50.716573 62.772971 53.482824 64.672270 56.099948 z"/><path class="selected"  fill="#000000" opacity="1.000000" stroke="none" 
 	d="
M68.469668 984.601855 C65.994915 985.344940 63.163193 984.762329 61.182800 983.102625 C63.768529 979.691419 67.536408 977.413052 71.201015 975.201041 C189.538110 903.771138 297.686838 815.490789 391.366611 713.854186 C426.025034 752.619814 439.433034 809.299842 425.816499 859.485201 C425.166833 861.879622 424.322208 864.454001 422.258764 865.831505 C416.360863 869.768796 410.893562 874.307907 405.366410 878.750664 C315.208861 951.219831 202.523947 1000.279617 86.881802 997.622854 C82.535022 997.522991 78.018240 997.307259 74.178748 995.266972 C70.339256 993.226685 67.402601 988.816811 68.469667 984.601856 M78.316914 984.483963 C78.963139 986.351829 81.272642 987.446991 83.127860 986.765305 C83.915338 984.092573 80.361431 982.341188 77.597340 981.989867 C76.809081 982.646312 77.131600 984.163370 78.118732 984.442379 M359.623122 903.983313 C361.677394 903.896736 363.598160 902.406134 364.191995 900.437660 C361.638964 899.549657 358.543027 901.790709 358.589167 904.493374 M366.044745 834.551420 C365.922995 835.361970 366.770090 836.157222 367.571348 835.984594 C368.730248 835.291645 369.370213 833.827102 369.091433 832.505924 C367.784767 831.756297 365.872028 833.086278 366.119793 834.572188 M405.527675 870.944937 C406.453620 870.516132 405.501585 868.759114 404.636724 869.300653 C403.369837 869.759837 404.768624 872.136927 405.785226 871.252405 M326.125183 845.451065 C325.818683 844.651445 324.536293 844.493255 324.044663 845.194421 C323.553032 845.895587 324.138813 847.047286 324.995020 847.062910 C325.442604 846.620898 325.890189 846.178885 326.337775 845.736871 M423.599913 836.068153 C423.791652 834.718646 421.824893 833.470533 421.008034 834.561712 C420.959329 835.722655 422.532886 836.570653 423.475774 835.891587 z"/><path class="selected"  fill="#000000" opacity="1.000000" stroke="none" 
 	d="
M471.174744 1102.250604 C461.437469 1110.330974 450.370353 1116.624611 439.367951 1122.873936 C432.313846 1126.880640 425.173885 1130.923876 417.369602 1133.139103 C407.849978 1135.841226 397.797887 1135.701581 387.926293 1136.391766 C360.327795 1138.321347 333.687428 1146.821489 306.811605 1153.385826 C233.317869 1171.336447 156.429518 1175.103256 84.773964 1199.373311 C81.090619 1200.620876 78.582972 1194.585363 80.988925 1191.530066 C83.394878 1188.474769 87.751784 1187.998339 91.622509 1187.622922 C130.702616 1183.832586 167.013211 1166.118920 200.993625 1146.447804 C308.733037 1084.077918 403.079223 998.701884 475.867218 897.708364 C480.633987 902.156874 484.227185 907.702360 487.527524 913.325446 C504.941145 942.994692 515.610558 977.232275 513.991670 1011.596173 C512.372781 1045.960070 497.648540 1080.281616 471.174744 1102.250602 M271.332629 1150.492522 C266.873466 1151.623813 262.529452 1153.208458 258.389247 1155.214114 C264.371773 1156.436735 270.786222 1155.412778 276.090782 1152.388366 C276.250939 1150.384916 273.280754 1149.998281 271.332629 1150.492519 M223.570173 1160.452256 C223.574476 1159.105489 221.565558 1159.033164 220.282715 1159.443181 C215.345137 1161.021321 210.407558 1162.599458 205.469979 1164.177595 C211.046910 1165.279230 216.973936 1164.526795 222.098691 1162.066583 C222.792679 1161.733426 223.567714 1161.222067 223.570175 1160.452257 M488.016747 1073.497124 C489.632540 1071.587184 490.657418 1069.184202 490.917433 1066.696020 C487.752708 1068.582657 485.498354 1071.927013 484.936778 1075.568372 C486.236984 1076.416857 488.281042 1075.125651 488.073348 1073.587041 M492.478468 1065.946975 C493.806664 1064.749394 494.344128 1062.747790 493.794469 1061.045974 C491.604099 1060.244732 490.079617 1063.329489 490.046341 1065.661571 C490.883045 1065.846804 491.719749 1066.032037 492.556454 1066.217271 M465.787352 1016.457706 C463.516560 1017.530946 464.039560 1021.646225 466.506620 1022.117344 C467.637233 1020.153117 467.414991 1017.497731 465.973606 1015.748766 M506.017346 990.566739 C506.239457 988.941815 506.177189 986.811230 504.633604 986.257100 C503.452405 986.662445 502.744002 988.102573 503.143854 989.285642 C503.543706 990.468710 504.980527 991.183798 506.165441 990.789449 M457.621296 1101.217178 C456.465335 1101.590949 455.923395 1103.192243 456.614764 1104.191222 C458.038273 1103.771159 459.295344 1102.811312 460.075536 1101.548721 C459.352230 1101.079764 458.438878 1100.913980 457.596901 1101.098818 M456.074176 1041.539498 C457.106731 1041.216530 456.618659 1039.260597 455.555420 1039.460600 C454.742388 1039.396434 454.013723 1040.296291 454.245551 1041.078208 C454.477378 1041.860125 455.578765 1042.217398 456.225436 1041.720453 M356.010849 1100.591945 C356.255635 1099.475351 355.661127 1097.681764 354.683242 1098.273748 C353.294335 1098.975145 354.917697 1101.588838 356.162056 1100.654717 M466.125183 1052.451065 C465.818683 1051.651445 464.536293 1051.493255 464.044663 1052.194421 C463.553032 1052.895587 464.138813 1054.047286 464.995020 1054.062910 C465.442604 1053.620898 465.890189 1053.178885 466.337775 1052.736871 z"/></svg>