<svg id="Calque_1" data-name="Calque 1" xmlns="http://www.w3.org/2000/svg" viewBox="0 0 46 44"><defs><style>.cls-1{fill:#fff;}</style></defs><title>Plan de travail 7</title><path class="cls-1" d="M44.72,20.61c-.39-.53-9.66-13-21.51-13S2.09,20.08,1.7,20.61a1.46,1.46,0,0,0,0,1.69c.39.54,9.67,13,21.51,13s21.12-12.5,21.51-13A1.43,1.43,0,0,0,44.72,20.61ZM23.21,32.47c-8.72,0-16.28-8.3-18.52-11,2.24-2.71,9.78-11,18.52-11s16.29,8.3,18.52,11C39.5,24.17,32,32.47,23.21,32.47Z"/><path class="cls-1" d="M23.21,12.84a8.62,8.62,0,1,0,8.62,8.62A8.63,8.63,0,0,0,23.21,12.84Zm0,14.36A5.75,5.75,0,1,1,29,21.46,5.75,5.75,0,0,1,23.21,27.2Z"/></svg>