<?xml version="1.0" encoding="utf-8"?>
<!-- Generator: Adobe Illustrator 22.0.1, SVG Export Plug-In . SVG Version: 6.00 Build 0)  -->
<svg version="1.1" id="Calque_1" xmlns="http://www.w3.org/2000/svg" xmlns:xlink="http://www.w3.org/1999/xlink" x="0px" y="0px"
	 viewBox="0 0 550 687.5" style="enable-background:new 0 0 550 687.5;" xml:space="preserve">
<g>
	<path d="M19,182.6c17.4,0,25.5,7.6,35.8,17.3c11.4,10.6,24.2,22.7,49.5,22.7c25.3,0,38.2-12.1,49.5-22.7
		c10.3-9.7,18.4-17.3,35.8-17.3c17.4,0,25.5,7.6,35.8,17.3c11.4,10.6,24.2,22.7,49.5,22.7s38.2-12.1,49.5-22.7
		c10.3-9.7,18.4-17.3,35.8-17.3c17.4,0,25.5,7.6,35.8,17.3c11.4,10.6,24.2,22.7,49.5,22.7s38.2-12.1,49.5-22.7
		c10.3-9.7,18.5-17.3,35.8-17.3c5.5,0,10-4.5,10-10s-4.5-10-10-10c-25.3,0-38.2,12.1-49.5,22.7c-10.3,9.7-18.4,17.3-35.8,17.3
		s-25.5-7.6-35.8-17.3c-11.4-10.6-24.2-22.7-49.5-22.7c-25.3,0-38.2,12.1-49.5,22.7c-10.3,9.7-18.4,17.3-35.8,17.3
		s-25.5-7.6-35.8-17.3c-11.4-10.6-24.2-22.7-49.5-22.7s-38.2,12.1-49.5,22.7c-10.3,9.7-18.4,17.3-35.8,17.3s-25.5-7.6-35.8-17.3
		c-11.4-10.6-24.2-22.7-49.5-22.7c-5.5,0-10,4.5-10,10S13.5,182.6,19,182.6z"/>
	<path d="M531,245c-25.3,0-38.2,12.1-49.5,22.7c-10.3,9.7-18.4,17.3-35.8,17.3s-25.5-7.6-35.8-17.3c-11.4-10.6-24.2-22.7-49.5-22.7
		c-25.3,0-38.2,12.1-49.5,22.7c-10.3,9.7-18.4,17.3-35.8,17.3s-25.5-7.6-35.8-17.3C227.8,257.1,215,245,189.7,245
		s-38.2,12.1-49.5,22.7c-10.3,9.7-18.4,17.3-35.8,17.3s-25.5-7.6-35.8-17.3C57.2,257.1,44.3,245,19,245c-5.5,0-10,4.5-10,10
		c0,5.5,4.5,10,10,10c17.4,0,25.5,7.6,35.8,17.3C66.2,292.9,79,305,104.3,305c25.3,0,38.2-12.1,49.5-22.7
		c10.3-9.7,18.4-17.3,35.8-17.3c17.4,0,25.5,7.6,35.8,17.3c11.4,10.6,24.2,22.7,49.5,22.7s38.2-12.1,49.5-22.7
		c10.3-9.7,18.4-17.3,35.8-17.3c17.4,0,25.5,7.6,35.8,17.3c11.4,10.6,24.2,22.7,49.5,22.7s38.2-12.1,49.5-22.7
		c10.3-9.7,18.5-17.3,35.8-17.3c5.5,0,10-4.5,10-10S536.5,245,531,245z"/>
	<path d="M531,327.4c-25.3,0-38.2,12.1-49.5,22.7c-10.3,9.7-18.4,17.3-35.8,17.3s-25.5-7.6-35.8-17.3
		c-11.4-10.6-24.2-22.7-49.5-22.7c-25.3,0-38.2,12.1-49.5,22.7c-10.3,9.7-18.4,17.3-35.8,17.3s-25.5-7.6-35.8-17.3
		c-11.4-10.6-24.2-22.7-49.5-22.7s-38.2,12.1-49.5,22.7c-10.3,9.7-18.4,17.3-35.8,17.3s-25.5-7.6-35.8-17.3
		c-11.4-10.6-24.2-22.7-49.5-22.7c-5.5,0-10,4.5-10,10s4.5,10,10,10c17.4,0,25.5,7.6,35.8,17.3c11.4,10.6,24.2,22.7,49.5,22.7
		c25.3,0,38.2-12.1,49.5-22.7c10.3-9.7,18.4-17.3,35.8-17.3c17.4,0,25.5,7.6,35.8,17.3c11.4,10.6,24.2,22.7,49.5,22.7
		s38.2-12.1,49.5-22.7c10.3-9.7,18.4-17.3,35.8-17.3c17.4,0,25.5,7.6,35.8,17.3c11.4,10.6,24.2,22.7,49.5,22.7s38.2-12.1,49.5-22.7
		c10.3-9.7,18.5-17.3,35.8-17.3c5.5,0,10-4.5,10-10S536.5,327.4,531,327.4z"/>
</g>
</svg>
